# Blender v3.1.2 OBJ File: ''
# www.blender.org
mtllib barrierWhite.mtl
o barrierWhite
v -0.250000 -0.000000 0.123000
v 0.000000 -0.000000 0.123000
v 0.000000 0.024600 0.123000
v -0.250000 0.024600 0.123000
v 0.000000 0.000000 0.000000
v -0.250000 0.000000 0.000000
v -0.250000 0.024600 0.000000
v 0.000000 0.024600 0.000000
v 0.000000 0.073800 0.101475
v -0.250000 0.073800 0.101475
v -0.250000 0.073800 0.021525
v -0.250000 0.131200 0.029920
v -0.250000 0.131200 0.093080
v 0.000000 0.073800 0.021525
v 0.000000 0.131200 0.029920
v 0.000000 0.131200 0.093080
vt -9.842520 0.000000
vt 0.000000 0.000000
vt 0.000000 0.968504
vt -9.842520 0.968504
vt 9.842520 0.968504
vt 0.000000 0.968504
vt 0.000000 0.000000
vt -9.842520 -1.053671
vt 0.000000 -1.053671
vt 0.000000 1.060603
vt 0.000000 0.968504
vt 0.000000 0.000000
vt 4.842520 0.000000
vt 1.177943 5.165354
vt 0.847441 2.905512
vt 3.995079 2.905512
vt 3.664577 5.165354
vt 4.842520 0.968504
vt 9.842520 3.001576
vt 0.000000 3.001576
vt 0.000000 0.887302
vt -9.842520 4.842520
vt -9.842520 0.000000
vt 0.000000 3.664577
vt 0.000000 1.177943
vt 9.842520 1.177943
vt -9.842520 2.296798
vt 0.000000 2.296798
vt 0.000000 4.580681
vt -9.842520 4.580681
vt 0.000000 2.997562
vt 9.842520 2.997562
vt 9.842520 5.281445
vt 0.000000 5.281445
vt 9.842520 0.000000
vt -9.842520 1.060603
vt 9.842520 0.887302
vt 0.000000 4.842520
vt -0.847441 2.905512
vt -4.842520 0.000000
vt -1.177943 5.165354
vt -3.995079 2.905512
vt -3.664577 5.165354
vt -4.842520 0.968504
vt 9.842520 3.664577
vn 0.0000 -0.0000 1.0000
vn 0.0000 0.0000 -1.0000
vn 0.0000 0.4008 0.9162
vn -1.0000 -0.0000 0.0000
vn 0.0000 0.4008 -0.9162
vn 0.0000 -1.0000 -0.0000
vn 0.0000 1.0000 0.0000
vn 0.0000 0.1447 0.9895
vn 0.0000 0.1447 -0.9895
vn 1.0000 0.0000 0.0000
usemtl grey.003
s 1
f 1/1/1 2/2/1 3/3/1
f 3/3/1 4/4/1 1/1/1
f 7/5/2 8/6/2 5/7/2
f 4/8/3 3/9/3 9/10/3
f 7/11/4 6/12/4 1/13/4
f 1/13/4 12/14/4 11/15/4
f 1/13/4 10/16/4 12/14/4
f 10/16/4 13/17/4 12/14/4
f 1/13/4 4/18/4 10/16/4
f 11/19/5 14/20/5 8/21/5
f 1/22/6 6/23/6 5/7/6
f 16/24/7 15/25/7 12/26/7
f 10/27/8 9/28/8 16/29/8
f 16/29/8 13/30/8 10/27/8
f 14/31/9 11/32/9 12/33/9
f 12/33/9 15/34/9 14/31/9
f 5/7/2 6/35/2 7/5/2
f 9/10/3 10/36/3 4/8/3
f 1/13/4 11/15/4 7/11/4
f 8/21/5 7/37/5 11/19/5
f 5/7/6 2/38/6 1/22/6
f 5/7/10 8/6/10 14/39/10
f 14/39/10 2/40/10 5/7/10
f 14/39/10 15/41/10 2/40/10
f 15/41/10 9/42/10 2/40/10
f 15/41/10 16/43/10 9/42/10
f 9/42/10 3/44/10 2/40/10
f 12/26/7 13/45/7 16/24/7
