# Blender v3.1.2 OBJ File: ''
# www.blender.org
mtllib billboardLow.mtl
o billboardLow
v -0.000000 0.620000 0.000000
v -0.000000 0.190000 0.000000
v 0.063800 0.190000 0.000000
v 0.063800 0.690000 0.000000
v -0.936200 0.690000 0.000000
v -0.872400 0.620000 0.000000
v -0.936200 0.190000 0.000000
v -0.872400 0.190000 0.000000
v -0.840500 0.190000 0.000000
v -0.031900 0.190000 0.000000
v -0.031900 0.588100 0.000000
v -0.840500 0.588100 0.000000
v 0.063800 0.190000 -0.040000
v 0.063800 0.690000 -0.040000
v -0.936200 0.690000 -0.040000
v -0.936200 0.190000 -0.040000
v -0.000000 0.620000 0.031900
v -0.000000 0.000000 0.000000
v -0.000000 0.031900 0.031900
v -0.000000 0.157849 0.031900
v -0.000000 0.189749 0.031900
v 0.000000 0.031900 0.404300
v 0.000000 0.031900 0.436200
v -0.000000 -0.000000 0.031900
v 0.000000 -0.000000 0.436200
v -0.031900 -0.000000 0.436200
v -0.031900 -0.000000 0.404300
v -0.031900 -0.000000 0.031900
v -0.840500 -0.000000 0.404300
v -0.840500 -0.000000 0.436200
v -0.872400 -0.000000 0.436200
v -0.840500 0.000000 0.031900
v -0.872400 -0.000000 0.031900
v -0.840500 0.000000 0.000000
v -0.031900 0.000000 0.000000
v -0.872400 0.000000 0.000000
v -0.031900 0.031900 0.436200
v -0.031900 0.189749 0.031900
v -0.031900 0.031900 0.404300
v -0.031900 0.157849 0.031900
v -0.872400 0.031900 0.436200
v -0.840500 0.031900 0.436200
v -0.840500 0.189749 0.031900
v -0.872400 0.189749 0.031900
v -0.872400 0.031900 0.031900
v -0.872400 0.031900 0.404300
v -0.872400 0.620000 0.031900
v -0.872400 0.157849 0.031900
v -0.031900 0.012760 0.436200
v -0.031900 0.012760 0.404300
v -0.840500 0.012760 0.404300
v -0.840500 0.012760 0.436200
v -0.840500 0.031900 0.031900
v -0.840500 0.588100 0.031900
v -0.840500 0.157849 0.031900
v -0.840500 0.031900 0.404300
v -0.840500 0.012760 0.031900
v -0.840500 0.012760 0.000000
v -0.031900 0.031900 0.031900
v -0.031900 0.012760 0.031900
v -0.031900 0.012760 0.000000
v -0.031900 0.588100 0.031900
vt -0.000001 24.409451
vt -0.000001 7.480315
vt 2.511811 7.480315
vt 2.511811 27.165350
vt -36.858269 27.165350
vt -34.346458 24.409451
vt -36.858269 7.480315
vt -34.346458 7.480315
vt -33.090549 7.480315
vt -1.255906 7.480315
vt -1.255906 23.153540
vt -33.090549 23.153540
vt -2.511811 0.000000
vt -2.511811 -1.574803
vt 36.858269 -1.574803
vt -0.000001 -0.000000
vt -36.858269 -1.574803
vt 2.511811 -1.574803
vt -1.255906 -0.000000
vt 1.574803 7.480315
vt 1.574803 27.165350
vt 0.000000 27.165350
vt 0.000000 7.480315
vt 36.858269 0.000000
vt 2.511811 -0.000000
vt -33.090549 -0.000000
vt -34.346458 -0.000000
vt -36.858269 -0.000000
vt -1.574803 27.165350
vt -1.574803 7.480315
vt 0.000000 7.480315
vt 0.000000 27.165350
vt 0.000000 1.000000
vt 1.000000 1.000000
vt 1.000000 2.000000
vt 0.000000 2.000000
vt -1.255906 24.409451
vt 0.000000 0.000000
vt -1.255905 1.255906
vt -1.255906 7.470432
vt -1.255906 6.214527
vt -17.173229 1.255906
vt -15.917320 1.255906
vt -1.255905 0.000000
vt -33.090549 15.917320
vt -1.255906 15.917320
vt -1.255906 17.173229
vt -33.090549 17.173229
vt -34.346458 17.173229
vt -33.090549 1.255906
vt -34.346458 1.255906
vt -0.000001 1.255905
vt -1.255906 1.255906
vt -1.255906 0.000000
vt -34.346458 0.000000
vt -33.090549 0.000000
vt -0.000001 1.547014
vt -1.255906 1.547014
vt -1.255906 -15.540450
vt 0.000001 0.801314
vt 0.000000 -14.675930
vt 1.255906 -14.675930
vt -33.090549 1.547014
vt -34.346458 1.547014
vt -34.346458 -15.540450
vt 1.255905 1.255905
vt 1.255905 -0.000001
vt 17.173229 -0.000001
vt 15.917320 1.255905
vt 1.255905 24.409451
vt -0.000001 24.409451
vt -0.000001 7.480314
vt -0.000001 -0.000001
vt 1.255905 7.470432
vt 17.173229 1.255905
vt 1.255906 17.173229
vt 1.255906 15.917320
vt 33.090549 15.917320
vt 33.090549 17.173229
vt -1.255904 1.255906
vt -1.255904 23.153540
vt -1.255904 7.470432
vt -1.255904 0.502362
vt 0.000002 0.502362
vt 0.000002 7.480315
vt 0.000002 23.153540
vt -15.917320 1.255906
vt -1.255904 0.000000
vt -15.917320 0.502362
vt -15.917320 0.000000
vt 1.255906 0.502362
vt 1.255906 0.000000
vt 33.090549 0.000000
vt -33.090549 0.000000
vt -1.255906 0.000000
vt -1.255906 0.502362
vt -0.000001 0.000000
vt -0.000001 1.255906
vt 33.090549 0.801314
vt 33.090549 -14.675930
vt 34.346458 -14.675930
vt 34.346458 0.801314
vt 1.255905 0.502362
vt 15.917320 0.000000
vt 15.917320 1.255906
vt 1.255905 1.255906
vt -0.000000 23.153540
vt -0.000000 7.480315
vt -0.000000 0.502362
vt 15.917320 0.502362
vt 17.173229 1.255906
vt 1.255905 7.470432
vt 1.255905 23.153540
vt 1.255905 6.214527
vt 1.255906 0.000000
vt 1.255906 0.502362
vt 1.255906 7.480315
vt 33.090549 0.000000
vt 34.346458 0.000000
vt 34.346458 7.480315
vt -0.000001 6.214527
vt -1.255906 6.214527
vt -1.255906 1.255906
vt -1.255906 7.470432
vt -0.000001 7.470432
vt -0.000001 24.409451
vt -1.255906 23.153540
vt -33.090549 23.153540
vt -34.346458 24.409451
vt -34.346458 7.470432
vt -33.090549 7.470432
vt -1.255907 0.000000
vt -1.255907 1.255906
vt -33.090549 1.255906
vt -33.090549 0.000000
vt -33.090549 0.000000
vt -1.255906 0.000000
vt -1.255906 0.502362
vt -33.090549 0.502362
vt 33.090549 1.255906
vt 34.346458 1.255906
vt 34.346458 15.917320
vt 0.000001 1.255906
vt 0.000001 0.000000
vt 34.346458 0.000000
vt 33.090549 0.000000
vt 33.090549 1.255906
vt 1.255906 1.255906
vt -17.173229 0.000000
vt -0.000000 17.173229
vt -0.000001 -15.540450
vt 1.255906 0.801314
vt -33.090549 -15.540450
vt 1.255905 6.214526
vt -1.255904 6.214527
vt -17.173229 1.255906
vt -17.173229 0.502362
vt 1.255906 15.917320
vt 0.000000 15.917320
vt 0.000001 1.255905
vt 33.090549 0.502362
vt -33.090549 0.502362
vt -1.255906 1.255906
vt -34.346458 1.255906
vt -34.346458 0.000001
vt -33.090549 1.255906
vt 1.255905 0.000000
vt 17.173229 0.502362
vt 33.090549 0.502362
vt 33.090549 7.480315
vt -34.346458 1.255906
vt -33.090549 1.255906
vt -33.090549 6.214527
vt -34.346458 6.214527
vt 33.090549 15.917320
vt 34.346458 1.255906
vt 1.255906 0.000000
vn -0.0000 -0.0000 1.0000
vn 0.0000 1.0000 0.0000
vn 0.0000 -1.0000 0.0000
vn 1.0000 0.0000 0.0000
vn -1.0000 -0.0000 0.0000
vn 0.0000 0.0000 -1.0000
vn 0.0000 0.9315 0.3637
vn 0.0000 -0.9473 -0.3204
vn 0.1246 0.8593 0.4961
vn -0.3565 0.0000 0.9343
vn 0.1422 -0.1826 -0.9728
vn 0.2083 0.1171 -0.9710
usemtl bark.002
s 1
f 1/1/1 2/2/1 3/3/1
f 3/3/1 4/4/1 1/1/1
f 1/1/1 4/4/1 5/5/1
f 6/6/1 5/5/1 7/7/1
f 7/7/1 8/8/1 6/6/1
f 9/9/1 10/10/1 11/11/1
f 6/6/1 1/1/1 5/5/1
f 11/11/1 12/12/1 9/9/1
usemtl road.002
f 4/13/2 14/14/2 15/15/2
f 2/16/3 16/17/3 13/18/3
f 2/16/3 10/19/3 16/17/3
f 13/20/4 14/21/4 4/22/4
f 4/22/4 3/23/4 13/20/4
f 15/15/2 5/24/2 4/13/2
f 13/18/3 3/25/3 2/16/3
f 10/19/3 9/26/3 16/17/3
f 9/26/3 8/27/3 16/17/3
f 8/27/3 7/28/3 16/17/3
f 15/29/5 16/30/5 7/31/5
f 7/31/5 5/32/5 15/29/5
usemtl tankco.002
f 13/33/6 16/34/6 15/35/6
f 15/35/6 14/36/6 13/33/6
usemtl grey.006
f 17/37/4 18/38/4 2/2/4
f 17/37/4 19/39/4 18/38/4
f 17/37/4 21/40/4 20/41/4
f 21/40/4 23/42/4 22/43/4
f 24/44/4 18/38/4 19/39/4
f 29/45/3 27/46/3 26/47/3
f 26/47/3 30/48/3 29/45/3
f 31/49/3 32/50/3 29/45/3
f 31/49/3 33/51/3 32/50/3
f 24/52/3 28/53/3 35/54/3
f 33/51/3 36/55/3 34/56/3
f 35/54/3 18/38/3 24/52/3
f 21/57/7 38/58/7 37/59/7
f 20/60/8 22/61/8 39/62/8
f 43/63/7 44/64/7 41/65/7
f 45/66/9 33/67/5 31/68/5
f 31/68/5 46/69/5 45/66/9
f 33/67/5 45/66/9 47/70/5
f 33/67/5 6/71/5 8/72/5
f 8/72/5 36/73/5 33/67/5
f 45/66/9 44/74/10 47/70/5
f 46/69/5 41/75/5 44/74/10
f 46/69/5 31/68/5 41/75/5
f 49/76/2 50/77/2 51/78/2
f 51/78/2 52/79/2 49/76/2
f 53/80/4 54/81/4 43/82/4
f 54/81/4 57/83/4 58/84/4
f 9/85/4 12/86/4 54/81/4
f 56/87/4 32/88/4 57/83/4
f 32/88/4 51/89/4 29/90/4
f 50/91/6 27/92/6 29/93/6
f 30/94/1 26/95/1 49/96/1
f 26/95/1 25/97/1 23/98/1
f 55/99/8 56/100/8 46/101/8
f 46/101/8 48/102/8 55/99/8
f 60/103/5 27/104/5 39/105/5
f 60/103/5 39/105/5 59/106/5
f 60/103/5 59/106/5 11/107/5
f 60/103/5 11/107/5 10/108/5
f 10/108/5 61/109/5 60/103/5
f 27/104/5 50/110/4 39/105/5
f 39/105/5 37/111/5 38/112/11
f 62/113/5 11/107/5 59/106/5
f 59/106/5 40/114/5 62/113/5
f 40/114/5 38/112/11 62/113/5
f 2/2/6 18/38/6 35/115/6
f 35/115/6 61/116/6 2/2/6
f 61/116/6 10/117/6 2/2/6
f 61/116/6 35/115/6 34/118/6
f 34/118/6 36/119/6 8/120/6
f 20/121/1 40/122/1 59/123/1
f 38/124/1 21/125/1 17/126/1
f 17/126/1 62/127/1 38/124/1
f 54/128/1 47/129/1 44/130/1
f 44/130/1 43/131/1 54/128/1
f 11/132/3 62/133/3 54/134/3
f 54/134/3 12/135/3 11/132/3
f 32/136/1 28/137/1 60/138/1
f 60/138/1 57/139/1 32/136/1
f 53/140/2 45/141/2 46/142/2
f 17/143/2 1/144/2 6/145/2
f 58/146/2 57/147/2 60/148/2
f 2/2/4 1/1/4 17/37/4
f 17/37/4 20/41/4 19/39/4
f 21/40/4 22/43/4 20/41/4
f 19/39/4 22/43/4 24/44/4
f 22/43/4 25/149/4 24/44/4
f 22/43/4 23/42/4 25/149/4
f 24/52/3 25/150/3 26/47/3
f 26/47/3 27/46/3 24/52/3
f 24/52/3 27/46/3 28/53/3
f 29/45/3 30/48/3 31/49/3
f 28/53/3 32/50/3 34/56/3
f 34/56/3 32/50/3 33/51/3
f 34/56/3 35/54/3 28/53/3
f 37/59/7 23/151/7 21/57/7
f 39/62/8 40/152/8 20/60/8
f 41/65/7 42/153/7 43/63/7
f 33/67/5 47/70/5 6/71/5
f 45/66/9 48/154/5 44/74/10
f 48/154/5 46/69/5 44/74/10
f 43/82/4 55/155/12 53/80/4
f 43/82/4 56/87/4 55/155/12
f 43/82/4 42/156/4 56/87/4
f 42/156/4 52/157/4 56/87/4
f 54/81/4 53/80/4 57/83/4
f 53/80/4 56/87/4 57/83/4
f 54/81/4 58/84/4 9/85/4
f 56/87/4 51/89/4 32/88/4
f 56/87/4 52/157/4 51/89/4
f 39/158/2 22/159/2 19/160/2
f 19/160/2 59/106/2 39/158/2
f 29/93/6 51/161/6 50/91/6
f 49/96/1 52/162/1 30/94/1
f 23/98/1 49/96/1 26/95/1
f 23/98/1 37/163/1 49/96/1
f 30/94/1 52/162/1 41/164/1
f 41/164/1 31/165/1 30/94/1
f 52/162/1 42/166/1 41/164/1
f 60/103/5 28/167/5 27/104/5
f 50/110/4 49/168/5 39/105/5
f 39/105/5 49/168/5 37/111/5
f 38/112/11 40/114/5 39/105/5
f 34/118/6 58/169/6 61/116/6
f 8/120/6 58/169/6 34/118/6
f 8/120/6 9/170/6 58/169/6
f 59/123/1 19/160/1 20/121/1
f 17/126/1 54/128/1 62/127/1
f 17/126/1 47/129/1 54/128/1
f 45/171/1 53/172/1 55/173/1
f 55/173/1 48/174/1 45/171/1
f 46/142/2 56/175/2 53/140/2
f 6/145/2 47/176/2 17/143/2
f 60/148/2 61/177/2 58/146/2
