# Blender v3.1.2 OBJ File: ''
# www.blender.org
mtllib camera_exclusive.mtl
o camera_exclusive
v -0.091902 -0.000000 0.116010
v -0.106902 -0.000000 0.116010
v -0.074402 0.240000 0.078510
v -0.064402 0.240000 0.078510
v -0.074402 0.240000 0.088510
v -0.106902 -0.000000 0.131010
v -0.064402 0.240000 0.088510
v -0.091902 -0.000000 0.131010
v -0.077296 0.330080 0.176834
v -0.029606 0.330080 0.176834
v -0.029606 0.373120 0.176834
v -0.077296 0.373120 0.176834
v -0.029606 0.373120 0.102434
v -0.077296 0.373120 0.102434
v -0.060426 0.403363 0.121034
v -0.060426 0.409000 0.046634
v -0.097626 0.409000 0.046634
v -0.097626 0.403363 0.121034
v -0.097626 0.384150 0.121034
v -0.060426 0.384150 0.121034
v -0.029606 0.330080 0.102434
v -0.060426 0.384150 0.102434
v -0.088326 0.384150 0.102434
v -0.088326 0.384150 0.046634
v -0.097626 0.384150 0.046634
v -0.060426 0.384150 0.046634
v -0.077296 0.330080 0.102434
v 0.000000 -0.000000 0.116010
v -0.015000 -0.000000 0.116010
v -0.042500 0.240000 0.078510
v -0.032500 0.240000 0.078510
v -0.074402 0.240000 0.042500
v -0.106902 0.000000 0.000000
v -0.106902 -0.000000 0.015000
v -0.074402 0.240000 0.052500
v -0.091902 -0.000000 0.015000
v -0.064402 0.240000 0.052500
v -0.042500 0.240000 0.088510
v -0.015000 -0.000000 0.131010
v 0.000000 0.000000 0.000000
v -0.015000 0.000000 0.000000
v -0.042500 0.240000 0.042500
v -0.032500 0.240000 0.042500
v -0.015000 -0.000000 0.015000
v 0.000000 -0.000000 0.015000
v -0.032500 0.240000 0.052500
v -0.042500 0.240000 0.052500
v -0.032500 0.240000 0.088510
v 0.000000 -0.000000 0.131010
v -0.091902 0.000000 0.000000
v -0.064402 0.240000 0.042500
v -0.032500 0.286500 0.088510
v -0.018576 0.286500 0.028576
v -0.018576 0.286500 0.102434
v -0.088326 0.286500 0.102434
v -0.074402 0.286500 0.088510
v -0.074402 0.286500 0.042500
v -0.032500 0.286500 0.042500
v -0.088326 0.286500 0.028576
v -0.018576 0.365550 -0.086801
v -0.088326 0.365550 -0.086801
v -0.088326 0.384150 -0.086801
v -0.018576 0.384150 -0.086801
v -0.018576 0.319050 -0.045281
v -0.018576 0.319050 0.028576
v -0.088326 0.319050 0.028576
v -0.088326 0.319050 -0.045281
v -0.088326 0.319050 0.102434
v -0.018576 0.384150 0.102434
v -0.018576 0.319050 0.102434
vt 3.618199 -0.705088
vt 4.208750 -0.705088
vt 2.929222 8.858377
vt 2.535522 8.858377
vt 3.484637 8.970280
vt 3.090936 8.970280
vt 4.567314 -0.564780
vt 5.157865 -0.564780
vt -4.567314 -0.411890
vt -3.090936 9.098755
vt -3.484637 9.098755
vt -5.157865 -0.411890
vt -4.208750 -0.899379
vt -3.618199 -0.899379
vt -2.535522 8.696446
vt -2.929222 8.696446
vt 3.043152 4.032821
vt 3.043152 6.961955
vt 1.165598 6.961955
vt -3.843548 15.124020
vt -2.378981 15.124020
vt -2.378981 15.880420
vt -3.843548 15.880420
vt -4.032821 12.995280
vt -4.032821 14.689760
vt -6.961955 14.689760
vt -6.961955 12.995280
vt -3.843548 4.765104
vt -3.477407 4.032821
vt -2.378981 4.032821
vt -3.477407 1.835970
vt 4.765104 15.124020
vt 4.765104 15.880420
vt 1.835970 16.102369
vt -1.835970 15.124020
vt -1.835970 16.102369
vt -4.765104 15.880420
vt -1.165598 4.032821
vt -1.165598 6.961955
vt -3.043152 6.961955
vt 4.032821 14.689760
vt 4.032821 12.995280
vt 6.961955 12.995280
vt 6.961955 14.689760
vt 0.000000 -0.705088
vt 0.590551 -0.705088
vt 1.673228 8.858377
vt 1.673228 8.970280
vt 0.000000 -0.564780
vt 0.590551 -0.564780
vt -1.279528 8.696446
vt -1.673228 8.696446
vt -0.590551 -0.899379
vt -0.590551 0.000000
vt 0.000000 0.000000
vt -1.673228 9.535060
vt 2.929222 9.595826
vt 2.535522 9.595826
vt 3.618199 0.000000
vt -0.590551 -0.411890
vt -0.000000 -0.411890
vt -1.673228 9.098755
vt -4.208750 0.590551
vt -4.208750 0.000000
vt -3.618199 0.000000
vt -0.000000 4.567314
vt -0.000000 5.157865
vt -0.590551 5.157865
vt -3.618199 4.567314
vt -3.618199 5.157865
vt -4.208750 5.157865
vt -0.590551 0.590551
vt -0.590551 0.000000
vt -3.043152 12.995280
vt -1.165598 12.995280
vt -1.165598 14.689760
vt -3.043152 14.689760
vt 1.165598 4.032821
vt -2.378981 -3.551590
vt -2.378981 -0.614059
vt -3.843548 -0.614059
vt -3.843548 -3.551590
vt -2.378981 4.765104
vt -3.843548 1.835970
vt 1.835970 15.124020
vt -4.032821 15.124020
vt -4.765104 15.124020
vt -3.043152 4.032821
vt 1.279528 8.858377
vt 2.066929 8.970280
vt -4.208750 0.091167
vt -3.618199 0.091167
vt -2.535522 9.654633
vt -2.929222 9.654633
vt 3.484637 9.577872
vt 3.090936 9.577872
vt 4.567314 0.067227
vt 5.157865 0.067227
vt 0.590551 0.000000
vt 1.673228 9.595826
vt 1.279528 9.595826
vt -0.590551 0.091167
vt 0.000000 0.091167
vt -1.279528 9.654633
vt -1.673228 9.654633
vt -4.567314 0.000000
vt -3.090936 9.535060
vt -3.484637 9.535060
vt -5.157865 0.000000
vt -0.000000 -0.899379
vt -2.066929 9.535060
vt 1.673228 9.577872
vt 0.000000 0.067227
vt 0.590551 0.067227
vt 2.066929 9.577872
vt 4.208750 0.000000
vt -2.066929 9.098755
vt -3.618199 0.590551
vt -0.590551 4.567314
vt -4.208750 4.567314
vt 0.000000 0.590551
vt -1.279528 3.484637
vt -0.731343 1.125044
vt -0.731343 4.032821
vt -3.477407 4.032821
vt -2.929222 3.484637
vt -2.929222 1.673228
vt -1.279528 1.673228
vt -3.477407 1.125044
vt 0.731343 14.391730
vt 3.477407 14.391730
vt 3.477407 15.124020
vt -0.731343 -1.782732
vt -0.731343 1.125044
vt -3.477407 1.125044
vt -3.477407 -1.782732
vt 1.125044 12.561020
vt 4.032821 12.561020
vt 1.835970 15.124020
vt -1.782732 12.561020
vt 3.477407 12.561020
vt 0.731343 12.561020
vt 0.731343 11.279530
vt -1.673228 9.448819
vt -1.673228 11.279530
vt -3.484637 11.279530
vt -2.066929 9.448819
vt -3.484637 9.448819
vt -3.090936 9.448819
vt 2.929222 11.279530
vt 1.279528 11.279530
vt 1.279528 9.448819
vt 0.731343 4.032821
vt 0.731343 -3.417347
vt 3.477407 -3.417347
vt 2.378981 1.835970
vt 3.477407 1.835970
vt -1.165598 12.995280
vt -3.477407 12.561020
vt -0.731343 12.561020
vt -0.731343 15.124020
vt -1.165598 14.689760
vt -3.043152 14.689760
vt -3.043152 12.995280
vt -3.477407 15.124020
vt -3.477407 11.279530
vt -0.731343 11.279530
vt -1.279528 11.279530
vt -2.535522 9.448819
vt -1.673228 9.448819
vt -4.032821 12.561020
vt -4.032821 11.279530
vt -1.125044 11.279530
vt -4.032821 15.124020
vt -1.125044 12.561020
vt 1.673228 11.279530
vt 1.673228 9.448819
vt 2.066929 9.448819
vt 3.484637 11.279530
vt 3.090936 9.448819
vt 0.731343 10.556950
vt 3.477407 10.556950
vt 3.477407 13.011230
vt 0.731343 13.011230
vt 0.731343 15.124020
vt 3.477407 15.124020
vt 3.843548 15.124020
vt 3.843548 16.102369
vt 2.378981 15.124020
vt 2.378981 16.102369
vt 1.125044 11.279530
vt 4.032821 11.279530
vt -3.417347 15.124020
vt -3.417347 14.391730
vt 4.032821 15.124020
vt 3.477407 11.279530
vt 2.535522 9.448819
vt 2.929222 9.448819
vt 1.673228 9.448819
vt 2.378981 4.032821
vt -2.378981 15.124020
vt -1.279528 9.448819
vt -2.929222 9.448819
vt -2.929222 11.279530
vt 1.782732 12.561020
vt 3.417347 14.391730
vt 3.417347 15.124020
vt 3.484637 9.448819
vt -4.208750 0.590551
vt -4.208750 0.000000
vt -3.618199 0.000000
vt -4.208750 0.590551
vt -4.208750 0.000000
vt -3.618199 0.000000
vt -4.208750 0.590551
vt -3.618199 0.000000
vt -4.208750 0.590551
vt -4.208750 0.000000
vt -3.618199 0.000000
vt -4.208750 0.000000
vt -3.618199 0.000000
vt -4.208750 0.000000
vt -3.618199 0.000000
vt -4.208750 0.000000
vt -3.618199 0.000000
vt -4.208750 0.590551
vt -4.208750 0.000000
vt -4.208750 0.590551
vt -4.208750 0.000000
vt -3.618199 0.000000
vn 0.0000 -0.1544 -0.9880
vn -0.9910 0.1342 0.0000
vn 0.9935 -0.1138 0.0000
vn 0.0000 0.1744 0.9847
vn 0.0000 1.0000 0.0000
vn 0.0000 -0.0000 1.0000
vn 1.0000 0.0000 0.0000
vn -0.0000 -1.0000 -0.0000
vn -1.0000 0.0000 0.0000
vn 0.9910 0.1342 0.0000
vn 0.0000 0.1744 -0.9847
vn 0.0000 0.9971 0.0756
vn 0.0000 -0.1544 0.9880
vn -0.9935 -0.1138 0.0000
vn 0.0000 0.0000 -1.0000
vn 0.0000 -0.6660 -0.7459
vn 0.4000 -0.2000 -0.8944
vn -0.9436 -0.3311 0.0000
usemtl road.004
s 1
f 1/1/1 2/2/1 3/3/1
f 3/3/1 4/4/1 1/1/1
f 5/5/2 3/6/2 2/7/2
f 2/7/2 6/8/2 5/5/2
f 1/9/3 4/10/3 7/11/3
f 7/11/3 8/12/3 1/9/3
f 6/13/4 8/14/4 7/15/4
f 7/15/4 5/16/4 6/13/4
f 14/17/5 12/18/5 11/19/5
f 19/20/6 20/21/6 15/22/6
f 15/22/6 18/23/6 19/20/6
f 21/24/7 13/25/7 11/26/7
f 11/26/7 10/27/7 21/24/7
f 19/28/8 23/29/8 22/30/8
f 19/28/8 24/31/8 23/29/8
f 19/32/9 18/33/9 17/34/9
f 26/35/7 16/36/7 15/37/7
f 21/38/8 10/39/8 9/40/8
f 14/41/9 27/42/9 9/43/9
f 9/43/9 12/44/9 14/41/9
f 28/45/1 29/46/1 30/47/1
f 32/48/2 33/49/2 34/50/2
f 48/51/4 38/52/4 39/53/4
f 45/54/10 40/55/10 43/56/10
f 32/57/11 51/58/11 50/59/11
f 36/60/3 50/61/3 51/62/3
f 34/63/8 33/64/8 50/65/8
f 28/66/8 49/67/8 39/68/8
f 1/69/8 8/70/8 6/71/8
f 44/72/8 41/73/8 40/55/8
f 9/74/6 10/75/6 11/76/6
f 11/76/6 12/77/6 9/74/6
f 11/19/5 13/78/5 14/17/5
f 15/79/12 16/80/12 17/81/12
f 17/81/12 18/82/12 15/79/12
f 22/30/8 20/83/8 19/28/8
f 19/28/8 25/84/8 24/31/8
f 17/34/9 25/85/9 19/32/9
f 15/37/7 22/86/7 26/35/7
f 15/37/7 20/87/7 22/86/7
f 9/40/8 27/88/8 21/38/8
f 30/47/1 31/89/1 28/45/1
f 34/50/2 35/90/2 32/48/2
f 34/91/13 36/92/13 37/93/13
f 37/93/13 35/94/13 34/91/13
f 38/95/14 30/96/14 29/97/14
f 29/97/14 39/98/14 38/95/14
f 40/55/11 41/99/11 42/100/11
f 42/100/11 43/101/11 40/55/11
f 44/102/13 45/103/13 46/104/13
f 46/104/13 47/105/13 44/102/13
f 28/106/10 31/107/10 48/108/10
f 48/108/10 49/109/10 28/106/10
f 39/53/4 49/110/4 48/51/4
f 43/56/10 46/111/10 45/54/10
f 42/112/14 41/113/14 44/114/14
f 44/114/14 47/115/14 42/112/14
f 50/59/11 33/116/11 32/57/11
f 51/62/3 37/117/3 36/60/3
f 50/65/8 36/118/8 34/63/8
f 39/68/8 29/119/8 28/66/8
f 6/71/8 2/120/8 1/69/8
f 40/55/8 45/121/8 44/72/8
usemtl grey.008
f 52/122/8 53/123/8 54/124/8
f 54/124/8 55/125/8 52/122/8
f 55/125/8 56/126/8 52/122/8
f 55/125/8 57/127/8 56/126/8
f 53/123/8 52/122/8 58/128/8
f 58/128/8 59/129/8 53/123/8
f 58/128/8 57/127/8 59/129/8
f 57/127/8 55/125/8 59/129/8
f 60/130/15 61/131/15 62/132/15
f 64/133/8 65/134/8 66/135/8
f 66/135/8 67/136/8 64/133/8
f 66/137/9 68/138/9 24/139/9
f 67/140/9 66/137/9 24/139/9
f 66/141/15 65/142/15 53/143/15
f 43/144/7 58/145/7 52/146/7
f 52/146/7 46/147/7 43/144/7
f 52/146/7 48/148/7 31/149/7
f 57/150/15 58/151/15 43/152/15
f 69/153/5 63/154/5 62/155/5
f 62/155/5 26/156/5 69/153/5
f 62/155/5 24/157/5 26/156/5
f 21/158/6 68/159/6 70/160/6
f 70/160/6 69/161/6 21/158/6
f 69/161/6 13/162/6 21/158/6
f 69/161/6 14/163/6 13/162/6
f 27/164/6 14/163/6 23/165/6
f 70/160/6 68/159/6 55/166/6
f 55/166/6 54/167/6 70/160/6
f 52/168/6 7/169/6 38/170/6
f 70/171/7 54/172/7 53/173/7
f 69/174/7 70/171/7 65/175/7
f 57/176/9 32/177/9 35/178/9
f 35/178/9 56/179/9 57/176/9
f 35/178/9 3/180/9 56/179/9
f 64/181/16 67/182/16 61/183/16
f 61/183/16 60/184/16 64/181/16
f 62/132/15 63/185/15 60/130/15
f 24/186/15 25/187/15 17/188/15
f 17/188/15 26/189/15 24/186/15
f 17/188/15 16/190/15 26/189/15
f 66/137/9 59/191/9 55/192/9
f 55/192/9 68/138/9 66/137/9
f 67/140/9 24/139/9 62/193/9
f 62/193/9 61/194/9 67/140/9
f 68/138/9 23/195/9 24/139/9
f 53/143/15 59/196/15 66/141/15
f 52/146/7 31/149/7 46/147/7
f 51/197/15 32/198/15 57/150/15
f 57/150/15 42/199/15 51/197/15
f 57/150/15 43/152/15 42/199/15
f 69/153/5 26/156/5 22/200/5
f 68/159/6 21/158/6 27/164/6
f 27/164/6 23/165/6 68/159/6
f 14/163/6 69/161/6 23/165/6
f 69/161/6 22/201/6 23/165/6
f 38/170/6 48/202/6 52/168/6
f 52/168/6 5/203/6 7/169/6
f 52/168/6 56/204/6 5/203/6
f 53/173/7 65/175/7 70/171/7
f 69/174/7 65/175/7 64/205/7
f 69/174/7 64/205/7 60/206/7
f 60/206/7 63/207/7 69/174/7
f 3/180/9 5/208/9 56/179/9
usemtl _defaultMat.003
f 30/209/8 38/210/8 7/211/8
f 7/212/8 4/213/17 51/214/8
f 37/215/18 4/213/17 3/216/8
f 3/217/8 35/218/8 37/219/18
f 7/212/8 47/220/8 30/221/8
f 7/212/8 42/222/8 47/223/8
f 7/212/8 51/224/8 42/225/8
f 4/226/17 37/227/18 51/214/8
f 46/228/8 31/229/8 30/221/8
f 30/209/8 47/220/8 46/230/8
