# Blender v3.1.2 OBJ File: ''
# www.blender.org
mtllib fenceStraight.mtl
o fenceStraight
v -0.965500 0.000000 0.000000
v -0.965500 0.500000 0.000000
v -0.965500 0.500000 0.017250
v -0.965500 -0.000000 0.017250
v -0.965500 0.500000 0.034500
v -0.965500 -0.000000 0.034500
v -1.000000 0.000000 0.000000
v -1.000000 0.500000 0.000000
v 0.000000 0.000000 0.000000
v 0.000000 -0.000000 0.034500
v -0.034500 -0.000000 0.034500
v -0.034500 0.000000 0.000000
v -0.034500 -0.000000 0.017250
v -1.000000 0.500000 0.034500
v -1.000000 -0.000000 0.034500
v 0.000000 0.500000 0.034500
v 0.000000 0.500000 0.000000
v -0.034500 0.500000 0.000000
v -0.034500 0.500000 0.034500
v -0.034500 0.500000 0.017250
vt 0.000000 -0.000000
vt 0.000000 19.685040
vt -0.679134 19.685040
vt -0.679134 -0.000000
vt -1.358268 19.685040
vt -1.358268 -0.000000
vt -1.358268 1.358268
vt -1.358268 0.000000
vt 0.000000 0.000000
vt -1.358268 0.679134
vt 38.011810 0.679134
vt 38.011810 0.000000
vt 39.370079 0.000000
vt 38.011810 1.358268
vt 39.370079 1.358268
vt -38.011810 0.679134
vt -38.011810 1.358268
vt -39.370079 1.358268
vt -38.011810 0.000000
vt -39.370079 0.000000
vt 1.358268 -0.000000
vt 1.358268 19.685040
vt 0.000000 19.685040
vt -39.370079 -0.000000
vt -38.011810 -0.000000
vt -38.011810 19.685040
vt -39.370079 19.685040
vt 0.000000 1.358268
vt 0.000000 0.000000
vt 1.358268 0.000000
vt 1.358268 1.358268
vt 0.679134 19.685040
vt 0.679134 0.000000
vt 1.358268 0.000000
vt -1.358268 0.000000
vt 0.000000 0.000000
vt 0.000000 19.685040
vt -1.358268 19.685040
vt 0.000000 19.685040
vt -1.358268 19.685040
vt 38.011810 -0.000000
vt 39.370079 -0.000000
vt 39.370079 19.685040
vt 38.011810 19.685040
vt 0.000000 1.358268
vt 0.000000 -0.000000
vt 1.358268 0.679134
vt 1.358268 0.000000
vt 1.358268 19.685040
vt 1.358268 19.685040
vt 0.000000 19.685040
vt 0.000000 0.000000
vt -1.358268 0.000000
vt -0.000000 2.000000
vt 3.950403 2.000005
vt 3.950403 4.121595
vt 0.000000 4.121591
vn 1.0000 0.0000 0.0000
vn 0.0000 -1.0000 -0.0000
vn 0.0000 0.0000 0.0000
vn 0.0000 1.0000 0.0000
vn -1.0000 0.0000 0.0000
vn 0.0000 -0.0000 1.0000
vn 0.0000 0.0000 -1.0000
usemtl grey.010
s 1
f 1/1/1 2/2/1 3/3/1
f 3/3/1 4/4/1 1/1/1
f 5/5/1 6/6/1 4/4/1
f 11/7/2 12/8/2 9/9/2
f 11/7/2 13/10/3 12/8/2
f 3/11/4 2/12/4 8/13/4
f 8/13/4 5/14/4 3/11/4
f 8/13/4 14/15/4 5/14/4
f 4/16/2 6/17/2 15/18/2
f 15/18/2 1/19/2 4/16/2
f 15/18/2 7/20/2 1/19/2
f 15/21/5 14/22/5 8/23/5
f 15/24/6 6/25/6 5/26/6
f 5/26/6 14/27/6 15/24/6
f 16/28/4 17/29/4 18/30/4
f 18/30/4 19/31/4 16/28/4
f 20/32/5 13/33/5 11/34/5
f 11/35/6 10/36/6 16/37/6
f 16/37/6 19/38/6 11/35/6
f 9/9/1 17/39/1 16/40/1
f 4/4/1 3/3/1 5/5/1
f 1/41/7 7/42/7 8/43/7
f 8/43/7 2/44/7 1/41/7
f 9/9/2 10/45/2 11/7/2
f 8/23/5 7/46/5 15/21/5
f 18/30/4 20/47/3 19/31/4
f 9/9/7 12/48/7 18/49/7
f 18/49/7 17/39/7 9/9/7
f 11/34/5 19/50/5 20/32/5
f 13/33/5 20/32/5 18/51/5
f 18/51/5 12/52/5 13/33/5
f 16/40/1 10/53/1 9/9/1
usemtl net.001
f 13/54/7 4/55/7 3/56/7
f 3/56/7 20/57/7 13/54/7
