# Blender v3.1.2 OBJ File: ''
# www.blender.org
mtllib flagTankco.mtl
o flagTankco
v -0.033734 0.645655 0.022884
v -0.040563 0.645655 0.027268
v -0.040563 1.190000 0.027268
v -0.033734 1.190000 0.022884
v -0.047634 1.190000 0.030717
v -0.047634 0.645655 0.030717
v -0.054888 1.190000 0.033201
v -0.054888 0.645655 0.033201
v -0.062266 1.190000 0.034699
v -0.062266 0.645655 0.034699
v -0.069705 1.190000 0.035200
v -0.069705 0.645655 0.035200
v -0.077144 1.190000 0.034699
v -0.077144 0.645655 0.034699
v -0.084522 1.190000 0.033201
v -0.084522 0.645655 0.033201
v -0.091776 1.190000 0.030717
v -0.091776 0.645655 0.030717
v -0.098847 1.190000 0.027268
v -0.098847 0.645655 0.027268
v -0.105676 1.190000 0.022884
v -0.105676 0.645655 0.022884
v -0.118734 1.190000 0.012316
v -0.112205 0.645655 0.017600
v -0.118734 0.645655 0.012316
v -0.112205 1.190000 0.017600
v -0.125563 1.190000 0.007932
v -0.125563 0.645655 0.007932
v -0.132634 1.190000 0.004484
v -0.132634 0.645655 0.004484
v -0.139888 1.190000 0.002000
v -0.139888 0.645655 0.002000
v -0.147266 1.190000 0.000501
v -0.147266 0.645655 0.000501
v -0.154705 1.190000 0.000000
v -0.154705 0.645655 0.000000
v -0.162144 1.190000 0.000501
v -0.162144 0.645655 0.000501
v -0.169522 1.190000 0.002000
v -0.169522 0.645655 0.002000
v -0.176776 1.190000 0.004484
v -0.176776 0.645655 0.004484
v -0.183847 1.190000 0.007932
v -0.183847 0.645655 0.007932
v -0.190676 1.190000 0.012316
v -0.190676 0.645655 0.012316
v -0.197205 1.190000 0.017600
v -0.197205 0.645655 0.017600
v -0.027205 0.645655 0.017600
v -0.027205 1.190000 0.017600
v -0.007205 0.280000 0.007600
v -0.027205 0.280000 0.007600
v -0.027205 1.200000 0.007600
v -0.007205 1.200000 0.007600
v -0.027205 0.280000 0.027600
v -0.007205 0.280000 0.027600
v -0.007205 1.200000 0.027600
v -0.027205 1.200000 0.027600
v 0.000000 -0.000000 0.000395
v 0.000000 -0.000000 0.034805
v -0.034410 -0.000000 0.034805
v -0.034410 -0.000000 0.000395
v -0.034410 0.159886 0.000395
v 0.000000 0.159886 0.000395
v -0.034410 0.159886 0.034805
v 0.000000 0.159886 0.034805
v -0.011405 1.250000 0.023400
v -0.023005 1.250000 0.011800
v -0.011405 1.250000 0.011800
v -0.023005 1.250000 0.023400
v -0.030705 1.230000 0.031100
v -0.030705 1.230000 0.004100
v -0.003705 1.230000 0.031100
v -0.003705 1.230000 0.004100
vt -6.013315 -0.205074
vt -6.013315 -0.230163
vt -5.013315 -0.230163
vt -5.013315 -0.205074
vt -5.013315 -0.337235
vt -5.013315 -0.309902
vt -6.013315 -0.309902
vt -6.013315 -0.391675
vt -6.013315 -0.418328
vt -5.013315 -0.418328
vt -5.013315 -0.730630
vt -5.013315 -0.703977
vt -6.013315 -0.703977
vt -6.013315 -0.730630
vt -6.013315 -0.756609
vt -5.013315 -0.756609
vt -5.013315 -0.781698
vt -5.013315 -0.805688
vt -6.013315 -0.781698
vt -6.986685 -0.282795
vt -5.986685 -0.256142
vt -6.986685 -0.256142
vt -6.986685 -0.309902
vt -5.986685 -0.282795
vt -6.986685 -0.364568
vt -5.986685 -0.337235
vt -6.986685 -0.337235
vt -5.986685 -0.364568
vt -6.986685 -0.418328
vt -5.986685 -0.391675
vt -6.986685 -0.391675
vt -5.986685 -0.418328
vt -6.986685 -0.444307
vt -5.986685 -0.444307
vt -6.986685 -0.469396
vt -6.986685 -0.517376
vt -5.986685 -0.493386
vt -5.986685 -0.469396
vt -6.986685 -0.493386
vt -5.986685 -0.517376
vt -6.986685 -0.542465
vt -5.986685 -0.542465
vt -6.986685 -0.568444
vt -5.986685 -0.568444
vt -6.986685 -0.595097
vt -5.986685 -0.595097
vt -6.986685 -0.622204
vt -5.986685 -0.676871
vt -6.986685 -0.703977
vt -5.986685 -0.703977
vt -6.986685 -0.730630
vt -5.986685 -0.730630
vt -6.986685 -0.756609
vt -5.013315 -0.181084
vt -6.013315 -0.181084
vt -5.013315 -0.256142
vt -6.013315 -0.282795
vt -6.013315 -0.337235
vt -6.013315 -0.364569
vt -5.013315 -0.391675
vt -5.013315 -0.444307
vt -6.013315 -0.444307
vt -6.013315 -0.469396
vt -5.013315 -0.469396
vt -5.013315 -0.517376
vt -6.013315 -0.493386
vt -6.013315 -0.517376
vt -5.013315 -0.542465
vt -5.013315 -0.568444
vt -6.013315 -0.542465
vt -6.013315 -0.595097
vt -6.013315 -0.622204
vt -5.013315 -0.622204
vt -6.013315 -0.649537
vt -5.013315 -0.649537
vt -6.013315 -0.805688
vt -5.986685 -0.230163
vt -6.986685 -0.649537
vt -5.986685 -0.622204
vt -6.986685 -0.676871
vt -5.986685 -0.649537
vt -5.986685 -0.756609
vt -6.986685 -0.781698
vt -5.986685 -0.781698
vt -5.986685 -0.181084
vt -6.986685 -0.205074
vt -5.986685 -0.205074
vt 1.071063 47.244091
vt 0.283661 47.244091
vt 0.283661 11.023620
vt -1.071063 11.023620
vt -0.283661 11.023620
vt -0.283661 47.244091
vt 0.000000 0.000000
vt 0.000000 1.354724
vt -1.354724 1.354724
vt -1.354724 0.000000
vt 0.283661 47.244091
vt 0.283661 11.023620
vt 1.071063 11.023620
vt 1.071063 47.244091
vt 0.000000 6.294714
vt 0.000000 0.000000
vt 1.354724 0.000000
vt 1.354724 6.294714
vt -1.354724 0.000000
vt 0.000000 0.000000
vt 0.000000 6.294714
vt 0.000000 6.294714
vt -1.354724 6.294714
vt 0.283661 10.939710
vt 0.000000 6.202303
vt 1.354724 6.202303
vt 0.000000 6.283421
vt 1.354724 6.283421
vt 1.071063 11.020830
vt 0.283661 11.020830
vt -1.354724 6.202303
vt 0.000000 6.202303
vt -0.283661 10.939710
vt 1.071063 11.023620
vt -1.071063 47.244091
vt -0.283661 11.023620
vt -1.071063 47.244091
vt -0.283661 47.244091
vt -1.071063 11.023620
vt 1.354724 6.294714
vt 1.354724 0.000000
vt -1.354724 6.294714
vt -1.354724 0.000000
vt 0.449016 0.905709
vt 0.905709 0.449016
vt 0.449016 0.449016
vt -1.208858 48.082062
vt -0.283661 46.892948
vt -1.071063 46.892948
vt 0.283661 46.892948
vt 1.208858 48.082062
vt 1.071063 46.892948
vt 0.145866 48.082062
vt -1.071063 47.049931
vt -0.145866 48.239052
vt -0.283661 47.049931
vt -1.208858 48.239052
vt 0.905709 46.087769
vt 0.145866 45.244030
vt 0.449016 46.087769
vt -1.208858 44.757290
vt -0.449016 45.601028
vt -0.145866 44.757290
vt 0.449016 45.601028
vt 1.208858 44.757290
vt 0.145866 44.757290
vt -1.208858 45.244030
vt -0.449016 46.087769
vt -0.145866 45.244030
vt -1.354724 6.283421
vt -0.283661 11.020830
vt -1.071063 11.020830
vt 1.071063 10.939710
vt -1.071063 10.939710
vt 0.905709 0.905709
vt 1.208858 48.239052
vt 0.145866 48.239052
vt 0.283661 47.049931
vt 1.071063 47.049931
vt -0.145866 48.082062
vt 1.208858 45.244030
vt -0.905709 45.601028
vt 0.905709 45.601028
vt -0.905709 46.087769
vn -0.5856 0.0000 -0.8106
vn -0.4902 0.0000 -0.8716
vn -0.0000 0.0000 -1.0000
vn -0.1334 0.0000 -0.9911
vn 0.2621 0.0000 -0.9650
vn 0.3819 0.0000 -0.9242
vn -0.3819 -0.0000 -0.9242
vn -0.2621 -0.0000 -0.9650
vn -0.4901 0.0000 -0.8716
vn -0.6291 0.0000 -0.7774
vn -0.5855 -0.0000 -0.8106
vn 0.2620 -0.0000 0.9651
vn 0.3819 -0.0000 0.9242
vn 0.1334 -0.0000 0.9911
vn 0.2621 0.0000 0.9651
vn -0.1334 -0.0000 0.9911
vn -0.0000 0.0000 1.0000
vn -0.3819 -0.0000 0.9242
vn -0.2621 -0.0000 0.9650
vn -0.4901 0.0000 0.8716
vn -0.4902 0.0000 0.8716
vn -0.5856 -0.0000 0.8106
vn -0.5855 0.0000 0.8106
vn -0.6291 -0.0000 0.7774
vn -0.6291 -0.0000 0.7773
vn -0.2621 -0.0000 0.9651
vn -0.2620 -0.0000 0.9651
vn 0.2621 -0.0000 0.9650
vn 0.4901 -0.0000 0.8716
vn -0.2620 0.0000 -0.9651
vn 0.1334 0.0000 -0.9911
vn 0.2620 0.0000 -0.9651
vn 0.4901 0.0000 -0.8716
vn 0.5856 0.0000 -0.8106
vn 0.5855 0.0000 -0.8106
vn 0.6291 0.0000 -0.7774
vn 0.4902 -0.0000 -0.8716
vn 0.5856 -0.0000 0.8106
vn 0.6291 -0.0000 0.7774
vn 0.5855 0.0000 0.8106
vn 0.0000 -1.0000 -0.0000
vn -1.0000 0.0000 0.0000
vn 1.0000 0.0000 0.0000
vn -0.9982 0.0599 0.0000
vn 0.0000 0.0599 -0.9982
vn 0.0000 0.0599 0.9982
vn -0.9933 0.1159 0.0000
vn 0.0000 0.1159 0.9933
vn 0.0000 0.1159 -0.9933
vn 0.0000 -0.3593 0.9332
vn 0.0000 -0.3593 -0.9332
vn 0.9332 -0.3593 0.0000
vn -0.9332 -0.3593 0.0000
vn -0.9982 -0.0599 0.0000
vn 0.9982 -0.0599 0.0000
vn 0.0000 -0.0599 -0.9982
vn 0.0000 1.0000 0.0000
vn -0.9933 -0.1159 0.0000
vn 0.9933 -0.1159 0.0000
vn 0.0000 0.3593 -0.9332
vn 0.0000 0.3593 0.9332
vn -0.9332 0.3593 0.0000
vn 0.9332 0.3593 0.0000
usemtl tankco.004
s 1
f 1/1/1 2/2/2 3/3/2
f 3/3/2 4/4/1 1/1/1
f 11/5/3 9/6/4 10/7/4
f 16/8/5 18/9/6 17/10/6
f 41/11/7 39/12/8 40/13/8
f 42/14/7 44/15/2 43/16/9
f 45/17/1 43/16/9 44/15/2
f 47/18/10 45/17/11 46/19/11
f 7/20/12 6/21/13 5/22/13
f 9/23/14 8/24/15 7/20/12
f 13/25/16 12/26/17 11/27/17
f 12/26/17 13/25/16 14/28/16
f 17/29/18 16/30/19 15/31/19
f 18/32/18 19/33/20 20/34/21
f 21/35/22 20/34/21 19/33/20
f 23/36/23 24/37/24 22/38/23
f 23/36/23 21/35/22 26/39/25
f 25/40/22 27/41/20 28/42/20
f 28/42/21 29/43/18 30/44/18
f 31/45/26 30/44/18 29/43/18
f 30/44/18 31/45/26 32/46/27
f 33/47/16 32/46/27 31/45/26
f 38/48/14 39/49/12 40/50/12
f 40/50/28 41/51/13 42/52/13
f 43/53/29 42/52/13 41/51/13
f 4/4/11 50/54/10 49/55/10
f 5/56/7 3/3/2 2/2/2
f 8/57/30 10/7/4 9/6/4
f 10/7/4 12/58/3 11/5/3
f 14/59/31 16/8/32 15/60/32
f 19/61/33 17/10/6 18/9/6
f 20/62/33 22/63/34 21/64/35
f 23/65/35 21/64/35 22/63/34
f 24/66/36 25/67/35 23/65/34
f 27/68/33 23/65/34 25/67/35
f 29/69/6 27/68/37 28/70/37
f 32/71/32 34/72/31 33/73/31
f 34/72/31 36/74/3 35/75/3
f 46/19/11 48/76/10 47/18/10
f 2/77/29 5/22/13 6/21/13
f 6/21/13 7/20/12 8/24/15
f 15/31/27 14/28/16 13/25/16
f 35/78/17 34/79/16 33/47/16
f 37/80/14 36/81/17 35/78/17
f 36/81/17 37/80/14 38/48/14
f 39/49/12 38/48/14 37/80/14
f 44/82/29 45/83/38 46/84/38
f 49/85/39 4/86/40 1/87/40
usemtl _defaultMat.008
f 53/88/3 54/89/3 51/90/3
f 55/91/17 56/92/17 57/93/17
f 59/94/41 60/95/41 61/96/41
f 61/96/41 62/97/41 59/94/41
f 53/98/42 52/99/42 55/100/42
f 55/100/42 58/101/42 53/98/42
f 63/102/42 62/103/42 61/104/42
f 61/104/42 65/105/42 63/102/42
f 61/106/17 60/107/17 66/108/17
f 59/94/43 64/109/43 66/110/43
f 52/111/44 63/112/44 65/113/44
f 64/114/45 63/115/45 52/116/45
f 52/116/45 51/117/45 64/114/45
f 65/118/46 66/119/46 56/120/46
usemtl grey.015
f 51/90/17 53/88/17 52/121/17
f 57/93/3 55/91/3 58/122/3
f 51/123/42 57/124/42 54/125/42
f 57/124/42 51/123/42 56/126/42
f 59/94/17 63/127/17 62/128/17
f 63/127/17 59/94/17 64/109/17
f 66/108/3 61/106/3 65/129/3
f 66/110/42 59/94/42 60/130/42
f 67/131/41 68/132/41 69/133/41
f 73/134/47 54/135/47 57/136/47
f 54/137/48 72/138/48 53/139/48
f 72/138/48 54/137/48 74/140/48
f 58/141/49 73/142/49 57/143/49
f 73/142/49 58/141/49 71/144/49
f 68/145/50 74/146/50 69/147/50
f 71/148/51 67/149/51 73/150/51
f 68/151/52 71/152/52 72/153/52
f 73/154/53 69/155/53 74/156/53
f 66/157/54 51/158/54 64/114/54
f 51/158/54 66/157/54 56/159/54
f 65/113/55 52/111/55 55/160/55
f 56/120/56 65/118/56 55/161/56
usemtl road.009
f 68/132/57 70/162/57 67/131/57
f 71/163/58 72/164/58 53/165/58
f 53/165/58 58/166/58 71/163/58
f 54/135/59 74/167/59 73/134/59
f 74/146/60 72/168/60 68/145/60
f 67/149/61 70/169/61 71/148/61
f 71/152/62 70/170/62 68/151/62
f 69/155/63 67/171/63 73/154/63
