# Blender v3.1.2 OBJ File: ''
# www.blender.org
mtllib grandStandAwning.mtl
o grandStandAwning
v 0.000000 0.000000 0.000000
v 0.000000 -0.000000 1.000000
v -1.000000 -0.000000 1.000000
v -1.000000 0.000000 0.000000
v -0.945687 0.054313 0.000000
v -1.000000 0.209001 0.000000
v -0.945687 0.154687 0.000000
v -0.054313 0.154687 0.000000
v -0.054313 0.054313 0.000000
v 0.000000 0.209001 0.000000
v 0.000000 0.746262 0.596032
v 0.000000 0.866262 0.596032
v 0.000000 0.866262 0.743642
v 0.000000 0.922836 0.764901
v 0.000000 0.896262 0.743642
v 0.000000 0.946262 0.783642
v 0.000000 0.946262 1.000000
v -1.000000 0.946262 1.000000
v -0.945687 0.866262 0.646032
v -0.945687 0.866262 0.596032
v -1.000000 0.866262 0.596032
v -1.000000 0.866262 0.743642
v -0.054313 0.866262 0.646032
v -0.054313 0.866262 0.596032
v -1.000000 0.746262 0.596032
v -1.000000 0.896262 0.743642
v -1.000000 0.922836 0.764901
v -1.000000 0.946262 0.783642
v -0.054313 0.746262 0.596032
v -0.945687 0.746262 0.596032
v -0.054313 0.245366 0.040343
v -0.945687 0.245366 0.040343
v -0.961770 0.896262 0.743642
v -0.519115 0.896262 0.743642
v -0.480885 0.896262 0.743642
v -0.038230 0.896262 0.743642
v -0.961770 0.922836 0.764901
v -0.519115 0.922836 0.764901
v -0.480885 0.922836 0.764901
v -0.038230 0.922836 0.764901
v -0.054313 0.515698 0.426853
v -0.945687 0.515698 0.426853
v -0.945687 0.573765 0.426853
v -0.054313 0.573765 0.426853
v -0.054313 0.457632 0.362435
v -0.945687 0.457632 0.362435
v -0.945687 0.515698 0.362435
v -0.054313 0.515698 0.362435
v -0.054313 0.399565 0.298016
v -0.945687 0.399565 0.298016
v -0.945687 0.457632 0.298016
v -0.054313 0.457632 0.298016
v -0.054313 0.341499 0.233598
v -0.945687 0.341499 0.233598
v -0.945687 0.399565 0.233598
v -0.054313 0.399565 0.233598
v -0.054313 0.245366 0.104761
v -0.945687 0.245366 0.104761
v -0.945687 0.283432 0.104761
v -0.054313 0.283432 0.104761
v -0.054313 0.573765 0.491271
v -0.945687 0.573765 0.491271
v -0.945687 0.631831 0.491271
v -0.054313 0.631831 0.491271
v -0.581339 0.986878 0.593936
v -0.581339 1.340763 0.151580
v -0.617991 1.329331 0.142434
v -0.617991 0.975446 0.584790
v -0.899546 0.986878 0.593936
v -0.899546 1.340763 0.151580
v -0.932745 1.355030 0.162994
v -0.932745 1.001145 0.605349
v -0.862894 0.975446 0.584790
v -0.862894 1.329331 0.142434
v -0.519115 1.017939 0.618784
v -0.519115 1.371824 0.176429
v -0.548140 1.355030 0.162994
v -0.548140 1.001145 0.605349
v -0.657301 0.967099 0.578113
v -0.657301 1.320984 0.135757
v -0.698416 1.315902 0.131691
v -0.698416 0.962017 0.574047
v -0.782469 0.962017 0.574047
v -0.782469 1.315902 0.131691
v -0.823584 1.320984 0.135757
v -0.823584 0.967099 0.578113
v -0.961770 1.371824 0.176429
v -0.961770 1.017939 0.618784
v -0.740443 0.960311 0.572682
v -0.740443 1.314196 0.130326
v -0.301584 0.962017 0.574047
v -0.301584 1.315902 0.131691
v -0.342699 1.320984 0.135757
v -0.342699 0.967099 0.578113
v -0.382009 1.329331 0.142434
v -0.382009 0.975446 0.584790
v -0.418661 1.340763 0.151580
v -0.418661 0.986878 0.593936
v -0.217531 0.962017 0.574047
v -0.217531 1.315902 0.131691
v -0.259557 1.314196 0.130326
v -0.259557 0.960311 0.572682
v -0.067255 1.001145 0.605349
v -0.067255 1.355030 0.162994
v -0.100454 1.340763 0.151580
v -0.100454 0.986878 0.593936
v -0.038230 1.017939 0.618784
v -0.038230 1.371824 0.176429
v -0.137106 1.329331 0.142434
v -0.137106 0.975446 0.584790
v -0.176416 0.967099 0.578113
v -0.176416 1.320984 0.135757
v -0.451860 1.001145 0.605349
v -0.451860 1.355030 0.162994
v -0.480885 1.371824 0.176429
v -0.480885 1.017939 0.618784
v -0.054313 0.631831 0.646032
v -0.218291 0.631831 0.646032
v -0.218291 0.631831 0.876032
v -0.781709 0.631831 0.646032
v -0.945687 0.631831 0.646032
v -0.781709 0.631831 0.876032
v -0.054313 0.283432 0.169179
v -0.945687 0.283432 0.169179
v -0.054313 0.341499 0.169179
v -0.945687 0.341499 0.169179
v -0.781709 0.815809 0.876032
v -0.218291 0.815809 0.876032
v -0.781709 0.815809 0.646032
v -0.218291 0.815809 0.646032
v -0.961770 1.358537 0.165799
v -1.000000 1.358537 0.165799
v -1.000000 1.385111 0.187058
v -0.961770 1.385111 0.187058
v -0.519115 1.358537 0.165799
v -0.519115 1.385111 0.187058
v 0.000000 1.358537 0.165799
v -0.038230 1.358537 0.165799
v 0.000000 1.385111 0.187058
v -0.038230 1.385111 0.187058
v -0.480885 1.385111 0.187058
v -0.480885 1.358537 0.165799
vt 0.000000 0.000000
vt 0.000000 39.370079
vt -39.370079 39.370079
vt -39.370079 0.000000
vt 37.231758 2.138322
vt 39.370079 0.000000
vt 39.370079 8.228376
vt 2.138322 2.138322
vt 0.000000 8.228376
vt -23.465839 29.380421
vt -29.277229 34.104832
vt -30.114201 36.332150
vt -39.370079 0.000000
vt -30.852030 37.254429
vt 2.138322 25.434340
vt 37.231758 25.434340
vt 39.370079 29.277229
vt 0.000000 29.277229
vt 2.138322 23.465839
vt 0.000000 23.465839
vt 0.000000 8.228376
vt 0.000000 -0.000000
vt 39.370079 -0.000000
vt 29.277229 34.104832
vt 23.465839 34.104832
vt 29.277229 35.285931
vt 30.852030 37.254429
vt 30.114201 36.332150
vt 0.000000 29.380421
vt 2.138322 29.380421
vt 2.138322 34.104832
vt 0.000000 34.104832
vt 37.231758 29.380421
vt 39.370079 29.380421
vt 39.370079 34.104832
vt 37.231758 34.104832
vt 39.370079 5.509211
vt 37.231758 7.647532
vt 2.138322 7.647532
vt 37.231758 37.101212
vt 39.370079 35.285931
vt 37.864971 35.285931
vt 0.000000 35.285931
vt 20.437590 35.285931
vt 37.864971 47.182831
vt 39.370079 47.182831
vt 39.370079 48.363941
vt 1.505108 47.182831
vt 18.932489 47.182831
vt 1.505108 45.843021
vt 18.932489 45.843021
vt 37.231758 6.090055
vt 2.138322 6.090055
vt -23.465839 34.104832
vt -29.277229 35.285931
vt -39.370079 37.254429
vt -39.370079 0.000000
vt 0.000000 0.000000
vt 0.000000 37.254429
vt -39.370079 37.254429
vt 37.231758 23.465839
vt 39.370079 23.465839
vt 23.465839 29.380421
vt 39.370079 37.254429
vt -0.000000 37.101212
vt 0.000000 5.509211
vt 39.370079 37.101212
vt 2.138322 37.101212
vt 0.000000 34.104832
vt 39.370079 34.104832
vt 18.932489 35.285931
vt 1.505108 35.285931
vt 0.000000 39.370079
vt 0.000000 30.852030
vt 39.370079 30.852030
vt 39.370079 39.370079
vt 20.437590 47.182831
vt -0.000000 47.182831
vt -0.000000 48.363941
vt 20.437590 45.843021
vt 37.864971 45.843021
vt 2.138322 18.016991
vt 37.231758 18.016991
vt 37.231758 20.303080
vt 2.138322 20.303080
vt 2.138322 13.444830
vt 37.231758 13.444830
vt 37.231758 15.730910
vt 37.231758 24.875250
vt 2.138322 24.875250
vt 2.138322 22.589161
vt -17.477921 23.106930
vt -8.096539 2.873131
vt -6.686844 3.526735
vt -16.068230 23.760530
vt -31.796249 52.223660
vt -42.031029 32.351780
vt -43.308819 33.121891
vt -33.052399 46.535271
vt -42.433781 26.301470
vt -41.024090 25.647869
vt -31.642700 45.881660
vt -19.494680 2.316170
vt -25.380819 23.890600
vt -23.772409 24.204929
vt -21.103090 2.001838
vt -32.744030 35.249962
vt -35.413349 13.046870
vt -37.021759 13.361200
vt -30.920959 8.031879
vt -29.476419 30.287889
vt -31.129770 30.395201
vt -13.119130 2.024306
vt -21.594160 22.716400
vt -20.070200 23.216270
vt -0.438067 6.755804
vt -13.228420 25.087450
vt -11.950630 25.857571
vt -25.527349 4.368070
vt -28.625240 26.516769
vt -26.971889 26.624081
vt -38.814220 19.058720
vt -33.387100 40.750549
vt -31.863150 40.250679
vt -40.338181 19.558590
vt -14.391550 31.663330
vt -18.669279 9.774570
vt -17.060869 9.460238
vt -21.455130 13.364850
vt -14.504050 34.556808
vt -16.028009 35.056671
vt -6.660107 5.592659
vt -9.757998 27.741360
vt -8.104647 27.848669
vt -8.313458 5.485347
vt 13.767780 15.317620
vt 0.977424 33.649269
vt 2.255211 34.419380
vt 12.489990 14.547500
vt 17.655291 20.633080
vt 3.199380 37.676151
vt 4.340345 38.525230
vt -1.142201 5.902803
vt -5.419931 27.791559
vt -7.028340 27.477230
vt -17.513901 48.328701
vt -30.828840 30.436550
vt -29.687880 29.587469
vt -27.825190 23.789961
vt -16.312620 42.891739
vt -17.590401 43.661850
vt -29.102970 24.560080
vt 2.138322 25.434340
vt 2.138322 19.341379
vt 37.231758 19.341379
vt 8.594137 25.434340
vt 30.775940 25.434340
vt 8.594137 34.489460
vt 37.231758 25.434340
vt 30.775940 34.489460
vt 37.231758 14.269070
vt 37.231758 16.805229
vt 2.138322 16.805229
vt 2.138322 14.269070
vt 2.138322 11.732920
vt 37.231758 11.732920
vt 37.231758 14.269070
vt 37.231758 6.660608
vt 37.231758 9.196763
vt 2.138322 9.196763
vt 2.138322 20.303080
vt 37.231758 20.303080
vt 37.231758 22.589161
vt 2.138322 22.589161
vt 2.138322 15.730910
vt 37.231758 15.730910
vt 37.231758 18.016991
vt 2.138322 18.016991
vt 2.138322 15.730910
vt 2.138322 9.660064
vt 37.231758 9.660064
vt 37.231758 11.158750
vt 2.138322 11.158750
vt 37.231758 22.589161
vt -30.518459 51.453541
vt 5.451886 11.551580
vt -9.004021 28.594650
vt -7.863055 29.443729
vt 4.310921 10.702500
vt -31.135620 34.935631
vt -41.891281 38.668961
vt -29.717300 57.410198
vt -28.576340 56.561119
vt -43.032242 39.518051
vt -32.574310 8.139191
vt -14.643080 1.524441
vt -1.715854 5.985686
vt -27.180700 4.260758
vt -12.783140 31.349001
vt -22.979080 13.864710
vt -25.073231 18.252270
vt -17.101549 39.139671
vt -15.691850 38.486061
vt -26.482929 18.905870
vt 16.514320 19.784000
vt 9.264007 10.922330
vt -0.117376 31.156130
vt -1.527071 30.502529
vt 7.854312 10.268730
vt -2.750610 5.588471
vt -12.053710 6.807290
vt -10.609170 29.063299
vt -12.262520 29.170610
vt -13.707060 6.914602
vt -16.372940 47.479622
vt 4.239965 7.718181
vt -2.711111 28.910139
vt -4.235065 28.410280
vt 2.716011 7.218316
vt 2.138322 19.341379
vt 2.138322 16.805229
vt 37.231758 16.805229
vt 37.231758 19.341379
vt 2.138322 14.269070
vt 2.138322 11.732920
vt 2.138322 9.196763
vt 37.231758 9.196763
vt 37.231758 11.732920
vt 2.138322 6.660608
vt 2.138322 4.124453
vt 37.231758 4.124453
vt 37.231758 6.660608
vt 2.138322 6.660608
vt 2.138322 11.158750
vt 37.231758 11.158750
vt 37.231758 13.444830
vt 2.138322 13.444830
vt 30.775940 32.118462
vt 8.594137 32.118462
vt 8.594137 24.875250
vt -25.434340 24.875250
vt -25.434340 32.118462
vt -34.489460 32.118462
vt -34.489460 24.875250
vt 25.434340 32.118462
vt 25.434340 24.875250
vt 34.489460 24.875250
vt 4.124453 11.158750
vt 23.465839 29.380421
vt 1.588298 9.660064
vt 4.124453 9.660064
vt 6.660608 13.444830
vt 9.196763 13.444830
vt 9.196763 15.730910
vt 11.732920 18.016991
vt 14.269070 20.303080
vt 16.805229 22.589161
vt 16.805229 20.303080
vt 19.341379 24.875250
vt 25.434340 24.875250
vt 23.465839 34.104832
vt 37.231758 34.104832
vt 8.594137 32.118462
vt 30.775940 32.118462
vt 8.594137 24.875250
vt 2.138322 34.104832
vt -23.465839 29.380421
vt -23.465839 34.104832
vt -25.434340 34.104832
vt -25.434340 24.875250
vt -19.341379 24.875250
vt -14.269070 20.303080
vt -11.732920 18.016991
vt -9.196763 15.730910
vt -4.124453 11.158750
vt -1.588298 9.660064
vt -16.805229 22.589161
vt -19.341379 22.589161
vt -16.805229 20.303080
vt -29.277229 35.285931
vt -6.527508 53.485710
vt -6.945995 54.008820
vt 39.370079 -0.818730
vt 39.370079 28.315130
vt 37.864971 28.315130
vt 7.364482 54.531929
vt 6.527508 53.485710
vt 6.945995 54.008820
vt 6.527508 53.485710
vt 29.277229 35.285931
vt 7.364482 54.531929
vt -7.364482 54.531929
vt -0.000000 -0.818730
vt -0.000000 28.315130
vt -1.505108 28.315130
vt -1.505108 -0.818730
vt -20.437590 28.315130
vt -20.437590 -0.818730
vt -18.932489 -0.818730
vt 6.945995 54.008820
vt 6.527508 53.485710
vt 29.277229 35.285931
vt 7.364482 54.531929
vt 0.000000 45.843021
vt 1.505108 45.843021
vt 1.505108 46.512932
vt 20.437590 45.843021
vt 20.437590 46.512932
vt 18.932489 46.512932
vt 20.437590 47.182831
vt -29.277229 35.285931
vt -6.527508 53.485710
vt -6.945995 54.008820
vt -7.364482 54.531929
vt 2.138322 4.124453
vt 2.138322 1.588298
vt 37.231758 1.588298
vt 37.231758 4.124453
vt 30.775940 24.875250
vt -8.594137 25.434340
vt -8.594137 34.489460
vt -30.775940 34.489460
vt -30.775940 25.434340
vt 34.489460 32.118462
vt 6.660608 11.158750
vt 11.732920 15.730910
vt 14.269070 18.016991
vt 19.341379 22.589161
vt 25.434340 34.104832
vt 30.775940 24.875250
vt 37.231758 24.875250
vt 2.138322 24.875250
vt -6.660608 13.444830
vt -14.269070 18.016991
vt -11.732920 15.730910
vt -9.196763 13.444830
vt -6.660608 11.158750
vt -4.124453 9.660064
vt 37.864971 46.512932
vt 37.864971 45.843021
vt 39.370079 45.843021
vt 39.370079 47.182831
vt 37.864971 47.182831
vt -37.864971 -0.818730
vt -37.864971 28.315130
vt -39.370079 28.315130
vt -39.370079 -0.818730
vt -7.364482 54.531929
vt -30.114201 36.332150
vt 37.864971 -0.818730
vt 30.114201 36.332150
vt -0.000000 28.315130
vt -0.000000 -0.818730
vt 1.505108 -0.818730
vt 1.505108 28.315130
vt -6.527508 53.485710
vt -18.932489 28.315130
vt 30.114201 36.332150
vt 0.000000 47.182831
vt 1.505108 47.182831
vt 18.932489 45.843021
vt 18.932489 47.182831
vt 18.932489 28.315130
vt 18.932489 -0.818730
vt 20.437590 -0.818730
vt 20.437590 28.315130
vt -30.114201 36.332150
vn 0.0000 -1.0000 -0.0000
vn 0.0000 0.0000 -1.0000
vn 1.0000 0.0000 0.0000
vn 0.0000 1.0000 -0.0000
vn -1.0000 0.0000 0.0000
vn -0.0000 0.7428 -0.6695
vn 0.0000 0.6247 -0.7809
vn 0.0000 -0.0000 1.0000
vn -0.3172 0.7405 0.5924
vn -0.4273 0.7060 0.5648
vn 0.4274 -0.7060 -0.5648
vn 0.3172 -0.7405 -0.5924
vn -0.5400 -0.6572 -0.5258
vn -0.4273 -0.7060 -0.5648
vn 0.4273 0.7060 0.5648
vn 0.3172 0.7405 0.5924
vn -0.3172 -0.7405 -0.5924
vn -0.4274 -0.7060 -0.5648
vn 0.2097 -0.7635 -0.6108
vn 0.1043 -0.7766 -0.6213
vn -0.2097 -0.7635 -0.6108
vn -0.1043 -0.7766 -0.6213
vn -0.0000 0.7809 0.6247
vn 0.1043 0.7766 0.6213
vn 0.3172 -0.7406 -0.5924
vn 0.5400 -0.6573 -0.5258
vn 0.4273 -0.7060 -0.5648
vn 0.5400 -0.6572 -0.5258
vn -0.0000 -0.7809 -0.6247
vn 0.2097 0.7635 0.6108
vn 0.3172 0.7406 0.5924
vn 0.5953 -0.6274 -0.5019
vn -0.2097 0.7635 0.6108
vn -0.1043 0.7766 0.6213
vn 0.5953 0.6274 0.5019
vn 0.5400 0.6572 0.5258
vn -0.5953 -0.6274 -0.5019
vn -0.5400 0.6572 0.5258
vn -0.5400 0.6573 0.5258
vn -0.5953 0.6274 0.5019
vn -0.4274 0.7060 0.5648
vn -0.3172 0.7406 0.5924
usemtl grey.017
s 1
f 1/1/1 2/2/1 3/3/1
f 3/3/1 4/4/1 1/1/1
f 5/5/2 1/1/2 4/6/2
f 4/6/2 6/7/2 5/5/2
f 1/1/2 5/5/2 9/8/2
f 1/1/3 10/9/3 11/10/3
f 13/11/3 14/12/3 2/13/3
f 14/12/3 16/14/3 2/13/3
f 23/15/4 19/16/4 22/17/4
f 23/15/4 22/17/4 13/18/4
f 24/19/4 23/15/4 13/18/4
f 13/18/4 12/20/4 24/19/4
f 6/21/5 4/22/5 3/23/5
f 3/23/5 22/24/5 21/25/5
f 3/23/5 26/26/5 22/24/5
f 3/23/5 28/27/5 27/28/5
f 11/29/2 29/30/2 24/31/2
f 24/31/2 12/32/2 11/29/2
f 30/33/2 25/34/2 21/35/2
f 21/35/2 20/36/2 30/33/2
f 6/37/6 32/38/6 31/39/6
f 6/37/6 30/40/6 32/38/6
f 26/41/2 33/42/2 15/43/2
f 33/42/2 34/44/2 15/43/2
f 37/45/7 27/46/7 28/47/7
f 28/47/7 40/48/7 39/49/7
f 36/50/7 35/51/7 39/49/7
f 6/7/2 7/52/2 5/5/2
f 6/7/2 8/53/2 7/52/2
f 9/8/2 10/9/2 1/1/2
f 9/8/2 8/53/2 10/9/2
f 8/53/2 6/7/2 10/9/2
f 11/10/3 12/54/3 13/11/3
f 11/10/3 13/11/3 2/13/3
f 11/10/3 2/13/3 1/1/3
f 13/11/3 15/55/3 14/12/3
f 16/14/3 17/56/3 2/13/3
f 3/57/8 2/58/8 17/59/8
f 17/59/8 18/60/8 3/57/8
f 19/16/4 20/61/4 21/62/4
f 19/16/4 21/62/4 22/17/4
f 3/23/5 25/63/5 6/21/5
f 3/23/5 21/25/5 25/63/5
f 3/23/5 27/28/5 26/26/5
f 3/23/5 18/64/5 28/27/5
f 31/39/6 11/65/6 10/66/6
f 10/66/6 6/37/6 31/39/6
f 6/37/6 25/67/6 30/40/6
f 11/65/6 31/39/6 29/68/6
f 13/69/2 22/70/2 26/41/2
f 26/41/2 15/43/2 13/69/2
f 34/44/2 35/71/2 15/43/2
f 35/71/2 36/72/2 15/43/2
f 17/73/4 16/74/4 28/75/4
f 28/75/4 18/76/4 17/73/4
f 28/47/7 38/77/7 37/45/7
f 28/47/7 39/49/7 38/77/7
f 28/47/7 14/78/7 40/48/7
f 28/47/7 16/79/7 14/78/7
f 39/49/7 40/48/7 36/50/7
f 37/45/7 38/77/7 34/80/7
f 34/80/7 33/81/7 37/45/7
usemtl red.005
f 45/82/2 46/83/2 47/84/2
f 47/84/2 48/85/2 45/82/2
f 53/86/2 54/87/2 55/88/2
f 63/89/2 64/90/2 61/91/2
f 67/92/9 68/93/9 65/94/10
f 65/94/11 67/92/12 66/95/11
f 71/96/13 69/97/14 72/98/13
f 70/99/15 69/100/15 73/101/16
f 73/101/17 70/99/18 74/102/17
f 79/103/19 81/104/20 80/105/19
f 81/104/20 79/103/19 82/106/20
f 85/107/21 83/108/22 86/109/21
f 89/110/23 90/111/23 84/112/24
f 68/113/12 80/114/19 67/115/25
f 78/116/26 66/117/27 77/118/28
f 82/119/20 90/120/29 81/121/20
f 86/122/21 74/123/17 85/124/21
f 74/123/17 86/122/21 73/125/17
f 93/126/30 94/127/30 91/128/24
f 94/129/30 93/130/30 95/131/31
f 99/132/20 101/133/29 100/134/20
f 101/133/29 99/132/20 102/135/29
f 103/136/28 105/137/27 104/138/28
f 105/137/27 103/136/28 106/139/27
f 107/140/32 104/141/28 108/142/32
f 111/143/33 112/144/33 100/145/34
f 115/146/35 116/147/35 113/148/36
f 98/149/15 97/150/15 114/151/36
f 114/151/13 98/149/14 113/152/13
f 117/153/4 64/154/4 63/155/4
f 63/155/4 118/156/4 117/153/4
f 63/155/4 120/157/4 119/158/4
f 63/155/4 121/159/4 120/157/4
f 119/158/4 120/157/4 122/160/4
f 47/161/4 42/162/4 41/163/4
f 45/164/4 52/165/4 51/166/4
f 51/166/4 46/167/4 45/164/4
f 126/168/4 54/169/4 53/170/4
f 41/171/2 42/172/2 43/173/2
f 43/173/2 44/174/2 41/171/2
f 49/175/2 50/176/2 51/177/2
f 51/177/2 52/178/2 49/175/2
f 55/88/2 56/179/2 53/86/2
f 57/180/2 58/181/2 59/182/2
f 59/182/2 60/183/2 57/180/2
f 61/91/2 62/184/2 63/89/2
f 69/97/14 71/96/13 70/185/14
f 75/186/32 77/187/28 76/188/32
f 77/187/28 75/186/32 78/189/26
f 83/108/22 85/107/21 84/190/22
f 72/191/13 87/192/37 71/193/13
f 87/192/37 72/191/13 88/194/37
f 84/112/24 83/195/24 89/110/23
f 80/114/33 79/196/33 68/113/9
f 66/117/10 65/197/10 78/116/38
f 90/120/23 89/198/23 82/119/34
f 91/128/22 93/126/21 92/199/22
f 95/131/31 96/200/16 94/129/30
f 96/201/17 97/202/18 95/203/17
f 97/202/18 96/201/17 98/204/14
f 104/141/38 103/205/39 107/140/40
f 106/206/41 105/207/41 109/208/9
f 109/208/12 106/206/27 110/209/12
f 100/145/20 111/143/19 99/210/20
f 102/211/23 101/212/23 92/213/24
f 92/213/22 102/211/29 91/214/22
f 113/148/36 114/215/36 115/146/35
f 110/216/9 109/217/42 112/218/33
f 112/218/19 110/216/12 111/219/19
f 63/155/4 119/158/4 118/156/4
f 61/220/4 44/221/4 43/222/4
f 43/222/4 62/223/4 61/220/4
f 41/163/4 48/224/4 47/161/4
f 49/225/4 56/226/4 55/227/4
f 55/227/4 50/228/4 49/225/4
f 123/229/4 60/230/4 59/231/4
f 59/231/4 124/232/4 123/229/4
f 53/170/4 125/233/4 126/168/4
f 123/234/2 124/235/2 126/236/2
f 126/236/2 125/237/2 123/234/2
usemtl road.011
f 127/238/2 128/239/2 119/240/2
f 120/241/3 129/242/3 127/243/3
f 127/243/3 122/244/3 120/241/3
f 130/245/5 118/246/5 119/247/5
f 60/248/5 29/249/5 31/250/5
f 31/250/5 57/251/5 60/248/5
f 60/248/5 125/252/5 29/249/5
f 125/252/5 53/253/5 56/254/5
f 56/254/5 52/255/5 29/249/5
f 52/255/5 48/256/5 29/249/5
f 48/256/5 44/257/5 29/249/5
f 48/256/5 41/258/5 44/257/5
f 64/259/5 117/260/5 29/249/5
f 117/260/5 24/261/5 29/249/5
f 19/262/2 130/263/2 129/264/2
f 118/265/2 130/263/2 23/266/2
f 7/52/2 8/53/2 9/8/2
f 30/267/3 20/268/3 19/269/3
f 30/267/3 121/270/3 63/271/3
f 30/267/3 47/272/3 51/273/3
f 30/267/3 51/273/3 55/274/3
f 59/275/3 32/276/3 30/267/3
f 43/277/3 63/271/3 62/278/3
f 47/272/3 43/277/3 42/279/3
f 33/280/3 131/281/3 87/282/3
f 26/283/29 132/284/29 131/285/29
f 133/286/5 132/287/5 26/26/5
f 26/26/5 27/28/5 133/286/5
f 76/288/5 135/289/5 34/290/5
f 34/290/5 136/291/5 76/288/5
f 139/292/3 14/12/3 15/55/3
f 14/293/23 139/294/23 140/295/23
f 140/295/23 40/296/23 14/293/23
f 136/297/23 38/298/23 39/299/23
f 108/300/5 138/301/5 36/302/5
f 36/302/5 140/303/5 108/300/5
f 137/304/7 138/305/7 108/306/7
f 135/307/7 76/308/7 115/309/7
f 76/308/7 136/310/7 115/309/7
f 35/311/3 142/312/3 115/313/3
f 115/313/3 141/314/3 35/311/3
f 57/315/4 31/316/4 32/317/4
f 32/317/4 58/318/4 57/315/4
f 119/240/2 122/319/2 127/238/2
f 130/320/1 128/321/1 127/322/1
f 127/322/1 129/323/1 130/320/1
f 119/247/5 128/324/5 130/245/5
f 60/248/5 123/325/5 125/252/5
f 125/252/5 56/254/5 29/249/5
f 56/254/5 49/326/5 52/255/5
f 52/255/5 45/327/5 48/256/5
f 44/257/5 64/259/5 29/249/5
f 44/257/5 61/328/5 64/259/5
f 117/260/5 23/329/5 24/261/5
f 120/330/2 121/331/2 19/262/2
f 19/262/2 129/264/2 120/330/2
f 130/263/2 19/262/2 23/266/2
f 23/266/2 117/332/2 118/265/2
f 9/8/2 5/5/2 7/52/2
f 30/267/3 19/269/3 121/270/3
f 30/267/3 63/271/3 43/277/3
f 30/267/3 43/277/3 47/272/3
f 30/267/3 55/274/3 126/333/3
f 30/267/3 126/333/3 59/275/3
f 51/273/3 47/272/3 46/334/3
f 55/274/3 51/273/3 50/335/3
f 126/333/3 55/274/3 54/336/3
f 59/275/3 126/333/3 124/337/3
f 32/276/3 59/275/3 58/338/3
f 87/339/7 131/340/7 132/341/7
f 132/341/7 133/342/7 87/339/7
f 133/342/7 134/343/7 87/339/7
f 37/344/23 134/345/23 133/346/23
f 133/346/23 27/347/23 37/344/23
f 87/282/3 134/348/3 33/280/3
f 134/348/3 37/349/3 33/280/3
f 131/285/29 33/350/29 26/283/29
f 34/290/5 38/351/5 136/291/5
f 137/352/29 15/353/29 36/354/29
f 36/354/29 138/355/29 137/352/29
f 15/55/3 137/356/3 139/292/3
f 39/299/23 141/357/23 136/297/23
f 36/302/5 40/358/5 140/303/5
f 108/306/7 139/359/7 137/304/7
f 108/306/7 140/360/7 139/359/7
f 115/309/7 142/361/7 135/307/7
f 136/310/7 141/362/7 115/309/7
f 142/363/29 35/364/29 34/365/29
f 34/365/29 135/366/29 142/363/29
f 141/314/3 39/367/3 35/311/3
