# Blender v3.1.2 OBJ File: ''
# www.blender.org
mtllib lightRed.mtl
o lightRed
v 0.010000 0.447239 -0.010000
v 0.010000 0.645655 -0.010000
v 0.010000 0.645655 0.010000
v 0.010000 0.190000 -0.010000
v 0.010000 0.190000 0.010000
v -0.010000 0.190000 0.010000
v -0.010000 0.645655 0.010000
v -0.010000 0.190000 -0.010000
v -0.010000 0.447239 -0.010000
v -0.010000 0.645655 -0.010000
v -0.017600 0.110000 0.017600
v 0.017600 0.110000 0.017600
v 0.017600 0.110000 -0.017600
v -0.017600 0.110000 -0.017600
v 0.017600 0.000000 -0.017600
v 0.017600 -0.000000 0.017600
v -0.017600 -0.000000 0.017600
v -0.017600 0.000000 -0.017600
v 0.022686 0.465647 -0.091067
v 0.022686 0.478745 -0.091067
v 0.022686 0.478745 -0.071844
v 0.022686 0.465647 -0.071844
v 0.022686 0.678047 -0.091066
v 0.022686 0.691145 -0.091066
v 0.022686 0.691145 -0.071844
v 0.022686 0.678047 -0.071844
v 0.035400 0.713447 -0.050000
v 0.035400 0.713447 -0.071844
v -0.035400 0.713447 -0.071844
v -0.035400 0.713447 -0.050000
v 0.035400 0.430247 -0.071844
v 0.035400 0.430247 -0.050000
v 0.022686 0.664949 -0.071844
v -0.022686 0.664949 -0.071844
v 0.000000 0.651851 -0.071844
v -0.022686 0.678047 -0.071844
v -0.022686 0.691145 -0.071844
v 0.000000 0.704243 -0.071844
v 0.000000 0.633443 -0.071844
v -0.022686 0.620345 -0.071844
v -0.022686 0.607247 -0.071844
v -0.022686 0.594149 -0.071844
v -0.022686 0.549545 -0.071844
v -0.022686 0.536447 -0.071844
v -0.022686 0.523349 -0.071844
v -0.022686 0.478745 -0.071844
v -0.022686 0.465647 -0.071844
v -0.022686 0.452549 -0.071844
v -0.035400 0.430247 -0.071844
v 0.000000 0.439451 -0.071844
v 0.000000 0.491843 -0.071844
v 0.000000 0.510251 -0.071844
v 0.000000 0.562643 -0.071844
v 0.000000 0.581051 -0.071844
v 0.022686 0.452549 -0.071844
v 0.022686 0.523349 -0.071844
v 0.022686 0.536447 -0.071844
v 0.022686 0.549545 -0.071844
v 0.022686 0.594149 -0.071844
v 0.022686 0.607247 -0.071844
v 0.022686 0.620345 -0.071844
v 0.000000 0.491843 -0.091067
v -0.022686 0.478745 -0.091067
v 0.022686 0.536447 -0.091067
v 0.022686 0.549545 -0.091067
v -0.022686 0.465647 -0.091067
v 0.000000 0.562643 -0.091067
v 0.000000 0.704243 -0.091066
v -0.022686 0.691145 -0.091066
v -0.035400 0.430247 -0.050000
v 0.029736 0.696455 -0.010000
v -0.029736 0.696455 -0.010000
v -0.022686 0.620345 -0.091066
v -0.022686 0.607247 -0.091067
v -0.022686 0.678047 -0.091066
v 0.022686 0.620345 -0.091066
v 0.000000 0.633443 -0.091066
v 0.022686 0.607247 -0.091067
v -0.022686 0.549545 -0.091067
v 0.029736 0.447239 -0.010000
v -0.029736 0.447239 -0.010000
v -0.022686 0.536447 -0.091067
vt 0.393701 17.607840
vt 0.393701 25.419500
vt -0.393701 25.419500
vt 0.393701 7.480315
vt -0.393701 7.480315
vt 0.393701 7.480315
vt 0.393701 17.607840
vt -0.393701 17.607840
vt -0.393701 17.607840
vt -0.393701 7.480315
vt 0.393701 7.480315
vt -0.692913 4.330709
vt -0.692913 0.000000
vt 0.692913 0.000000
vt -0.393701 7.480315
vt 0.393701 7.480315
vt 0.393701 25.419500
vt -0.393701 25.419500
vt -0.393701 25.419500
vt -0.393701 0.393701
vt -0.393701 -0.393701
vt 0.393701 -0.393701
vt -0.692913 4.245766
vt 0.692913 4.245766
vt 0.393701 7.409553
vt -0.692913 4.245766
vt 0.692913 4.245766
vt 0.393701 7.409553
vt 0.692913 4.330709
vt -0.692913 0.000000
vt 0.692913 0.000000
vt 0.692913 4.330709
vt -0.692913 4.330709
vt -0.393701 7.480315
vt 0.393701 25.419500
vt -0.692913 4.245766
vt 0.393701 7.409553
vt 0.692913 4.245766
vt -0.393701 7.409553
vt -0.393701 7.409553
vt 0.692913 4.245766
vt -0.393701 7.409553
vt 0.393701 7.409553
vt -0.692913 0.000000
vt 0.692913 4.330709
vt 0.692913 0.000000
vt -0.692913 4.330709
vt 0.692913 0.000000
vt -0.692913 4.330709
vt 0.692913 4.330709
vt 0.393701 0.393701
vt -0.393701 7.409553
vt -0.692913 4.245766
vt -0.692913 0.000000
vt 3.585300 18.332569
vt 2.828521 18.848240
vt 3.585300 18.848240
vt 3.585300 26.694771
vt 3.585300 27.210440
vt 2.828521 27.210440
vt -1.393701 -1.968504
vt 1.393701 -2.828521
vt -1.393701 -2.828521
vt 1.393701 -1.968504
vt 0.893165 26.179100
vt -0.893165 26.179100
vt -0.893165 26.694771
vt 0.893165 26.694771
vt 1.393701 28.088470
vt 0.893165 27.210440
vt 0.000000 27.726110
vt 0.893165 23.391701
vt 0.893165 23.907370
vt 0.893165 21.635639
vt 0.893165 17.816900
vt 0.893165 18.332569
vt 1.393701 16.938869
vt 0.000000 17.301229
vt -0.893165 17.816900
vt -1.393701 16.938869
vt -1.393701 28.088470
vt 0.893165 18.848240
vt -0.893165 18.332569
vt -0.893165 18.848240
vt 0.000000 19.363911
vt -0.893165 20.604300
vt -0.893165 21.119970
vt 0.000000 22.151310
vt -0.893165 23.391701
vt 0.000000 22.876030
vt -0.893165 23.907370
vt -0.893165 24.423040
vt 0.000000 24.938709
vt -0.893165 27.210440
vt 0.893165 24.423040
vt 2.828521 21.635639
vt 3.585300 21.119970
vt 2.828521 21.119970
vt 2.828521 8.650615
vt 3.585300 8.650615
vt 3.585300 9.681953
vt 2.828521 9.681953
vt 0.893165 20.604300
vt 0.000000 20.088631
vt 0.893165 21.119970
vt 0.000000 25.663429
vt -0.893165 21.635639
vt -3.585300 12.831720
vt -2.828521 13.863060
vt -2.828521 12.831720
vt 1.170709 11.082960
vt 1.393701 12.793970
vt -1.393701 12.793970
vt -3.585300 24.423040
vt -2.828521 23.907370
vt -3.585300 23.907370
vt -3.585300 27.210440
vt -2.828521 26.694771
vt -3.585300 26.694771
vt 2.828521 11.438020
vt 3.585300 12.469350
vt 3.585300 11.438020
vt 3.585300 23.907370
vt 3.585300 24.423040
vt 2.828521 24.423040
vt -2.828521 11.075650
vt -3.585300 10.044320
vt -3.585300 11.075650
vt -1.393701 4.811033
vt 1.393701 4.811033
vt 1.170709 6.522037
vt 0.393701 6.522037
vt -0.393701 6.522037
vt -1.170709 6.522037
vt 0.553947 27.419500
vt 2.144460 16.938869
vt 0.553947 17.607840
vt -2.144460 28.088470
vt -0.553947 17.607840
vt -2.144460 16.938869
vt 2.828521 12.831720
vt 3.585300 13.863060
vt 3.585300 12.831720
vt 1.170709 27.419500
vt -1.170709 17.607840
vt -1.170709 27.419500
vt 2.828521 18.332569
vt 2.828521 26.694771
vt 2.828521 16.938869
vt 2.828521 28.088470
vt 1.968504 28.088470
vt 1.968504 16.938869
vt -3.585300 8.650615
vt -2.828521 8.650615
vt -2.828521 9.681953
vt -3.585300 9.681953
vt 3.585300 21.635639
vt -2.828521 18.332569
vt -2.828521 18.848240
vt -3.585300 18.848240
vt -3.585300 18.332569
vt 3.585300 11.075650
vt 2.828521 11.075650
vt 2.828521 10.044320
vt 3.585300 10.044320
vt -3.585300 13.863060
vt -2.828521 28.088470
vt -1.968504 16.938869
vt -2.828521 16.938869
vt -1.968504 28.088470
vt -1.170709 11.082960
vt -2.828521 24.423040
vt -2.828521 27.210440
vt 2.828521 12.469350
vt 2.828521 23.907370
vt -2.828521 10.044320
vt 1.393701 -2.828521
vt 1.393701 -1.968504
vt -1.393701 -1.968504
vt -1.393701 -2.828521
vt 2.144460 28.088470
vt -0.553947 27.419500
vt -2.828521 12.469350
vt -3.585300 12.469350
vt -3.585300 11.438020
vt -2.828521 11.438020
vt 1.393701 28.088470
vt -1.393701 28.088470
vt -1.393701 16.938869
vt 1.393701 16.938869
vt -3.585300 21.635639
vt -2.828521 21.119970
vt -3.585300 21.119970
vt -2.828521 21.635639
vt 2.828521 13.863060
vt 1.170709 17.607840
vn 1.0000 -0.0000 0.0000
vn 0.0000 0.0000 -1.0000
vn -1.0000 -0.0000 0.0000
vn 0.0000 -0.0000 1.0000
vn 0.0000 1.0000 0.0000
vn 0.0000 0.0946 0.9955
vn 0.9955 0.0946 0.0000
vn 0.0000 -0.0946 0.9955
vn -0.9955 -0.0946 0.0000
vn 0.9955 -0.0946 0.0000
vn 0.0000 -1.0000 0.0000
vn 0.0000 -0.0946 -0.9955
vn 0.5000 0.8660 0.0000
vn 0.5000 -0.8660 0.0000
vn 0.0000 0.9204 0.3910
vn -0.5000 -0.8660 0.0000
vn 0.0000 -0.9204 0.3910
vn 0.0000 0.9204 -0.3910
vn -0.9901 0.0000 -0.1402
vn 0.9901 0.0000 -0.1402
vn -0.5000 0.8660 0.0000
vn 0.9901 -0.0000 0.1402
usemtl _defaultMat.017
s 1
f 1/1/1 2/2/1 3/3/1
f 3/3/1 4/4/1 1/1/1
f 4/5/2 8/6/2 9/7/2
f 9/7/2 1/8/2 4/5/2
f 9/9/3 8/10/3 6/11/3
f 12/12/1 16/13/1 15/14/1
f 6/15/4 5/16/4 3/17/4
f 3/17/4 7/18/4 6/15/4
f 6/11/3 10/19/3 9/9/3
f 3/20/5 2/21/5 10/22/5
f 11/23/6 12/24/6 5/25/6
f 12/26/7 13/27/7 4/28/7
f 15/14/1 13/29/1 12/12/1
f 15/30/2 18/31/2 14/32/2
f 14/32/2 13/33/2 15/30/2
usemtl grey.025
f 3/3/3 4/4/3 5/34/3
f 6/11/1 10/19/1 7/35/1
f 13/36/8 8/37/8 14/38/8
f 8/37/8 13/36/8 4/39/8
f 4/28/9 12/26/9 5/40/9
f 11/41/10 8/42/10 6/43/10
f 17/44/2 12/45/2 16/46/2
f 12/45/2 17/44/2 11/47/2
f 17/48/1 14/49/1 11/50/1
f 10/22/11 3/20/11 7/51/11
f 5/25/12 11/23/12 6/52/12
f 8/42/10 11/41/10 14/53/10
f 14/49/1 17/48/1 18/54/1
usemtl road.016
f 19/55/3 21/56/3 20/57/3
f 23/58/1 24/59/1 25/60/1
f 27/61/11 29/62/11 28/63/11
f 29/62/11 27/61/11 30/64/11
f 34/65/4 33/66/4 26/67/4
f 34/65/4 26/67/4 36/68/4
f 29/69/4 34/65/4 36/68/4
f 29/69/4 37/70/4 38/71/4
f 29/69/4 42/72/4 41/73/4
f 29/69/4 43/74/4 42/72/4
f 29/69/4 48/75/4 47/76/4
f 49/77/4 50/78/4 48/75/4
f 55/79/4 48/75/4 50/78/4
f 55/79/4 31/80/4 28/81/4
f 46/82/4 22/83/4 21/84/4
f 46/82/4 21/84/4 51/85/4
f 56/86/4 28/81/4 57/87/4
f 53/88/4 59/89/4 54/90/4
f 59/89/4 28/81/4 60/91/4
f 61/92/4 33/66/4 39/93/4
f 26/67/4 28/81/4 25/94/4
f 42/72/4 59/89/4 41/73/4
f 41/73/4 60/91/4 40/95/4
f 40/95/4 61/92/4 39/93/4
f 58/96/3 64/97/3 57/98/3
f 21/99/13 20/100/13 62/101/13
f 62/101/13 51/102/13 21/99/13
f 29/69/2 46/82/2 47/76/2
f 29/69/2 45/103/2 46/82/2
f 45/103/2 51/85/2 46/82/2
f 45/103/2 52/104/2 51/85/2
f 29/69/2 43/74/2 44/105/2
f 34/65/2 35/106/2 39/93/2
f 29/69/2 37/70/2 36/68/2
f 58/107/2 53/88/2 59/89/2
f 31/80/2 50/78/2 55/79/2
f 57/87/2 58/107/2 28/81/2
f 25/94/2 38/71/2 28/81/2
f 69/108/14 38/109/14 37/110/14
f 71/111/15 27/112/15 30/113/15
f 73/114/1 41/115/1 74/116/1
f 69/117/1 36/118/1 75/119/1
f 61/120/16 77/121/16 76/122/16
f 78/123/1 76/124/1 61/125/1
f 53/126/14 79/127/14 67/128/14
f 70/129/17 32/130/17 80/131/17
f 80/131/17 1/132/17 70/129/17
f 1/132/18 70/129/18 9/133/18
f 9/133/18 70/129/18 81/134/18
f 71/135/19 32/136/19 80/137/19
f 30/138/20 81/139/20 70/140/20
f 25/141/16 68/142/16 24/143/16
f 71/144/4 2/2/4 1/1/4
f 9/9/2 2/2/2 1/1/2
f 10/19/2 81/145/2 72/146/2
f 21/56/3 19/55/3 22/147/3
f 25/60/1 26/148/1 23/58/1
f 31/149/1 28/150/1 27/151/1
f 27/151/3 31/149/3 32/152/3
f 39/93/4 33/66/4 35/106/4
f 29/69/4 41/73/4 40/95/4
f 49/77/4 48/75/4 29/69/4
f 50/78/4 49/77/4 31/80/4
f 42/72/4 43/74/4 53/88/4
f 42/72/4 53/88/4 54/90/4
f 55/79/4 28/81/4 22/83/4
f 47/76/4 22/83/4 46/82/4
f 21/84/4 28/81/4 56/86/4
f 21/84/4 56/86/4 51/85/4
f 51/85/4 56/86/4 52/104/4
f 56/86/4 45/103/4 52/104/4
f 61/92/4 28/81/4 33/66/4
f 33/66/4 28/81/4 26/67/4
f 40/95/4 60/91/4 61/92/4
f 44/105/4 57/87/4 43/74/4
f 43/74/4 58/107/4 53/88/4
f 63/153/21 46/154/21 51/155/21
f 51/155/14 63/153/14 62/156/14
f 64/97/3 58/96/3 65/157/3
f 47/158/3 46/159/3 63/160/3
f 63/160/1 47/158/1 66/161/1
f 67/162/13 53/163/13 58/164/13
f 58/164/16 67/162/16 65/165/16
f 29/69/2 44/105/2 45/103/2
f 29/69/2 34/65/2 40/95/2
f 34/65/2 39/93/2 40/95/2
f 58/107/2 59/89/2 28/81/2
f 38/71/2 29/69/2 28/81/2
f 22/83/2 21/84/2 28/81/2
f 60/91/2 61/92/2 28/81/2
f 38/109/14 69/108/14 68/166/14
f 29/167/1 70/168/1 49/169/1
f 70/168/1 29/167/1 30/170/1
f 30/113/15 72/171/15 71/111/15
f 41/115/1 73/114/1 40/172/1
f 36/118/1 69/117/1 37/173/1
f 77/121/13 39/174/13 61/120/13
f 61/125/3 78/123/3 60/175/3
f 79/127/14 53/126/14 43/176/14
f 31/177/11 32/178/11 70/179/11
f 70/179/11 49/180/11 31/177/11
f 32/136/22 27/181/22 71/135/22
f 81/139/20 30/138/20 72/182/20
f 39/183/21 77/184/21 73/185/21
f 73/185/21 40/186/21 39/183/21
f 27/187/4 30/188/4 70/189/4
f 70/189/2 27/187/2 32/190/2
f 79/191/1 44/192/1 82/193/1
f 44/192/1 79/191/1 43/194/1
f 68/142/13 38/195/13 25/141/13
f 81/145/4 9/9/4 10/19/4
f 10/19/4 71/144/4 72/146/4
f 2/2/2 9/9/2 10/19/2
f 71/144/2 2/2/2 10/19/2
f 1/1/2 71/144/2 80/196/2
usemtl pylon.003
f 36/68/2 25/94/2 26/67/2
f 37/70/2 38/71/2 25/94/2
f 33/66/2 35/106/2 34/65/2
f 36/68/2 37/70/2 25/94/2
usemtl red.010
f 44/105/2 57/87/2 56/86/2
f 43/74/2 58/107/2 57/87/2
f 48/75/2 47/76/2 55/79/2
f 59/89/2 54/90/2 42/72/2
f 41/73/2 60/91/2 59/89/2
f 45/103/2 44/105/2 56/86/2
f 47/76/2 22/83/2 55/79/2
