# Blender v3.1.2 OBJ File: ''
# www.blender.org
mtllib pitsOfficeRoof.mtl
o pitsOfficeRoof
v -0.094429 0.510000 0.054429
v 0.000000 0.510000 1.000000
v 0.000000 0.510000 -0.040000
v -1.000000 0.510000 -0.040000
v -0.905571 0.510000 0.054429
v -0.905571 0.510000 0.905571
v -0.094429 0.510000 0.905571
v -1.000000 0.510000 1.000000
v 0.000000 0.311518 0.000000
v 0.000000 0.341910 0.000000
v 0.000000 0.341910 1.000000
v 0.000000 0.311518 0.020000
v 0.000000 0.072962 0.020000
v 0.000000 -0.000000 1.000000
v 0.000000 0.000000 0.000000
v 0.000000 0.072962 0.000000
v 0.000000 0.341910 -0.040000
v -1.000000 0.341910 0.000000
v -1.000000 0.341910 -0.040000
v -1.000000 0.000000 0.000000
v -1.000000 0.072962 0.000000
v -1.000000 0.311518 0.000000
v -0.474061 0.072962 0.020000
v -0.474061 0.311518 0.020000
v -0.474061 0.311518 0.040000
v -0.474061 0.072962 0.040000
v -0.051879 0.311518 0.020000
v -0.051879 0.072962 0.020000
v -0.051879 0.072962 0.040000
v -0.051879 0.311518 0.040000
v -0.525939 0.311518 0.020000
v -0.525939 0.072962 0.020000
v -0.525939 0.072962 0.040000
v -0.525939 0.311518 0.040000
v -0.948121 0.072962 0.020000
v -0.948121 0.311518 0.020000
v -0.948121 0.311518 0.040000
v -0.948121 0.072962 0.040000
v -1.000000 0.311518 0.020000
v -1.000000 0.072962 0.020000
v -0.905571 0.690000 0.054429
v -0.905571 0.690000 0.905571
v -0.094429 0.690000 0.905571
v -0.500000 0.820000 0.905571
v -0.094429 0.690000 0.054429
v -1.000000 -0.000000 1.000000
v -1.000000 0.341910 1.000000
v -0.781718 0.554889 0.054429
v -0.781718 0.655111 0.054429
v -0.500000 0.745411 0.054429
v -0.500000 0.820000 0.054429
v -0.218282 0.554889 0.054429
v -0.218282 0.655111 0.054429
v -0.781718 0.655111 0.094429
v -0.781718 0.554889 0.094429
v -0.500000 0.745411 0.094429
v -0.218282 0.655111 0.094429
v -0.218282 0.554889 0.094429
v -0.500000 0.851503 0.945571
v -0.500000 0.851503 0.014429
v -0.952820 0.706359 0.014429
v -0.952820 0.706358 0.945571
v -0.047181 0.706358 0.945571
v -0.047181 0.706359 0.014429
v -0.500000 0.820000 0.945571
v -0.056338 0.677790 0.945571
v -0.943662 0.677790 0.945571
v -0.500000 0.820000 0.014429
v -0.943662 0.677791 0.014429
v -0.056338 0.677791 0.014429
vt 3.717668 2.142865
vt 0.000000 39.370079
vt 0.000000 -1.574803
vt 39.370079 -1.574803
vt 35.652409 2.142865
vt 3.717668 35.652409
vt 35.652409 35.652409
vt 39.370079 39.370079
vt 0.000000 0.000000
vt 0.000000 2.872535
vt -0.787402 2.872535
vt -39.370079 0.000000
vt -39.370079 -1.574803
vt 0.000000 -1.574803
vt 39.370079 13.461020
vt 0.000000 13.461020
vt 0.000000 12.264480
vt 0.787402 12.264480
vt 0.787402 2.872535
vt 1.574803 2.872535
vt 1.574803 12.264480
vt 1.574803 2.872535
vt 1.574803 12.264480
vt 0.787402 12.264480
vt -0.787402 2.872535
vt -0.787402 12.264480
vt -1.574803 12.264480
vt -1.574803 2.872535
vt -2.042468 0.787402
vt -2.042468 1.574803
vt -18.663811 1.574803
vt -39.370079 0.000000
vt 0.000000 0.000000
vt 0.000000 0.787402
vt -18.663811 0.787402
vt -20.706270 0.787402
vt -37.327610 0.787402
vt -37.327610 1.574803
vt -20.706270 1.574803
vt 18.663811 2.872535
vt 20.706270 2.872535
vt 20.706270 12.264480
vt 37.327610 2.872535
vt 39.370079 2.872535
vt 39.370079 12.264480
vt 37.327610 12.264480
vt 0.000000 0.787402
vt 0.000000 0.000000
vt 39.370079 0.000000
vt 18.663811 0.787402
vt 2.042468 1.574803
vt 2.042468 0.787402
vt 20.706270 0.787402
vt 37.327610 0.787402
vt 20.706270 1.574803
vt 39.370079 0.787402
vt 37.327610 1.574803
vt 2.142865 27.165350
vt 2.142865 20.078739
vt 35.652409 20.078739
vt 35.652409 27.165350
vt -35.652409 20.078739
vt -3.717668 20.078739
vt -3.717668 27.165350
vt -2.142865 20.078739
vt -2.142865 27.165350
vt -35.652409 27.165350
vt -35.652409 20.078739
vt 39.370079 0.000000
vt 0.787402 12.264480
vt 0.787402 2.872535
vt 0.000000 13.461020
vt 0.000000 12.264480
vt -39.370079 0.000000
vt 0.000000 0.000000
vt 0.000000 13.461020
vt 30.776310 21.846041
vt 3.717668 20.078739
vt 35.652409 20.078739
vt 35.652409 27.165350
vt 30.776310 25.791759
vt 19.685040 29.346901
vt 19.685040 32.283470
vt 8.593771 21.846041
vt 3.717668 27.165350
vt 8.593771 25.791759
vt -2.142865 21.846041
vt -2.142865 25.791759
vt -3.717668 25.791759
vt -2.142865 -9.787791
vt -3.717668 -9.787791
vt -3.717668 -21.434910
vt -2.142865 -21.434910
vt 8.593771 3.717668
vt 8.593771 2.142865
vt 30.776310 2.142865
vt 30.776310 3.717668
vt -39.370079 13.461020
vt -0.787402 12.264480
vt -39.370079 0.000000
vt 0.000000 0.000000
vt 39.370079 0.000000
vt 39.370079 2.872535
vt 39.370079 12.264480
vt -0.787402 2.872535
vt -0.787402 12.264480
vt -1.574803 12.264480
vt -1.574803 2.872535
vt 0.787402 2.872535
vt 0.000000 2.872535
vt 2.042468 2.872535
vt 2.042468 12.264480
vt 0.000000 12.264480
vt -39.370079 0.787402
vt 18.663811 12.264480
vt 18.663811 1.574803
vt -35.652409 27.165350
vt -19.685040 32.283470
vt 0.000000 2.872535
vt 0.000000 0.000000
vt 39.370079 13.461020
vt -39.370079 13.461020
vt -3.717668 21.846041
vt 2.142865 16.056271
vt 3.717668 16.056271
vt 3.717668 27.703390
vt 2.142865 27.703390
vt 2.142865 25.791759
vt 2.142865 21.846041
vt 3.717668 21.846041
vt 3.717668 25.791759
vt 39.370079 20.078739
vt -1.574803 20.078739
vt 0.000000 13.461020
vt 39.370079 13.461020
vt 39.370079 20.078739
vt -39.370079 20.078739
vt 1.574803 13.461020
vt -35.652409 11.832150
vt -2.142865 11.832150
vt -2.142865 28.599739
vt 2.142865 -25.659031
vt 35.652409 -25.659031
vt 35.652409 -8.891440
vt 0.568062 -27.233829
vt 37.227211 -27.233829
vt 37.227211 -8.512855
vt -37.227211 10.257350
vt -0.568062 10.257350
vt -0.568062 28.978331
vt -19.685040 32.283470
vt -2.218021 26.684660
vt -1.857503 27.809401
vt -19.685040 33.523762
vt -37.512581 27.809401
vt -37.152061 26.684660
vt 19.685040 32.283470
vt 37.152061 26.684660
vt 37.512581 27.809401
vt 19.685040 33.523762
vt 1.857503 27.809401
vt -0.568062 24.734140
vt -0.568062 25.915239
vt -37.227211 25.915239
vt 37.227211 28.599739
vt 35.652409 28.599739
vt 35.652409 11.832150
vt 0.568062 10.257350
vt 2.142865 11.832150
vt -37.227211 -27.233829
vt -35.652409 -25.659031
vt -35.652409 -8.891440
vt -0.568062 -8.891440
vt -2.142865 -8.891440
vt -2.142865 -25.659031
vt -1.574803 13.461020
vt 0.000000 20.078739
vt -39.370079 20.078739
vt 0.000000 20.078739
vt 1.574803 20.078739
vt -35.652409 28.599739
vt 2.142865 -8.891440
vt 0.568062 -8.512855
vt -37.227211 28.978331
vt 2.218021 26.684660
vt -37.227211 24.734140
vt 37.227211 10.257350
vt 0.568062 28.599739
vt 2.142865 28.599739
vt 0.568062 37.932499
vt 0.568062 36.751400
vt 37.227211 36.751400
vt 37.227211 37.932499
vt -37.227211 -8.891440
vt -0.568062 -27.233829
vt 20.706270 2.872535
vt 37.327610 2.872535
vt 37.327610 12.264480
vt 30.776310 25.791759
vt 8.593771 25.791759
vt 8.593771 21.846041
vt 2.042468 2.872535
vt 18.663811 2.872535
vt 18.663811 12.264480
vt 2.042468 12.264480
vt 20.706270 12.264480
vt 30.776310 21.846041
vt 19.685040 29.346901
vt -2.142865 -25.659031
vt -37.227211 -27.233829
vt -0.568062 -27.233829
vt -39.370079 20.078739
vt 0.000000 13.461020
vt -39.370079 20.078739
vt -39.370079 13.461020
vt -2.142865 -25.659031
vt -37.227211 -27.233829
vt -0.568062 -27.233829
vn 0.0000 1.0000 0.0000
vn 1.0000 0.0000 0.0000
vn 0.0000 -1.0000 0.0000
vn 0.0000 0.0000 -1.0000
vn -1.0000 0.0000 0.0000
vn 0.0000 -0.0000 1.0000
vn 0.3052 -0.9523 0.0000
vn -0.3052 -0.9523 0.0000
vn 0.3052 0.9523 0.0000
vn -0.3052 0.9523 0.0000
vn 0.9523 -0.3052 -0.0000
vn -0.9523 -0.3052 -0.0000
usemtl grey.036
s 1
f 1/1/1 2/2/1 3/3/1
f 3/3/1 4/4/1 1/1/1
f 4/4/1 5/5/1 1/1/1
f 7/6/1 6/7/1 8/8/1
f 6/7/1 4/4/1 8/8/1
f 15/9/2 16/10/2 13/11/2
f 18/12/3 19/13/3 17/14/3
f 18/15/4 10/16/4 9/17/4
f 27/18/5 28/19/5 29/20/5
f 29/20/5 30/21/5 27/18/5
f 33/22/5 34/23/5 31/24/5
f 35/25/2 36/26/2 37/27/2
f 37/27/2 38/28/2 35/25/2
f 27/29/3 30/30/3 25/31/3
f 27/29/3 22/32/3 9/33/3
f 9/33/3 12/34/3 27/29/3
f 24/35/3 31/36/3 22/32/3
f 31/36/3 36/37/3 22/32/3
f 31/36/3 37/38/3 36/37/3
f 31/36/3 34/39/3 37/38/3
f 23/40/4 32/41/4 31/42/4
f 35/43/4 40/44/4 39/45/4
f 39/45/4 36/46/4 35/43/4
f 13/47/1 16/48/1 21/49/1
f 23/50/1 29/51/1 28/52/1
f 21/49/1 32/53/1 23/50/1
f 21/49/1 35/54/1 33/55/1
f 21/49/1 40/56/1 35/54/1
f 33/55/1 35/54/1 38/57/1
f 41/58/5 5/59/5 6/60/5
f 6/60/5 42/61/5 41/58/5
f 6/62/6 7/63/6 43/64/6
f 1/65/2 45/66/2 43/67/2
f 43/67/2 7/68/2 1/65/2
f 46/69/5 39/70/5 40/71/5
f 18/72/5 22/73/5 39/70/5
f 46/74/6 14/75/6 11/76/6
f 48/77/4 1/78/4 5/79/4
f 5/79/4 41/80/4 48/77/4
f 41/80/4 49/81/4 48/77/4
f 41/80/4 50/82/4 49/81/4
f 41/80/4 51/83/4 50/82/4
f 1/78/4 48/77/4 52/84/4
f 52/84/4 45/85/4 1/78/4
f 50/82/4 51/83/4 45/85/4
f 52/84/4 53/86/4 45/85/4
f 53/86/4 50/82/4 45/85/4
f 48/87/2 49/88/2 54/89/2
f 50/90/7 56/91/7 54/92/7
f 54/92/7 49/93/7 50/90/7
f 58/94/1 52/95/1 48/96/1
f 48/96/1 55/97/1 58/94/1
f 4/4/1 6/7/1 5/5/1
f 2/2/1 1/1/1 7/6/1
f 7/6/1 8/8/1 2/2/1
f 9/17/2 10/16/2 11/98/2
f 11/98/2 12/99/2 9/17/2
f 11/98/2 13/11/2 12/99/2
f 13/11/2 11/98/2 14/100/2
f 13/11/2 14/100/2 15/9/2
f 17/14/3 10/101/3 18/12/3
f 15/9/4 20/102/4 21/103/4
f 21/103/4 16/10/4 15/9/4
f 9/17/4 22/104/4 18/15/4
f 23/105/2 24/106/2 25/107/2
f 25/107/2 26/108/2 23/105/2
f 31/24/5 32/109/5 33/22/5
f 13/110/4 28/111/4 27/112/4
f 27/112/4 12/113/4 13/110/4
f 27/29/3 25/31/3 24/35/3
f 27/29/3 24/35/3 22/32/3
f 36/37/3 39/114/3 22/32/3
f 31/42/4 24/115/4 23/40/4
f 21/49/1 28/52/1 13/47/1
f 21/49/1 23/50/1 28/52/1
f 21/49/1 33/55/1 32/53/1
f 29/51/1 23/50/1 26/116/1
f 43/64/6 42/117/6 6/62/6
f 43/64/6 44/118/6 42/117/6
f 21/119/5 20/120/5 46/69/5
f 46/69/5 40/71/5 21/119/5
f 39/70/5 46/69/5 47/121/5
f 39/70/5 47/121/5 18/72/5
f 11/76/6 47/122/6 46/74/6
f 54/89/2 55/123/2 48/87/2
f 53/124/8 57/125/8 56/126/8
f 56/126/8 50/127/8 53/124/8
f 53/128/5 52/129/5 58/130/5
f 58/130/5 57/131/5 53/128/5
usemtl red.019
f 18/72/5 8/132/5 4/133/5
f 18/72/5 47/121/5 8/132/5
f 17/134/4 19/135/4 4/136/4
f 2/137/2 10/16/2 17/138/2
f 43/139/9 45/140/9 51/141/9
f 41/142/10 42/143/10 44/144/10
f 61/145/10 62/146/10 59/147/10
f 63/148/9 64/149/9 60/150/9
f 65/151/6 66/152/6 63/153/6
f 65/151/6 59/154/6 62/155/6
f 62/155/6 67/156/6 65/151/6
f 68/157/4 69/158/4 61/159/4
f 68/157/4 60/160/4 64/161/4
f 70/162/11 64/163/11 63/164/11
f 65/165/8 44/166/8 43/167/8
f 70/168/8 43/167/8 45/169/8
f 67/170/7 42/171/7 44/172/7
f 68/173/7 51/174/7 41/175/7
f 4/133/5 19/176/5 18/72/5
f 47/122/6 11/76/6 2/177/6
f 2/177/6 8/178/6 47/122/6
f 4/136/4 3/179/4 17/134/4
f 17/138/2 3/180/2 2/137/2
f 2/137/2 11/98/2 10/16/2
f 51/141/9 44/181/9 43/139/9
f 44/144/10 51/182/10 41/142/10
f 59/147/10 60/183/10 61/145/10
f 60/150/9 59/184/9 63/148/9
f 63/153/6 59/154/6 65/151/6
f 61/159/4 60/160/4 68/157/4
f 64/161/4 70/185/4 68/157/4
f 63/164/11 66/186/11 70/162/11
f 43/167/8 70/168/8 66/187/8
f 66/187/8 65/165/8 43/167/8
f 45/169/8 68/188/8 70/168/8
f 45/169/8 51/189/8 68/188/8
f 61/190/12 69/191/12 67/192/12
f 67/192/12 62/193/12 61/190/12
f 44/172/7 65/194/7 67/170/7
f 67/170/7 41/175/7 42/171/7
f 41/175/7 67/170/7 69/195/7
f 41/175/7 69/195/7 68/173/7
usemtl glass.006
f 33/196/4 38/197/4 37/198/4
f 54/199/4 57/200/4 58/201/4
f 29/202/4 26/203/4 25/204/4
f 25/204/4 30/205/4 29/202/4
f 37/198/4 34/206/4 33/196/4
f 58/201/4 55/207/4 54/199/4
f 54/199/4 56/208/4 57/200/4
usemtl _defaultMat.023
f 5/209/1 6/210/1 7/211/1
f 10/212/3 11/98/3 47/213/3
f 47/214/3 18/215/3 10/16/3
f 7/216/1 1/217/1 5/218/1
