# Blender v3.1.2 OBJ File: ''
# www.blender.org
mtllib pitsGarage.mtl
o pitsGarage
v 0.000000 0.543812 -0.040000
v 0.000000 0.543812 -0.090000
v 0.000000 0.700000 -0.090000
v 0.000000 0.700000 1.000000
v 0.000000 0.435928 -0.040000
v 0.000000 0.395166 0.000000
v 0.000000 0.000000 0.000000
v 0.000000 -0.000000 1.000000
v -1.000000 -0.000000 1.000000
v -1.000000 0.700000 1.000000
v -1.000000 0.543812 -0.040000
v -1.000000 0.435928 -0.040000
v -1.000000 0.395166 0.000000
v -1.000000 0.700000 -0.090000
v -1.000000 0.543812 -0.090000
v -1.000000 0.000000 0.000000
v -0.542418 0.020000 0.084836
v -0.542418 0.010000 0.000000
v -0.915164 0.010000 0.000000
v -0.915164 0.020000 0.084836
v -0.084836 0.020000 0.084836
v -0.084836 0.010000 0.000000
v -0.457582 0.010000 0.000000
v -0.457582 0.020000 0.084836
v -0.542418 0.449571 0.000000
v -0.542418 0.137099 0.000000
v -0.542418 0.137099 0.084836
v -0.542418 0.449571 0.084836
v -0.084836 0.020000 0.910000
v -0.915164 0.020000 0.910000
v -0.457582 0.137099 0.084836
v -0.457582 0.137099 0.000000
v -0.457582 0.449571 0.000000
v -0.457582 0.449571 0.084836
v -0.084836 0.395166 0.000000
v -0.084836 0.449571 0.000000
v -0.084836 0.449571 0.910000
v -0.084836 0.543812 0.000000
v -0.084836 0.435928 -0.040000
v -0.084836 0.543812 -0.040000
v -0.915164 0.395166 0.000000
v -0.915164 0.449571 0.000000
v -0.915164 0.449571 0.910000
v -0.915164 0.543812 0.000000
v -0.915164 0.435928 -0.040000
v -0.915164 0.543812 -0.040000
vt 1.574803 21.409910
vt 3.543307 21.409910
vt 3.543307 27.559059
vt -39.370079 27.559059
vt 1.574803 17.162519
vt -0.000000 15.557730
vt -39.370079 0.000000
vt 0.000000 0.000000
vt 0.000000 27.559059
vt -39.370079 27.559059
vt 0.000000 0.000000
vt 39.370079 0.000000
vt 39.370079 27.559059
vt 39.370079 39.370079
vt 0.000000 39.370079
vt 0.000000 -3.543307
vt 3.340016 3.409227
vt 3.340016 0.046088
vt 18.015030 0.046088
vt 3.340016 5.397598
vt 3.340016 17.699640
vt 0.000000 17.699640
vt 3.340016 35.826771
vt 3.340016 3.340016
vt 18.015030 3.340016
vt 36.030060 35.826771
vt 21.355049 3.340016
vt 36.030060 3.340016
vt -3.340016 5.397598
vt -0.000000 5.397598
vt -0.000000 17.699640
vt -3.340016 17.699640
vt 3.340016 0.787402
vt 0.000000 17.699640
vt 0.000000 15.557730
vt 35.826771 17.699640
vt -1.574803 17.162519
vt 0.000000 21.409910
vt -3.340016 0.787402
vt 0.000000 0.393701
vt -0.000000 15.557730
vt -35.826771 17.699640
vt -35.826771 0.787402
vt -0.000000 21.409910
vt 1.574803 17.162519
vt -36.030060 35.826771
vt -18.015030 3.340016
vt -3.340016 0.000000
vt -21.355049 3.340016
vt -36.030060 0.000000
vt -21.355049 0.000000
vt -18.015030 0.000000
vt 3.340016 0.787402
vt 36.030060 0.787402
vt 36.030060 17.699640
vt 3.340016 17.699640
vt -3.340016 -1.574803
vt -3.340016 0.000000
vt -36.030060 0.000000
vt -36.030060 -1.574803
vt -0.000000 -1.574803
vt -39.370079 -3.543307
vt -39.370079 -1.574803
vt 39.370079 21.409910
vt 36.030060 21.409910
vt 36.030060 17.162519
vt 21.355049 17.699640
vt 36.030060 17.699640
vt 36.030060 21.409910
vt 3.340016 17.699640
vt 18.015030 17.699640
vt 18.015030 5.397598
vt 21.355049 5.397598
vt 3.340016 21.409910
vt 0.000000 21.409910
vt 0.000000 17.162519
vt 39.370079 15.557730
vt 36.030060 15.557730
vt 36.030060 0.393701
vt -0.000000 0.000000
vt 18.015030 0.393701
vt 3.340016 0.393701
vt 3.340016 15.557730
vt -39.370079 0.000000
vt -1.574803 21.409910
vt -1.574803 17.162519
vt 0.000000 15.557730
vt -3.543307 27.559059
vt -3.543307 21.409910
vt 39.370079 -3.543307
vt 21.355049 3.409227
vt 21.355049 0.046088
vt 36.030060 0.046088
vt 36.030060 3.409228
vt 18.015030 3.409227
vt 0.000000 5.397598
vt 0.000000 0.393701
vt 35.826771 0.787402
vt -1.574803 21.409910
vt -0.000000 17.699640
vt 1.574803 21.409910
vt -3.340016 35.826771
vt -21.355049 5.397598
vt -18.015030 5.397598
vt -18.015030 17.699640
vt -21.355049 17.699640
vt -0.000000 -3.543307
vt 39.370079 17.162519
vt 3.340016 21.409910
vt 3.340016 17.162519
vt 21.355049 0.393701
vt 39.370079 0.000000
vt -0.000000 21.409910
vt -0.000000 17.699640
vt 0.000000 15.557730
vt 0.000000 17.699640
vt 0.000000 21.409910
vt -0.000000 5.397598
vt -3.340016 5.397598
vt -3.340016 0.787402
vt -18.015030 17.699640
vt -21.355049 17.699640
vt -21.355049 5.397598
vt -18.015030 17.699640
vt -21.355049 17.699640
vt -21.355049 5.397598
vt -0.000000 21.409910
vt -0.000000 17.699640
vt -0.000000 15.557730
vt 0.000000 17.699640
vt 0.000000 21.409910
vt 3.340016 0.393701
vt 3.340016 15.557730
vt -0.000000 15.557730
vt 3.340016 0.393701
vt 3.340016 15.557730
vt -0.000000 15.557730
vt -3.340016 5.397598
vt -3.340016 0.787402
vt -3.997448 1.181282
vt -1.997447 1.181283
vt -1.997447 1.806037
vt -3.997448 1.806036
vt 0.000000 0.393701
vt -21.355049 0.787402
vt 3.340016 0.787402
vt -18.015030 0.787402
vt -3.340016 0.787402
vt -0.000000 0.393701
vn 1.0000 0.0000 0.0000
vn 0.0000 -0.0000 1.0000
vn -1.0000 0.0000 0.0000
vn 0.0000 1.0000 0.0000
vn 0.0000 0.9931 -0.1171
vn -0.1961 -0.0162 -0.9805
vn 0.0000 -1.0000 -0.0000
vn 0.0000 0.0000 -1.0000
vn 0.1790 0.0000 -0.9838
vn 0.0000 -0.7004 -0.7137
usemtl grey.031
s 1
f 1/1/1 2/2/1 3/3/1
f 3/3/1 4/4/1 1/1/1
f 4/4/1 5/5/1 1/1/1
f 4/4/1 6/6/1 5/5/1
f 9/7/2 8/8/2 4/9/2
f 4/9/2 10/10/2 9/7/2
f 16/11/3 9/12/3 10/13/3
f 10/14/4 4/15/4 3/16/4
f 21/17/5 22/18/5 23/19/5
f 27/20/3 28/21/3 25/22/3
f 29/23/4 21/24/4 24/25/4
f 24/25/4 30/26/4 29/23/4
f 24/25/4 17/27/4 30/26/4
f 17/27/4 20/28/4 30/26/4
f 31/29/1 32/30/1 33/31/1
f 33/31/1 34/32/1 31/29/1
f 21/33/3 36/34/6 35/35/3
f 21/33/3 37/36/3 36/34/6
f 39/37/3 35/35/3 38/38/3
f 20/39/1 19/40/1 41/41/1
f 43/42/1 30/43/1 20/39/1
f 44/44/1 41/41/1 45/45/1
f 43/46/7 34/47/7 36/48/7
f 43/46/7 28/49/7 34/47/7
f 43/46/7 42/50/7 25/51/7
f 36/48/7 34/47/7 33/52/7
f 29/53/8 30/54/8 43/55/8
f 43/55/8 37/56/8 29/53/8
f 40/57/7 38/58/7 44/59/7
f 40/57/7 44/59/7 46/60/7
f 1/61/7 40/57/7 15/62/7
f 46/60/7 11/63/7 15/62/7
f 11/64/8 46/65/8 45/66/8
f 25/67/8 42/68/8 44/69/8
f 44/69/8 36/70/8 33/71/8
f 32/72/8 26/73/8 25/67/8
f 40/74/8 1/75/8 5/76/8
f 13/77/8 41/78/8 19/79/8
f 7/80/8 23/81/8 22/82/8
f 22/82/8 6/6/8 7/80/8
f 22/82/8 35/83/8 6/6/8
f 4/4/1 7/80/1 6/6/1
f 4/4/1 8/84/1 7/80/1
f 11/85/3 12/86/3 13/87/3
f 11/85/3 13/87/3 10/13/3
f 11/85/3 10/13/3 14/88/3
f 14/88/3 15/89/3 11/85/3
f 13/87/3 16/11/3 10/13/3
f 3/16/4 14/90/4 10/14/4
f 17/91/5 18/92/5 19/93/5
f 19/93/5 20/94/5 17/91/5
f 23/19/5 24/95/5 21/17/5
f 25/22/3 26/96/3 27/20/3
f 35/35/3 22/97/3 21/33/3
f 21/33/3 29/98/3 37/36/3
f 35/35/3 36/34/6 38/38/3
f 38/38/3 40/99/3 39/37/3
f 41/41/1 42/100/9 20/39/1
f 42/100/9 43/42/1 20/39/1
f 44/44/1 42/100/9 41/41/1
f 45/45/1 46/101/1 44/44/1
f 36/48/7 37/102/7 43/46/7
f 43/46/7 25/51/7 28/49/7
f 27/103/2 31/104/2 34/105/2
f 34/105/2 28/106/2 27/103/2
f 40/57/7 46/60/7 15/62/7
f 15/62/7 2/107/7 1/61/7
f 45/66/8 12/108/8 11/64/8
f 44/69/8 33/71/8 25/67/8
f 44/69/8 38/109/8 36/70/8
f 25/67/8 33/71/8 32/72/8
f 5/76/8 39/110/8 40/74/8
f 23/81/8 19/79/8 18/111/8
f 19/79/8 23/81/8 7/80/8
f 19/79/8 7/80/8 16/112/8
f 16/112/8 13/77/8 19/79/8
usemtl _defaultMat.019
f 12/113/10 45/114/10 41/41/10
f 39/115/10 5/116/10 6/117/10
f 31/118/4 32/119/4 26/120/4
f 8/121/4 7/122/4 16/123/4
f 16/124/4 9/125/4 8/126/4
f 41/127/10 13/128/10 12/129/10
f 6/6/10 35/130/10 39/131/10
f 24/132/5 23/133/5 18/134/5
f 18/135/5 17/136/5 24/137/5
f 26/96/4 27/138/4 31/139/4
usemtl tankco.005
f 2/140/8 15/141/8 14/142/8
f 14/142/8 3/143/8 2/140/8
usemtl red.014
f 27/20/3 26/96/3 18/144/3
f 31/104/2 27/103/2 17/145/2
f 32/72/8 23/81/8 18/111/8
f 18/111/8 26/73/8 32/72/8
f 18/144/3 17/146/3 27/20/3
f 17/145/2 24/147/2 31/104/2
f 24/148/1 23/149/1 32/30/1
f 32/30/1 31/29/1 24/148/1
