# Blender v3.1.2 OBJ File: ''
# www.blender.org
mtllib rail.mtl
o rail
v -0.042739 0.140000 -0.020000
v 0.000000 0.140000 -0.020000
v 0.000000 0.140000 -0.050000
v -0.085479 0.140000 -0.020000
v -0.914522 0.140000 -0.020000
v -0.957261 0.140000 -0.020000
v -1.000000 0.140000 -0.020000
v -1.000000 0.140000 -0.050000
v 0.000000 0.116064 -0.040000
v 0.000000 0.073937 -0.040000
v -1.000000 0.073937 -0.040000
v -1.000000 0.116064 -0.040000
v 0.000000 0.050000 -0.020000
v 0.000000 0.050000 -0.050000
v -0.042739 0.050000 -0.020000
v -0.085479 0.050000 -0.020000
v -0.914522 0.050000 -0.020000
v -0.957261 0.050000 -0.020000
v -1.000000 0.050000 -0.020000
v -1.000000 0.050000 -0.050000
v -0.914522 0.000000 -0.000000
v -0.914522 0.000000 -0.020000
v -0.914522 0.160000 -0.000000
v -0.914522 0.160000 -0.020000
v -0.957261 0.160000 -0.000000
v -0.957261 0.160000 -0.020000
v -0.957261 0.000000 -0.020000
v -0.957261 0.000000 -0.000000
v -0.085479 0.000000 -0.020000
v -0.085479 0.000000 0.000000
v -0.085479 0.160000 0.000000
v -0.085479 0.160000 -0.020000
v -0.042739 0.160000 0.000000
v -0.042739 0.160000 -0.020000
v -0.042739 0.000000 0.000000
v -0.042739 0.000000 -0.020000
vt 0.787402 1.682648
vt 0.787402 -0.000000
vt 1.968504 -0.000000
vt 0.787402 3.365296
vt 0.787402 36.004780
vt 0.787402 37.687431
vt 1.968504 39.370079
vt 0.787402 39.370079
vt 0.000000 4.569429
vt 0.000000 2.910886
vt 39.370079 2.910886
vt 39.370079 4.569429
vt 1.574803 2.910886
vt 0.787402 5.511811
vt 0.787402 1.968504
vt 1.574803 4.569429
vt -1.968504 -0.000000
vt -0.787402 -0.000000
vt -0.787402 1.682648
vt -0.787402 3.365296
vt -0.787402 36.004780
vt -1.574803 2.910886
vt -1.968504 1.968504
vt -0.787402 1.968504
vt -0.787402 5.511811
vt -1.574803 4.569429
vt -1.968504 5.511811
vt 39.370079 1.057540
vt 39.370079 2.078854
vt 0.000000 2.078854
vt -0.000000 0.000000
vt 0.787402 0.000000
vt 0.787402 1.968504
vt 0.787402 5.511811
vt -0.000000 6.299212
vt 0.787402 6.299212
vt -0.000000 37.687431
vt -0.000000 36.004780
vt 0.787402 36.004780
vt 0.787402 37.687431
vt 0.000000 6.299212
vt -0.787402 1.968504
vt -0.787402 0.000000
vt -0.787402 5.511811
vt -0.787402 6.299212
vt -0.787402 36.004780
vt 0.000000 36.004780
vt 0.000000 37.687431
vt -0.787402 37.687431
vt 37.687431 5.511811
vt 37.687431 6.299212
vt 36.004780 6.299212
vt 36.004780 1.968504
vt 36.004780 0.000000
vt 37.687431 0.000000
vt 37.687431 1.968504
vt -39.370079 5.511811
vt -39.370079 1.968504
vt -37.687431 1.968504
vt -0.787402 -0.000000
vt -0.000000 -0.000000
vt -0.000000 6.299212
vt -0.787402 5.511811
vt -0.787402 1.968504
vt 0.000000 3.365296
vt 0.000000 1.682648
vt 0.787402 1.682648
vt 0.787402 3.365296
vt -0.000000 -0.000000
vt 0.787402 -0.000000
vt 0.787402 1.968504
vt -0.000000 6.299212
vt 1.682648 6.299212
vt 1.682648 5.511811
vt 3.365296 5.511811
vt -0.787402 1.682648
vt -0.000000 1.682648
vt -0.000000 3.365296
vt -0.787402 3.365296
vt 1.682648 1.968504
vt 1.682648 -0.000000
vt 3.365296 -0.000000
vt 3.365296 1.968504
vt -36.004780 5.511811
vt -36.004780 1.968504
vt -3.365296 1.968504
vt -1.682648 5.511811
vt -1.682648 1.968504
vt 0.000000 1.968504
vt 1.968504 1.968504
vt 1.968504 5.511811
vt -0.787402 37.687431
vt -0.787402 39.370079
vt -1.968504 39.370079
vt 0.000000 1.057540
vt 39.370079 5.844655
vt 0.000000 5.844655
vt 0.000000 4.823340
vt 39.370079 4.823340
vt 0.000000 0.000000
vt 36.004780 5.511811
vt -36.004780 0.000000
vt -36.004780 6.299212
vt -37.687431 6.299212
vt -37.687431 0.000000
vt -37.687431 5.511811
vt -0.787402 6.299212
vt 0.787402 5.511811
vt 0.787402 6.299212
vt -1.682648 0.000000
vt -1.682648 6.299212
vt -3.365296 6.299212
vt -3.365296 0.000000
vt 3.365296 6.299212
vt -3.365296 5.511811
vt 0.000000 5.511811
vn 0.0000 1.0000 0.0000
vn 0.0000 0.0000 -1.0000
vn 1.0000 0.0000 0.0000
vn 0.0000 -1.0000 0.0000
vn -1.0000 0.0000 0.0000
vn 0.0000 0.3855 -0.9227
vn 0.0000 -0.0000 1.0000
vn 0.0000 -0.3855 -0.9227
usemtl grey.042
s 1
f 1/1/1 2/2/1 3/3/1
f 3/3/1 4/4/1 1/1/1
f 3/3/1 5/5/1 4/4/1
f 3/3/1 6/6/1 5/5/1
f 3/3/1 8/7/1 7/8/1
f 9/9/2 10/10/2 11/11/2
f 11/11/2 12/12/2 9/9/2
f 10/13/3 2/14/3 13/15/3
f 10/13/3 9/16/3 2/14/3
f 14/17/4 13/18/4 15/19/4
f 15/19/4 16/20/4 14/17/4
f 16/20/4 17/21/4 14/17/4
f 11/22/5 20/23/5 19/24/5
f 7/25/5 12/26/5 11/22/5
f 7/25/5 8/27/5 12/26/5
f 20/28/6 11/29/6 10/30/6
f 21/31/3 22/32/3 17/33/3
f 17/33/3 5/34/3 23/35/3
f 5/34/3 24/36/3 23/35/3
f 25/37/1 23/38/1 24/39/1
f 24/39/1 26/40/1 25/37/1
f 25/41/5 18/42/5 27/43/5
f 25/41/5 6/44/5 18/42/5
f 25/41/5 26/45/5 6/44/5
f 22/46/4 21/47/4 28/48/4
f 28/48/4 27/49/4 22/46/4
f 6/50/2 26/51/2 24/52/2
f 17/53/2 22/54/2 27/55/2
f 27/55/2 18/56/2 17/53/2
f 7/57/7 19/58/7 18/59/7
f 29/60/5 30/61/5 31/62/5
f 31/62/5 4/63/5 16/64/5
f 31/65/1 33/66/1 34/67/1
f 34/67/1 32/68/1 31/65/1
f 35/69/3 36/70/3 15/71/3
f 15/71/3 33/72/3 35/69/3
f 34/73/2 1/74/2 4/75/2
f 36/76/4 35/77/4 30/78/4
f 30/78/4 29/79/4 36/76/4
f 15/80/2 36/81/2 29/82/2
f 29/82/2 16/83/2 15/80/2
f 5/84/7 17/85/7 16/86/7
f 1/87/7 15/88/7 13/89/7
f 3/3/1 7/8/1 6/6/1
f 13/15/3 14/90/3 10/13/3
f 9/16/3 3/91/3 2/14/3
f 17/21/4 18/92/4 14/17/4
f 18/92/4 19/93/4 14/17/4
f 19/93/4 20/94/4 14/17/4
f 19/24/5 7/25/5 11/22/5
f 10/30/6 14/95/6 20/28/6
f 8/96/8 3/97/8 9/98/8
f 9/98/8 12/99/8 8/96/8
f 17/33/3 23/35/3 21/31/3
f 27/43/5 28/100/5 25/41/5
f 24/52/2 5/101/2 6/50/2
f 21/102/7 23/103/7 25/104/7
f 25/104/7 28/105/7 21/102/7
f 18/59/7 6/106/7 7/57/7
f 31/62/5 16/64/5 29/60/5
f 31/62/5 32/107/5 4/63/5
f 15/71/3 1/108/3 33/72/3
f 1/108/3 34/109/3 33/72/3
f 35/110/7 33/111/7 31/112/7
f 31/112/7 30/113/7 35/110/7
f 4/75/2 32/114/2 34/73/2
f 16/86/7 4/115/7 5/84/7
f 13/89/7 2/116/7 1/87/7
