# Blender v3.1.2 OBJ File: ''
# www.blender.org
mtllib ramp.mtl
o ramp
v 0.000000 0.330000 0.730000
v 0.000000 0.330000 0.660417
v -0.550000 0.330000 0.660417
v -0.550000 0.330000 0.730000
v 0.000000 -0.000000 0.246582
v 0.000000 0.000000 0.000000
v 0.000000 0.241556 0.730000
v -0.020000 0.241556 0.730000
v -0.045016 0.241556 0.730000
v -0.504984 0.241556 0.730000
v -0.530000 0.241556 0.730000
v -0.550000 0.241556 0.730000
v -0.550000 0.000000 0.000000
v -0.550000 -0.000000 0.246582
v -0.045016 0.221434 0.689731
v -0.045016 0.104047 0.454808
v -0.045016 0.083778 0.414245
v -0.504984 0.221434 0.689731
v -0.504984 0.083778 0.414245
v -0.020000 0.083778 0.414245
v -0.020000 0.221434 0.689731
v -0.020000 0.104047 0.454808
v -0.504984 0.104047 0.454808
v -0.530000 0.083778 0.414245
v -0.530000 0.104047 0.454808
v -0.530000 0.221434 0.689731
v -0.504984 0.104047 0.689731
v -0.504984 0.104047 0.730000
v -0.504984 0.083778 0.689731
v -0.504984 -0.000000 0.689731
v -0.504984 0.083778 0.730000
v -0.504984 -0.000000 0.730000
v -0.045016 -0.000000 0.730000
v -0.020000 -0.000000 0.730000
v -0.045016 0.083778 0.730000
v -0.045016 0.104047 0.730000
v -0.530000 -0.000000 0.730000
v -0.045016 0.104047 0.689731
v -0.045016 0.083778 0.689731
v -0.045016 -0.000000 0.689731
v -0.530000 0.083778 0.689731
v -0.020000 0.083778 0.689731
v -0.530000 0.104047 0.689731
v -0.020000 0.104047 0.689731
v -0.530000 -0.000000 0.689731
v -0.020000 -0.000000 0.689731
vt 0.000000 28.740160
vt 0.000000 26.000660
vt 21.653540 26.000660
vt -9.707965 0.000000
vt 0.000000 0.000000
vt -26.000660 12.992130
vt -28.740160 9.510091
vt 0.000000 12.992130
vt -19.881250 9.510091
vt -1.772289 9.510091
vt -20.866140 9.510091
vt -21.653540 9.510091
vt -21.653540 12.992130
vt 26.000660 12.992130
vt 0.000000 0.000000
vt 9.707965 0.000000
vt 28.740160 9.510091
vt 28.740160 12.992130
vt 0.000000 29.065950
vt 21.653540 -0.000000
vt -0.787402 16.063231
vt -1.772289 16.063231
vt -21.653540 8.684164
vt 0.000000 8.684164
vt -0.787402 29.960119
vt -0.787402 28.187830
vt -0.787402 17.848480
vt -1.772289 28.187830
vt -1.772289 17.848480
vt -19.881250 16.063231
vt -20.866140 16.063231
vt -21.653540 29.960119
vt -20.866140 17.848480
vt -19.881250 17.848480
vt -19.881250 28.187830
vt -20.866140 28.187830
vt -20.866140 29.960119
vt 21.653540 28.740160
vt -28.740160 12.992130
vt -0.787402 9.510091
vt 0.000000 9.510091
vt 21.653540 29.065950
vt -1.772289 29.960119
vt -19.881250 29.960119
vt 0.000000 29.960119
vt -28.740160 9.510091
vt -28.740160 4.096336
vt -27.154770 4.096336
vt -17.905809 4.096336
vt -27.154770 3.298355
vt -16.308840 3.298355
vt -28.740160 3.298355
vt -28.740160 0.000000
vt -27.154770 0.000000
vt -1.772289 3.298355
vt -1.772289 0.000000
vt -19.881250 3.298355
vt -1.772289 4.096336
vt -19.881250 4.096336
vt -20.866140 0.000000
vt -19.881250 0.000000
vt 27.154770 8.717899
vt 27.154770 4.096336
vt 28.740160 4.096336
vt -1.772289 27.154770
vt -1.772289 16.308840
vt -0.787402 16.308840
vt 19.881250 27.154770
vt 19.881250 28.740160
vt 1.772289 28.740160
vt 20.866140 17.905809
vt 20.866140 27.154770
vt 1.772289 17.905809
vt 1.772289 27.154770
vt 0.787402 27.154770
vt 1.772289 3.298355
vt 19.881250 3.298355
vt 19.881250 4.096336
vt 1.772289 4.096336
vt 0.787402 4.096336
vt 1.772289 8.717899
vt 0.787402 3.298355
vt 0.787402 0.000000
vt 28.740160 0.000000
vt 27.154770 4.096336
vt 27.154770 3.298355
vt 28.740160 9.510091
vt 27.154770 8.717899
vt 17.905809 4.096336
vt 16.308840 3.298355
vt -28.740160 9.510091
vt -27.154770 0.000000
vt -27.154770 3.298355
vt -16.308840 3.298355
vt -17.905809 4.096336
vt -27.154770 8.717899
vt -0.787402 0.000000
vt 28.740160 9.510091
vt 27.154770 3.298355
vt 17.905809 4.096336
vt 16.308840 3.298355
vt 27.154770 0.000000
vt 28.740160 0.000000
vt 28.740160 3.298355
vt -1.772289 28.740160
vt -19.881250 28.740160
vt -19.881250 27.154770
vt -19.881250 16.308840
vt -20.866140 27.154770
vt -20.866140 16.308840
vt -0.787402 27.154770
vt 19.881250 17.905809
vt 0.787402 17.905809
vt 19.881250 0.000000
vt 20.866140 0.000000
vt 20.866140 3.298355
vt 20.866140 4.096336
vt 20.866140 8.717899
vt 19.881250 8.717899
vt 0.787402 8.717899
vt 1.772289 0.000000
vt 27.154770 0.000000
vt -27.154770 4.096336
vt -27.154770 8.717899
vt -28.740160 0.000000
vn 0.0000 1.0000 0.0000
vn 1.0000 0.0000 0.0000
vn 0.0000 0.0000 1.0000
vn -1.0000 -0.0000 0.0000
vn 0.0000 0.8945 -0.4470
vn 0.0000 -0.8945 0.4470
vn 0.0002 -0.8945 0.4470
vn 0.6266 -0.5993 -0.4983
vn 0.0334 -0.8723 0.4879
vn 0.0001 -0.8945 0.4470
vn 0.1605 -0.8431 0.5133
vn 0.0000 -1.0000 -0.0000
vn 0.0000 0.0000 -1.0000
usemtl bark.004
s 1
f 1/1/1 2/2/1 3/3/1
f 5/4/2 6/5/2 2/6/2
f 2/6/2 7/7/2 5/4/2
f 1/8/3 10/9/3 9/10/3
f 1/8/3 11/11/3 10/9/3
f 1/8/3 12/12/3 11/11/3
f 1/8/3 4/13/3 12/12/3
f 3/14/4 13/15/4 14/16/4
f 14/16/4 12/17/4 3/14/4
f 12/17/4 4/18/4 3/14/4
f 2/19/5 6/5/5 13/20/5
f 20/21/6 17/22/6 14/23/6
f 20/21/6 14/23/6 5/24/6
f 8/25/6 20/21/7 5/24/6
f 8/25/6 21/26/8 20/21/7
f 21/26/8 22/27/9 20/21/7
f 22/27/9 21/26/8 15/28/6
f 15/28/6 16/29/6 22/27/9
f 19/30/10 24/31/6 14/23/6
f 24/31/6 12/32/6 14/23/6
f 12/32/6 24/31/6 25/33/6
f 23/34/11 18/35/6 26/36/6
f 26/36/6 11/37/6 12/32/6
f 3/3/1 4/38/1 1/1/1
f 2/6/2 1/39/2 7/7/2
f 8/40/3 7/41/3 1/8/3
f 1/8/3 9/10/3 8/40/3
f 13/20/5 3/42/5 2/19/5
f 15/28/6 9/43/6 10/44/6
f 10/44/6 16/29/6 15/28/6
f 10/44/6 17/22/6 16/29/6
f 17/22/6 10/44/6 18/35/6
f 17/22/6 18/35/6 19/30/10
f 17/22/6 19/30/10 14/23/6
f 5/24/6 7/45/6 8/25/6
f 18/35/6 23/34/11 19/30/10
f 12/32/6 25/33/6 26/36/6
f 26/36/6 25/33/6 23/34/11
usemtl grey.044
f 10/46/2 28/47/2 27/48/2
f 23/49/2 27/48/2 29/50/2
f 29/50/2 19/51/2 23/49/2
f 31/52/2 32/53/2 30/54/2
f 8/40/3 35/55/3 33/56/3
f 31/57/3 36/58/3 28/59/3
f 31/57/3 28/59/3 11/11/3
f 31/57/3 11/11/3 37/60/3
f 37/60/3 32/61/3 31/57/3
f 15/62/4 38/63/4 36/64/4
f 39/65/12 17/66/12 20/67/12
f 27/68/1 28/69/1 36/70/1
f 25/71/1 43/72/1 27/68/1
f 16/73/1 38/74/1 44/75/1
f 39/76/13 29/77/13 27/78/13
f 27/78/13 38/79/13 39/76/13
f 44/80/13 38/79/13 15/81/13
f 39/76/13 42/82/13 46/83/13
f 37/84/4 43/85/4 41/86/4
f 37/84/4 11/87/4 26/88/4
f 41/86/4 43/85/4 25/89/4
f 25/89/4 24/90/4 41/86/4
f 8/91/2 46/92/2 42/93/2
f 42/93/2 20/94/2 22/95/2
f 27/48/2 18/96/2 10/46/2
f 30/54/2 29/50/2 31/52/2
f 33/56/3 34/97/3 8/40/3
f 8/40/3 36/58/3 35/55/3
f 36/58/3 31/57/3 35/55/3
f 8/40/3 9/10/3 36/58/3
f 28/59/3 10/9/3 11/11/3
f 36/64/4 9/98/4 15/62/4
f 39/99/4 38/63/4 16/100/4
f 16/100/4 17/101/4 39/99/4
f 39/99/4 40/102/4 33/103/4
f 33/103/4 35/104/4 39/99/4
f 39/65/12 35/105/12 31/106/12
f 31/106/12 29/107/12 39/65/12
f 19/108/12 29/107/12 41/109/12
f 41/109/12 24/110/12 19/108/12
f 20/67/12 42/111/12 39/65/12
f 36/70/1 38/74/1 27/68/1
f 27/68/1 23/112/1 25/71/1
f 44/75/1 22/113/1 16/73/1
f 30/114/13 45/115/13 41/116/13
f 41/116/13 29/77/13 30/114/13
f 27/78/13 43/117/13 26/118/13
f 26/118/13 18/119/13 27/78/13
f 15/81/13 21/120/13 44/80/13
f 46/83/13 40/121/13 39/76/13
f 41/86/4 45/122/4 37/84/4
f 37/84/4 26/88/4 43/85/4
f 44/123/2 21/124/2 8/91/2
f 8/91/2 42/93/2 44/123/2
f 8/91/2 34/125/2 46/92/2
f 22/95/2 44/123/2 42/93/2
