# Blender v3.1.2 OBJ File: ''
# www.blender.org
mtllib roadCornerSmallBorder.mtl
o roadCornerSmallBorder
v -0.206647 0.020000 0.608761
v -0.206647 -0.000000 0.608761
v -0.292893 -0.000000 0.707107
v -0.292893 0.020000 0.707107
v -0.040042 -0.000000 0.736601
v -0.040042 0.020000 0.736601
v -0.144401 0.020000 0.855599
v -0.144401 -0.000000 0.855599
v 0.047891 0.020000 0.605000
v -0.133975 0.020000 0.500000
v -0.133975 -0.000000 0.500000
v 0.047891 -0.000000 0.605000
v 0.000000 0.020000 0.000000
v 0.000000 0.000000 0.000000
v -0.008555 -0.000000 0.130526
v -0.008555 0.020000 0.130526
v 0.210000 0.000000 0.000000
v 0.210000 0.020000 0.000000
v 0.199648 0.020000 0.157937
v 0.199648 -0.000000 0.157937
v 0.168770 0.020000 0.313171
v 0.168770 -0.000000 0.313171
v -0.034074 0.020000 0.258819
v -0.034074 -0.000000 0.258819
v -0.617317 -0.000000 0.923880
v -0.741181 -0.000000 0.965926
v -0.741181 0.020000 0.965926
v -0.617317 0.020000 0.923880
v -0.536953 0.020000 1.117894
v -0.395000 0.020000 1.047891
v -0.500000 0.020000 0.866025
v -0.686829 0.020000 1.168770
v -0.500000 -0.000000 0.866025
v -0.686829 -0.000000 1.168770
v -0.536953 -0.000000 1.117894
v -0.395000 -0.000000 1.047891
v 0.117894 -0.000000 0.463047
v 0.117894 0.020000 0.463047
v -0.076120 0.020000 0.382683
v -0.076120 -0.000000 0.382683
v -1.000000 -0.000000 1.210000
v -0.842063 -0.000000 1.199648
v -0.842063 0.020000 1.199648
v -1.000000 0.020000 1.210000
v -1.000000 0.020000 1.000000
v -1.000000 -0.000000 1.000000
v -0.869474 -0.000000 0.991445
v -0.869474 0.020000 0.991445
v -0.263399 0.020000 0.959958
v -0.391239 0.020000 0.793353
v -0.391239 -0.000000 0.793353
v -0.263399 -0.000000 0.959958
vt 23.383570 0.787402
vt 23.383570 0.000000
vt 28.533421 0.000000
vt 28.533421 0.787402
vt 24.447769 0.000000
vt 24.447769 0.787402
vt 19.297920 0.787402
vt -24.988501 0.787402
vt -24.988501 0.000000
vt -18.757179 0.000000
vt 0.000000 0.787402
vt 0.000000 0.000000
vt 5.149853 0.000000
vt 5.149853 0.787402
vt -4.565061 0.000000
vt -4.565061 0.787402
vt -10.796380 0.787402
vt -10.796380 0.000000
vt 0.000000 0.000000
vt 0.336816 5.138826
vt -6.644498 12.329570
vt -8.267716 0.000000
vt 5.105795 0.787402
vt 5.105795 0.000000
vt 10.255650 0.000000
vt 10.255650 0.787402
vt 24.303801 36.373211
vt 27.040510 46.014580
vt 21.139879 44.011589
vt -40.396370 0.000000
vt -34.165051 0.000000
vt -34.165051 0.787402
vt -40.396370 0.787402
vt -38.425610 0.000000
vt -32.194290 0.000000
vt -32.194290 0.787402
vt -38.425610 0.787402
vt -22.842840 0.000000
vt -22.842840 0.787402
vt -29.074160 0.787402
vt -29.074160 0.000000
vt 1.576475 29.000050
vt -1.885462 23.818899
vt 5.274590 19.685040
vt 5.685071 33.685009
vt 8.135695 23.966990
vt 11.531230 27.838850
vt 19.297920 0.000000
vt -18.757179 0.787402
vt 0.540735 0.000000
vt 0.540735 0.787402
vt -5.690587 0.787402
vt -5.690587 0.000000
vt -7.860168 6.217980
vt -8.267716 -0.000000
vt 1.341503 10.189730
vt -8.267716 0.787402
vt 34.705791 0.000000
vt 39.855640 0.000000
vt 39.855640 0.787402
vt 34.705791 0.787402
vt 15.551180 41.255539
vt 19.685040 34.095490
vt 29.180349 38.028580
vt 32.735020 0.000000
vt 37.884880 0.000000
vt 37.884880 0.787402
vt 32.735020 0.787402
vt -14.297280 0.000000
vt -14.297280 0.787402
vt -20.528601 0.787402
vt -20.528601 0.000000
vt 14.838010 0.787402
vt 14.838010 0.000000
vt 19.987869 0.000000
vt -4.641505 18.230190
vt 10.080170 0.787402
vt 10.080170 0.000000
vt 15.230020 0.000000
vt -9.539436 0.000000
vt -9.539436 0.787402
vt -15.770760 0.787402
vt -36.170120 0.787402
vt -42.401440 0.787402
vt -42.401440 0.000000
vt 47.637791 0.000000
vt 47.637791 0.787402
vt 39.370079 0.787402
vt 36.038670 0.000000
vt 41.188519 0.000000
vt 41.188519 0.787402
vt 36.038670 0.787402
vt 34.231251 39.033260
vt 33.152100 47.230251
vt -41.729259 0.000000
vt -35.497929 0.000000
vt -35.497929 0.787402
vt -41.729259 0.787402
vt 36.710861 0.000000
vt 41.860710 0.000000
vt 41.860710 0.787402
vt 15.403090 31.234381
vt 30.160101 0.000000
vt 35.309952 0.000000
vt 35.309952 0.787402
vt 30.160101 0.787402
vt -35.850689 0.000000
vt -29.619360 0.000000
vt -29.619360 0.787402
vt 32.174919 0.787402
vt 27.025070 0.787402
vt 27.025070 0.000000
vt -32.715649 0.000000
vt -26.484329 0.000000
vt -26.484329 0.787402
vt -32.715649 0.787402
vt 19.987869 0.787402
vt 2.996869 15.066280
vt 15.230020 0.787402
vt -15.770760 0.000000
vt -36.170120 0.000000
vt 39.370079 0.000000
vt 39.370079 47.637791
vt 39.370079 39.370079
vt 36.710861 0.787402
vt 10.370030 37.793610
vt -35.850689 0.787402
vt 32.174919 0.000000
vn -0.7934 0.0000 -0.6087
vn -0.7934 0.0000 -0.6088
vn -0.7518 0.0000 -0.6593
vn -0.7933 -0.0000 -0.6088
vn -0.8315 0.0000 -0.5556
vn 0.7933 -0.0000 0.6088
vn 0.7934 0.0000 0.6088
vn 0.8315 0.0000 0.5556
vn -0.9979 0.0000 -0.0654
vn -0.9914 0.0000 -0.1305
vn 0.9914 0.0000 0.1305
vn 0.9808 0.0000 0.1951
vn 0.0000 1.0000 0.0000
vn 0.0000 0.0000 -1.0000
vn -0.9808 0.0000 -0.1951
vn 0.3214 0.0000 0.9469
vn 0.3827 0.0000 0.9239
vn 0.4423 0.0000 0.8969
vn 0.7518 0.0000 0.6593
vn 0.9979 0.0000 0.0654
vn -0.3827 0.0000 -0.9239
vn -0.3214 0.0000 -0.9469
vn -0.4423 0.0000 -0.8969
vn 0.9239 0.0000 0.3827
vn 0.8969 0.0000 0.4423
vn -0.9239 0.0000 -0.3827
vn -0.8969 0.0000 -0.4423
vn -0.9469 0.0000 -0.3214
vn 0.9469 0.0000 0.3214
vn 0.1305 0.0000 0.9914
vn 0.0654 0.0000 0.9979
vn -1.0000 0.0000 0.0000
vn -0.1951 0.0000 -0.9808
vn -0.1305 0.0000 -0.9914
vn 0.1951 0.0000 0.9808
vn -0.0654 0.0000 -0.9979
vn -0.6088 0.0000 -0.7934
vn -0.5556 0.0000 -0.8315
vn 0.5556 0.0000 0.8315
vn 0.6088 0.0000 0.7934
vn -0.6593 0.0000 -0.7518
vn 0.6593 0.0000 0.7518
usemtl red.029
s 1
f 1/1/1 2/2/2 3/3/3
f 3/3/3 4/4/3 1/1/4
f 2/5/2 1/6/1 10/7/5
f 6/8/6 5/9/7 12/10/8
f 13/11/9 14/12/9 15/13/10
f 15/13/10 16/14/10 13/11/9
f 20/15/11 19/16/11 21/17/12
f 21/17/12 22/18/12 20/15/11
f 13/19/13 16/20/13 21/21/13
f 17/22/14 14/12/14 13/11/14
f 16/23/10 15/24/10 24/25/15
f 24/25/15 23/26/15 16/23/10
f 28/27/13 32/28/13 29/29/13
f 34/30/16 35/31/17 29/32/17
f 29/32/17 32/33/16 34/30/16
f 35/34/17 36/35/18 30/36/18
f 30/36/18 29/37/17 35/34/17
f 5/38/7 6/39/6 7/40/19
f 7/40/19 8/41/19 5/38/7
f 6/42/13 9/43/13 10/44/13
f 10/44/13 7/45/13 6/42/13
f 10/44/13 1/46/13 7/45/13
f 1/46/13 4/47/13 7/45/13
f 10/7/5 11/48/5 2/5/2
f 12/10/8 9/49/8 6/8/7
f 17/50/20 18/51/20 19/52/11
f 19/52/11 20/53/11 17/50/20
f 19/54/13 18/55/13 13/19/13
f 13/19/13 21/21/13 19/54/13
f 16/20/13 23/56/13 21/21/13
f 13/11/14 18/57/14 17/22/14
f 25/58/21 26/59/22 27/60/22
f 27/60/22 28/61/21 25/58/21
f 29/29/13 30/62/13 31/63/13
f 31/63/13 28/27/13 29/29/13
f 28/27/13 27/64/13 32/28/13
f 33/65/23 25/66/21 28/67/21
f 28/67/21 31/68/23 33/65/23
usemtl white.008
f 37/69/24 38/70/24 9/71/25
f 9/71/25 12/72/25 37/69/24
f 39/73/26 40/74/26 11/75/27
f 23/56/13 9/43/13 38/76/13
f 23/77/28 24/78/28 40/79/26
f 22/80/29 21/81/29 38/82/24
f 43/83/30 44/84/31 41/85/31
f 41/86/32 44/87/32 45/88/32
f 26/89/33 47/90/34 48/91/34
f 48/91/34 27/92/33 26/89/33
f 27/64/13 48/93/13 43/94/13
f 42/95/30 34/96/35 32/97/35
f 32/97/35 43/98/30 42/95/30
f 47/99/34 46/100/36 45/101/36
f 4/47/13 50/102/13 30/62/13
f 50/102/13 31/63/13 30/62/13
f 51/103/37 33/104/38 31/105/38
f 31/105/38 50/106/37 51/103/37
f 36/107/39 52/108/40 49/109/40
f 50/110/37 4/111/41 3/112/41
f 52/113/40 8/114/42 7/115/42
f 7/115/42 49/116/40 52/113/40
f 11/75/27 10/117/27 39/73/26
f 38/76/13 21/21/13 23/56/13
f 23/56/13 39/118/13 9/43/13
f 39/118/13 10/44/13 9/43/13
f 40/79/26 39/119/26 23/77/28
f 38/82/24 37/120/24 22/80/29
f 41/85/31 42/121/30 43/83/30
f 45/88/32 46/122/32 41/86/32
f 43/94/13 32/28/13 27/64/13
f 48/93/13 44/123/13 43/94/13
f 48/93/13 45/124/13 44/123/13
f 45/101/36 48/125/34 47/99/34
f 49/126/13 7/45/13 4/47/13
f 4/47/13 30/62/13 49/126/13
f 49/109/40 30/127/39 36/107/39
f 3/112/41 51/128/37 50/110/37
