# Blender v3.1.2 OBJ File: ''
# www.blender.org
mtllib roadSplit.mtl
o roadSplit
v -0.500000 -0.000000 0.836695
v -0.500000 0.020000 0.836695
v -1.081653 0.020000 2.000000
v -1.081653 -0.000000 2.000000
v -0.500000 0.010000 0.690270
v -0.500000 0.020000 0.690270
v 0.154865 0.020000 2.000000
v 0.154865 0.010000 2.000000
v -0.081653 0.000000 0.000000
v -0.081653 0.020000 0.000000
v 0.918347 0.020000 2.000000
v 0.918347 -0.000000 2.000000
v 0.845135 0.020000 2.000000
v -0.154865 0.020000 0.000000
v -0.918347 0.020000 0.000000
v -0.918347 0.000000 0.000000
v -1.918347 -0.000000 2.000000
v -1.918347 0.020000 2.000000
v -0.154865 0.010000 0.000000
v 0.845135 0.010000 2.000000
v -1.154865 0.010000 2.000000
v -1.154865 0.020000 2.000000
v -0.845135 0.010000 0.000000
v -0.845135 0.020000 0.000000
v -1.845135 0.020000 2.000000
v -1.845135 0.010000 2.000000
v 0.081653 -0.000000 2.000000
v 0.081653 0.020000 2.000000
v -1.000000 0.000000 0.000000
v -2.000000 -0.000000 2.000000
v 0.000000 -0.000000 2.000000
v -0.500000 -0.000000 1.000000
v -1.000000 -0.000000 2.000000
v 1.000000 -0.000000 2.000000
v 0.000000 0.000000 0.000000
vt -38.266510 0.000000
vt -38.266510 0.787402
vt -89.471817 0.787402
vt 1.437644 -0.000000
vt 1.437644 0.787402
vt -86.596527 0.787402
vt -86.596527 -0.000000
vt 3.214670 -0.000000
vt 6.097044 -0.000000
vt -33.273041 78.740158
vt 16.169189 0.787402
vt 16.169189 0.000000
vt 104.203400 0.000000
vt 104.203400 0.787402
vt -2.726681 0.787402
vt -2.726681 0.393701
vt 85.307503 0.393701
vt 85.307503 0.787402
vt 33.110359 0.787402
vt 33.110359 0.393701
vt 90.760857 0.393701
vt 90.760857 0.787402
vt -14.880150 0.393701
vt -14.880150 0.787402
vt -102.914299 0.787402
vt -102.914299 0.393701
vt 71.864983 -0.000000
vt 71.864983 0.787402
vt 20.659679 0.787402
vt 72.643112 78.740158
vt 33.273041 0.000000
vt 36.155411 0.000000
vt 75.525490 78.740158
vt 19.685040 27.175989
vt 19.685040 32.940739
vt -3.214670 78.740158
vt -89.471817 0.000000
vt -15.503530 0.393701
vt -15.503530 0.787402
vt -73.154022 0.787402
vt -73.154022 0.393701
vt -36.155411 78.740158
vt 20.659679 -0.000000
vt -6.097044 78.740158
vt 45.467121 78.740158
vt 42.584751 78.740158
vt 39.370079 0.000000
vt 78.740158 78.740158
vt 75.525490 78.740158
vt 0.000000 78.740158
vt -3.214670 78.740158
vt 19.685040 32.940739
vt 19.685040 39.370079
vt -36.155411 78.740158
vt -39.370079 78.740158
vt 0.000000 0.000000
vt 3.214670 0.000000
vt 36.155411 0.000000
vt 42.584751 78.740158
vt 39.370079 78.740158
vt 6.097044 0.000000
vt 19.685040 27.175989
vt -6.097044 78.740158
vt 33.273041 0.000000
vt 45.467121 78.740158
vt 72.643112 78.740158
vt -33.273041 78.740158
vn 0.8944 0.0000 0.4472
vn 0.8944 0.0000 -0.4472
vn 0.0000 1.0000 0.0000
vn -0.8944 0.0000 -0.4472
vn -0.8944 0.0000 0.4472
usemtl grey.066
s 1
f 1/1/1 2/2/1 3/3/1
f 9/4/2 10/5/2 11/6/2
f 11/6/2 12/7/2 9/4/2
f 10/8/3 14/9/3 13/10/3
f 15/11/4 16/12/4 17/13/4
f 17/13/4 18/14/4 15/11/4
f 14/15/5 19/16/5 20/17/5
f 20/17/5 13/18/5 14/15/5
f 6/19/4 5/20/4 21/21/4
f 21/21/4 22/22/4 6/19/4
f 23/23/1 24/24/1 25/25/1
f 25/25/1 26/26/1 23/23/1
f 27/27/5 28/28/5 2/29/5
f 25/30/3 24/31/3 15/32/3
f 15/32/3 18/33/3 25/30/3
f 6/34/3 2/35/3 28/36/3
f 3/3/1 4/37/1 1/1/1
f 5/38/2 6/39/2 7/40/2
f 7/40/2 8/41/2 5/38/2
f 13/10/3 11/42/3 10/8/3
f 2/29/5 1/43/5 27/27/5
f 28/36/3 7/44/3 6/34/3
f 6/34/3 22/45/3 2/35/3
f 22/45/3 3/46/3 2/35/3
usemtl grass.022
f 29/47/3 30/48/3 17/49/3
f 31/50/3 27/51/3 1/52/3
f 1/52/3 32/53/3 31/50/3
f 12/54/3 34/55/3 35/56/3
f 35/56/3 9/57/3 12/54/3
f 17/49/3 16/58/3 29/47/3
f 1/52/3 4/59/3 32/53/3
f 4/59/3 33/60/3 32/53/3
usemtl road.045
f 19/61/3 5/62/3 8/63/3
f 23/64/3 21/65/3 5/62/3
f 23/64/3 26/66/3 21/65/3
f 8/63/3 20/67/3 19/61/3
f 19/61/3 23/64/3 5/62/3
