# Blender v3.1.2 OBJ File: ''
# www.blender.org
mtllib roadCornerSmall.mtl
o roadCornerSmall
v -0.846460 0.010000 0.020214
v -0.846460 0.020000 0.020214
v -0.850412 0.020000 0.040082
v -0.850412 0.010000 0.040082
v -0.856924 0.010000 0.059264
v -0.856924 0.020000 0.059264
v -0.865883 0.020000 0.077432
v -0.865883 0.010000 0.077432
v -0.845135 0.010000 0.000000
v -0.845135 0.020000 0.000000
v -0.918347 0.020000 0.000000
v -0.877137 0.020000 0.094276
v -0.890494 0.020000 0.109506
v -0.905724 0.020000 0.122863
v -0.922567 0.020000 0.134117
v -0.919046 0.020000 0.010658
v -0.921130 0.020000 0.021133
v -0.924563 0.020000 0.031247
v -0.940736 0.020000 0.143076
v -0.929287 0.020000 0.040826
v -0.935221 0.020000 0.049707
v -0.942263 0.020000 0.057737
v -0.959918 0.020000 0.149588
v -0.950293 0.020000 0.064779
v -0.959174 0.020000 0.070713
v -0.968753 0.020000 0.075437
v -0.979786 0.020000 0.153540
v -0.978867 0.020000 0.078870
v -0.989342 0.020000 0.080954
v -1.000000 0.020000 0.154865
v -1.000000 0.020000 0.081653
v -0.935221 -0.000000 0.049707
v -0.942263 -0.000000 0.057737
v -0.968753 -0.000000 0.075437
v -0.978867 -0.000000 0.078870
v -0.921130 -0.000000 0.021133
v -0.924563 -0.000000 0.031247
v -0.918347 0.000000 0.000000
v -0.919046 -0.000000 0.010658
v -0.950293 -0.000000 0.064779
v -0.959174 -0.000000 0.070713
v -0.989342 -0.000000 0.080954
v -0.929287 -0.000000 0.040826
v -1.000000 -0.000000 0.081653
v -0.959918 0.010000 0.149588
v -0.940736 0.010000 0.143076
v -0.922567 0.010000 0.134117
v -0.905724 0.010000 0.122863
v -1.000000 0.010000 0.154865
v -0.979786 0.010000 0.153540
v -0.890494 0.010000 0.109506
v -0.877137 0.010000 0.094276
v -0.485514 0.010000 0.670491
v -0.577433 0.010000 0.731908
v -0.577433 0.020000 0.731908
v -0.485514 0.020000 0.670491
v -0.676581 0.010000 0.780803
v -0.676581 0.020000 0.780803
v -0.154865 0.020000 0.000000
v -0.154865 0.010000 0.000000
v -0.162095 0.010000 0.110312
v -0.162095 0.020000 0.110312
v -0.219197 0.020000 0.323419
v -0.219197 0.010000 0.323419
v -0.268091 0.010000 0.422568
v -0.268091 0.020000 0.422568
v -0.183662 0.010000 0.218737
v -0.183662 0.020000 0.218737
v -0.089509 0.020000 0.119868
v -0.081653 0.020000 0.000000
v -0.112944 0.020000 0.237686
v -0.151558 0.020000 0.351436
v -0.204688 0.020000 0.459174
v -0.271426 0.020000 0.559054
v -0.329509 0.020000 0.514486
v -0.350630 0.020000 0.649370
v -0.402399 0.020000 0.597601
v -0.440946 0.020000 0.728574
v -0.540826 0.020000 0.795312
v -0.648564 0.020000 0.848442
v -0.762314 0.020000 0.887056
v -0.781263 0.020000 0.816338
v -0.880132 0.020000 0.910491
v -0.889688 0.020000 0.837905
v -1.000000 0.020000 0.918347
v -1.000000 0.020000 0.845135
v -0.329509 0.010000 0.514486
v -0.402399 0.010000 0.597601
v -0.781263 0.010000 0.816338
v -0.204688 -0.000000 0.459174
v -0.271426 -0.000000 0.559054
v -0.151558 -0.000000 0.351436
v -0.112944 -0.000000 0.237686
v -0.089509 -0.000000 0.119868
v -0.889688 0.010000 0.837905
v -1.000000 0.010000 0.845135
v -0.762314 -0.000000 0.887056
v -0.648564 -0.000000 0.848442
v -0.350630 -0.000000 0.649370
v -0.540826 -0.000000 0.795312
v -1.000000 -0.000000 0.918347
v -0.880132 -0.000000 0.910491
v -0.440946 -0.000000 0.728574
v -0.081653 0.000000 0.000000
v -0.008555 -0.000000 0.130526
v 0.000000 0.000000 0.000000
v -0.034074 -0.000000 0.258819
v -0.076120 -0.000000 0.382683
v -0.133975 -0.000000 0.500000
v -0.206647 -0.000000 0.608761
v -0.292893 -0.000000 0.707107
v -0.391239 -0.000000 0.793353
v -0.500000 -0.000000 0.866025
v -0.617317 -0.000000 0.923880
v -0.741181 -0.000000 0.965926
v -0.869474 -0.000000 0.991445
v -1.000000 -0.000000 1.000000
v -1.000000 0.000000 0.000000
vt -7.281956 0.393701
vt -7.281956 0.787402
vt -8.079487 0.787402
vt -8.079487 0.393701
vt -17.014179 0.393701
vt -17.014179 0.787402
vt -17.811710 0.787402
vt -13.053860 0.787402
vt -13.053860 0.393701
vt -12.256330 0.393701
vt -2.973692 0.787402
vt -2.973692 0.393701
vt -2.176161 0.393701
vt 33.325199 0.795824
vt 33.273041 0.000000
vt 36.155411 0.000000
vt 33.480789 1.578031
vt 33.737141 2.333238
vt 34.089890 3.048522
vt 34.532970 3.711645
vt 35.058819 4.311261
vt 35.658428 4.837110
vt 36.321560 5.280195
vt 36.400108 1.230201
vt 37.036839 5.632934
vt 36.586090 1.607335
vt 36.819710 1.956967
vt 37.096958 2.273115
vt 37.413109 2.550369
vt 37.792049 5.889292
vt 37.762741 2.783986
vt 38.139881 2.969968
vt 38.574249 6.044883
vt 38.538059 3.105133
vt 26.168751 0.000000
vt 26.168751 0.787402
vt 25.748249 0.787402
vt 37.070469 0.000000
vt 37.490959 0.000000
vt 37.490959 0.787402
vt 32.524780 0.000000
vt 32.945271 0.000000
vt 32.945271 0.787402
vt 32.524780 0.787402
vt 7.470472 0.787402
vt 7.470472 0.000000
vt 7.890971 0.000000
vt 7.890971 0.787402
vt 35.099701 0.000000
vt 35.520199 0.000000
vt 35.520199 0.787402
vt 17.202690 0.787402
vt 17.202690 0.000000
vt 17.623190 0.000000
vt 17.623190 0.787402
vt 39.075531 0.000000
vt 39.496029 0.000000
vt 39.496029 0.787402
vt 22.083090 0.000000
vt 22.083090 0.787402
vt 21.662590 0.787402
vt -36.881950 0.787402
vt -37.679482 0.787402
vt -37.679482 0.393701
vt -35.708721 0.393701
vt -34.911190 0.393701
vt -34.911190 0.787402
vt -33.133789 0.393701
vt -32.336262 0.393701
vt -32.336262 0.787402
vt -39.684551 0.393701
vt -38.887020 0.393701
vt -38.887020 0.787402
vt -39.684551 0.787402
vt -38.214828 0.787402
vt -39.012360 0.787402
vt -39.012360 0.393701
vt -29.998760 0.393701
vt -29.201229 0.393701
vt -29.201229 0.787402
vt -29.998760 0.787402
vt -25.559731 0.393701
vt -25.559731 0.787402
vt -26.357260 0.787402
vt -21.474079 0.393701
vt -21.474079 0.787402
vt -22.271610 0.787402
vt -22.271610 0.393701
vt 29.389740 0.000000
vt 29.810240 0.000000
vt 29.810240 0.787402
vt 30.558861 0.393701
vt 34.911190 0.393701
vt 34.911190 0.787402
vt 30.558861 0.787402
vt 33.133789 0.393701
vt 37.486111 0.393701
vt 37.486111 0.787402
vt 33.133789 0.787402
vt 9.856882 0.393701
vt 9.856882 0.787402
vt 5.504561 0.787402
vt 3.523985 4.719228
vt 3.214670 0.000000
vt 6.097044 0.000000
vt 6.381699 4.343003
vt 7.230795 8.611695
vt 8.058577 18.077700
vt 12.972810 20.255341
vt 13.804340 25.565729
vt 10.686060 22.010019
vt 19.114740 26.397270
vt 22.733561 28.815290
vt 21.292370 31.311501
vt 25.534000 33.403240
vt 26.637039 30.740280
vt 30.012369 34.923439
vt 30.758381 32.139278
vt 35.027081 32.988380
vt 34.650848 35.846088
vt 39.370079 36.155411
vt 14.831260 0.393701
vt 14.831260 0.787402
vt 10.478940 0.787402
vt 24.049000 0.393701
vt 24.049000 0.787402
vt 19.696680 0.787402
vt 23.782339 0.787402
vt 23.782339 0.393701
vt 28.134661 0.393701
vt 28.134661 0.787402
vt 27.423830 0.393701
vt 31.776150 0.393701
vt 31.776150 0.787402
vt -15.048260 0.000000
vt -15.048260 0.787402
vt -19.777620 0.787402
vt -19.777620 0.000000
vt -10.290420 0.000000
vt -10.290420 0.787402
vt -15.019770 0.787402
vt -15.019770 0.000000
vt 37.109619 0.393701
vt 41.461941 0.393701
vt 41.461941 0.787402
vt -39.645390 0.000000
vt -34.916039 0.000000
vt -34.916039 0.787402
vt 36.437431 0.393701
vt 40.789749 0.393701
vt 40.789749 0.787402
vt 36.437431 0.787402
vt -28.323170 0.787402
vt -28.323170 0.000000
vt -23.593821 0.000000
vt -32.945271 0.787402
vt -37.674629 0.787402
vt -37.674629 0.000000
vt -31.964670 0.000000
vt -27.235319 0.000000
vt -27.235319 0.787402
vt -31.964670 0.787402
vt -40.978271 0.000000
vt -36.248920 0.000000
vt -36.248920 0.787402
vt -4.939603 0.787402
vt -4.939603 0.000000
vt -0.210249 0.000000
vt -17.811710 0.393701
vt -12.256330 0.787402
vt -2.176161 0.787402
vt 36.182911 0.419599
vt 36.264950 0.832018
vt 38.950481 3.187168
vt 39.370079 6.097044
vt 39.370079 3.214670
vt 25.748249 0.000000
vt 37.070469 0.787402
vt 12.444850 0.787402
vt 12.444850 0.000000
vt 12.865350 0.000000
vt 12.865350 0.787402
vt 2.364677 0.787402
vt 2.364677 0.000000
vt 2.785176 0.000000
vt 2.785176 0.787402
vt 35.099701 0.787402
vt 38.403339 0.000000
vt 38.823841 0.000000
vt 38.823841 0.787402
vt 38.403339 0.787402
vt 39.075531 0.787402
vt 21.662590 0.000000
vt -36.881950 0.393701
vt -35.708721 0.787402
vt -33.133789 0.787402
vt -38.214828 0.393701
vt -26.357260 0.393701
vt 29.389740 0.787402
vt 0.398766 0.787402
vt 0.398766 0.393701
vt 4.751087 0.393701
vt 4.751087 0.787402
vt 15.236780 0.787402
vt 15.236780 0.393701
vt 19.589100 0.393701
vt 19.589100 0.787402
vt 5.504561 0.393701
vt 4.446636 9.357708
vt 5.966837 13.836080
vt 8.629803 12.733040
vt 10.554780 16.636520
vt 15.842490 23.527590
vt 17.360060 28.684010
vt 39.370079 33.273041
vt 10.478940 0.393701
vt 19.696680 0.393701
vt 27.423830 0.787402
vt 35.104549 0.393701
vt 39.456871 0.393701
vt 39.456871 0.787402
vt 35.104549 0.787402
vt -19.508169 0.000000
vt -19.508169 0.787402
vt -24.237520 0.787402
vt -24.237520 0.000000
vt -5.316044 0.000000
vt -5.316044 0.787402
vt -10.045400 0.787402
vt -10.045400 0.000000
vt 37.109619 0.787402
vt -39.645390 0.787402
vt -23.593821 0.787402
vt -32.945271 0.000000
vt -41.650459 0.000000
vt -36.921108 0.000000
vt -36.921108 0.787402
vt -41.650459 0.787402
vt -35.099701 0.000000
vt -30.370350 0.000000
vt -30.370350 0.787402
vt -35.099701 0.787402
vt -40.978271 0.787402
vt -0.210249 0.787402
vt 0.336816 5.138826
vt 0.000000 0.000000
vt 3.214670 0.000000
vt 1.341503 10.189730
vt 2.996869 15.066280
vt 5.966837 13.836080
vt 8.058577 18.077700
vt 8.135695 23.966990
vt 10.686060 22.010019
vt 11.531230 27.838850
vt 17.360060 28.684010
vt 21.292370 31.311501
vt 19.685040 34.095490
vt 24.303801 36.373211
vt 25.534000 33.403240
vt 29.180349 38.028580
vt 34.650848 35.846088
vt 39.370079 36.155411
vt 39.370079 39.370079
vt 36.182911 0.419599
vt 36.155411 0.000000
vt 39.370079 0.000000
vt 36.264950 0.832018
vt 36.586090 1.607335
vt 36.400108 1.230201
vt 37.096958 2.273115
vt 36.819710 1.956967
vt 37.762741 2.783986
vt 37.413109 2.550369
vt 3.523985 4.719228
vt 5.274590 19.685040
vt 4.446636 9.357708
vt 13.804340 25.565729
vt 15.403090 31.234381
vt 30.012369 34.923439
vt 34.231251 39.033260
vt 38.139881 2.969968
vt 38.538059 3.105133
vt 38.950481 3.187168
vt 39.370079 3.214670
vt 33.273041 0.000000
vt 8.629803 12.733040
vt 7.230795 8.611695
vt 15.842490 23.527590
vt 12.972810 20.255341
vt 19.114740 26.397270
vt 22.733561 28.815290
vt 30.758381 32.139278
vt 26.637039 30.740280
vt 35.027081 32.988380
vt 33.480789 1.578031
vt 33.737141 2.333238
vt 34.089890 3.048522
vt 34.532970 3.711645
vt 35.058819 4.311261
vt 35.658428 4.837110
vt 39.370079 33.273041
vt 36.321560 5.280195
vt 37.036839 5.632934
vt 37.792049 5.889292
vt 38.574249 6.044883
vt 6.381699 4.343003
vt 6.097044 0.000000
vt 10.554780 16.636520
vt 33.325199 0.795824
vt 39.370079 6.097044
vn 0.9914 -0.0000 0.1305
vn 0.9659 0.0000 0.2588
vn 0.9239 0.0000 0.3827
vn 0.8660 0.0000 0.5000
vn 0.9979 0.0000 0.0654
vn 0.0000 1.0000 0.0000
vn -0.7071 0.0000 -0.7071
vn -0.7934 0.0000 -0.6088
vn -0.3827 0.0000 -0.9239
vn -0.2588 0.0000 -0.9659
vn -0.6088 0.0000 -0.7934
vn -0.5000 0.0000 -0.8660
vn -0.9914 0.0000 -0.1305
vn -0.9659 -0.0000 -0.2588
vn -0.9239 0.0000 -0.3827
vn -0.8660 0.0000 -0.5000
vn -0.1305 -0.0000 -0.9914
vn -0.0654 0.0000 -0.9979
vn 0.3827 0.0000 0.9239
vn 0.2588 0.0000 0.9659
vn 0.5000 0.0000 0.8660
vn 0.6088 0.0000 0.7934
vn 0.0654 0.0000 0.9979
vn 0.1305 0.0000 0.9914
vn 0.7071 0.0000 0.7071
vn 0.7934 0.0000 0.6088
vn -0.9979 0.0000 -0.0654
vn 0.1306 0.0000 0.9914
usemtl grey.050
s 1
f 1/1/1 2/2/1 3/3/2
f 3/3/2 4/4/2 1/1/1
f 5/5/3 6/6/3 7/7/4
f 6/8/3 5/9/3 4/10/2
f 2/11/1 1/12/1 9/13/5
f 2/14/6 10/15/6 11/16/6
f 11/16/6 3/17/6 2/14/6
f 11/16/6 6/18/6 3/17/6
f 11/16/6 7/19/6 6/18/6
f 11/16/6 12/20/6 7/19/6
f 11/16/6 13/21/6 12/20/6
f 11/16/6 14/22/6 13/21/6
f 11/16/6 15/23/6 14/22/6
f 18/24/6 19/25/6 15/23/6
f 18/24/6 20/26/6 19/25/6
f 21/27/6 22/28/6 19/25/6
f 22/28/6 24/29/6 23/30/6
f 24/29/6 25/31/6 23/30/6
f 26/32/6 27/33/6 23/30/6
f 26/32/6 28/34/6 27/33/6
f 33/35/7 22/36/7 21/37/8
f 34/38/9 35/39/10 28/40/10
f 40/41/11 41/42/12 25/43/12
f 25/43/12 24/44/11 40/41/11
f 16/45/13 39/46/13 36/47/14
f 36/47/14 17/48/14 16/45/13
f 41/49/12 34/50/9 26/51/9
f 18/52/15 37/53/15 43/54/16
f 43/54/16 20/55/16 18/52/15
f 42/56/17 44/57/18 31/58/18
f 32/59/8 21/60/8 20/61/16
f 19/62/19 23/63/20 45/64/20
f 46/65/19 47/66/21 15/67/21
f 47/68/21 48/69/22 14/70/22
f 49/71/23 50/72/24 27/73/24
f 27/73/24 30/74/23 49/71/23
f 23/75/20 27/76/24 50/77/24
f 48/78/22 51/79/25 13/80/25
f 13/80/25 14/81/22 48/78/22
f 52/82/26 12/83/26 13/84/25
f 8/85/4 7/86/4 12/87/26
f 12/87/26 52/88/26 8/85/4
f 33/89/7 40/90/11 24/91/11
f 53/92/11 54/93/12 55/94/12
f 55/94/12 56/95/11 53/92/11
f 54/96/12 57/97/9 58/98/9
f 58/98/9 55/99/12 54/96/12
f 67/100/14 68/101/14 62/102/13
f 69/103/6 70/104/6 59/105/6
f 62/106/6 68/107/6 73/108/6
f 75/109/6 76/110/6 74/111/6
f 56/112/6 55/113/6 79/114/6
f 55/113/6 80/115/6 79/114/6
f 55/113/6 58/116/6 80/115/6
f 58/116/6 81/117/6 80/115/6
f 58/116/6 82/118/6 81/117/6
f 82/118/6 84/119/6 83/120/6
f 84/119/6 85/121/6 83/120/6
f 64/122/15 63/123/15 68/124/14
f 87/125/8 75/126/8 66/127/16
f 75/128/8 87/129/8 88/130/7
f 88/130/7 77/131/7 75/128/8
f 88/132/7 53/133/11 56/134/11
f 92/135/3 72/136/3 73/137/4
f 73/137/4 90/138/4 92/135/3
f 93/139/2 71/140/2 72/141/3
f 72/141/3 92/142/3 93/139/2
f 95/143/17 96/144/18 86/145/18
f 97/146/20 98/147/19 80/148/19
f 89/149/10 95/150/17 84/151/17
f 84/151/17 82/152/10 89/149/10
f 76/153/25 99/154/25 91/155/26
f 79/156/21 80/157/19 98/158/19
f 103/159/22 99/160/25 76/161/25
f 76/161/25 78/162/22 103/159/22
f 102/163/24 97/164/20 81/165/20
f 69/166/1 94/167/1 104/168/5
f 7/7/4 8/169/4 5/5/3
f 4/10/2 3/170/2 6/8/3
f 9/13/5 10/171/5 2/11/1
f 11/16/6 16/172/6 15/23/6
f 16/172/6 17/173/6 15/23/6
f 17/173/6 18/24/6 15/23/6
f 20/26/6 21/27/6 19/25/6
f 22/28/6 23/30/6 19/25/6
f 25/31/6 26/32/6 23/30/6
f 28/34/6 29/174/6 27/33/6
f 29/174/6 30/175/6 27/33/6
f 29/174/6 31/176/6 30/175/6
f 21/37/8 32/177/8 33/35/7
f 28/40/10 26/178/9 34/38/9
f 17/179/14 36/180/14 37/181/15
f 37/181/15 18/182/15 17/179/14
f 11/183/27 38/184/27 39/185/13
f 39/185/13 16/186/13 11/183/27
f 26/51/9 25/187/12 41/49/12
f 35/188/10 42/189/17 29/190/17
f 29/190/17 28/191/10 35/188/10
f 31/58/18 29/192/17 42/56/17
f 20/61/16 43/193/16 32/59/8
f 45/64/20 46/194/19 19/62/19
f 15/67/21 19/195/19 46/65/19
f 14/70/22 15/196/21 47/68/21
f 50/77/24 45/197/20 23/75/20
f 13/84/25 51/198/25 52/82/26
f 24/91/11 22/199/7 33/89/7
f 59/200/27 60/201/27 61/202/13
f 61/202/13 62/203/13 59/200/27
f 63/204/15 64/205/15 65/206/16
f 65/206/16 66/207/16 63/204/15
f 62/102/13 61/208/13 67/100/14
f 59/105/6 71/209/6 69/103/6
f 59/105/6 72/210/6 71/209/6
f 59/105/6 62/106/6 72/210/6
f 62/106/6 73/108/6 72/210/6
f 68/107/6 63/211/6 73/108/6
f 63/211/6 74/111/6 73/108/6
f 63/211/6 66/212/6 74/111/6
f 66/212/6 75/109/6 74/111/6
f 75/109/6 77/213/6 76/110/6
f 77/213/6 78/214/6 76/110/6
f 77/213/6 56/112/6 78/214/6
f 56/112/6 79/114/6 78/214/6
f 82/118/6 83/120/6 81/117/6
f 84/119/6 86/215/6 85/121/6
f 68/124/14 67/216/14 64/122/15
f 66/127/16 65/217/16 87/125/8
f 56/134/11 77/218/7 88/132/7
f 57/219/9 89/220/10 82/221/10
f 82/221/10 58/222/9 57/219/9
f 90/223/4 73/224/4 74/225/26
f 74/225/26 91/226/26 90/223/4
f 94/227/1 69/228/1 71/229/2
f 71/229/2 93/230/2 94/227/1
f 86/145/18 84/231/17 95/143/17
f 80/148/19 81/232/20 97/146/20
f 91/155/26 74/233/26 76/153/25
f 98/158/19 100/234/21 79/156/21
f 101/235/23 102/236/24 83/237/28
f 83/237/24 85/238/23 101/235/23
f 100/239/21 103/240/22 78/241/22
f 78/241/22 79/242/21 100/239/21
f 81/165/20 83/243/28 102/163/24
f 104/168/5 70/244/5 69/166/1
usemtl grass.008
f 105/245/6 106/246/6 104/247/6
f 104/247/6 107/248/6 105/245/6
f 104/247/6 108/249/6 107/248/6
f 92/250/6 90/251/6 110/252/6
f 90/251/6 91/253/6 110/252/6
f 91/253/6 111/254/6 110/252/6
f 103/255/6 100/256/6 113/257/6
f 100/256/6 114/258/6 113/257/6
f 98/259/6 115/260/6 114/258/6
f 102/261/6 101/262/6 117/263/6
f 39/264/6 38/265/6 118/266/6
f 118/266/6 36/267/6 39/264/6
f 118/266/6 43/268/6 37/269/6
f 118/266/6 33/270/6 32/271/6
f 118/266/6 41/272/6 40/273/6
f 104/247/6 94/274/6 108/249/6
f 94/274/6 109/275/6 108/249/6
f 94/274/6 93/276/6 109/275/6
f 93/276/6 92/250/6 109/275/6
f 92/250/6 110/252/6 109/275/6
f 91/253/6 99/277/6 111/254/6
f 99/277/6 112/278/6 111/254/6
f 99/277/6 103/255/6 112/278/6
f 103/255/6 113/257/6 112/278/6
f 100/256/6 98/259/6 114/258/6
f 98/259/6 97/279/6 115/260/6
f 97/279/6 116/280/6 115/260/6
f 97/279/6 102/261/6 116/280/6
f 102/261/6 117/263/6 116/280/6
f 118/266/6 37/269/6 36/267/6
f 118/266/6 32/271/6 43/268/6
f 118/266/6 40/273/6 33/270/6
f 118/266/6 34/281/6 41/272/6
f 118/266/6 35/282/6 34/281/6
f 118/266/6 42/283/6 35/282/6
f 118/266/6 44/284/6 42/283/6
usemtl road.028
f 9/285/6 64/286/6 67/287/6
f 9/285/6 88/288/6 87/289/6
f 9/285/6 53/290/6 88/288/6
f 9/285/6 54/291/6 53/290/6
f 9/285/6 89/292/6 57/293/6
f 9/285/6 95/294/6 89/292/6
f 4/295/6 5/296/6 95/294/6
f 8/297/6 52/298/6 95/294/6
f 52/298/6 51/299/6 95/294/6
f 51/299/6 48/300/6 96/301/6
f 48/300/6 47/302/6 96/301/6
f 46/303/6 45/304/6 96/301/6
f 45/304/6 50/305/6 96/301/6
f 61/306/6 60/307/6 9/285/6
f 9/285/6 67/287/6 61/306/6
f 9/285/6 65/308/6 64/286/6
f 9/285/6 87/289/6 65/308/6
f 9/285/6 57/293/6 54/291/6
f 9/285/6 1/309/6 95/294/6
f 1/309/6 4/295/6 95/294/6
f 5/296/6 8/297/6 95/294/6
f 51/299/6 96/301/6 95/294/6
f 47/302/6 46/303/6 96/301/6
f 50/305/6 49/310/6 96/301/6
