# Blender v3.1.2 OBJ File: ''
# www.blender.org
mtllib roadPitGarage.mtl
o roadPitGarage
v -0.081653 0.020000 1.000000
v -0.081653 0.020000 0.000000
v -0.154865 0.020000 0.000000
v -0.154865 0.020000 1.000000
v -0.154865 0.010000 0.000000
v -0.154865 0.010000 1.000000
v -0.081653 0.000000 0.000000
v -0.081653 -0.000000 1.000000
v -0.845135 0.010000 0.915164
v -0.845135 0.020000 0.915164
v -0.845135 0.020000 1.000000
v -0.845135 0.010000 1.000000
v -1.000000 0.020000 0.915164
v -0.918347 0.020000 1.000000
v -1.000000 0.020000 1.000000
v -0.845135 0.010000 0.000000
v -0.845135 0.020000 0.000000
v -0.845135 0.020000 0.084836
v -0.845135 0.010000 0.084836
v -1.000000 0.010000 0.084836
v -1.000000 0.020000 0.084836
v -0.918347 0.000000 0.000000
v -1.000000 0.000000 0.000000
v -1.000000 0.020000 0.000000
v -0.918347 0.020000 0.000000
v -0.845135 0.020000 0.542418
v -0.845135 0.020000 0.457582
v -1.000000 0.020000 0.457582
v -1.000000 0.020000 0.542418
v -1.000000 0.010000 0.915164
v -1.000000 -0.000000 1.000000
v -0.918347 -0.000000 1.000000
v -0.845135 0.010000 0.457582
v -0.845135 0.010000 0.542418
v -1.000000 0.010000 0.542418
v -1.000000 0.010000 0.457582
v 0.000000 -0.000000 1.000000
v 0.000000 0.000000 0.000000
v -1.000000 -0.000000 0.084836
v -1.000000 -0.000000 0.457582
v -1.000000 -0.000000 0.542418
v -1.000000 -0.000000 0.915164
vt 3.214671 39.370079
vt 3.214670 0.000001
vt 6.097044 0.000000
vt 0.000001 0.787402
vt 0.000001 0.393701
vt 39.370079 0.393701
vt -0.000001 0.000000
vt -0.000001 0.787402
vt -39.370079 0.787402
vt -39.370079 0.787402
vt -39.370079 0.393701
vt -36.030060 0.393701
vt 33.273041 39.370079
vt 33.273041 36.030060
vt 39.370079 36.030060
vt 36.155411 39.370079
vt -3.340016 0.787402
vt -3.340016 0.393701
vt -0.000001 0.393701
vt 39.370079 0.787402
vt 36.155411 0.787402
vt 36.155411 -0.000000
vt 33.273041 21.355049
vt 33.273041 18.015030
vt 39.370079 18.015030
vt 33.273041 3.340016
vt 33.273041 0.000000
vt 36.155411 0.000000
vt 39.370079 0.787402
vt 33.273041 0.787402
vt 33.273041 0.393701
vt -39.370079 0.000000
vt -36.155411 0.000000
vt -36.155411 0.787402
vt -18.015030 0.393701
vt -18.015030 0.787402
vt -21.355049 0.787402
vt -39.370079 0.393701
vt -33.273041 0.393701
vt -33.273041 0.787402
vt -39.370079 0.787402
vt 33.273041 0.787402
vt 33.273041 0.393701
vt 39.370079 0.393701
vt 6.097044 39.370079
vt 39.370079 0.787402
vt -39.370079 0.000000
vt -36.030060 0.787402
vt 39.370079 39.370079
vt -0.000001 0.787402
vt -39.370079 0.393701
vt -33.273041 0.393701
vt -33.273041 0.787402
vt -39.370079 0.787402
vt 39.370079 -0.000000
vt 39.370079 21.355049
vt 39.370079 3.340016
vt 39.370079 0.000000
vt 39.370079 0.393701
vt -39.370079 0.787402
vt -21.355049 0.393701
vt 39.370079 0.787402
vt 39.370079 3.340016
vt 39.370079 18.015030
vt 33.273041 18.015030
vt 33.273041 3.340016
vt 33.273041 39.370079
vt 6.097044 39.370079
vt 33.273041 21.355049
vt 33.273041 36.030060
vt 39.370079 21.355049
vt 39.370079 36.030060
vt 33.273041 0.000000
vt 6.097044 0.000000
vt 3.214670 0.000001
vt 3.214671 39.370079
vt 0.000001 39.370079
vt -0.000003 0.787402
vt -0.000003 -0.000000
vt 3.340013 -0.000000
vt 3.340013 0.787402
vt 21.355049 -0.000000
vt 21.355049 0.787402
vt 18.015030 0.787402
vt 0.000000 0.000001
vt 3.340013 0.393701
vt 18.015030 -0.000000
vt 18.015030 0.393701
vt 21.355049 0.393701
vt 36.030071 0.000000
vt 36.030071 0.393701
vt 39.370090 0.000000
vt 36.030071 0.787402
vt 39.370090 0.787402
vn 0.0000 1.0000 0.0000
vn -1.0000 0.0000 0.0000
vn 1.0000 0.0000 0.0000
vn 0.0000 0.0000 -1.0000
vn 0.0000 0.0000 1.0000
vn 0.0016 1.0000 0.0000
vn -0.4000 0.2000 -0.8944
vn 0.3397 0.1699 -0.9251
vn 0.0802 0.0000 -0.9968
usemtl grey.056
s 1
f 1/1/1 2/2/1 3/3/1
f 3/4/2 5/5/2 6/6/2
f 7/7/3 2/8/3 1/9/3
f 11/10/3 12/11/3 9/12/3
f 11/13/1 10/14/1 13/15/1
f 13/15/1 14/16/1 11/13/1
f 18/17/3 19/18/3 16/19/3
f 24/20/4 25/21/4 22/22/4
f 26/23/1 27/24/1 28/25/1
f 18/26/1 17/27/1 25/28/1
f 13/29/4 10/30/4 9/31/4
f 31/32/5 32/33/5 14/34/5
f 33/35/3 27/36/3 26/37/3
f 35/38/5 34/39/5 26/40/5
f 26/40/5 29/41/5 35/38/5
f 27/42/4 33/43/4 36/44/4
f 3/3/1 4/45/1 1/1/1
f 6/6/2 4/46/2 3/4/2
f 1/9/3 8/47/3 7/7/3
f 9/12/3 10/48/3 11/10/3
f 13/15/1 15/49/1 14/16/1
f 16/19/3 17/50/3 18/17/3
f 20/51/5 19/52/5 18/53/5
f 18/53/5 21/54/5 20/51/5
f 22/22/4 23/55/4 24/20/4
f 28/25/1 29/56/1 26/23/1
f 25/28/1 21/57/1 18/26/1
f 25/28/1 24/58/1 21/57/1
f 9/31/4 30/59/4 13/29/4
f 14/34/5 15/60/5 31/32/5
f 26/37/3 34/61/3 33/35/3
f 36/44/4 28/62/4 27/42/4
usemtl road.035
f 20/63/1 36/64/1 33/65/6
f 19/66/1 33/65/6 12/67/1
f 19/66/1 12/67/1 6/68/1
f 34/69/7 9/70/8 12/67/1
f 35/71/1 30/72/1 9/70/8
f 33/65/6 19/66/1 20/63/1
f 16/73/1 19/66/1 6/68/1
f 6/68/1 5/74/1 16/73/1
f 33/65/6 34/69/7 12/67/1
f 9/70/8 34/69/7 35/71/1
usemtl grass.015
f 7/75/1 8/76/1 37/77/1
f 24/78/2 23/79/2 39/80/2
f 39/80/2 21/81/2 24/78/2
f 41/82/2 29/83/2 28/84/2
f 37/77/1 38/85/1 7/75/1
f 39/80/2 20/86/9 21/81/2
f 20/86/9 39/80/2 40/87/2
f 40/87/2 36/88/2 20/86/9
f 36/88/2 40/87/2 41/82/2
f 41/82/2 28/84/2 36/88/2
f 41/82/2 35/89/9 29/83/2
f 35/89/9 41/82/2 42/90/2
f 42/90/2 30/91/2 35/89/9
f 30/91/2 42/90/2 31/92/2
f 31/92/2 13/93/2 30/91/2
f 31/92/2 15/94/2 13/93/2
