# Blender v3.1.2 OBJ File: ''
# www.blender.org
mtllib tentLong.mtl
o tentLong
v 0.000000 0.430000 0.000000
v 0.000000 0.520000 0.000000
v 0.000000 0.520000 1.000000
v 0.000000 0.430000 0.020000
v 0.000000 0.430000 0.980000
v 0.000000 0.430000 1.000000
v -0.020000 0.430000 1.000000
v -1.980000 0.430000 1.000000
v -2.000000 0.430000 1.000000
v -2.000000 0.520000 1.000000
v -2.000000 0.520000 0.000000
v -1.980000 0.430000 0.000000
v -2.000000 0.430000 0.000000
v -0.020000 0.430000 0.000000
v -2.000000 0.430000 0.020000
v -2.000000 0.430000 0.980000
v -1.980000 0.430000 0.020000
v -1.980000 0.430000 0.980000
v -0.020000 0.430000 0.020000
v -0.020000 0.430000 0.980000
v -0.452500 0.700000 0.547500
v -0.452500 0.700000 0.452500
v -1.547500 0.700000 0.452500
v -1.547500 0.700000 0.547500
v 0.000000 0.000000 0.000000
v 0.000000 -0.000000 0.020000
v -0.020000 -0.000000 0.020000
v -0.020000 0.000000 0.000000
v -2.000000 0.000000 0.000000
v -2.000000 -0.000000 0.020000
v -1.980000 -0.000000 0.020000
v -1.980000 0.000000 0.000000
v -1.980000 -0.000000 0.980000
v -1.980000 -0.000000 1.000000
v -2.000000 -0.000000 1.000000
v -2.000000 -0.000000 0.980000
v 0.000000 -0.000000 0.980000
v -0.020000 -0.000000 0.980000
v -0.020000 -0.000000 1.000000
v 0.000000 -0.000000 1.000000
vt 0.000000 16.929131
vt 0.000000 20.472441
vt -39.370079 20.472441
vt -39.370079 16.929131
vt -38.582680 16.929131
vt -0.787402 16.929131
vt 0.000000 16.929131
vt 0.000000 20.472441
vt -78.740158 16.929131
vt -77.952759 16.929131
vt 78.740158 0.000000
vt 78.740158 39.370079
vt 0.000000 39.370079
vt 77.952759 16.929131
vt 78.740158 16.929131
vt 78.740158 20.472441
vt 0.000000 20.472441
vt 0.000000 16.929131
vt 0.787402 16.929131
vt 39.370079 20.472441
vt 38.582680 16.929131
vt 39.370079 16.929131
vt -77.952759 39.370079
vt -77.952759 38.582680
vt -77.952759 0.000000
vt -0.787402 38.582680
vt -0.787402 39.370079
vt -78.740158 -29.014990
vt 0.000000 -29.014990
vt -17.814960 -9.842279
vt 21.555120 -46.424290
vt 17.814960 -46.424290
vt 0.000000 -65.597000
vt 39.370079 -65.597000
vt -0.787402 16.929131
vt -78.740158 20.472441
vt 0.000000 0.000000
vt 0.787402 16.929131
vt -77.952759 0.787402
vt -78.740158 38.582680
vt -78.740158 0.787402
vt -0.787402 0.000000
vt -0.787402 0.787402
vt 0.000000 0.787402
vt 0.000000 38.582680
vt 17.814960 21.555120
vt 17.814960 17.814960
vt 60.925201 17.814960
vt 60.925201 21.555120
vt -60.925201 -9.842279
vt 17.814960 26.739731
vt 0.000000 7.567019
vt 78.740158 7.567019
vt 60.925201 26.739731
vt -39.370079 7.567019
vt -17.814960 26.739731
vt -21.555120 26.739731
vt 0.000000 0.000000
vt 0.000000 0.000000
vt 0.000000 16.929131
vt 0.000000 0.000000
vt 0.787402 0.000000
vt 0.787402 16.929131
vt 0.787402 0.000000
vt -77.952759 16.929131
vt -78.740158 16.929131
vt -78.740158 0.000000
vt -0.787402 16.929131
vt -0.787402 0.000000
vt 0.000000 0.000000
vt -78.740158 0.000000
vt -78.740158 0.000000
vt -78.740158 39.370079
vt 38.582680 0.000000
vt 39.370079 0.000000
vt 77.952759 0.000000
vt 78.740158 0.000000
vt 78.740158 16.929131
vt 77.952759 16.929131
vt 0.787402 16.929131
vt 0.000000 16.929131
vt 0.000000 0.000000
vt 0.000000 38.582680
vt 0.000000 39.370079
vt -0.787402 39.370079
vt -38.582680 0.000000
vt -0.787402 0.000000
vt 0.000000 0.787402
vt -0.787402 0.787402
vt -0.787402 0.000000
vt -0.787402 0.000000
vt 0.000000 0.000000
vt 0.000000 16.929131
vt -0.787402 16.929131
vt 0.787402 0.000000
vt 0.000000 0.000000
vt -77.952759 0.000000
vt 77.952759 0.000000
vt 78.740158 0.000000
vt -77.952759 0.000000
vt -77.952759 0.787402
vt -78.740158 0.787402
vt -78.740158 0.000000
vt 0.000000 16.929131
vt -38.582680 0.000000
vt -38.582680 16.929131
vt -39.370079 16.929131
vt -39.370079 0.000000
vt -77.952759 0.000000
vt -77.952759 38.582680
vt -77.952759 39.370079
vt -78.740158 39.370079
vt -78.740158 38.582680
vt 0.787402 0.000000
vt 0.000000 39.370079
vt -0.787402 0.000000
vt 0.000000 0.000000
vt 38.582680 16.929131
vt 38.582680 0.000000
vt 39.370079 0.000000
vt 39.370079 16.929131
vt -0.787402 38.582680
vt -39.370079 0.000000
vn 1.0000 0.0000 0.0000
vn 0.0000 0.0000 1.0000
vn 0.0000 1.0000 0.0000
vn 0.0000 0.0000 -1.0000
vn -1.0000 -0.0000 0.0000
vn -0.0000 -1.0000 -0.0000
vn -0.2821 0.9204 0.2706
vn 0.0000 0.9292 0.3696
vn -0.3696 0.9292 0.0000
vn -0.0221 -0.9998 -0.0000
vn -0.0222 -0.9998 0.0000
vn 0.0000 0.9292 -0.3696
vn 0.3696 0.9292 0.0000
usemtl red.032
s 1
f 1/1/1 2/2/1 3/3/1
f 3/3/1 6/4/1 5/5/1
f 7/6/2 6/7/2 3/8/2
f 3/8/2 9/9/2 8/10/2
f 11/11/3 10/12/3 3/13/3
f 12/14/4 13/15/4 11/16/4
f 11/17/5 13/18/5 15/19/5
f 15/19/5 10/20/5 11/17/5
f 15/19/5 16/21/5 10/20/5
f 16/21/5 9/22/5 10/20/5
f 8/23/6 18/24/7 12/25/6
f 20/26/6 7/27/6 8/23/6
f 10/28/8 3/29/8 21/30/8
f 24/31/9 23/32/9 11/33/9
f 11/33/9 10/34/9 24/31/9
f 3/3/1 4/35/1 1/1/1
f 3/3/1 5/5/1 4/35/1
f 3/8/2 8/10/2 7/6/2
f 3/8/2 10/36/2 9/9/2
f 3/13/3 2/37/3 11/11/3
f 11/16/4 14/38/4 12/14/4
f 11/16/4 1/1/4 14/38/4
f 11/16/4 2/2/4 1/1/4
f 17/39/10 18/24/6 16/40/6
f 16/40/6 15/41/6 17/39/6
f 18/24/6 17/39/10 12/25/11
f 8/23/6 12/25/6 14/42/6
f 8/23/6 14/42/6 19/43/6
f 8/23/6 19/43/6 20/26/6
f 20/26/6 19/43/6 4/44/6
f 4/44/6 5/45/6 20/26/6
f 21/46/3 22/47/3 23/48/3
f 23/48/3 24/49/3 21/46/3
f 21/30/8 24/50/8 10/28/8
f 22/51/12 2/52/12 11/53/12
f 11/53/12 23/54/12 22/51/12
f 3/55/13 2/52/13 22/56/13
f 22/56/13 21/57/13 3/55/13
usemtl grey.085
f 25/58/1 1/1/1 4/35/1
f 1/59/6 4/44/6 19/43/6
f 14/60/5 28/61/5 27/62/5
f 27/62/5 19/63/5 14/60/5
f 14/38/4 1/1/4 25/58/4
f 30/64/5 15/19/5 13/18/5
f 17/65/2 15/66/2 30/67/2
f 17/68/1 31/69/1 32/70/1
f 15/41/6 13/71/6 12/25/6
f 8/10/2 9/9/2 35/72/2
f 9/73/6 16/40/6 18/24/6
f 16/21/5 36/74/5 35/75/5
f 35/75/5 9/22/5 16/21/5
f 33/76/4 36/77/4 16/78/4
f 16/78/4 18/79/4 33/76/4
f 20/80/4 5/81/4 37/82/4
f 37/83/6 40/84/6 39/85/6
f 37/86/1 5/5/1 6/4/1
f 4/35/1 26/87/1 25/58/1
f 25/58/6 26/88/6 27/89/6
f 27/89/6 28/90/6 25/58/6
f 27/91/2 26/92/2 4/93/2
f 4/93/2 19/94/2 27/91/2
f 19/43/6 14/42/6 1/59/6
f 25/58/4 28/95/4 14/38/4
f 13/18/5 29/96/5 30/64/5
f 30/67/2 31/97/2 17/65/2
f 32/98/4 29/99/4 13/15/4
f 13/15/4 12/14/4 32/98/4
f 32/100/6 31/101/6 30/102/6
f 30/102/6 29/103/6 32/100/6
f 32/70/1 12/104/1 17/68/1
f 12/25/6 17/39/6 15/41/6
f 33/105/1 18/106/1 8/107/1
f 8/107/1 34/108/1 33/105/1
f 35/72/2 34/109/2 8/10/2
f 33/110/6 34/111/6 35/112/6
f 35/112/6 36/113/6 33/110/6
f 18/24/6 8/23/6 9/73/6
f 37/82/4 38/114/4 20/80/4
f 5/45/6 6/115/6 7/27/6
f 7/27/6 20/26/6 5/45/6
f 39/116/2 40/117/2 6/7/2
f 6/7/2 7/6/2 39/116/2
f 20/118/5 38/119/5 39/120/5
f 39/120/5 7/121/5 20/118/5
f 39/85/6 38/122/6 37/83/6
f 6/4/1 40/123/1 37/86/1
