# Blender v3.1.2 OBJ File: ''
# www.blender.org
mtllib billboardLower.mtl
o billboardLower
v -0.063800 0.186200 0.071900
v -0.063800 0.186200 0.040000
v -0.095700 0.186200 0.040000
v -0.095700 0.186200 0.071900
v -0.095700 -0.030000 0.071900
v -0.063800 -0.030000 0.071900
v -0.095700 -0.000000 0.040000
v -0.095700 -0.030000 0.040000
v -0.063800 -0.000000 0.040000
v -0.063800 -0.030000 0.040000
v -0.436200 0.186200 0.071900
v -0.436200 -0.030000 0.071900
v -0.404300 -0.030000 0.071900
v -0.404300 0.186200 0.071900
v -0.404300 0.186200 0.040000
v -0.436200 0.186200 0.040000
v -0.436200 0.000000 0.040000
v -0.436200 -0.030000 0.040000
v -0.404300 0.000000 0.040000
v -0.404300 -0.030000 0.040000
v 0.000000 0.000000 0.040000
v 0.000000 0.000000 0.000000
v 0.000000 0.250000 0.000000
v 0.000000 0.250000 0.040000
v -0.500000 0.250000 0.000000
v -0.500000 0.250000 0.040000
v -0.500000 0.000000 0.000000
v -0.500000 0.000000 0.040000
vt 2.511813 2.830709
vt 2.511813 1.574803
vt 3.767718 1.574803
vt 3.767719 2.830709
vt -1.574803 0.000001
vt -1.574803 7.330708
vt -2.830709 7.330708
vt -1.574803 -1.181104
vt -2.830709 -1.181104
vt -17.173229 7.330709
vt -15.917320 -1.181107
vt -17.173229 -1.181107
vt 17.173229 1.574803
vt 15.917320 2.830709
vt 17.173229 2.830709
vt 1.574815 0.000003
vt 1.574815 -1.181104
vt 2.830720 7.330711
vt 2.830720 -1.181104
vt -1.574803 0.000003
vt -1.574803 7.330711
vt -2.830709 7.330711
vt -2.830709 -1.181104
vt -1.574803 -1.181104
vt -2.511812 -1.181105
vt -2.511814 7.330708
vt -3.767720 7.330708
vt -3.767719 -1.181105
vt 2.830711 7.330708
vt 1.574806 7.330708
vt 1.574806 0.000001
vt 1.574806 -1.181104
vt 2.830711 -1.181104
vt -15.917320 7.330709
vt 15.917320 1.574803
vt 1.574815 7.330711
vt -1.574803 0.000001
vt 0.000000 0.000001
vt -0.000000 9.842520
vt -1.574803 9.842520
vt 19.685040 -0.000000
vt 19.685040 1.574803
vt 0.000000 1.574803
vt -0.000000 1.574803
vt -2.511812 1.574803
vt -19.685040 -0.000000
vt -3.767718 1.574803
vt -15.917320 1.574803
vt -17.173229 1.574803
vt 0.000000 -0.000000
vt -19.685040 1.574803
vt 0.000000 9.842520
vt 0.000000 0.000001
vt 1.574803 0.000001
vt 1.574803 9.842520
vt 0.000000 0.000001
vt 0.000000 9.842520
vt -2.511814 7.330708
vt -15.917320 7.330709
vt -19.685040 9.842520
vt -17.173229 7.330709
vt -17.173229 0.000001
vt -19.685040 0.000001
vt -3.767719 7.330708
vt -15.917320 0.000001
vt -3.767718 -0.000000
vt -2.511812 0.000000
vt -0.000000 1.000000
vt 1.000000 1.000000
vt 1.000000 2.000000
vt -0.000000 2.000000
vt -2.830709 7.330711
vt -2.830709 -1.181104
vt -2.830709 7.330711
vt -1.574803 -1.181104
vt -2.830709 7.330711
vt -2.830709 -1.181104
vt -2.830709 7.330711
vt -1.574803 -1.181104
vt -2.830709 -1.181104
vt -1.574803 -1.181104
vt -2.830709 7.330711
vt -2.830709 -1.181104
vt -1.574803 -1.181104
vt -2.830709 7.330711
vn 0.0000 1.0000 0.0000
vn 1.0000 -0.0000 0.0000
vn -1.0000 -0.0000 -0.0000
vn 0.0000 0.0000 -1.0000
vn 0.0000 -1.0000 -0.0000
vn 0.0000 -0.0000 1.0000
usemtl grey.007
s 1
f 1/1/1 2/2/1 3/3/1
f 3/3/1 4/4/1 1/1/1
f 9/5/2 2/6/2 1/7/2
f 1/7/2 10/8/2 9/5/2
f 1/7/3 10/8/3 6/9/3
f 11/10/4 13/11/4 12/12/4
f 16/13/5 14/14/5 11/15/5
f 17/16/3 18/17/3 11/18/3
f 18/17/3 12/19/3 11/18/3
f 19/20/2 15/21/2 14/22/2
f 14/22/2 13/23/2 20/24/2
f 14/22/3 19/20/3 20/24/3
f 6/25/6 1/26/6 4/27/6
f 4/27/4 6/25/4 5/28/4
f 4/29/3 3/30/3 7/31/3
f 8/32/3 5/33/3 4/29/3
f 7/31/2 4/29/2 8/32/2
f 13/11/4 11/10/4 14/34/4
f 14/14/1 15/35/1 16/13/1
f 11/18/3 16/36/3 17/16/3
usemtl road.003
f 21/37/2 22/38/2 23/39/2
f 23/39/2 24/40/2 21/37/2
f 25/41/1 26/42/1 24/43/1
f 22/38/5 21/44/5 9/45/5
f 9/45/5 27/46/5 22/38/5
f 7/47/5 19/48/5 27/46/5
f 19/48/5 17/49/5 27/46/5
f 24/43/1 23/50/1 25/41/1
f 9/45/5 7/47/5 27/46/5
f 17/49/5 28/51/5 27/46/5
f 25/52/3 27/53/3 28/54/3
f 28/54/3 26/55/3 25/52/3
usemtl bark.003
f 21/56/6 24/57/6 2/58/6
f 24/57/6 15/59/6 2/58/6
f 15/59/6 24/57/6 26/60/6
f 16/61/6 15/59/6 26/60/6
f 17/62/6 16/61/6 26/60/6
f 26/60/6 28/63/6 17/62/6
f 3/64/6 2/58/6 15/59/6
f 3/64/6 15/59/6 19/65/6
f 19/65/6 7/66/6 3/64/6
f 2/58/6 9/67/6 21/56/6
usemtl tankco.003
f 22/68/4 27/69/4 25/70/4
f 25/70/4 23/71/4 22/68/4
usemtl _defaultMat.002
f 5/72/5 8/73/5 10/8/5
f 10/74/4 8/73/4 7/75/4
f 7/76/4 9/77/4 10/8/4
f 20/78/5 13/23/5 12/79/5
f 20/78/4 18/80/4 17/81/4
f 17/82/4 19/83/4 20/24/4
f 10/74/5 6/9/5 5/84/5
f 12/85/5 18/80/5 20/24/5
