# Blender v3.1.2 OBJ File: ''
# www.blender.org
mtllib flagCheckers.mtl
o flagCheckers
v -0.098847 0.645655 0.027268
v -0.105676 0.645655 0.022884
v -0.105676 1.190000 0.022884
v -0.098847 1.190000 0.027268
v -0.118734 1.190000 0.012316
v -0.112205 0.645655 0.017600
v -0.118734 0.645655 0.012316
v -0.125563 1.190000 0.007932
v -0.125563 0.645655 0.007932
v -0.132634 1.190000 0.004484
v -0.132634 0.645655 0.004484
v -0.139888 1.190000 0.002000
v -0.139888 0.645655 0.002000
v -0.147266 1.190000 0.000501
v -0.147266 0.645655 0.000501
v -0.112205 1.190000 0.017600
v -0.154705 1.190000 0.000000
v -0.154705 0.645655 0.000000
v -0.162144 1.190000 0.000501
v -0.162144 0.645655 0.000501
v -0.169522 1.190000 0.002000
v -0.169522 0.645655 0.002000
v -0.176776 1.190000 0.004484
v -0.176776 0.645655 0.004484
v -0.183847 1.190000 0.007932
v -0.183847 0.645655 0.007932
v -0.190676 1.190000 0.012316
v -0.190676 0.645655 0.012316
v -0.197205 1.190000 0.017600
v -0.197205 0.645655 0.017600
v -0.047634 0.645655 0.030717
v -0.054888 0.645655 0.033201
v -0.054888 1.190000 0.033201
v -0.047634 1.190000 0.030717
v -0.062266 1.190000 0.034699
v -0.062266 0.645655 0.034699
v -0.069705 1.190000 0.035200
v -0.069705 0.645655 0.035200
v -0.040563 0.645655 0.027268
v -0.040563 1.190000 0.027268
v -0.033734 0.645655 0.022884
v -0.033734 1.190000 0.022884
v -0.027205 0.645655 0.017600
v -0.027205 1.190000 0.017600
v -0.077144 1.190000 0.034699
v -0.077144 0.645655 0.034699
v -0.084522 1.190000 0.033201
v -0.084522 0.645655 0.033201
v -0.091776 1.190000 0.030717
v -0.091776 0.645655 0.030717
v -0.007205 0.280000 0.007600
v -0.027205 0.280000 0.007600
v -0.027205 1.200000 0.007600
v -0.007205 1.200000 0.007600
v -0.027205 0.280000 0.027600
v -0.007205 0.280000 0.027600
v -0.007205 1.200000 0.027600
v -0.027205 1.200000 0.027600
v 0.000000 -0.000000 0.000395
v 0.000000 -0.000000 0.034805
v -0.034410 -0.000000 0.034805
v -0.034410 -0.000000 0.000395
v -0.034410 0.159886 0.000395
v 0.000000 0.159886 0.000395
v -0.034410 0.159886 0.034805
v 0.000000 0.159886 0.034805
v -0.011405 1.250000 0.023400
v -0.023005 1.250000 0.011800
v -0.011405 1.250000 0.011800
v -0.023005 1.250000 0.023400
v -0.030705 1.230000 0.031100
v -0.030705 1.230000 0.004100
v -0.003705 1.230000 0.031100
v -0.003705 1.230000 0.004100
vt -18.578581 -2.202028
vt -18.538410 -2.202028
vt -18.538410 1.000000
vt -18.578581 1.000000
vt -18.421431 -2.202028
vt -18.379841 -2.202028
vt -18.379841 1.000000
vt -18.337170 -2.202028
vt -18.337160 1.000000
vt -18.162849 1.000000
vt -18.206249 1.000000
vt -18.206249 -2.202028
vt -18.162849 -2.202028
vt -18.078581 1.000000
vt -18.120180 1.000000
vt -18.120180 -2.202028
vt -18.293770 1.000000
vt -18.293770 -2.202028
vt -18.461599 1.000000
vt -18.500000 1.000000
vt -18.250010 1.000000
vt -18.250010 -2.202028
vt -18.000010 1.000000
vt -18.038420 -2.202028
vt -18.038420 1.000000
vt -18.000010 -2.202028
vt -18.793760 1.000000
vt -18.837160 1.000000
vt -18.837160 -2.202028
vt -18.706240 1.000000
vt -18.750000 1.000000
vt -18.750000 -2.202028
vt -18.706240 -2.202028
vt -18.662849 -2.202028
vt -18.662849 1.000000
vt -18.620171 1.000000
vt -18.620171 -2.202028
vt -18.879841 -2.202028
vt -18.879829 1.000000
vt -18.793760 -2.202028
vt -18.921431 -2.202028
vt -18.921431 1.000000
vt -18.500010 -2.202028
vt -18.461599 -2.202028
vt -18.421431 1.000000
vt -18.078581 -2.202028
vt -18.961590 -2.202028
vt -19.000000 -2.202028
vt -18.961590 1.000000
vt -19.000000 1.000000
vt -0.283661 47.244091
vt -1.071063 47.244091
vt -1.071063 11.023620
vt 0.000000 0.000000
vt 0.000000 1.354724
vt -1.354724 1.354724
vt 0.283661 47.244091
vt 0.283661 11.023620
vt 1.071063 11.023620
vt -0.283661 11.023620
vt -0.283661 47.244091
vt -1.071063 47.244091
vt -1.071063 11.023620
vt 0.000000 6.294714
vt 0.000000 0.000000
vt 1.354724 0.000000
vt 1.354724 6.294714
vt -1.354724 0.000000
vt 0.000000 0.000000
vt 0.000000 6.294714
vt 0.000000 6.294714
vt -1.354724 6.294714
vt -1.354724 0.000000
vt -0.283661 11.020830
vt -1.071063 11.020830
vt -1.354724 6.283421
vt 0.283661 10.939710
vt 0.000000 6.202303
vt 1.354724 6.202303
vt 1.071063 10.939710
vt 0.000000 6.283421
vt 1.354724 6.283421
vt 1.071063 11.020830
vt 0.283661 11.023620
vt 1.071063 47.244091
vt 1.071063 11.023620
vt 0.283661 47.244091
vt -0.283661 11.023620
vt -1.354724 0.000000
vt 1.071063 47.244091
vt 1.354724 6.294714
vt 1.354724 0.000000
vt -1.354724 6.294714
vt 0.449016 0.905709
vt 0.905709 0.449016
vt 0.449016 0.449016
vt 0.905709 0.905709
vt -0.283661 46.892948
vt -1.208858 48.082062
vt -0.145866 48.082062
vt -1.071063 46.892948
vt 1.208858 48.082062
vt 0.283661 46.892948
vt 0.145866 48.082062
vt -1.071063 47.049931
vt -0.145866 48.239052
vt -0.283661 47.049931
vt -1.208858 48.239052
vt 0.449016 45.601028
vt 1.208858 44.757290
vt 0.145866 44.757290
vt -0.449016 46.087769
vt -1.208858 45.244030
vt -0.905709 46.087769
vt 0.283661 11.020830
vt -1.354724 6.202303
vt -0.283661 10.939710
vt 0.000000 6.202303
vt -1.071063 10.939710
vt 1.208858 48.239052
vt 0.145866 48.239052
vt 0.283661 47.049931
vt 1.071063 47.049931
vt 1.071063 46.892948
vt 0.145866 45.244030
vt 1.208858 45.244030
vt 0.905709 46.087769
vt 0.449016 46.087769
vt -1.208858 44.757290
vt -0.145866 44.757290
vt -0.449016 45.601028
vt -0.905709 45.601028
vt 0.905709 45.601028
vt -0.145866 45.244030
vn 0.4902 0.0000 -0.8716
vn 0.5856 0.0000 -0.8106
vn 0.3819 0.0000 -0.9242
vn 0.2621 0.0000 -0.9650
vn -0.2620 0.0000 -0.9651
vn -0.1334 -0.0000 -0.9911
vn -0.2621 0.0000 -0.9651
vn -0.4901 -0.0000 -0.8716
vn -0.3819 -0.0000 -0.9242
vn -0.1334 -0.0000 0.9911
vn -0.2620 -0.0000 0.9651
vn -0.5855 -0.0000 0.8106
vn -0.5856 -0.0000 0.8106
vn -0.6291 -0.0000 0.7773
vn 0.0000 -0.0000 1.0000
vn 0.2621 -0.0000 0.9650
vn 0.3819 0.0000 0.9242
vn 0.6291 -0.0000 0.7774
vn 0.5856 -0.0000 0.8106
vn 0.1334 0.0000 -0.9911
vn 0.0000 0.0000 -1.0000
vn 0.2620 0.0000 -0.9651
vn 0.1334 0.0000 0.9911
vn 0.4901 0.0000 0.8716
vn 0.6291 0.0000 -0.7774
vn -0.5856 0.0000 -0.8106
vn -0.6291 0.0000 -0.7774
vn -0.5855 0.0000 -0.8106
vn -0.2621 0.0000 0.9650
vn -0.3819 0.0000 0.9242
vn 0.0000 -1.0000 -0.0000
vn -1.0000 0.0000 0.0000
vn 1.0000 -0.0000 0.0000
vn 0.9982 0.0599 0.0000
vn -0.9982 0.0599 0.0000
vn 0.0000 0.0599 -0.9982
vn 0.0000 1.0000 0.0000
vn -0.9933 0.1159 0.0000
vn 0.0000 0.1159 0.9933
vn 0.0000 0.1159 -0.9933
vn 0.9332 -0.3593 0.0000
vn -0.9332 -0.3593 0.0000
vn -0.9982 -0.0599 0.0000
vn 0.0000 -0.0599 0.9982
vn 0.0000 -0.0599 -0.9982
vn -0.9933 -0.1159 0.0000
vn 0.0000 -0.1159 -0.9933
vn 0.0000 0.3593 -0.9332
vn 0.0000 0.3593 0.9332
vn -0.9332 0.3593 0.0000
vn 0.9332 0.3593 0.0000
usemtl checkers
s 1
f 1/1/1 2/2/2 3/3/2
f 3/3/2 4/4/1 1/1/1
f 9/5/1 11/6/3 10/7/3
f 11/6/3 13/8/4 12/9/4
f 21/10/5 19/11/6 20/12/6
f 20/12/6 22/13/7 21/10/5
f 25/14/8 23/15/9 24/16/9
f 14/17/10 13/8/11 12/9/11
f 13/8/11 14/17/10 15/18/10
f 5/19/12 3/3/13 16/20/14
f 15/18/10 17/21/15 18/22/15
f 22/13/16 23/15/17 24/16/17
f 29/23/18 28/24/19 27/25/19
f 28/24/19 29/23/18 30/26/18
f 35/27/6 33/28/5 32/29/5
f 45/30/20 37/31/21 38/32/21
f 46/33/20 48/34/22 47/35/22
f 4/4/1 49/36/3 50/37/3
f 50/37/3 1/1/1 4/4/1
f 33/28/16 31/38/17 34/39/17
f 37/31/15 36/40/23 35/27/23
f 36/40/23 37/31/15 38/32/15
f 34/39/17 39/41/24 40/42/24
f 38/32/15 45/30/10 46/33/10
f 5/19/2 3/3/2 2/2/2
f 5/19/2 2/2/2 6/43/25
f 6/43/25 7/44/2 5/19/2
f 8/45/1 5/19/2 7/44/2
f 7/44/2 9/5/1 8/45/1
f 10/7/3 8/45/1 9/5/1
f 12/9/4 10/7/3 11/6/3
f 18/22/21 20/12/6 19/11/6
f 23/15/9 21/10/5 22/13/7
f 24/16/9 26/46/8 25/14/8
f 17/21/15 15/18/10 14/17/10
f 19/11/23 18/22/15 17/21/15
f 27/25/19 26/46/24 25/14/24
f 26/46/24 27/25/19 28/24/19
f 31/38/9 32/29/5 33/28/5
f 32/29/5 36/40/6 35/27/6
f 41/47/26 39/41/8 40/42/8
f 43/48/27 41/47/28 42/49/28
f 42/49/28 44/50/27 43/48/27
f 47/35/22 45/30/20 46/33/20
f 49/36/3 47/35/22 48/34/22
f 39/41/24 34/39/17 31/38/17
f 40/42/24 41/47/19 42/49/19
f 48/34/29 49/36/30 50/37/30
usemtl _defaultMat.004
f 57/51/15 58/52/15 55/53/15
f 59/54/31 60/55/31 61/56/31
f 53/57/32 52/58/32 55/59/32
f 51/60/33 54/61/33 57/62/33
f 57/62/33 56/63/33 51/60/33
f 63/64/32 62/65/32 61/66/32
f 61/66/32 65/67/32 63/64/32
f 61/68/15 60/69/15 66/70/15
f 59/54/33 64/71/33 66/72/33
f 66/72/33 60/73/33 59/54/33
f 51/74/34 56/75/34 66/76/34
f 52/77/35 63/78/35 65/79/35
f 65/79/35 55/80/35 52/77/35
f 64/81/36 63/82/36 52/83/36
usemtl grey.011
f 51/84/15 53/85/15 52/86/15
f 53/85/15 51/84/15 54/87/15
f 55/53/21 57/51/21 56/88/21
f 61/56/37 59/54/37 62/89/37
f 55/59/33 53/57/33 58/90/33
f 59/54/15 63/91/15 62/92/15
f 63/91/15 59/54/15 64/71/15
f 66/70/21 61/68/21 65/93/21
f 67/94/31 68/95/31 69/96/31
f 68/95/31 67/94/31 70/97/31
f 54/98/38 73/99/38 74/100/38
f 73/99/38 54/98/38 57/101/38
f 72/102/39 54/103/39 74/104/39
f 58/105/40 73/106/40 57/107/40
f 73/106/40 58/105/40 71/108/40
f 68/109/41 71/110/41 72/111/41
f 69/112/42 73/113/42 67/114/42
f 66/76/43 51/74/43 64/81/43
f 52/83/44 64/81/44 51/115/44
f 65/116/45 56/117/45 66/118/45
f 56/117/45 65/116/45 55/119/45
usemtl road.005
f 71/120/46 72/121/46 53/122/46
f 53/122/46 58/123/46 71/120/46
f 54/103/47 53/124/47 72/102/47
f 74/125/48 72/126/48 68/127/48
f 68/127/48 69/128/48 74/125/48
f 71/129/49 73/130/49 67/131/49
f 67/131/49 70/132/49 71/129/49
f 71/110/50 70/133/50 68/109/50
f 73/113/51 74/134/51 69/112/51
