# Blender v3.1.2 OBJ File: ''
# www.blender.org
mtllib grandStand.mtl
o grandStand
v -1.000000 -0.000000 1.000000
v 0.000000 -0.000000 1.000000
v 0.000000 0.896262 1.000000
v -1.000000 0.896262 1.000000
v -1.000000 0.209001 0.000000
v -1.000000 0.000000 0.000000
v -1.000000 0.746262 0.596032
v -1.000000 0.866262 0.596032
v -1.000000 0.866262 0.743642
v -1.000000 0.896262 0.743642
v -0.945687 0.054313 0.000000
v 0.000000 0.000000 0.000000
v -0.945687 0.154687 0.000000
v -0.054313 0.154687 0.000000
v -0.054313 0.054313 0.000000
v 0.000000 0.209001 0.000000
v 0.000000 0.746262 0.596032
v 0.000000 0.866262 0.596032
v 0.000000 0.866262 0.743642
v 0.000000 0.896262 0.743642
v -0.945687 0.746262 0.596032
v -0.945687 0.866262 0.596032
v -0.054313 0.746262 0.596032
v -0.054313 0.866262 0.596032
v -0.945687 0.866262 0.646032
v -0.054313 0.866262 0.646032
v -0.054313 0.245366 0.040343
v -0.945687 0.245366 0.040343
v -0.054313 0.245366 0.104761
v -0.945687 0.245366 0.104761
v -0.218291 0.815809 0.646032
v -0.218291 0.815809 0.876032
v -0.781709 0.815809 0.876032
v -0.781709 0.815809 0.646032
v -0.945687 0.283432 0.104761
v -0.945687 0.341499 0.169179
v -0.945687 0.399565 0.233598
v -0.945687 0.457632 0.298016
v -0.945687 0.515698 0.362435
v -0.945687 0.573765 0.426853
v -0.945687 0.631831 0.491271
v -0.945687 0.631831 0.646032
v -0.945687 0.573765 0.491271
v -0.945687 0.515698 0.426853
v -0.945687 0.457632 0.362435
v -0.945687 0.399565 0.298016
v -0.945687 0.341499 0.233598
v -0.945687 0.283432 0.169179
v -0.218291 0.631831 0.646032
v -0.218291 0.631831 0.876032
v -0.781709 0.631831 0.646032
v -0.781709 0.631831 0.876032
v -0.054313 0.631831 0.646032
v -0.054313 0.283432 0.104761
v -0.054313 0.341499 0.169179
v -0.054313 0.283432 0.169179
v -0.054313 0.399565 0.233598
v -0.054313 0.341499 0.233598
v -0.054313 0.457632 0.298016
v -0.054313 0.399565 0.298016
v -0.054313 0.515698 0.362435
v -0.054313 0.457632 0.362435
v -0.054313 0.573765 0.426853
v -0.054313 0.515698 0.426853
v -0.054313 0.631831 0.491271
v -0.054313 0.573765 0.491271
vt -39.370079 0.000000
vt 0.000000 0.000000
vt 0.000000 35.285931
vt -39.370079 35.285931
vt 0.000000 8.228376
vt 0.000000 -0.000000
vt 39.370079 -0.000000
vt 23.465839 34.104832
vt 23.465839 29.380421
vt 39.370079 35.285931
vt 29.277229 35.285931
vt 39.370079 0.000000
vt 39.370079 8.228376
vt 37.231758 2.138322
vt 0.000000 0.000000
vt 2.138322 2.138322
vt 0.000000 8.228376
vt 2.138322 6.090055
vt -39.370079 39.370079
vt -39.370079 0.000000
vt -23.465839 29.380421
vt -23.465839 34.104832
vt -29.277229 34.104832
vt -39.370079 0.000000
vt -39.370079 35.285931
vt -29.277229 35.285931
vt 37.231758 29.380421
vt 39.370079 29.380421
vt 39.370079 34.104832
vt 37.231758 34.104832
vt 2.138322 25.434340
vt 37.231758 25.434340
vt 39.370079 29.277229
vt 0.000000 29.277229
vt 0.000000 23.465839
vt 2.138322 23.465839
vt 2.138322 7.647532
vt -0.000000 37.101212
vt 0.000000 5.509211
vt 39.370079 5.509211
vt 39.370079 37.101212
vt 37.231758 37.101212
vt 2.138322 37.101212
vt 29.277229 34.104832
vt 37.231758 6.090055
vt 0.000000 39.370079
vt 0.000000 34.104832
vt 39.370079 34.104832
vt 39.370079 35.285931
vt 0.000000 35.285931
vt 0.000000 39.370079
vt 0.000000 29.277229
vt 39.370079 29.277229
vt 39.370079 39.370079
vt 0.000000 29.380421
vt 2.138322 29.380421
vt 2.138322 34.104832
vt 0.000000 34.104832
vt 37.231758 23.465839
vt 39.370079 23.465839
vt 37.231758 7.647532
vt 39.370079 29.277229
vt 39.370079 39.370079
vt 0.000000 39.370079
vt 39.370079 39.370079
vt 0.000000 39.370079
vt 39.370079 39.370079
vt 0.000000 39.370079
vt 39.370079 39.370079
vt 0.000000 39.370079
vt 39.370079 39.370079
vt 0.000000 39.370079
vt 39.370079 39.370079
vt 0.000000 39.370079
vt 39.370079 29.277229
vt 0.000000 39.370079
vt 39.370079 29.277229
vt 0.000000 39.370079
vt 39.370079 29.277229
vt 39.370079 39.370079
vt 0.000000 39.370079
vt 39.370079 34.104832
vt 37.231758 34.104832
vt 37.231758 29.380421
vt 37.231758 11.158750
vt 2.138322 11.158750
vt 2.138322 9.660064
vt 37.231758 11.158750
vt 2.138322 11.158750
vt 2.138322 11.158750
vt 2.138322 9.660064
vt 37.231758 11.158750
vt 2.138322 11.158750
vt 2.138322 9.660064
vt -0.000000 37.101212
vt 2.138322 7.647532
vt 2.138322 37.101212
vt 2.138322 7.647532
vt 2.138322 37.101212
vt -0.000000 37.101212
vt 2.138322 7.647532
vt -0.000000 37.101212
vt 2.138322 7.647532
vt 2.138322 7.647532
vt 2.138322 37.101212
vt -0.000000 37.101212
vt 2.138322 7.647532
vt -0.000000 37.101212
vt 2.138322 7.647532
vt -0.000000 37.101212
vt 2.138322 7.647532
vt 2.138322 37.101212
vt 39.370079 -0.000000
vt 39.370079 35.285931
vt 29.277229 35.285931
vt 39.370079 -0.000000
vt 39.370079 35.285931
vt 29.277229 35.285931
vt -29.277229 34.104832
vt -39.370079 35.285931
vt -39.370079 0.000000
vt -29.277229 34.104832
vt -39.370079 35.285931
vt -39.370079 0.000000
vt 39.370079 39.370079
vt 0.000000 39.370079
vt 39.370079 29.277229
vt 39.370079 39.370079
vt 0.000000 39.370079
vt 0.000000 39.370079
vt 39.370079 39.370079
vt 0.000000 39.370079
vt 39.370079 29.277229
vt 0.000000 39.370079
vt 39.370079 29.277229
vt 0.000000 39.370079
vt 0.000000 39.370079
vt 39.370079 29.277229
vt 39.370079 39.370079
vt 0.000000 39.370079
vt 39.370079 34.104832
vt 37.231758 34.104832
vt 37.231758 29.380421
vt 37.231758 11.158750
vt 2.138322 9.660064
vt 2.138322 11.158750
vt 2.138322 9.660064
vt 37.231758 11.158750
vt 2.138322 11.158750
vt 2.138322 9.660064
vt 37.231758 11.158750
vt -0.000000 37.101212
vt 2.138322 7.647532
vt 2.138322 37.101212
vt 2.138322 7.647532
vt 2.138322 7.647532
vt 2.138322 37.101212
vt 2.138322 7.647532
vt 2.138322 37.101212
vt -0.000000 37.101212
vt 2.138322 7.647532
vt 2.138322 7.647532
vt 2.138322 37.101212
vt 2.138322 7.647532
vt 2.138322 37.101212
vt -0.000000 37.101212
vt 2.138322 7.647532
vt 2.138322 7.647532
vt 2.138322 20.303080
vt 37.231758 20.303080
vt 37.231758 22.589161
vt 2.138322 22.589161
vt 2.138322 15.730910
vt 37.231758 15.730910
vt 37.231758 18.016991
vt 37.231758 13.444830
vt 2.138322 13.444830
vt 2.138322 11.158750
vt 2.138322 9.660064
vt 37.231758 9.660064
vt 37.231758 11.158750
vt 37.231758 14.269070
vt 37.231758 16.805229
vt 2.138322 16.805229
vt 2.138322 9.196763
vt 2.138322 6.660608
vt 37.231758 6.660608
vt 37.231758 9.196763
vt 2.138322 6.660608
vt 2.138322 4.124453
vt 37.231758 4.124453
vt 2.138322 22.589161
vt 37.231758 22.589161
vt 37.231758 24.875250
vt 2.138322 24.875250
vt 2.138322 25.434340
vt 2.138322 19.341379
vt 37.231758 19.341379
vt 8.594137 34.489460
vt 8.594137 25.434340
vt 2.138322 18.016991
vt 37.231758 11.158750
vt 2.138322 13.444830
vt 37.231758 13.444830
vt 37.231758 15.730910
vt 2.138322 15.730910
vt 2.138322 18.016991
vt 37.231758 18.016991
vt 37.231758 20.303080
vt 2.138322 20.303080
vt 2.138322 11.158750
vt 2.138322 19.341379
vt 2.138322 16.805229
vt 37.231758 16.805229
vt 37.231758 19.341379
vt 2.138322 14.269070
vt 2.138322 14.269070
vt 2.138322 11.732920
vt 37.231758 11.732920
vt 37.231758 14.269070
vt 2.138322 11.732920
vt 2.138322 9.196763
vt 37.231758 9.196763
vt 37.231758 11.732920
vt 37.231758 6.660608
vt 30.775940 25.434340
vt 37.231758 25.434340
vt 30.775940 34.489460
vt 8.594137 24.875250
vt 30.775940 24.875250
vt 30.775940 32.118462
vt 8.594137 32.118462
vn 0.0000 -0.0000 1.0000
vn -1.0000 0.0000 0.0000
vn 0.0000 0.0000 -1.0000
vn 0.0000 -1.0000 -0.0000
vn 1.0000 0.0000 0.0000
vn 0.0000 1.0000 -0.0000
vn 0.0000 0.7428 -0.6695
usemtl grey.016
s 1
f 1/1/1 2/2/1 3/3/1
f 3/3/1 4/4/1 1/1/1
f 5/5/2 6/6/2 1/7/2
f 1/7/2 8/8/2 7/9/2
f 1/7/2 4/10/2 10/11/2
f 6/12/3 5/13/3 11/14/3
f 12/15/3 11/14/3 15/16/3
f 15/16/3 16/17/3 12/15/3
f 15/16/3 14/18/3 16/17/3
f 14/18/3 5/13/3 16/17/3
f 1/19/4 6/20/4 12/15/4
f 17/21/5 18/22/5 19/23/5
f 17/21/5 2/24/5 12/15/5
f 19/23/5 3/25/5 2/24/5
f 19/23/5 20/26/5 3/25/5
f 21/27/3 7/28/3 8/29/3
f 8/29/3 22/30/3 21/27/3
f 26/31/6 25/32/6 9/33/6
f 26/31/6 9/33/6 19/34/6
f 19/34/6 18/35/6 24/36/6
f 27/37/7 17/38/7 16/39/7
f 16/39/7 5/40/7 27/37/7
f 5/40/7 7/41/7 21/42/7
f 17/38/7 27/37/7 23/43/7
f 1/7/2 7/9/2 5/5/2
f 1/7/2 9/44/2 8/8/2
f 1/7/2 10/11/2 9/44/2
f 11/14/3 12/15/3 6/12/3
f 5/13/3 13/45/3 11/14/3
f 5/13/3 14/18/3 13/45/3
f 12/15/4 2/46/4 1/19/4
f 17/21/5 19/23/5 2/24/5
f 12/15/5 16/17/5 17/21/5
f 19/47/3 9/48/3 10/49/3
f 10/49/3 20/50/3 19/47/3
f 3/51/6 20/52/6 10/53/6
f 10/53/6 4/54/6 3/51/6
f 17/55/3 23/56/3 24/57/3
f 24/57/3 18/58/3 17/55/3
f 25/32/6 22/59/6 8/60/6
f 25/32/6 8/60/6 9/33/6
f 24/36/6 26/31/6 19/34/6
f 5/40/7 28/61/7 27/37/7
f 5/40/7 21/42/7 28/61/7
usemtl _defaultMat.009
f 21/62/5 36/63/5 35/64/5
f 21/62/5 37/65/5 36/66/5
f 21/62/5 40/67/5 39/68/5
f 21/62/5 41/69/5 40/70/5
f 21/62/5 42/71/5 41/72/5
f 21/62/5 25/73/5 42/74/5
f 40/75/5 41/69/5 43/76/5
f 39/77/5 40/67/5 44/78/5
f 37/79/5 38/80/5 46/81/5
f 50/82/2 32/83/2 31/84/2
f 33/85/5 52/86/5 51/87/5
f 25/88/3 34/89/3 51/87/3
f 25/88/3 31/90/3 34/91/3
f 31/92/3 25/93/3 26/94/3
f 54/95/2 23/96/2 27/97/2
f 54/95/2 56/98/2 55/99/2
f 55/100/2 57/101/2 23/43/2
f 57/102/2 59/103/2 23/43/2
f 57/102/2 60/104/2 59/105/2
f 59/106/2 61/107/2 23/43/2
f 63/108/2 65/109/2 23/43/2
f 53/110/2 26/111/2 24/112/2
f 29/113/6 27/114/6 28/115/6
f 28/116/6 30/117/6 29/118/6
f 31/119/4 32/120/4 33/121/4
f 33/122/4 34/123/4 31/124/4
f 21/62/5 22/125/5 25/126/5
f 35/127/5 28/128/5 21/129/5
f 21/62/5 38/80/5 37/130/5
f 21/62/5 39/131/5 38/132/5
f 38/133/5 39/131/5 45/134/5
f 36/135/5 37/65/5 47/136/5
f 35/127/5 36/63/5 48/137/5
f 28/138/5 35/139/5 30/140/5
f 31/141/2 49/142/2 50/143/2
f 51/144/5 34/89/5 33/145/5
f 51/144/3 42/146/3 25/147/3
f 26/148/3 53/149/3 49/150/3
f 49/151/3 31/90/3 26/94/3
f 27/152/2 29/153/2 54/154/2
f 54/95/2 55/155/2 23/43/2
f 55/100/2 58/156/2 57/157/2
f 59/106/2 62/158/2 61/159/2
f 61/160/2 63/161/2 23/43/2
f 61/160/2 64/162/2 63/163/2
f 63/108/2 66/164/2 65/165/2
f 65/166/2 53/167/2 23/43/2
f 53/110/2 24/168/2 23/43/2
usemtl red.004
f 64/169/3 44/170/3 40/171/3
f 40/171/3 63/172/3 64/169/3
f 60/173/3 46/174/3 38/175/3
f 36/176/3 55/177/3 56/178/3
f 29/179/3 30/180/3 35/181/3
f 39/182/6 44/183/6 64/184/6
f 58/185/6 55/186/6 36/187/6
f 36/187/6 47/188/6 58/185/6
f 56/189/6 54/190/6 35/191/6
f 66/192/3 43/193/3 41/194/3
f 41/194/3 65/195/3 66/192/3
f 53/196/6 65/197/6 41/198/6
f 41/198/6 50/199/6 49/200/6
f 38/175/3 59/201/3 60/173/3
f 56/178/3 48/202/3 36/176/3
f 58/203/3 47/204/3 37/205/3
f 37/205/3 57/206/3 58/203/3
f 62/207/3 45/208/3 39/209/3
f 39/209/3 61/210/3 62/207/3
f 35/181/3 54/211/3 29/179/3
f 66/212/6 63/213/6 40/214/6
f 40/214/6 43/215/6 66/212/6
f 64/184/6 61/216/6 39/182/6
f 62/217/6 59/218/6 38/219/6
f 38/219/6 45/220/6 62/217/6
f 60/221/6 57/222/6 37/223/6
f 37/223/6 46/224/6 60/221/6
f 35/191/6 48/225/6 56/189/6
f 41/198/6 49/200/6 53/196/6
f 41/198/6 51/226/6 50/199/6
f 41/198/6 42/227/6 51/226/6
f 50/199/6 51/226/6 52/228/6
usemtl road.010
f 50/229/3 52/230/3 33/231/3
f 13/45/3 14/18/3 15/16/3
f 33/231/3 32/232/3 50/229/3
f 15/16/3 11/14/3 13/45/3
