# Blender v3.1.2 OBJ File: ''
# www.blender.org
mtllib lightColored.mtl
o lightColored
v 0.010000 0.625655 -0.010000
v 0.010000 0.645655 -0.010000
v 0.010000 0.645655 0.010000
v 0.010000 0.447239 -0.010000
v 0.010000 0.190000 -0.010000
v 0.010000 0.190000 0.010000
v -0.010000 0.190000 0.010000
v -0.010000 0.645655 0.010000
v -0.010000 0.190000 -0.010000
v -0.010000 0.447239 -0.010000
v -0.010000 0.625655 -0.010000
v -0.010000 0.645655 -0.010000
v -0.017600 0.110000 0.017600
v 0.017600 0.110000 0.017600
v 0.017600 0.110000 -0.017600
v -0.017600 0.110000 -0.017600
v 0.017600 0.000000 -0.017600
v 0.017600 -0.000000 0.017600
v -0.017600 -0.000000 0.017600
v -0.017600 0.000000 -0.017600
v 0.035400 0.642647 -0.050000
v 0.035400 0.642647 -0.071844
v -0.035400 0.642647 -0.071844
v -0.035400 0.642647 -0.050000
v 0.029736 0.625655 -0.010000
v -0.029736 0.625655 -0.010000
v 0.035400 0.430247 -0.071844
v 0.035400 0.430247 -0.050000
v -0.035400 0.430247 -0.050000
v -0.035400 0.430247 -0.071844
v 0.022686 0.478745 -0.071844
v 0.022686 0.478745 -0.091067
v 0.000000 0.491843 -0.091067
v 0.000000 0.491843 -0.071844
v 0.000000 0.562643 -0.071844
v 0.000000 0.562643 -0.091067
v -0.022686 0.549545 -0.091067
v -0.022686 0.549545 -0.071844
v -0.029736 0.447239 -0.010000
v 0.022686 0.465647 -0.091067
v 0.022686 0.465647 -0.071844
v 0.022686 0.536447 -0.091067
v 0.022686 0.549545 -0.091067
v 0.022686 0.549545 -0.071844
v 0.022686 0.536447 -0.071844
v -0.022686 0.478745 -0.091067
v -0.022686 0.465647 -0.091067
v -0.022686 0.465647 -0.071844
v -0.022686 0.478745 -0.071844
v 0.000000 0.439451 -0.071844
v -0.022686 0.452549 -0.071844
v -0.022686 0.523349 -0.071844
v 0.000000 0.510251 -0.071844
v -0.022686 0.536447 -0.071844
v -0.022686 0.594149 -0.071844
v 0.000000 0.581051 -0.071844
v -0.022686 0.607247 -0.071844
v -0.022686 0.620345 -0.071844
v 0.000000 0.633443 -0.071844
v 0.022686 0.523349 -0.071844
v 0.022686 0.452549 -0.071844
v 0.022686 0.594149 -0.071844
v 0.022686 0.607247 -0.071844
v 0.022686 0.620345 -0.071844
v -0.022686 0.620345 -0.091066
v -0.022686 0.607247 -0.091067
v 0.000000 0.633443 -0.091066
v -0.022686 0.536447 -0.091067
v 0.022686 0.620345 -0.091066
v 0.022686 0.607247 -0.091067
v 0.029736 0.447239 -0.010000
vt 0.393701 24.632099
vt 0.393701 25.419500
vt -0.393701 25.419500
vt 0.393701 17.607840
vt -0.393701 17.607840
vt -0.393701 7.480315
vt 0.393701 24.632099
vt -0.393701 24.632099
vt 0.393701 25.419500
vt -0.393701 25.419500
vt -0.692913 4.245766
vt 0.692913 4.245766
vt 0.393701 7.409553
vt 0.692913 4.245766
vt 0.393701 7.409553
vt -0.393701 7.409553
vt -0.692913 0.000000
vt 0.692913 0.000000
vt 0.692913 4.330709
vt -0.393701 7.480315
vt 0.393701 7.480315
vt -0.393701 7.480315
vt 0.393701 7.480315
vt 0.393701 25.419500
vt -0.692913 4.245766
vt 0.692913 4.245766
vt 0.393701 7.409553
vt -0.393701 7.409553
vt -0.692913 4.245766
vt 0.692913 4.245766
vt 0.393701 7.409553
vt -0.692913 4.330709
vt -0.692913 0.000000
vt 0.692913 0.000000
vt -0.692913 4.330709
vt -0.692913 0.000000
vt 0.692913 0.000000
vt 0.692913 4.330709
vt -0.692913 4.330709
vt -0.692913 0.000000
vt 0.393701 17.607840
vt -0.393701 25.419500
vt -0.393701 17.607840
vt 0.393701 7.480315
vt -0.393701 7.480315
vt -0.393701 24.632099
vt -0.393701 25.419500
vt 0.393701 25.419500
vt -0.393701 7.409553
vt 0.692913 4.330709
vt -0.692913 4.330709
vt 0.692913 4.330709
vt 0.393701 7.480315
vt -0.393701 0.393701
vt 0.393701 -0.393701
vt -0.393701 -0.393701
vt 0.393701 0.393701
vt -0.393701 7.409553
vt -0.692913 4.245766
vt 0.692913 0.000000
vt -1.393701 -1.968504
vt -1.393701 -2.828521
vt 1.393701 -2.828521
vt 1.393701 -1.968504
vt -1.393701 11.704140
vt -0.393701 9.993134
vt 0.393701 9.993134
vt 1.170709 9.993134
vt 1.393701 11.704140
vt -1.170709 9.993134
vt 3.585300 9.681953
vt 2.828521 8.650615
vt 2.828521 9.681953
vt 1.393701 25.301069
vt -1.393701 25.301069
vt -1.393701 16.938869
vt 1.393701 16.938869
vt -2.828521 11.075650
vt -3.585300 10.044320
vt -3.585300 11.075650
vt 2.828521 16.938869
vt 2.828521 25.301069
vt 1.968504 25.301069
vt -2.144460 25.301069
vt -0.553947 17.607840
vt -2.144460 16.938869
vt -0.553947 24.632099
vt 3.585300 18.332569
vt 3.585300 18.848240
vt 2.828521 18.848240
vt -2.828521 18.332569
vt -3.585300 18.848240
vt -2.828521 18.848240
vt 1.393701 16.938869
vt 1.393701 25.301069
vt 0.893165 17.816900
vt 0.893165 18.848240
vt 0.893165 18.332569
vt 0.893165 21.635639
vt 0.893165 21.119970
vt 0.893165 23.907370
vt 0.893165 23.391701
vt 0.000000 24.938709
vt 0.893165 24.423040
vt -0.893165 18.848240
vt 0.000000 19.363911
vt -0.893165 20.604300
vt -0.893165 18.332569
vt -1.393701 25.301069
vt -0.893165 17.816900
vt -1.393701 16.938869
vt 0.000000 17.301229
vt -0.893165 23.391701
vt -0.893165 23.907370
vt 0.893165 20.604300
vt 0.000000 22.151310
vt -0.893165 21.119970
vt -0.893165 21.635639
vt 0.000000 22.876030
vt -0.893165 24.423040
vt 2.828521 10.044320
vt 3.585300 11.075650
vt 3.585300 10.044320
vt -3.585300 11.438020
vt -2.828521 11.438020
vt -2.828521 12.469350
vt -3.585300 21.635639
vt -3.585300 21.119970
vt -2.828521 21.119970
vt 3.585300 12.469350
vt 2.828521 12.469350
vt 2.828521 11.438020
vt -1.170709 17.607840
vt -1.393701 4.811033
vt 1.393701 4.811033
vt 1.170709 6.522037
vt 0.393701 6.522037
vt -0.393701 6.522037
vt 0.553947 24.632099
vt 2.144460 16.938869
vt 0.553947 17.607840
vt -2.828521 9.681953
vt -3.585300 9.681953
vt -3.585300 8.650615
vt -2.828521 8.650615
vt -1.393701 -1.968504
vt -1.393701 -2.828521
vt 1.393701 -2.828521
vt 1.393701 -1.968504
vt 3.585300 8.650615
vt -2.828521 25.301069
vt -2.828521 16.938869
vt -1.968504 16.938869
vt -1.968504 25.301069
vt -2.828521 10.044320
vt 1.968504 16.938869
vt 2.828521 18.332569
vt 2.828521 21.635639
vt 2.828521 21.119970
vt 3.585300 21.119970
vt 3.585300 21.635639
vt -3.585300 18.332569
vt 0.000000 20.088631
vt 2.828521 11.075650
vt -2.828521 23.907370
vt -2.828521 24.423040
vt -3.585300 24.423040
vt -3.585300 23.907370
vt -3.585300 12.469350
vt -2.828521 21.635639
vt 3.585300 11.438020
vt -1.170709 24.632099
vt 2.828521 24.423040
vt 2.828521 23.907370
vt 3.585300 23.907370
vt 3.585300 24.423040
vt -1.170709 6.522037
vt 2.144460 25.301069
vt 1.170709 24.632099
vt 1.170709 17.607840
vn 1.0000 0.0000 0.0000
vn 0.0000 0.0000 -1.0000
vn 0.0000 0.0946 -0.9955
vn -0.9955 0.0946 0.0000
vn 0.0000 -0.0000 1.0000
vn 0.0000 0.0946 0.9955
vn 0.9955 0.0946 0.0000
vn -1.0000 -0.0000 0.0000
vn 0.0000 -0.0946 0.9955
vn 0.0000 -1.0000 0.0000
vn -0.9955 -0.0946 0.0000
vn 0.9955 -0.0946 0.0000
vn 0.0000 1.0000 0.0000
vn 0.0000 0.9204 0.3910
vn 0.0000 -0.9204 -0.3910
vn -0.5000 -0.8660 0.0000
vn 0.5000 -0.8660 0.0000
vn 0.9901 0.0000 -0.1402
vn -0.5000 0.8660 0.0000
vn 0.5000 0.8660 0.0000
vn 0.0000 -0.9204 0.3910
vn -0.9901 0.0000 -0.1402
vn 0.0000 0.9204 -0.3910
usemtl _defaultMat.013
s 1
f 1/1/1 2/2/1 3/3/1
f 10/4/2 4/5/2 5/6/2
f 4/5/2 10/4/2 11/7/2
f 11/7/2 1/8/2 4/5/2
f 12/9/2 2/10/2 1/8/2
f 15/11/3 16/12/3 9/13/3
f 13/14/4 7/15/4 9/16/4
f 19/17/5 18/18/5 14/19/5
f 3/3/1 6/20/1 5/21/1
f 7/22/5 6/23/5 3/24/5
f 13/25/6 14/26/6 6/27/6
f 6/27/6 7/28/6 13/25/6
f 14/29/7 15/30/7 5/31/7
f 14/32/1 18/33/1 17/34/1
f 16/35/8 20/36/8 19/37/8
f 16/38/2 15/39/2 17/40/2
usemtl grey.021
f 3/3/8 1/1/8 4/41/8
f 3/3/8 4/41/8 5/21/8
f 3/24/2 7/22/2 8/42/2
f 1/8/5 12/9/5 11/7/5
f 10/43/1 7/44/1 9/45/1
f 7/44/1 10/43/1 11/46/1
f 7/44/1 11/46/1 12/47/1
f 7/44/1 12/47/1 8/48/1
f 9/13/9 15/11/9 5/49/9
f 17/34/8 14/32/8 15/50/8
f 14/19/2 19/17/2 13/51/2
f 19/37/1 16/35/1 13/52/1
f 5/6/5 10/4/5 9/53/5
f 3/54/10 12/55/10 2/56/10
f 12/55/10 3/54/10 8/57/10
f 5/31/11 14/29/11 6/58/11
f 9/16/12 13/14/12 16/59/12
f 17/40/5 16/38/5 20/60/5
usemtl road.015
f 21/61/13 22/62/13 23/63/13
f 23/63/10 21/61/10 24/64/10
f 24/65/14 11/66/14 1/67/14
f 25/68/15 24/65/15 21/69/15
f 24/65/15 11/66/15 26/70/15
f 33/71/16 31/72/16 34/73/16
f 21/74/5 24/75/5 29/76/5
f 29/76/2 21/74/2 28/77/2
f 35/78/17 37/79/17 36/80/17
f 27/81/1 22/82/1 21/83/1
f 24/84/18 39/85/18 29/86/18
f 39/85/18 24/84/18 26/87/18
f 40/88/1 32/89/1 31/90/1
f 48/91/1 46/92/1 49/93/1
f 30/94/2 23/95/2 51/96/2
f 23/95/2 49/97/2 48/98/2
f 23/95/2 38/99/2 54/100/2
f 23/95/2 57/101/2 55/102/2
f 23/95/2 59/103/2 58/104/2
f 31/105/2 34/106/2 60/107/2
f 41/108/2 31/105/2 22/109/2
f 61/110/2 41/108/2 22/109/2
f 27/111/2 50/112/2 61/110/2
f 62/113/2 63/114/2 22/109/2
f 59/103/2 23/95/2 22/109/2
f 23/95/5 51/96/5 48/98/5
f 52/115/5 49/97/5 34/106/5
f 23/95/5 52/115/5 54/100/5
f 23/95/5 38/99/5 55/102/5
f 55/102/5 38/99/5 35/116/5
f 61/110/5 27/111/5 22/109/5
f 54/100/5 45/117/5 38/99/5
f 45/117/5 22/109/5 44/118/5
f 44/118/5 22/109/5 62/113/5
f 44/118/5 62/113/5 35/116/5
f 62/113/5 55/102/5 56/119/5
f 64/120/5 22/109/5 59/103/5
f 57/101/5 63/114/5 64/120/5
f 55/102/5 63/114/5 57/101/5
f 51/96/5 61/110/5 48/98/5
f 48/98/5 61/110/5 41/108/5
f 44/121/16 36/122/16 43/123/16
f 65/124/19 58/125/19 59/126/19
f 37/127/8 68/128/8 54/129/8
f 67/130/20 59/131/20 64/132/20
f 39/133/2 11/46/2 10/43/2
f 29/134/21 28/135/21 71/136/21
f 71/136/21 4/137/21 29/134/21
f 4/137/21 10/138/21 29/134/21
f 25/139/22 28/140/22 71/141/22
f 34/142/19 33/143/19 46/144/19
f 46/144/17 34/142/17 49/145/17
f 24/65/15 25/68/15 1/67/15
f 29/146/10 30/147/10 27/148/10
f 27/148/13 29/146/13 28/149/13
f 31/72/16 33/71/16 32/150/16
f 23/151/8 30/152/8 29/153/8
f 29/153/8 24/154/8 23/151/8
f 37/79/19 38/155/19 35/78/19
f 21/83/1 28/156/1 27/81/1
f 31/90/1 41/157/1 40/88/1
f 44/158/1 45/159/1 42/160/1
f 42/160/8 44/158/8 43/161/8
f 46/92/1 48/91/1 47/162/1
f 30/94/2 51/96/2 50/112/2
f 23/95/2 52/115/2 49/97/2
f 23/95/2 58/104/2 57/101/2
f 34/106/2 53/163/2 60/107/2
f 35/116/2 56/119/2 62/113/2
f 63/114/2 64/120/2 22/109/2
f 50/112/5 30/94/5 27/111/5
f 52/115/5 34/106/5 53/163/5
f 55/102/5 35/116/5 56/119/5
f 31/105/5 22/109/5 60/107/5
f 60/107/5 22/109/5 45/117/5
f 38/99/5 44/118/5 35/116/5
f 58/104/5 64/120/5 59/103/5
f 55/102/5 62/113/5 63/114/5
f 61/110/5 51/96/5 50/112/5
f 48/98/5 41/108/5 49/97/5
f 36/122/16 44/121/16 35/164/16
f 57/165/8 58/166/8 65/167/8
f 65/167/1 57/165/1 66/168/1
f 59/126/17 65/124/17 67/169/17
f 54/129/1 37/127/1 38/170/1
f 64/132/16 67/130/16 69/171/16
f 11/46/2 39/133/2 26/172/2
f 64/173/1 63/174/1 70/175/1
f 70/175/8 64/173/8 69/176/8
f 10/138/23 29/134/23 39/177/23
f 28/140/22 25/139/22 21/178/22
f 25/179/5 1/1/5 4/41/5
f 4/41/2 25/179/2 71/180/2
usemtl pylon
f 60/107/2 53/163/2 52/115/2
f 52/115/2 54/100/2 60/107/2
f 38/99/2 44/118/2 45/117/2
f 54/100/2 45/117/2 60/107/2
usemtl red.009
f 57/101/2 58/104/2 64/120/2
usemtl grass.003
f 49/97/2 34/106/2 31/105/2
f 49/97/2 31/105/2 41/108/2
