# Blender v3.1.2 OBJ File: ''
# www.blender.org
mtllib lightPostModern.mtl
o lightPostModern
v 0.010000 0.755655 -0.040000
v 0.010000 0.775655 -0.040000
v 0.010000 0.775655 -0.010000
v 0.010000 0.755655 -0.010000
v 0.010000 0.190000 -0.010000
v 0.010000 0.190000 0.010000
v 0.010000 0.775484 -0.007389
v 0.010000 0.774974 -0.004823
v 0.010000 0.774133 -0.002346
v 0.010000 0.772976 0.000000
v 0.010000 0.771522 0.002175
v 0.010000 0.769797 0.004142
v 0.010000 0.767830 0.005867
v 0.010000 0.765655 0.007321
v 0.010000 0.763309 0.008478
v 0.010000 0.760832 0.009319
v 0.010000 0.758266 0.009829
v 0.010000 0.755655 0.010000
v -0.017600 0.110000 0.017600
v 0.017600 0.110000 0.017600
v -0.010000 0.190000 0.010000
v 0.017600 0.110000 -0.017600
v -0.017600 0.110000 -0.017600
v -0.010000 0.190000 -0.010000
v 0.017600 0.000000 -0.017600
v 0.017600 -0.000000 0.017600
v -0.017600 -0.000000 0.017600
v -0.017600 0.000000 -0.017600
v -0.010000 0.755655 -0.010000
v -0.010000 0.775655 -0.010000
v -0.010000 0.775484 -0.007389
v -0.010000 0.774974 -0.004823
v -0.010000 0.774133 -0.002346
v -0.010000 0.772976 0.000000
v -0.010000 0.771522 0.002175
v -0.010000 0.769797 0.004142
v -0.010000 0.767830 0.005867
v -0.010000 0.765655 0.007321
v -0.010000 0.763309 0.008478
v -0.010000 0.760832 0.009319
v -0.010000 0.758266 0.009829
v -0.010000 0.755655 0.010000
v -0.010000 0.775655 -0.040000
v -0.010000 0.755655 -0.040000
v -0.015638 0.750017 -0.040000
v 0.015638 0.750017 -0.040000
v 0.015638 0.781294 -0.040000
v -0.015638 0.781294 -0.040000
v 0.015638 0.781294 -0.060000
v -0.015638 0.781294 -0.060000
v 0.015638 0.750017 -0.060000
v -0.015638 0.750017 -0.060000
v 0.024552 0.781294 -0.090000
v 0.024552 0.781294 -0.146829
v 0.012276 0.781294 -0.160000
v -0.012276 0.781294 -0.160000
v -0.024552 0.781294 -0.146829
v -0.024552 0.781294 -0.090000
v 0.024552 0.750017 -0.090000
v 0.024552 0.750017 -0.146829
v 0.012276 0.750017 -0.160000
v -0.012276 0.750017 -0.160000
v -0.024552 0.750017 -0.146829
v -0.024552 0.750017 -0.090000
vt 1.574803 29.750210
vt 1.574803 30.537609
vt 0.393701 30.537609
vt 0.290924 30.530870
vt -0.393701 7.480315
vt -0.000000 30.432119
vt -0.085639 30.374889
vt -0.163076 30.306980
vt -0.230987 30.229549
vt -0.288209 30.143909
vt -0.333763 30.051531
vt -0.366871 29.954000
vt -0.386964 29.852980
vt -0.692913 4.245766
vt 0.692913 4.245766
vt 0.393701 7.409553
vt -0.692913 4.330709
vt -0.692913 0.000000
vt 0.692913 0.000000
vt 0.393701 7.480315
vt 0.085639 30.374889
vt 0.000000 30.432119
vt 0.333763 30.051531
vt 0.288209 30.143909
vt 0.366871 29.954000
vt -0.393701 29.750210
vt -0.393701 30.537609
vt -1.574803 30.537609
vt -0.393701 29.750210
vt -0.393701 30.537609
vt -1.574803 30.537609
vt -0.393701 2.390113
vt -0.393701 2.287116
vt 0.393701 2.287116
vt -0.393701 9.987196
vt -0.393701 9.884199
vt 0.393701 9.884199
vt 0.393701 22.678471
vt -0.393701 22.678471
vt -0.393701 22.575480
vt 0.393701 25.006620
vt -0.393701 25.006620
vt -0.393701 24.903620
vt 0.393701 26.907780
vt -0.393701 26.907780
vt -0.393701 26.804779
vt -0.393701 29.203871
vt 0.393701 29.203871
vt 0.393701 29.306870
vt 0.393701 29.763760
vt -0.393701 29.763760
vt -0.393701 29.660761
vt 0.393701 29.763760
vt -0.393701 29.763760
vt -0.393701 29.660761
vt 0.393701 29.763760
vt -0.393701 29.763760
vt -0.393701 29.660761
vt 0.393701 29.763760
vt -0.393701 29.660761
vt 0.393701 29.763760
vt -0.393701 29.763760
vt -0.393701 29.660761
vt -0.393701 29.763760
vt -0.393701 29.660761
vt -0.393701 29.660761
vt -0.393701 -0.393701
vt -0.393701 -1.574803
vt 0.393701 -1.574803
vt -0.393701 -0.393701
vt -0.393701 -1.574803
vt -0.393701 -0.393701
vt -0.393701 -1.574803
vt 0.393701 -1.574803
vt -0.393701 -0.393701
vt -0.393701 -1.574803
vt -0.393701 -1.574803
vt 0.393701 -1.574803
vt -0.393701 -0.393701
vt -0.393701 -1.574803
vt 0.393701 -1.574803
vt 0.393701 -1.574803
vt -0.393701 -0.393701
vt 0.393701 -1.574803
vt -0.393701 -0.393701
vt 0.393701 -1.574803
vt 0.393701 29.750210
vt 0.189906 30.510780
vt 0.092375 30.477671
vt -0.692913 4.245766
vt 0.692913 4.245766
vt 0.393701 7.409553
vt -0.393701 7.409553
vt -0.393701 30.537609
vt -0.393701 29.750210
vt -0.290924 30.530870
vt -0.189906 30.510780
vt -0.092375 30.477671
vt 0.230987 30.229549
vt 0.386964 29.852980
vt -0.393701 29.750210
vt -0.393701 30.537609
vt -1.574803 30.537609
vt -0.393701 30.537609
vt -1.574803 30.537609
vt 0.393701 -1.574803
vt 0.393701 -0.393701
vt -0.393701 -0.393701
vt 0.393701 2.390113
vt 0.393701 6.138615
vt 0.393701 6.241611
vt -0.393701 6.241611
vt 0.393701 16.804180
vt 0.393701 16.907181
vt -0.393701 16.907181
vt 0.393701 22.575480
vt 0.393701 26.804779
vt -0.393701 28.246420
vt 0.393701 28.246420
vt 0.393701 28.349409
vt 0.393701 29.763760
vt -0.393701 29.763760
vt -0.393701 29.660761
vt -0.393701 29.763760
vt 0.393701 29.763760
vt -0.393701 29.763760
vt 0.393701 29.763760
vt -0.393701 29.763760
vt -0.393701 29.660761
vt -0.393701 29.660761
vt 0.393701 29.763760
vt -0.393701 29.763760
vt 0.393701 -1.574803
vt 0.393701 -0.393701
vt -0.393701 -0.393701
vt -0.393701 -1.574803
vt -0.393701 -0.393701
vt -0.393701 -1.574803
vt 0.393701 -1.574803
vt -0.393701 -0.393701
vt -0.393701 -1.574803
vt 0.393701 -1.574803
vt -0.393701 -1.574803
vt 0.393701 -1.574803
vt -0.393701 -1.574803
vt -0.393701 -0.393701
vt -0.393701 -1.574803
vt -0.393701 -0.393701
vt -0.393701 -1.574803
vt 0.393701 -1.574803
vt -0.393701 -0.393701
vt -0.393701 -1.574803
vt 0.393701 -1.574803
vt -0.393701 -1.574803
vt 0.393701 -1.574803
vt 0.393701 -1.574803
vt 0.393701 -1.574803
vt -0.393701 -0.393701
vt -0.393701 -0.393701
vt -0.393701 -1.574803
vt 0.393701 -1.574803
vt -0.393701 -0.393701
vt -0.393701 -1.574803
vt 0.393701 7.480315
vt 0.393701 7.409553
vt -0.692913 4.245766
vt -0.393701 7.409553
vt -0.393701 7.409553
vt 0.692913 4.245766
vt -0.692913 4.245766
vt 0.393701 7.409553
vt -0.692913 0.000000
vt 0.692913 4.330709
vt 0.692913 0.000000
vt -0.692913 4.330709
vt -0.692913 0.000000
vt 0.692913 4.330709
vt 0.692913 0.000000
vt -0.692913 4.330709
vt -0.393701 7.480315
vt 0.163076 30.306980
vt 0.393701 29.750210
vt -1.574803 30.537609
vt -1.574803 29.750210
vt -0.393701 6.138615
vt 0.393701 9.987196
vt 0.393701 13.459780
vt -0.393701 13.562780
vt 0.393701 13.562780
vt -0.393701 16.804180
vt 0.393701 19.860170
vt -0.393701 19.963169
vt 0.393701 19.963169
vt -0.393701 19.860170
vt -0.393701 28.349409
vt -0.393701 29.306870
vt 0.393701 29.660761
vt 0.692913 4.245766
vt -0.393701 7.409553
vt 0.692913 4.330709
vt -0.692913 4.330709
vt 0.692913 0.000000
vt -0.692913 0.000000
vt 0.692913 4.330709
vt -0.393701 -1.574803
vt -0.393701 13.459780
vt 0.393701 24.903620
vn 1.0000 0.0000 0.0000
vn 0.9955 0.0946 0.0000
vn -1.0000 0.0000 0.0000
vn 0.0000 -0.0000 1.0000
vn 0.0000 0.9979 0.0654
vn -0.0000 0.9914 0.1305
vn 0.0000 0.9659 0.2588
vn 0.0000 0.9239 0.3827
vn 0.0000 0.7071 0.7071
vn 0.0000 0.6088 0.7934
vn 0.0000 0.6088 0.7933
vn 0.0000 0.5000 0.8660
vn 0.0000 0.3827 0.9239
vn -0.0000 0.1305 0.9914
vn -0.0000 0.2588 0.9659
vn 0.0000 0.0654 0.9979
vn 0.0000 -1.0000 0.0000
vn 0.0000 1.0000 -0.0000
vn -0.9586 -0.0000 0.2848
vn -0.7315 0.0000 -0.6818
vn 0.0000 0.0946 -0.9955
vn 0.0000 0.0000 -1.0000
vn -0.0000 0.7934 0.6087
vn -0.0000 0.8660 0.5000
vn 0.9586 -0.0000 0.2848
vn 0.7315 0.0000 -0.6818
vn 0.0000 -0.0946 -0.9955
vn 0.9955 -0.0946 0.0000
vn 0.0000 -0.9914 -0.1305
vn 0.0000 -0.9659 -0.2588
vn 0.0000 -0.9239 -0.3827
vn 0.0000 -0.8660 -0.5000
vn 0.0000 -0.7933 -0.6088
vn 0.0000 -0.7934 -0.6088
vn 0.0000 -0.7071 -0.7071
vn -0.0000 -0.3827 -0.9239
vn 0.0000 -0.2588 -0.9659
vn 0.0000 -0.1305 -0.9914
vn 0.0000 -0.0654 -0.9979
vn 0.0000 -0.0946 0.9955
vn 0.0000 -0.5000 -0.8660
vn 0.0000 -0.6088 -0.7934
usemtl _defaultMat.015
s 1
f 1/1/1 2/2/1 3/3/1
f 3/3/1 7/4/1 6/5/1
f 10/6/1 11/7/1 6/5/1
f 11/7/1 12/8/1 6/5/1
f 12/8/1 13/9/1 6/5/1
f 14/10/1 15/11/1 6/5/1
f 16/12/1 17/13/1 6/5/1
f 20/14/2 22/15/2 5/16/2
f 20/17/1 26/18/1 25/19/1
f 21/20/3 35/21/3 34/22/3
f 21/20/3 39/23/3 38/24/3
f 21/20/3 40/25/3 39/23/3
f 21/26/4 6/27/4 18/28/4
f 18/29/4 42/30/4 21/31/4
f 30/32/5 31/33/6 7/34/6
f 32/35/7 33/36/8 9/37/8
f 12/38/9 36/39/9 37/40/10
f 13/41/11 37/42/11 38/43/12
f 14/44/12 38/45/12 39/46/13
f 41/47/14 17/48/14 16/49/15
f 17/50/14 41/51/14 42/52/16
f 46/53/4 47/54/4 1/55/4
f 47/56/4 43/57/4 2/58/4
f 43/59/4 47/54/4 48/60/4
f 51/61/1 49/62/1 47/63/1
f 47/56/1 46/64/1 51/65/1
f 51/61/17 46/64/17 45/66/17
f 56/67/18 57/68/18 50/69/18
f 57/70/18 58/71/18 50/69/18
f 51/72/17 52/73/17 61/74/17
f 52/75/17 62/76/17 61/74/17
f 52/75/17 63/77/17 62/78/17
f 58/79/19 64/80/19 52/81/19
f 57/70/3 63/77/3 64/82/3
f 64/83/3 58/71/3 57/84/3
f 63/85/20 57/68/20 56/86/20
f 3/3/1 4/87/1 1/1/1
f 7/4/1 8/88/1 6/5/1
f 8/88/1 9/89/1 6/5/1
f 13/9/1 14/10/1 6/5/1
f 17/13/1 18/29/1 6/5/1
f 22/90/21 23/91/21 24/92/21
f 5/16/2 6/93/2 20/14/2
f 21/20/3 30/94/3 29/95/3
f 21/20/3 31/96/3 30/94/3
f 21/20/3 32/97/3 31/96/3
f 21/20/3 33/98/3 32/97/3
f 21/20/3 38/24/3 37/99/3
f 21/20/3 41/100/3 40/25/3
f 5/101/22 24/102/22 29/103/22
f 29/95/22 4/104/22 5/105/22
f 43/106/18 30/107/18 3/108/18
f 7/34/6 3/109/5 30/32/5
f 8/110/7 7/111/6 31/112/6
f 11/113/23 10/114/24 34/115/24
f 37/40/10 13/116/10 12/38/9
f 39/46/13 15/117/13 14/44/12
f 40/118/15 16/119/15 15/120/13
f 1/121/4 45/122/4 46/123/4
f 47/56/4 2/124/4 1/55/4
f 44/125/4 48/126/4 45/66/4
f 45/127/4 1/128/4 44/129/4
f 44/125/4 43/57/4 48/60/4
f 47/56/18 49/62/18 50/130/18
f 50/131/18 48/126/18 47/63/18
f 45/127/17 52/132/17 51/65/17
f 50/131/3 52/132/3 45/66/3
f 45/127/3 48/126/3 50/130/3
f 1/133/17 4/134/17 29/135/17
f 29/135/17 44/136/17 1/133/17
f 53/137/18 54/138/18 55/139/18
f 55/140/18 49/141/18 53/142/18
f 55/140/18 50/143/18 49/144/18
f 55/140/18 56/145/18 50/69/18
f 59/146/25 53/147/25 49/144/25
f 49/148/25 51/149/25 59/150/25
f 60/151/17 59/152/17 51/153/17
f 51/72/17 61/154/17 60/155/17
f 52/75/17 64/80/17 63/156/17
f 52/75/19 50/143/19 58/157/19
f 55/140/22 61/154/22 62/78/22
f 62/158/22 56/145/22 55/139/22
f 60/151/1 54/138/1 53/142/1
f 53/137/1 59/152/1 60/155/1
f 61/159/26 55/160/26 54/161/26
f 54/162/26 60/163/26 61/74/26
f 56/67/20 62/76/20 63/156/20
usemtl grey.023
f 3/3/3 4/87/3 5/164/3
f 3/3/3 5/164/3 6/5/3
f 15/11/3 6/5/3 16/12/3
f 6/165/27 19/166/27 21/167/27
f 24/168/28 19/169/28 23/170/28
f 19/169/28 24/168/28 21/171/28
f 27/172/22 20/173/22 26/174/22
f 20/173/22 27/172/22 19/175/22
f 25/176/4 23/177/4 28/178/4
f 23/177/4 25/176/4 22/179/4
f 29/95/1 21/20/1 24/180/1
f 21/20/1 35/21/1 36/181/1
f 21/20/1 36/181/1 37/99/1
f 21/20/1 41/100/1 42/182/1
f 43/183/1 29/95/1 44/184/1
f 31/112/29 8/110/30 32/185/30
f 9/37/31 32/35/30 8/186/30
f 10/187/32 33/188/31 9/189/31
f 34/115/32 11/113/33 35/190/34
f 12/191/35 35/192/34 11/193/33
f 35/192/34 12/191/35 36/194/35
f 15/120/36 40/118/37 39/195/36
f 16/49/37 41/47/38 40/196/37
f 42/52/39 17/50/38 18/197/39
f 9/89/3 6/5/3 10/6/3
f 19/166/27 6/165/27 20/198/27
f 24/92/40 22/90/40 5/199/40
f 25/19/3 20/17/3 22/200/3
f 23/201/1 27/202/1 28/203/1
f 27/202/1 23/201/1 19/204/1
f 21/20/1 33/98/1 34/22/1
f 29/95/1 43/183/1 30/94/1
f 3/108/17 43/106/17 2/205/17
f 33/188/31 10/187/32 34/206/32
f 38/43/41 13/41/42 14/207/41
