# Blender v3.1.2 OBJ File: ''
# www.blender.org
mtllib lightRedDouble.mtl
o lightRedDouble
v 0.010000 0.417239 -0.010000
v 0.010000 0.645655 -0.010000
v 0.010000 0.645655 0.010000
v 0.010000 0.190000 -0.010000
v 0.010000 0.190000 0.010000
v -0.010000 0.190000 0.010000
v -0.010000 0.645655 0.010000
v 0.005664 0.417239 -0.010000
v -0.005664 0.417239 -0.010000
v -0.005664 0.645655 -0.010000
v 0.005664 0.645655 -0.010000
v -0.010000 0.417239 -0.010000
v -0.010000 0.190000 -0.010000
v -0.010000 0.645655 -0.010000
v -0.017600 0.110000 0.017600
v 0.017600 0.110000 0.017600
v 0.017600 0.110000 -0.017600
v -0.017600 0.110000 -0.017600
v 0.017600 0.000000 -0.017600
v 0.017600 -0.000000 0.017600
v -0.017600 -0.000000 0.017600
v -0.017600 0.000000 -0.017600
v 0.000000 0.683447 -0.050000
v 0.000000 0.683447 -0.071844
v -0.070800 0.683447 -0.071844
v -0.070800 0.683447 -0.050000
v 0.070800 0.683447 -0.050000
v 0.070800 0.683447 -0.071844
v -0.012714 0.506447 -0.091067
v -0.012714 0.519545 -0.091067
v -0.012714 0.519545 -0.071844
v -0.012714 0.506447 -0.071844
v -0.012714 0.448745 -0.071844
v -0.012714 0.448745 -0.091067
v -0.035400 0.461843 -0.091067
v -0.035400 0.461843 -0.071844
v -0.058086 0.448745 -0.091067
v -0.058086 0.435647 -0.091067
v -0.058086 0.435647 -0.071844
v -0.058086 0.448745 -0.071844
v -0.012714 0.634949 -0.071844
v -0.058086 0.634949 -0.071844
v -0.035400 0.621851 -0.071844
v -0.012714 0.648047 -0.071844
v -0.058086 0.648047 -0.071844
v -0.012714 0.661145 -0.071844
v -0.058086 0.661145 -0.071844
v -0.035400 0.674243 -0.071844
v -0.035400 0.603443 -0.071844
v -0.058086 0.590345 -0.071844
v -0.058086 0.577247 -0.071844
v -0.058086 0.564149 -0.071844
v -0.058086 0.519545 -0.071844
v -0.058086 0.506447 -0.071844
v -0.058086 0.493349 -0.071844
v -0.058086 0.422549 -0.071844
v -0.070800 0.400247 -0.071844
v -0.035400 0.409451 -0.071844
v 0.000000 0.400247 -0.071844
v -0.035400 0.480251 -0.071844
v -0.035400 0.532643 -0.071844
v -0.035400 0.551051 -0.071844
v -0.012714 0.422549 -0.071844
v -0.012714 0.435647 -0.071844
v -0.012714 0.493349 -0.071844
v -0.012714 0.564149 -0.071844
v -0.012714 0.577247 -0.071844
v -0.012714 0.590345 -0.071844
v -0.035400 0.532643 -0.091067
v 0.012714 0.422549 -0.071844
v 0.035400 0.409451 -0.071844
v 0.070800 0.400247 -0.071844
v 0.058086 0.422549 -0.071844
v 0.058086 0.435647 -0.071844
v 0.058086 0.448745 -0.071844
v 0.058086 0.493349 -0.071844
v 0.035400 0.461843 -0.071844
v 0.035400 0.480251 -0.071844
v 0.012714 0.493349 -0.071844
v 0.012714 0.448745 -0.071844
v 0.012714 0.435647 -0.071844
v 0.012714 0.506447 -0.071844
v 0.012714 0.519545 -0.071844
v 0.012714 0.564149 -0.071844
v 0.035400 0.532643 -0.071844
v 0.035400 0.551051 -0.071844
v 0.012714 0.577247 -0.071844
v 0.012714 0.590345 -0.071844
v 0.012714 0.634949 -0.071844
v 0.035400 0.603443 -0.071844
v 0.035400 0.621851 -0.071844
v 0.012714 0.648047 -0.071844
v 0.012714 0.661145 -0.071844
v 0.035400 0.674243 -0.071844
v 0.058086 0.564149 -0.071844
v 0.058086 0.519545 -0.071844
v 0.058086 0.506447 -0.071844
v 0.058086 0.577247 -0.071844
v 0.058086 0.590345 -0.071844
v 0.058086 0.634949 -0.071844
v 0.058086 0.648047 -0.071844
v 0.058086 0.661145 -0.071844
v -0.058086 0.661145 -0.091066
v -0.058086 0.648047 -0.091066
v -0.058086 0.519545 -0.091067
v -0.012714 0.648047 -0.091066
v -0.012714 0.661145 -0.091066
v -0.012714 0.435647 -0.091067
v -0.035400 0.674243 -0.091066
v -0.070800 0.400247 -0.050000
v 0.000000 0.400247 -0.050000
v -0.065136 0.417239 -0.010000
v 0.070800 0.400247 -0.050000
v 0.065136 0.417239 -0.010000
v -0.058086 0.506447 -0.091067
v -0.005664 0.666455 -0.010000
v -0.065136 0.666455 -0.010000
v 0.065136 0.666455 -0.010000
v 0.005664 0.666455 -0.010000
v -0.012714 0.577247 -0.091067
v -0.012714 0.590345 -0.091067
v -0.035400 0.603443 -0.091067
v -0.058086 0.590345 -0.091067
v -0.058086 0.577247 -0.091067
v 0.058086 0.435647 -0.091067
v 0.058086 0.448745 -0.091067
v 0.012714 0.448745 -0.091067
v 0.012714 0.435647 -0.091067
v 0.012714 0.590345 -0.091067
v 0.012714 0.577247 -0.091067
v 0.035400 0.461843 -0.091067
v 0.058086 0.590345 -0.091067
v 0.035400 0.603443 -0.091067
v 0.012714 0.519545 -0.091067
v 0.012714 0.506447 -0.091067
v 0.058086 0.648047 -0.091066
v 0.058086 0.661145 -0.091066
v 0.058086 0.519545 -0.091067
v 0.035400 0.532643 -0.091067
v 0.058086 0.577247 -0.091067
v 0.035400 0.674243 -0.091066
v 0.058086 0.506447 -0.091067
v 0.012714 0.661145 -0.091066
v 0.012714 0.648047 -0.091066
vt 0.393701 16.426741
vt 0.393701 25.419500
vt -0.393701 25.419500
vt -0.393701 7.480315
vt 0.393701 7.480315
vt 0.222992 16.426741
vt -0.222992 16.426741
vt -0.393701 16.426741
vt -0.393701 16.426741
vt -0.393701 7.480315
vt 0.393701 7.480315
vt -0.222992 -0.393701
vt 0.393701 0.393701
vt -0.393701 0.393701
vt 0.393701 7.409553
vt -0.393701 7.409553
vt -0.692913 4.245766
vt -0.692913 4.245766
vt 0.692913 4.245766
vt 0.393701 7.409553
vt 0.692913 0.000000
vt 0.692913 4.330709
vt -0.692913 4.330709
vt -0.393701 7.480315
vt 0.393701 7.480315
vt 0.393701 25.419500
vt -0.393701 25.419500
vt -0.393701 7.480315
vt 0.393701 7.480315
vt 0.393701 16.426741
vt 0.222992 -0.393701
vt 0.393701 7.409553
vt -0.393701 7.409553
vt -0.692913 4.245766
vt 0.692913 4.245766
vt 0.692913 4.245766
vt 0.393701 7.409553
vt -0.393701 7.409553
vt -0.692913 0.000000
vt 0.692913 0.000000
vt 0.692913 4.330709
vt 0.222992 25.419500
vt -0.222992 25.419500
vt -0.393701 25.419500
vt 0.393701 25.419500
vt -0.393701 -0.393701
vt -0.393701 7.409553
vt -0.692913 4.245766
vt -0.692913 0.000000
vt 0.692913 4.330709
vt -0.692913 0.000000
vt -0.692913 4.330709
vt -0.692913 4.330709
vt -0.393701 25.419500
vt 0.393701 -0.393701
vt 0.692913 4.245766
vt 0.692913 0.000000
vt -0.692913 4.330709
vt 0.692913 0.000000
vt -0.692913 0.000000
vt 0.692913 4.330709
vt -2.787402 -1.968504
vt 0.000000 -2.828521
vt -2.787402 -2.828521
vt 2.828521 9.267044
vt 3.585300 9.267044
vt 3.585300 10.298380
vt 0.500535 24.997999
vt 2.286866 24.997999
vt 1.393701 24.482330
vt 1.393701 23.757610
vt 2.787402 26.907370
vt 2.286866 26.029341
vt 1.393701 26.545010
vt 2.286866 20.454540
vt 2.286866 22.210600
vt 2.286866 16.635799
vt 2.286866 17.151461
vt 1.393701 16.120131
vt 2.787402 15.757760
vt 0.000000 15.757760
vt 2.286866 19.423201
vt 1.393701 18.182800
vt 1.393701 18.907530
vt 1.393701 20.970209
vt 1.393701 21.694929
vt 0.500535 16.635799
vt 0.000000 26.907370
vt 0.500535 17.151461
vt 0.500535 17.667139
vt 0.500535 20.454540
vt 0.500535 22.210600
vt 2.286866 22.726271
vt 0.500535 22.726271
vt 2.286866 23.241940
vt 2.286866 17.667139
vt 2.286866 19.938869
vt 2.286866 25.513670
vt 0.500535 19.423201
vt 0.500535 23.241940
vt 0.500535 25.513670
vt 0.500535 26.029341
vt -0.500535 16.635799
vt -2.286866 16.635799
vt -2.787402 26.907370
vt -2.787402 15.757760
vt -0.500535 19.423201
vt -0.500535 17.667139
vt -0.500535 22.726271
vt -0.500535 22.210600
vt -1.393701 26.545010
vt -0.500535 26.029341
vt -2.286866 23.241940
vt -2.286866 24.997999
vt -2.286866 25.513670
vt -2.286866 26.029341
vt -2.828521 9.278123
vt -3.585300 8.246784
vt -3.585300 9.278123
vt 3.585300 25.513670
vt 3.585300 26.029341
vt 2.828521 26.029341
vt 2.828521 17.667139
vt 2.828521 17.151461
vt 3.585300 17.151461
vt 2.828521 13.448150
vt 3.585300 13.448150
vt 3.585300 14.479480
vt -2.828521 26.907370
vt -1.968504 15.757760
vt -2.828521 15.757760
vt 2.564409 6.060244
vt 0.000000 4.349240
vt 0.393701 6.060244
vt 0.222992 6.060244
vt -2.828521 12.065520
vt -3.585300 11.034190
vt -3.585300 12.065520
vt 0.358548 26.238390
vt 1.949061 15.757760
vt 0.358548 16.426741
vt -0.222992 10.621170
vt 0.000000 12.332180
vt -2.787402 12.332180
vt 2.564409 10.621170
vt 2.787402 12.332180
vt 0.222992 10.621170
vt -0.749346 16.426741
vt -2.339859 26.907370
vt -0.749346 26.238390
vt 2.828521 23.241940
vt 2.828521 22.726271
vt 3.585300 22.726271
vt 0.000000 15.757760
vt 2.787402 15.757760
vt 2.787402 26.907370
vt 0.000000 26.907370
vt 3.585300 13.085780
vt 2.828521 13.085780
vt 2.828521 12.054450
vt -3.585300 23.241940
vt -2.828521 22.726271
vt -3.585300 22.726271
vt -2.828521 10.671820
vt -3.585300 9.640485
vt -3.585300 10.671820
vt -0.222992 25.419500
vt -0.222992 26.238390
vt -2.564409 26.238390
vt -2.564409 16.426741
vt 2.787402 -2.828521
vt 2.787402 -1.968504
vt 0.000000 -1.968504
vt 0.000000 -2.828521
vt -2.787402 -1.968504
vt 1.968504 26.907370
vt 1.968504 15.757760
vt 2.828521 15.757760
vt 2.828521 26.907370
vt -0.500535 24.997999
vt -0.500535 25.513670
vt -1.393701 23.757610
vt -1.393701 24.482330
vt -0.500535 23.241940
vt -1.393701 20.970209
vt -1.393701 21.694929
vt -0.500535 20.454540
vt -0.500535 19.938869
vt -1.393701 16.120131
vt -0.500535 17.151461
vt -2.286866 17.151461
vt -2.286866 17.667139
vt -1.393701 18.182800
vt -2.286866 19.423201
vt -1.393701 18.907530
vt -2.286866 19.938869
vt -2.286866 20.454540
vt -2.286866 22.210600
vt -2.286866 22.726271
vt 2.828521 17.667139
vt 3.585300 17.151461
vt 2.828521 17.151461
vt -3.585300 17.667139
vt -2.828521 17.151461
vt -3.585300 17.151461
vt -2.828521 22.726271
vt -2.828521 23.241940
vt -3.585300 23.241940
vt -3.585300 22.726271
vt 3.585300 7.884422
vt 2.828521 6.853083
vt 2.828521 7.884422
vt 2.828521 9.640485
vt 3.585300 9.640485
vt 3.585300 10.671820
vt 2.828521 10.671820
vt -3.585300 20.454540
vt -2.828521 19.938869
vt -3.585300 19.938869
vt 2.828521 26.029341
vt 2.828521 25.513670
vt 3.585300 25.513670
vt -3.585300 9.267044
vt -2.828521 9.267044
vt -2.828521 10.298380
vt -2.828521 26.907370
vt -1.968504 15.757760
vt -2.828521 15.757760
vt 2.564409 16.426741
vt 2.564409 26.238390
vt 0.222992 26.238390
vt 0.222992 25.419500
vt 2.828521 8.246784
vt 3.585300 8.246784
vt 3.585300 9.278123
vt 2.828521 9.278123
vt 3.585300 22.726271
vt 2.828521 23.241940
vt 3.585300 23.241940
vt 2.828521 22.726271
vt -0.358548 16.426741
vt -1.949061 26.907370
vt -0.358548 26.238390
vt -0.358548 25.419500
vt -2.828521 11.692080
vt -3.585300 10.660740
vt -3.585300 11.692080
vt 2.828521 20.454540
vt 2.828521 19.938869
vt 3.585300 19.938869
vt -3.585300 26.029341
vt -3.585300 25.513670
vt -2.828521 25.513670
vt -3.585300 13.448150
vt -2.828521 13.448150
vt -2.828521 14.479480
vt 2.787402 -2.828521
vt 2.787402 -1.968504
vt 0.000000 -1.968504
vt 2.828521 20.454540
vt 2.828521 19.938869
vt 3.585300 19.938869
vt 3.585300 20.454540
vt 2.828521 10.298380
vt -3.585300 17.667139
vt -2.828521 17.151461
vt -3.585300 17.151461
vt -2.828521 17.667139
vt 0.500535 19.938869
vt 2.828521 10.660740
vt 3.585300 10.660740
vt 3.585300 11.692080
vt 2.828521 11.692080
vt -3.585300 26.029341
vt -3.585300 25.513670
vt -2.828521 25.513670
vt -2.828521 26.029341
vt -2.828521 8.246784
vt -2.828521 7.884422
vt -3.585300 7.884422
vt -3.585300 6.853083
vt -2.828521 6.853083
vt 2.828521 25.513670
vt 3.585300 17.667139
vt 2.828521 14.479480
vt -1.968504 26.907370
vt -2.787402 4.349240
vt -0.222992 6.060244
vt -0.393701 6.060244
vt 2.787402 4.349240
vt -2.564409 6.060244
vt -2.828521 11.034190
vt -3.585300 20.454540
vt -3.585300 19.938869
vt -2.828521 19.938869
vt -2.828521 20.454540
vt 1.949061 26.907370
vt 0.358548 25.419500
vt -2.564409 10.621170
vt -2.339859 15.757760
vt 3.585300 23.241940
vt -2.787402 15.757760
vt -2.787402 26.907370
vt 3.585300 12.054450
vt -2.828521 23.241940
vt -2.828521 9.640485
vt -0.222992 16.426741
vt -2.787402 -2.828521
vt 3.585300 17.667139
vt -2.828521 17.667139
vt 3.585300 6.853083
vt -2.828521 13.085780
vt -3.585300 12.054450
vt -3.585300 13.085780
vt -2.828521 12.054450
vt -2.828521 20.454540
vt 3.585300 26.029341
vt -3.585300 10.298380
vt 2.339859 15.757760
vt 2.339859 26.907370
vt 0.749346 26.238390
vt 0.749346 16.426741
vt -1.968504 26.907370
vt -1.949061 15.757760
vt -2.828521 10.660740
vt 2.828521 11.034190
vt 3.585300 11.034190
vt 3.585300 12.065520
vt 2.828521 12.065520
vt 3.585300 20.454540
vt -2.828521 26.029341
vt -3.585300 14.479480
vn 1.0000 0.0000 0.0000
vn -0.0000 0.0000 -1.0000
vn -1.0000 -0.0000 0.0000
vn 0.0000 1.0000 0.0000
vn 0.0000 0.0946 -0.9955
vn 0.9955 0.0946 0.0000
vn 0.0000 -0.0000 1.0000
vn 0.0000 0.0946 0.9955
vn -0.9955 0.0946 0.0000
vn 0.0000 -1.0000 0.0000
vn -0.9955 -0.0946 0.0000
vn 0.9955 -0.0946 0.0000
vn 0.0000 -0.0946 -0.9955
vn 0.5000 0.8660 0.0000
vn 0.5000 -0.8660 0.0000
vn 0.0000 0.9204 -0.3910
vn -0.9901 0.0000 -0.1402
vn 0.0000 0.9204 0.3910
vn 0.0000 -0.9204 -0.3910
vn 0.9901 0.0000 -0.1402
vn -0.5000 -0.8660 0.0000
vn -0.5000 0.8660 0.0000
vn -0.9901 -0.0000 0.1402
vn 0.0000 -0.9204 0.3910
vn 0.9901 -0.0000 0.1402
usemtl _defaultMat.018
s 1
f 1/1/1 2/2/1 3/3/1
f 3/3/1 5/4/1 4/5/1
f 9/6/2 8/7/2 1/8/2
f 12/9/3 13/10/3 6/11/3
f 11/12/4 7/13/4 3/14/4
f 13/15/5 4/16/5 17/17/5
f 16/18/6 17/19/6 4/20/6
f 19/21/1 17/22/1 16/23/1
f 6/24/7 5/25/7 3/26/7
f 3/26/7 7/27/7 6/24/7
f 4/28/2 13/29/2 12/30/2
f 11/12/4 10/31/4 7/13/4
f 5/32/8 6/33/8 15/34/8
f 17/17/5 18/35/5 13/15/5
f 15/36/9 6/37/9 13/38/9
f 19/39/2 22/40/2 18/41/2
usemtl grey.026
f 8/7/7 10/42/7 9/6/7
f 10/42/7 8/7/7 11/43/7
f 6/11/1 12/9/1 14/44/1
f 6/11/1 14/44/1 7/45/1
f 3/14/10 11/12/10 2/46/10
f 4/20/11 16/18/11 5/47/11
f 13/38/12 15/36/12 18/48/12
f 16/23/3 19/21/3 20/49/3
f 16/50/2 21/51/2 15/52/2
f 18/41/7 19/39/7 17/53/7
f 3/3/3 1/1/3 4/5/3
f 1/8/7 11/43/7 8/7/7
f 12/30/7 1/8/7 9/6/7
f 12/30/7 4/28/7 1/8/7
f 11/43/7 1/8/7 2/54/7
f 10/31/10 7/13/10 14/55/10
f 15/34/13 5/32/13 16/56/13
f 21/51/2 16/50/2 20/57/2
f 18/58/1 21/59/1 22/60/1
f 21/59/1 18/58/1 15/61/1
usemtl road.017
f 27/62/10 24/63/10 28/64/10
f 33/65/14 34/66/14 35/67/14
f 41/68/7 42/69/7 43/70/7
f 42/69/7 49/71/7 43/70/7
f 49/71/7 41/68/7 43/70/7
f 25/72/7 47/73/7 48/74/7
f 25/72/7 53/75/7 52/76/7
f 25/72/7 56/77/7 39/78/7
f 58/79/7 57/80/7 59/81/7
f 55/82/7 36/83/7 60/84/7
f 52/76/7 61/85/7 62/86/7
f 56/77/7 63/87/7 39/78/7
f 63/87/7 24/88/7 64/89/7
f 64/89/7 24/88/7 33/90/7
f 31/91/7 24/88/7 66/92/7
f 52/76/7 66/92/7 51/93/7
f 51/93/7 67/94/7 50/95/7
f 25/72/2 55/82/2 40/96/2
f 55/82/2 36/83/2 40/96/2
f 25/72/2 54/97/2 55/82/2
f 52/76/2 61/85/2 53/75/2
f 25/72/2 50/95/2 51/93/2
f 25/72/2 45/98/2 42/69/2
f 25/72/2 47/73/2 45/98/2
f 36/83/2 60/84/2 65/99/2
f 61/85/2 62/86/2 66/92/2
f 33/90/2 65/99/2 24/88/2
f 59/81/2 58/79/2 63/87/2
f 67/94/2 68/100/2 24/88/2
f 68/100/2 49/71/2 41/68/2
f 41/68/2 44/101/2 24/88/2
f 46/102/2 48/74/2 24/88/2
f 59/81/2 24/88/2 70/103/2
f 73/104/2 28/105/2 72/106/2
f 24/88/2 79/107/2 80/108/2
f 24/88/2 87/109/2 84/110/2
f 24/88/2 94/111/2 93/112/2
f 99/113/2 100/114/2 28/105/2
f 101/115/2 102/116/2 28/105/2
f 102/116/2 94/111/2 28/105/2
f 61/117/15 105/118/15 69/119/15
f 106/120/1 107/121/1 46/122/1
f 33/123/1 64/124/1 108/125/1
f 46/126/14 107/127/14 109/128/14
f 25/129/1 110/130/1 57/131/1
f 114/132/16 111/133/16 1/134/16
f 1/134/16 111/133/16 8/135/16
f 48/136/15 103/137/15 109/138/15
f 116/139/17 111/140/17 9/141/17
f 116/142/18 23/143/18 26/144/18
f 118/145/18 27/146/18 23/143/18
f 23/143/19 118/145/19 119/147/19
f 112/148/20 26/149/20 117/150/20
f 68/151/1 67/152/1 120/153/1
f 111/154/7 113/155/7 27/156/7
f 27/156/2 111/154/2 23/157/2
f 122/158/14 49/159/14 68/160/14
f 123/161/1 51/162/1 124/163/1
f 49/164/15 123/165/15 122/166/15
f 14/44/7 10/167/7 116/168/7
f 14/44/7 117/169/7 112/170/7
f 10/167/2 12/9/2 14/44/2
f 72/171/10 113/172/10 111/173/10
f 59/174/4 110/175/4 111/173/4
f 27/176/1 113/177/1 72/178/1
f 72/178/3 27/176/3 28/179/3
f 89/180/7 100/114/7 101/115/7
f 92/181/7 102/116/7 93/112/7
f 89/180/7 90/182/7 91/183/7
f 89/180/7 88/184/7 90/182/7
f 84/110/7 85/185/7 86/186/7
f 84/110/7 83/187/7 85/185/7
f 24/88/7 83/187/7 84/110/7
f 24/88/7 82/188/7 83/187/7
f 59/81/7 71/189/7 70/103/7
f 73/104/7 70/103/7 71/189/7
f 81/190/7 73/104/7 74/191/7
f 74/191/7 28/105/7 75/192/7
f 80/108/7 74/191/7 75/192/7
f 77/193/7 76/194/7 78/195/7
f 76/194/7 28/105/7 97/196/7
f 96/197/7 28/105/7 95/198/7
f 95/198/7 28/105/7 98/199/7
f 75/200/3 125/201/3 74/202/3
f 127/203/1 81/204/1 128/205/1
f 87/206/3 88/207/3 129/208/3
f 129/208/1 87/206/1 130/209/1
f 131/210/21 75/211/21 77/212/21
f 99/213/14 132/214/14 133/215/14
f 133/215/21 99/213/21 90/216/21
f 134/217/1 82/218/1 135/219/1
f 102/220/1 101/221/1 136/222/1
f 127/223/22 80/224/22 77/225/22
f 24/226/1 111/227/1 59/228/1
f 1/1/7 114/229/7 118/230/7
f 118/230/7 119/231/7 11/232/7
f 118/230/2 2/2/2 11/232/2
f 96/233/14 138/234/14 139/235/14
f 139/235/21 96/233/21 85/236/21
f 140/237/3 99/238/3 132/239/3
f 99/238/3 140/237/3 98/240/3
f 8/241/20 23/242/20 119/243/20
f 8/241/23 119/243/23 11/244/23
f 85/245/15 134/246/15 139/247/15
f 96/248/1 97/249/1 142/250/1
f 143/251/3 144/252/3 92/253/3
f 143/254/22 93/255/22 94/256/22
f 25/257/4 26/258/4 23/259/4
f 24/63/4 23/259/4 27/62/4
f 23/259/10 25/257/10 24/63/10
f 31/260/1 32/261/1 29/262/1
f 29/262/3 31/260/3 30/263/3
f 35/67/14 36/264/14 33/65/14
f 37/265/1 39/266/1 38/267/1
f 39/266/1 37/265/1 40/268/1
f 42/69/7 41/68/7 44/101/7
f 45/98/7 44/101/7 46/102/7
f 45/98/7 46/102/7 47/73/7
f 47/73/7 46/102/7 48/74/7
f 25/72/7 50/95/7 42/69/7
f 25/72/7 52/76/7 51/93/7
f 25/72/7 54/97/7 53/75/7
f 25/72/7 39/78/7 40/96/7
f 63/87/7 56/77/7 58/79/7
f 63/87/7 59/81/7 24/88/7
f 40/96/7 64/89/7 33/90/7
f 33/90/7 65/99/7 36/83/7
f 65/99/7 55/82/7 60/84/7
f 65/99/7 24/88/7 32/269/7
f 32/269/7 24/88/7 31/91/7
f 31/91/7 66/92/7 61/85/7
f 48/74/7 24/88/7 25/72/7
f 55/82/7 65/99/7 54/97/7
f 54/97/7 32/269/7 53/75/7
f 31/270/14 30/271/14 69/272/14
f 69/272/14 61/273/14 31/270/14
f 57/80/2 56/77/2 58/79/2
f 57/80/2 25/72/2 56/77/2
f 42/69/2 49/71/2 50/95/2
f 66/92/2 67/94/2 24/88/2
f 68/100/2 41/68/2 24/88/2
f 44/101/2 46/102/2 24/88/2
f 75/192/2 76/194/2 28/105/2
f 75/192/2 77/193/2 76/194/2
f 79/107/2 77/193/2 80/108/2
f 24/88/2 80/108/2 81/190/2
f 24/88/2 92/181/2 89/180/2
f 85/185/2 86/186/2 95/198/2
f 96/197/2 85/185/2 95/198/2
f 97/196/2 96/197/2 28/105/2
f 99/113/2 90/182/2 100/114/2
f 100/114/2 101/115/2 28/105/2
f 94/111/2 24/88/2 28/105/2
f 103/274/3 104/275/3 45/276/3
f 45/276/3 47/277/3 103/274/3
f 105/118/22 53/278/22 61/117/22
f 36/279/22 35/280/22 37/281/22
f 37/281/22 40/282/22 36/279/22
f 46/122/3 106/120/3 44/283/3
f 108/125/3 33/123/3 34/284/3
f 109/128/21 46/126/21 48/285/21
f 110/130/3 26/286/3 25/129/3
f 110/287/24 111/133/24 9/288/24
f 9/288/24 12/289/24 110/287/24
f 111/133/24 113/290/24 114/132/24
f 12/289/16 110/287/16 112/291/16
f 103/137/22 47/292/22 48/136/22
f 105/293/3 115/294/3 54/295/3
f 54/295/1 105/293/1 53/296/1
f 111/140/25 23/297/25 116/139/25
f 116/139/25 10/298/25 9/141/25
f 26/144/19 116/142/19 117/299/19
f 26/149/23 110/300/23 112/148/23
f 120/153/1 121/301/1 68/151/1
f 110/302/7 111/154/7 23/157/7
f 23/157/2 110/302/2 26/303/2
f 68/160/14 121/304/14 122/158/14
f 51/162/1 123/161/1 50/305/1
f 123/165/15 49/164/15 50/306/15
f 14/44/7 116/168/7 117/169/7
f 12/9/2 10/167/2 9/307/2
f 112/170/2 14/44/2 12/9/2
f 110/175/10 57/308/10 59/174/10
f 111/173/10 59/174/10 72/171/10
f 90/182/7 100/114/7 91/183/7
f 88/184/7 99/113/7 90/182/7
f 24/88/7 87/109/7 88/184/7
f 24/88/7 92/181/7 93/112/7
f 24/88/7 79/107/7 82/188/7
f 24/88/7 70/103/7 81/190/7
f 71/189/7 59/81/7 72/106/7
f 79/107/7 77/193/7 78/195/7
f 72/106/7 73/104/7 71/189/7
f 73/104/7 28/105/7 74/191/7
f 80/108/7 75/192/7 77/193/7
f 82/188/7 76/194/7 97/196/7
f 98/199/7 28/105/7 99/113/7
f 24/88/7 88/184/7 89/180/7
f 125/201/3 75/200/3 126/309/3
f 81/204/3 80/310/3 127/203/3
f 75/211/14 126/311/14 131/210/14
f 90/312/15 129/313/15 133/314/15
f 129/313/15 90/312/15 88/315/15
f 82/218/1 134/217/1 83/316/1
f 136/222/3 102/220/3 137/317/3
f 77/225/15 127/223/15 131/318/15
f 113/319/25 27/320/25 118/321/25
f 118/321/25 114/322/25 113/319/25
f 111/227/1 24/226/1 23/323/1
f 118/230/2 1/1/2 2/2/2
f 23/242/20 8/241/20 111/324/20
f 134/246/15 85/245/15 83/325/15
f 102/326/14 137/327/14 141/328/14
f 141/328/14 94/329/14 102/326/14
f 142/250/3 96/248/3 138/330/3
f 92/253/1 143/251/1 93/331/1
f 94/256/22 141/332/22 143/254/22
usemtl pylon.004
f 89/180/2 92/181/2 101/115/2
f 92/181/2 102/116/2 101/115/2
f 93/112/2 94/111/2 102/116/2
f 42/69/2 45/98/2 44/101/2
f 100/114/2 91/183/2 89/180/2
usemtl red.011
f 53/75/2 61/85/2 31/91/2
f 66/92/2 62/86/2 52/76/2
f 51/93/2 67/94/2 66/92/2
f 50/95/2 68/100/2 67/94/2
f 50/95/2 49/71/2 68/100/2
f 84/110/2 87/109/2 95/198/2
f 87/109/2 98/199/2 95/198/2
f 87/109/2 88/184/2 98/199/2
f 81/190/2 80/108/2 74/191/2
f 76/194/2 78/195/2 79/107/2
f 79/107/2 82/188/2 76/194/2
f 83/187/2 96/197/2 97/196/2
f 83/187/2 85/185/2 96/197/2
f 54/97/2 32/269/2 65/99/2
f 53/75/2 31/91/2 32/269/2
f 39/78/2 64/89/2 63/87/2
f 39/78/2 40/96/2 64/89/2
f 40/96/2 36/83/2 33/90/2
f 95/198/2 86/186/2 84/110/2
f 88/184/2 99/113/2 98/199/2
f 70/103/2 81/190/2 73/104/2
f 82/188/2 83/187/2 97/196/2
