# Blender v3.1.2 OBJ File: ''
# www.blender.org
mtllib pitsOfficeCorner.mtl
o pitsOfficeCorner
v -0.051879 0.311518 0.020000
v -0.051879 0.072962 0.020000
v -0.051879 0.072962 0.040000
v -0.051879 0.311518 0.040000
v -0.945571 0.460000 0.054429
v -0.094429 0.460000 0.054429
v -0.094429 0.510000 0.054429
v -0.945571 0.510000 0.054429
v 0.000000 0.072962 0.020000
v 0.000000 0.311518 0.020000
v -1.000000 -0.000000 1.000000
v 0.000000 -0.000000 1.000000
v 0.000000 0.510000 1.000000
v -0.980000 0.072962 1.000000
v -0.980000 0.311518 1.000000
v -1.000000 0.311518 1.000000
v -1.000000 0.341910 1.000000
v -1.040000 0.341910 1.000000
v -1.040000 0.510000 1.000000
v -1.000000 0.072962 1.000000
v -0.094429 0.460000 0.905571
v -0.945571 0.460000 0.905571
v 0.000000 0.311518 0.000000
v -1.000000 0.311518 0.000000
v -1.000000 0.341910 0.000000
v 0.000000 0.341910 0.000000
v -0.525939 0.311518 0.020000
v -0.525939 0.072962 0.020000
v -0.525939 0.072962 0.040000
v -0.525939 0.311518 0.040000
v 0.000000 0.510000 -0.040000
v -1.040000 0.510000 -0.040000
v -0.945571 0.510000 0.905571
v -0.094429 0.510000 0.905571
v -0.474061 0.072962 0.020000
v -0.474061 0.311518 0.020000
v -0.474061 0.311518 0.040000
v -0.474061 0.072962 0.040000
v 0.000000 0.341910 -0.040000
v 0.000000 0.000000 0.000000
v 0.000000 0.072962 0.000000
v -0.948121 0.072962 0.020000
v -0.948121 0.311518 0.020000
v -0.948121 0.311518 0.040000
v -0.948121 0.072962 0.040000
v -1.000000 0.000000 0.000000
v -1.000000 0.072962 0.000000
v -0.980000 0.072962 0.051879
v -0.960000 0.072962 0.051879
v -0.960000 0.311518 0.051879
v -0.980000 0.311518 0.051879
v -0.980000 0.311518 0.020000
v -0.980000 0.072962 0.020000
v -0.980000 0.311518 0.948121
v -0.980000 0.072962 0.948121
v -0.980000 0.311518 0.474061
v -0.980000 0.072962 0.474061
v -0.980000 0.072962 0.525939
v -0.980000 0.311518 0.525939
v -0.960000 0.072962 0.948121
v -0.960000 0.072962 0.525939
v -0.960000 0.072962 0.474061
v -0.960000 0.311518 0.525939
v -0.960000 0.311518 0.474061
v -0.960000 0.311518 0.948121
v -1.040000 0.341910 -0.040000
vt 0.787402 12.264480
vt 0.787402 2.872535
vt 1.574803 2.872535
vt 1.574803 12.264480
vt -37.227211 18.110241
vt -3.717668 18.110241
vt -3.717668 20.078739
vt 0.000000 2.872535
vt 2.042468 2.872535
vt 2.042468 12.264480
vt 0.000000 12.264480
vt -0.000000 20.078739
vt -38.582680 2.872535
vt -39.370079 -0.000000
vt -39.370079 12.264480
vt -38.582680 12.264480
vt -39.370079 13.461020
vt -40.944881 20.078739
vt -40.944881 13.461020
vt 37.227211 2.142865
vt 37.227211 35.652409
vt 3.717668 35.652409
vt 39.370079 13.461020
vt 0.000000 13.461020
vt 0.000000 12.264480
vt 0.787402 12.264480
vt 0.787402 2.872535
vt 1.574803 2.872535
vt 1.574803 12.264480
vt 3.717668 2.142865
vt 0.000000 39.370079
vt 0.000000 -1.574803
vt 40.944881 -1.574803
vt 37.227211 2.142865
vt 37.227211 35.652409
vt 40.944881 39.370079
vt -0.787402 2.872535
vt -0.787402 12.264480
vt -1.574803 12.264480
vt 1.574803 13.461020
vt 1.574803 20.078739
vt -0.787402 2.872535
vt -39.370079 0.000000
vt 0.000000 0.000000
vt 0.000000 2.872535
vt -0.787402 12.264480
vt -0.787402 2.872535
vt -0.787402 12.264480
vt -1.574803 12.264480
vt 18.663811 2.872535
vt 20.706270 2.872535
vt 20.706270 12.264480
vt 37.227211 20.078739
vt 3.717668 20.078739
vt 3.717668 18.110241
vt -37.795280 12.264480
vt -38.582680 12.264480
vt -38.582680 2.872535
vt 0.787402 12.264480
vt 0.787402 2.872535
vt 2.042468 2.872535
vt 0.000000 2.872535
vt 0.000000 0.000000
vt 39.370079 0.000000
vt 37.327610 12.264480
vt 37.327610 2.872535
vt 39.370079 2.872535
vt 18.663811 12.264480
vt 18.663811 2.872535
vt 20.706270 2.872535
vt 39.370079 0.000000
vt 20.706270 0.787402
vt 18.663811 0.787402
vt 37.327610 0.787402
vt 20.706270 1.574803
vt 38.582680 20.706270
vt 38.582680 18.663811
vt 38.582680 37.327610
vt 38.582680 39.370079
vt 39.370079 39.370079
vt 37.795280 37.327610
vt 37.795280 20.706270
vt 38.582680 2.042468
vt 37.795280 18.663811
vt -38.582680 2.872535
vt -37.795280 2.872535
vt -37.795280 12.264480
vt 38.582680 12.264480
vt 37.795280 12.264480
vt 37.795280 2.872535
vt -2.042468 0.787402
vt -18.663811 1.574803
vt -18.663811 0.787402
vt -39.370079 0.000000
vt -0.000000 0.000000
vt -20.706270 0.787402
vt -37.327610 0.787402
vt -37.327610 1.574803
vt -20.706270 1.574803
vt -38.582680 0.787402
vt -38.582680 2.042468
vt -38.582680 18.663811
vt -38.582680 20.706270
vt -38.582680 37.327610
vt -37.795280 20.706270
vt -37.795280 37.327610
vt 37.795280 2.872535
vt 38.582680 2.872535
vt 38.582680 12.264480
vt -39.370079 0.000000
vt -40.944881 -1.574803
vt -0.000000 -1.574803
vt -39.370079 39.370079
vt -40.944881 39.370079
vt 37.327610 2.872535
vt 38.582680 2.872535
vt 38.582680 12.264480
vt 37.327610 12.264480
vt -37.227211 20.078739
vt -0.000000 -0.000000
vt -39.370079 2.872535
vt 3.717668 2.142865
vt 39.370079 12.264480
vt 3.717668 35.652409
vt -1.574803 2.872535
vt -39.370079 20.078739
vt -1.574803 2.872535
vt 18.663811 12.264480
vt 39.370079 0.000000
vt 39.370079 2.872535
vt -2.142865 18.110241
vt -2.142865 20.078739
vt -35.652409 20.078739
vt -35.652409 18.110241
vt 37.227211 18.110241
vt 2.142865 20.078739
vt 2.142865 18.110241
vt 35.652409 18.110241
vt 35.652409 20.078739
vt -37.795280 2.872535
vt 2.042468 12.264480
vt 39.370079 2.872535
vt 39.370079 12.264480
vt 20.706270 12.264480
vt 0.000000 0.787402
vt 0.000000 0.000000
vt 2.042468 0.787402
vt 2.042468 1.574803
vt 38.582680 0.787402
vt 37.795280 2.042468
vt 37.327610 1.574803
vt 18.663811 1.574803
vt -38.582680 12.264480
vt 38.582680 2.872535
vt -2.042468 1.574803
vt -0.000000 0.787402
vt -37.795280 18.663811
vt -37.795280 2.042468
vt -38.582680 39.370079
vt -39.370079 39.370079
vt 0.000000 13.461020
vt 0.000000 12.264480
vt 39.370079 12.264480
vt 39.370079 13.461020
vt 37.795280 12.264480
vt -0.000000 0.000000
vt 37.327610 2.872535
vt 37.327610 12.264480
vt 20.706270 12.264480
vt 20.706270 2.872535
vt 37.327610 2.872535
vt 37.327610 12.264480
vt 20.706270 12.264480
vt 2.042468 2.872535
vt 18.663811 2.872535
vt 18.663811 12.264480
vt 2.042468 12.264480
vt 20.706270 2.872535
vt 2.042468 12.264480
vt 2.042468 2.872535
vt 18.663811 2.872535
vt 18.663811 12.264480
vt 39.370079 13.461020
vt 39.370079 20.078739
vt -1.574803 20.078739
vt 40.944881 20.078739
vt 0.000000 20.078739
vt 0.000000 13.461020
vt -1.574803 13.461020
vt 40.944881 13.461020
vn -1.0000 0.0000 0.0000
vn 0.0000 -0.0000 1.0000
vn 0.0000 0.0000 -1.0000
vn 0.0000 1.0000 0.0000
vn 1.0000 0.0000 0.0000
vn 0.0000 -1.0000 0.0000
usemtl grey.035
s 1
f 1/1/1 2/2/1 3/3/1
f 3/3/1 4/4/1 1/1/1
f 5/5/2 6/6/2 7/7/2
f 9/8/3 2/9/3 1/10/3
f 1/10/3 10/11/3 9/8/3
f 13/12/2 14/13/2 11/14/2
f 13/12/2 16/15/2 15/16/2
f 13/12/2 17/17/2 16/15/2
f 13/12/2 19/18/2 18/19/2
f 5/20/4 22/21/4 21/22/4
f 25/23/3 26/24/3 23/25/3
f 27/26/1 28/27/1 29/28/1
f 29/28/1 30/29/1 27/26/1
f 7/30/4 13/31/4 31/32/4
f 31/32/4 32/33/4 7/30/4
f 32/33/4 8/34/4 7/30/4
f 33/35/4 32/33/4 19/36/4
f 35/37/5 36/38/5 37/39/5
f 26/24/5 39/40/5 31/41/5
f 9/42/5 12/43/5 40/44/5
f 40/44/5 41/45/5 9/42/5
f 23/25/5 26/24/5 10/46/5
f 42/47/5 43/48/5 44/49/5
f 35/50/3 28/51/3 27/52/3
f 33/53/3 34/54/3 21/55/3
f 50/56/2 51/57/2 48/58/2
f 52/59/1 53/60/1 48/61/1
f 47/62/1 46/63/1 11/64/1
f 54/65/1 55/66/1 14/67/1
f 56/68/1 57/69/1 58/70/1
f 47/71/4 28/72/4 35/73/4
f 47/71/4 42/74/4 29/75/4
f 47/71/4 58/76/4 57/77/4
f 47/71/4 55/78/4 58/76/4
f 47/71/4 14/79/4 55/78/4
f 47/71/4 20/80/4 14/79/4
f 58/76/4 55/78/4 60/81/4
f 60/81/4 61/82/4 58/76/4
f 48/83/4 57/77/4 62/84/4
f 58/85/2 61/86/2 63/87/2
f 56/88/3 64/89/3 62/90/3
f 1/91/6 37/92/6 36/93/6
f 1/91/6 36/93/6 24/94/6
f 1/91/6 24/94/6 23/95/6
f 36/93/6 27/96/6 24/94/6
f 27/96/6 43/97/6 24/94/6
f 27/96/6 44/98/6 43/97/6
f 27/96/6 30/99/6 44/98/6
f 43/97/6 52/100/6 24/94/6
f 52/100/6 51/101/6 24/94/6
f 56/102/6 59/103/6 24/94/6
f 59/103/6 54/104/6 24/94/6
f 59/103/6 63/105/6 65/106/6
f 60/107/3 55/108/3 54/109/3
f 25/110/6 66/111/6 39/112/6
f 17/113/6 18/114/6 66/111/6
f 42/115/3 53/116/3 52/117/3
f 52/117/3 43/118/3 42/115/3
f 7/7/2 8/119/2 5/5/2
f 11/14/2 12/120/2 13/12/2
f 13/12/2 15/16/2 14/13/2
f 13/12/2 18/19/2 17/17/2
f 11/14/2 14/13/2 20/121/2
f 21/22/4 6/122/4 5/20/4
f 23/25/3 24/123/3 25/23/3
f 32/33/4 33/35/4 8/34/4
f 13/31/4 7/30/4 34/124/4
f 34/124/4 19/36/4 13/31/4
f 34/124/4 33/35/4 19/36/4
f 37/39/5 38/125/5 35/37/5
f 31/41/5 13/126/5 26/24/5
f 13/126/5 10/46/5 26/24/5
f 13/126/5 9/42/5 10/46/5
f 13/126/5 12/43/5 9/42/5
f 44/49/5 45/127/5 42/47/5
f 27/52/3 36/128/3 35/50/3
f 40/44/3 46/129/3 47/130/3
f 47/130/3 41/45/3 40/44/3
f 5/131/5 8/132/5 33/133/5
f 33/133/5 22/134/5 5/131/5
f 21/55/3 22/135/3 33/53/3
f 7/136/1 6/137/1 21/138/1
f 21/138/1 34/139/1 7/136/1
f 48/58/2 49/140/2 50/56/2
f 48/61/1 51/141/1 52/59/1
f 11/64/1 20/142/1 47/62/1
f 14/67/1 15/143/1 54/65/1
f 58/70/1 59/144/1 56/68/1
f 9/145/4 41/146/4 47/71/4
f 47/71/4 2/147/4 9/145/4
f 47/71/4 35/73/4 2/147/4
f 35/73/4 3/148/4 2/147/4
f 47/71/4 29/75/4 28/72/4
f 47/71/4 53/149/4 42/74/4
f 47/71/4 48/83/4 53/149/4
f 47/71/4 57/77/4 48/83/4
f 62/84/4 49/150/4 48/83/4
f 29/75/4 42/74/4 45/151/4
f 3/148/4 35/73/4 38/152/4
f 63/87/2 59/153/2 58/85/2
f 62/90/3 57/154/3 56/88/3
f 1/91/6 4/155/6 37/92/6
f 23/95/6 10/156/6 1/91/6
f 51/101/6 56/102/6 24/94/6
f 64/157/6 56/102/6 51/101/6
f 51/101/6 50/158/6 64/157/6
f 65/106/6 54/104/6 59/103/6
f 54/104/6 15/159/6 24/94/6
f 15/159/6 16/160/6 24/94/6
f 25/161/1 24/162/1 16/163/1
f 16/163/1 17/164/1 25/161/1
f 54/109/3 65/165/3 60/107/3
f 39/112/6 26/166/6 25/110/6
f 25/110/6 17/113/6 66/111/6
usemtl glass.005
f 60/167/1 65/168/1 63/169/1
f 29/170/3 45/171/3 44/172/3
f 44/172/3 30/173/3 29/170/3
f 3/174/3 38/175/3 37/176/3
f 37/176/3 4/177/3 3/174/3
f 63/169/1 61/178/1 60/167/1
f 50/179/1 49/180/1 62/181/1
f 62/181/1 64/182/1 50/179/1
usemtl red.018
f 18/183/1 19/184/1 32/185/1
f 32/186/3 31/187/3 39/188/3
f 32/185/1 66/189/1 18/183/1
f 39/188/3 66/190/3 32/186/3
