# Blender v3.1.2 OBJ File: ''
# www.blender.org
mtllib pylon.mtl
o pylon
v 0.048000 0.012000 0.000000
v 0.016800 0.132000 0.000000
v 0.016228 0.132000 0.004348
v 0.046364 0.012000 0.012423
v 0.060000 0.000000 -0.060000
v -0.060000 0.000000 -0.060000
v -0.060000 0.012000 -0.060000
v 0.060000 0.012000 -0.060000
v 0.041569 0.012000 0.024000
v 0.014549 0.132000 0.008400
v 0.011879 0.132000 0.011879
v 0.033941 0.012000 0.033941
v -0.012423 0.012000 0.046364
v 0.000000 0.012000 0.048000
v 0.000000 0.132000 0.016800
v -0.004348 0.132000 0.016228
v 0.000000 0.012000 -0.048000
v -0.012423 0.012000 -0.046364
v -0.004348 0.132000 -0.016228
v 0.000000 0.132000 -0.016800
v 0.046364 0.012000 -0.012423
v 0.060000 0.012000 0.060000
v 0.041569 0.012000 -0.024000
v 0.033941 0.012000 -0.033941
v 0.024000 0.012000 -0.041569
v 0.012423 0.012000 -0.046364
v -0.024000 0.012000 -0.041569
v -0.033941 0.012000 -0.033941
v -0.041569 0.012000 -0.024000
v -0.046364 0.012000 -0.012423
v -0.048000 0.012000 0.000000
v -0.060000 0.012000 0.060000
v -0.046364 0.012000 0.012423
v -0.041569 0.012000 0.024000
v -0.033941 0.012000 0.033941
v -0.024000 0.012000 0.041569
v 0.012423 0.012000 0.046364
v 0.024000 0.012000 0.041569
v 0.008400 0.132000 0.014549
v -0.008400 0.132000 0.014549
v -0.008400 0.132000 -0.014549
v 0.004348 0.132000 0.016228
v 0.016228 0.132000 -0.004348
v 0.014549 0.132000 -0.008400
v 0.011879 0.132000 -0.011879
v 0.008400 0.132000 -0.014549
v 0.004348 0.132000 -0.016228
v -0.011879 0.132000 -0.011879
v -0.011879 0.132000 0.011879
v -0.014549 0.132000 0.008400
v -0.014549 0.132000 -0.008400
v -0.016228 0.132000 -0.004348
v -0.016228 0.132000 0.004348
v -0.016800 0.132000 0.000000
v 0.060000 -0.000000 0.060000
v -0.060000 -0.000000 0.060000
vt 0.246664 -0.010193
vt 0.086332 4.868656
vt -0.086332 4.868656
vt -0.246664 -0.010193
vt -2.362205 0.000000
vt 2.362205 0.000000
vt 2.362205 0.472441
vt -0.246664 -0.010193
vt 0.246664 -0.010193
vt 0.086332 4.868656
vt -0.086332 4.868656
vt -0.246664 -0.010193
vt 0.246664 -0.010193
vt 0.086332 4.868656
vt -2.362205 -2.362205
vt -1.636583 -0.944882
vt -1.825372 -0.489107
vt -1.336265 -1.336265
vt -0.944882 -1.636583
vt -0.489107 -1.825372
vt 2.362205 -2.362205
vt 0.489107 -1.825372
vt 0.000000 -1.889764
vt 1.336265 -1.336265
vt 0.944882 -1.636583
vt 1.636583 -0.944882
vt 1.825372 -0.489107
vt -2.362205 2.362205
vt -1.889764 0.000000
vt -1.825372 0.489107
vt 1.889764 0.000000
vt 2.362205 2.362205
vt 1.636583 0.944882
vt 1.825372 0.489107
vt 1.336265 1.336265
vt 0.944882 1.636583
vt -0.489107 1.825372
vt -0.944882 1.636583
vt -1.336265 1.336265
vt -1.636583 0.944882
vt 0.086332 4.868656
vt -0.086332 4.868656
vt -0.246664 -0.010193
vt 0.086332 4.868656
vt -0.086332 4.868656
vt -0.246664 -0.010193
vt -0.246664 -0.010193
vt 0.246664 -0.010193
vt 0.086332 4.868656
vt 0.086332 4.868656
vt -0.086332 4.868656
vt -0.246664 -0.010193
vt -0.638880 -0.171187
vt -0.572804 -0.330709
vt -0.638880 0.171187
vt -0.467693 -0.467693
vt -0.572804 0.330709
vt -0.467693 0.467693
vt -0.330709 -0.572804
vt -0.330709 0.572804
vt -0.171187 -0.638880
vt -0.171187 0.638880
vt 0.171187 -0.638880
vt 0.171187 0.638880
vt 0.000000 0.661417
vt 0.467693 -0.467693
vt 0.467693 0.467693
vt 0.330709 0.572804
vt 0.572804 -0.330709
vt 0.572804 0.330709
vt -0.246664 -0.010193
vt 0.246664 -0.010193
vt 0.086332 4.868656
vt -0.086332 4.868656
vt -0.086332 4.868656
vt -0.246664 -0.010193
vt 0.246664 -0.010193
vt 0.086332 4.868656
vt 0.086332 4.868656
vt -0.086332 4.868656
vt -0.246664 -0.010193
vt 0.246664 -0.010193
vt -0.246664 -0.010193
vt 0.246664 -0.010193
vt 0.086332 4.868656
vt -0.086332 4.868656
vt -0.086332 4.868656
vt -0.246664 -0.010193
vt 0.246664 -0.010193
vt 2.362205 -2.362205
vt 2.362205 2.362205
vt -2.362205 2.362205
vt -0.246664 -0.010193
vt 0.246664 -0.010193
vt 0.086332 4.868656
vt -0.086332 4.868656
vt -0.246664 -0.010193
vt 0.246664 -0.010193
vt 0.086332 4.868656
vt -0.086332 4.868656
vt -0.246664 -0.010193
vt 0.246664 -0.010193
vt 0.246664 -0.010193
vt 0.086332 4.868656
vt -0.086332 4.868656
vt 0.086332 4.868656
vt -0.086332 4.868656
vt -0.246664 -0.010193
vt -2.362205 0.472441
vt -2.362205 0.000000
vt 2.362205 0.000000
vt 2.362205 0.000000
vt 2.362205 0.472441
vt -2.362205 0.472441
vt -2.362205 0.000000
vt -0.246664 -0.010193
vt 0.246664 -0.010193
vt 0.086332 4.868656
vt -2.362205 0.000000
vt 2.362205 0.000000
vt 2.362205 0.472441
vt -0.246664 -0.010193
vt 0.246664 -0.010193
vt 0.086332 4.868656
vt -0.086332 4.868656
vt -2.362205 0.472441
vt 0.246664 -0.010193
vt 0.086332 4.868656
vt -0.086332 4.868656
vt -0.246664 -0.010193
vt -0.086332 4.868656
vt 0.489107 1.825372
vt 0.000000 1.889764
vt 0.246664 -0.010193
vt -0.246664 -0.010193
vt 0.246664 -0.010193
vt 0.086332 4.868656
vt -0.086332 4.868656
vt 0.246664 -0.010193
vt -0.086332 4.868656
vt 0.246664 -0.010193
vt -0.661417 0.000000
vt 0.000000 -0.661417
vt 0.330709 -0.572804
vt 0.638880 -0.171187
vt 0.638880 0.171187
vt 0.661417 0.000000
vt -0.086332 4.868656
vt -0.246664 -0.010193
vt 0.246664 -0.010193
vt 0.086332 4.868656
vt 0.086332 4.868656
vt -2.362205 -2.362205
vt -0.086332 4.868656
vt 0.086332 4.868656
vt -0.246664 -0.010193
vt 0.246664 -0.010193
vt 0.086332 4.868656
vt -0.086332 4.868656
vt -0.246664 -0.010193
vt 0.246664 -0.010193
vt 2.362205 0.472441
vt -0.086332 4.868656
vt -2.362205 0.472441
vt 0.086332 4.868656
vt -0.086332 4.868656
vt -0.246664 -0.010193
vt 0.246664 -0.010193
vn 0.9678 0.2516 -0.0000
vn 0.9348 0.2516 0.2505
vn 0.0000 0.0000 -1.0000
vn -0.2505 0.2516 0.9348
vn 0.0000 0.2516 0.9678
vn -0.0000 0.2516 -0.9678
vn -0.2505 0.2516 -0.9348
vn 0.0000 1.0000 0.0000
vn 0.6844 0.2516 0.6844
vn 0.4839 0.2516 0.8382
vn -0.4839 0.2516 -0.8382
vn 0.2505 0.2516 0.9348
vn 0.9348 0.2516 -0.2505
vn 0.8382 0.2516 -0.4839
vn -0.8382 0.2516 -0.4839
vn -0.9348 0.2516 -0.2505
vn -0.8382 0.2516 0.4839
vn -0.9348 0.2516 0.2505
vn 0.4839 0.2516 -0.8382
vn 0.2505 0.2516 -0.9348
vn -0.9678 0.2516 -0.0000
vn 0.0000 -1.0000 -0.0000
vn -0.6844 0.2516 -0.6844
vn 0.6844 0.2516 -0.6844
vn 0.8382 0.2516 0.4839
vn -0.4839 0.2516 0.8382
vn -0.6844 0.2516 0.6844
vn -1.0000 0.0000 0.0000
vn 1.0000 0.0000 0.0000
vn 0.0000 -0.0000 1.0000
usemtl pylon.005
s 1
f 1/1/1 2/2/1 3/3/2
f 3/3/2 4/4/2 1/1/1
f 5/5/3 6/6/3 7/7/3
f 13/8/4 14/9/5 15/10/5
f 15/10/5 16/11/4 13/8/4
f 17/12/6 18/13/7 19/14/7
f 8/15/8 23/16/8 21/17/8
f 8/15/8 24/18/8 23/16/8
f 8/15/8 25/19/8 24/18/8
f 8/15/8 26/20/8 25/19/8
f 7/21/8 18/22/8 17/23/8
f 7/21/8 28/24/8 27/25/8
f 7/21/8 29/26/8 28/24/8
f 7/21/8 30/27/8 29/26/8
f 22/28/8 1/29/8 4/30/8
f 31/31/8 7/21/8 32/32/8
f 34/33/8 33/34/8 32/32/8
f 35/35/8 34/33/8 32/32/8
f 36/36/8 35/35/8 32/32/8
f 37/37/8 32/32/8 22/28/8
f 22/28/8 38/38/8 37/37/8
f 22/28/8 12/39/8 38/38/8
f 22/28/8 4/30/8 9/40/8
f 11/41/9 39/42/10 38/43/10
f 41/44/11 19/45/7 18/46/7
f 14/47/5 37/48/12 42/49/12
f 39/50/10 42/51/12 37/52/12
f 43/53/8 44/54/8 3/55/8
f 44/54/8 45/56/8 10/57/8
f 45/56/8 11/58/8 10/57/8
f 46/59/8 39/60/8 11/58/8
f 46/59/8 47/61/8 39/60/8
f 47/61/8 42/62/8 39/60/8
f 19/63/8 16/64/8 15/65/8
f 48/66/8 49/67/8 40/68/8
f 48/66/8 51/69/8 50/70/8
f 21/71/13 23/72/14 44/73/14
f 44/73/14 43/74/13 21/71/13
f 51/75/15 29/76/15 30/77/16
f 30/77/16 52/78/16 51/75/15
f 50/79/17 53/80/18 33/81/18
f 33/81/18 34/82/17 50/79/17
f 25/83/19 26/84/20 47/85/20
f 47/85/20 46/86/19 25/83/19
f 54/87/21 31/88/21 33/89/18
f 5/90/22 55/91/22 56/92/22
f 27/93/11 28/94/23 48/95/23
f 48/95/23 41/96/11 27/93/11
f 24/97/24 25/98/19 46/99/19
f 10/100/25 9/101/25 4/102/2
f 29/103/15 51/104/15 48/105/23
f 40/106/26 49/107/27 35/108/27
f 7/109/28 6/110/28 56/111/28
f 5/112/29 8/113/29 22/114/29
f 22/114/29 55/115/29 5/112/29
f 26/116/20 17/117/6 20/118/6
f 56/119/30 55/120/30 22/121/30
f 23/122/14 24/123/24 45/124/24
f 45/124/24 44/125/14 23/122/14
f 7/7/3 8/126/3 5/5/3
f 9/127/25 10/128/25 11/129/9
f 11/129/9 12/130/9 9/127/25
f 19/14/7 20/131/6 17/12/6
f 21/17/8 22/28/8 8/15/8
f 8/15/8 7/21/8 26/20/8
f 21/17/8 1/29/8 22/28/8
f 7/21/8 17/23/8 26/20/8
f 7/21/8 27/25/8 18/22/8
f 7/21/8 31/31/8 30/27/8
f 33/34/8 31/31/8 32/32/8
f 13/132/8 36/36/8 32/32/8
f 14/133/8 13/132/8 32/32/8
f 37/37/8 14/133/8 32/32/8
f 22/28/8 9/40/8 12/39/8
f 38/43/10 12/134/9 11/41/9
f 36/135/26 13/136/4 16/137/4
f 16/137/4 40/138/26 36/135/26
f 18/46/7 27/139/11 41/44/11
f 42/49/12 15/140/5 14/47/5
f 37/52/12 38/141/10 39/50/10
f 3/55/8 2/142/8 43/53/8
f 44/54/8 10/57/8 3/55/8
f 45/56/8 46/59/8 11/58/8
f 47/61/8 20/143/8 42/62/8
f 20/143/8 15/65/8 42/62/8
f 20/143/8 19/63/8 15/65/8
f 19/63/8 41/144/8 16/64/8
f 41/144/8 40/68/8 16/64/8
f 41/144/8 48/66/8 40/68/8
f 48/66/8 50/70/8 49/67/8
f 51/69/8 52/145/8 50/70/8
f 52/145/8 53/146/8 50/70/8
f 52/145/8 54/147/8 53/146/8
f 52/148/16 30/149/16 31/150/21
f 31/150/21 54/151/21 52/148/16
f 33/89/18 53/152/18 54/87/21
f 56/92/22 6/153/22 5/90/22
f 46/99/19 45/154/24 24/97/24
f 4/102/2 3/155/2 10/100/25
f 1/156/1 21/157/13 43/158/13
f 43/158/13 2/159/1 1/156/1
f 48/105/23 28/160/23 29/103/15
f 35/108/27 36/161/26 40/106/26
f 56/111/28 32/162/28 7/109/28
f 20/118/6 47/163/20 26/116/20
f 22/121/30 32/164/30 56/119/30
f 49/165/27 50/166/17 34/167/17
f 34/167/17 35/168/27 49/165/27
