# Blender v3.1.2 OBJ File: ''
# www.blender.org
mtllib roadSide.mtl
o roadSide
v 0.000000 -0.000000 2.000000
v 0.000000 0.000000 0.000000
v -0.081653 0.000000 0.000000
v -0.081653 -0.000000 2.000000
v -0.918347 -0.000000 2.000000
v -0.918347 -0.000000 1.918347
v -1.000000 -0.000000 1.918347
v -1.000000 -0.000000 2.000000
v -2.000000 -0.000000 1.418347
v -2.000000 -0.000000 1.500000
v -0.918347 -0.000000 0.081653
v -0.918347 0.000000 0.000000
v -1.000000 0.000000 0.000000
v -1.000000 -0.000000 0.081653
v -2.000000 -0.000000 0.500000
v -2.000000 -0.000000 0.581653
v -0.081653 0.020000 2.000000
v -0.081653 0.020000 0.000000
v -0.154865 0.020000 0.000000
v -0.154865 0.020000 2.000000
v -0.154865 0.010000 0.000000
v -0.154865 0.010000 2.000000
v -0.918347 0.020000 1.918347
v -0.845135 0.020000 2.000000
v -0.845135 0.020000 1.836695
v -1.000000 0.020000 1.836695
v -1.000000 0.020000 1.918347
v -2.000000 0.020000 1.345135
v -2.000000 0.020000 1.418347
v -0.918347 0.020000 2.000000
v -0.845135 0.010000 1.836695
v -0.845135 0.010000 2.000000
v -1.000000 0.010000 1.836695
v -2.000000 0.010000 1.345135
v -0.918347 0.020000 0.000000
v -0.918347 0.020000 0.081653
v -1.000000 0.020000 0.081653
v -2.000000 0.020000 0.581653
v -0.845135 0.020000 0.163305
v -0.845135 0.020000 0.000000
v -1.000000 0.020000 0.163305
v -2.000000 0.020000 0.654865
v -2.000000 0.010000 0.654865
v -1.000000 0.010000 0.163305
v -0.845135 0.010000 0.163305
v -0.845135 0.010000 0.000000
vt 0.000000 78.740158
vt 0.000000 0.000000
vt 3.214670 0.000000
vt 3.214670 78.740158
vt 36.155411 78.740158
vt 36.155411 75.525490
vt 39.370079 75.525490
vt 39.370079 78.740158
vt 78.740158 55.840450
vt 78.740158 59.055119
vt 39.370079 0.000000
vt 39.370079 3.214670
vt 36.155411 3.214670
vt 36.155411 0.000000
vt 78.740158 19.685040
vt 78.740158 22.899710
vt 3.214670 78.740158
vt 3.214670 0.000000
vt 6.097044 0.000000
vt 6.097044 78.740158
vt 0.000000 0.787402
vt 0.000000 0.393701
vt 78.740158 0.393701
vt 78.740158 0.787402
vt 0.000000 0.000000
vt 0.000000 0.787402
vt -78.740158 0.787402
vt -78.740158 0.000000
vt 36.155411 75.525490
vt 33.273041 78.740158
vt 33.273041 72.310806
vt 39.370079 72.310806
vt 78.740158 52.958069
vt 39.370079 75.525490
vt 78.740158 55.840450
vt -36.155411 0.787402
vt -39.370079 0.787402
vt -39.370079 -0.000000
vt 75.525490 0.787402
vt 75.525490 -0.000000
vt 78.740158 -0.000000
vt -72.310806 0.393701
vt -72.310806 0.787402
vt -78.740158 0.787402
vt -78.740158 0.393701
vt 33.273041 0.393701
vt 39.370079 0.393701
vt 39.370079 0.787402
vt 3.432693 0.393701
vt 47.302181 0.393701
vt 47.302181 0.787402
vt -45.454731 -0.000000
vt -1.437644 -0.000000
vt -1.437644 0.787402
vt -45.454731 0.787402
vt 0.000000 0.787402
vt 0.000000 0.000000
vt 3.214670 0.000000
vt 36.155411 0.787402
vt 36.155411 -0.000000
vt 39.370079 -0.000000
vt 36.651310 0.000000
vt 80.668404 -0.000000
vt 80.668404 0.787402
vt 36.155411 0.000000
vt 36.155411 3.214670
vt 33.273041 6.429340
vt 39.370079 3.214670
vt 39.370079 6.429340
vt 78.740158 22.899710
vt 78.740158 25.782080
vt -82.037903 0.787402
vt -82.037903 0.393701
vt -38.168411 0.393701
vt -38.168411 0.787402
vt 36.155411 78.740158
vt -36.155411 -0.000000
vt 78.740158 0.787402
vt 33.273041 0.787402
vt 3.432693 0.787402
vt 3.214670 0.787402
vt 39.370079 0.787402
vt 36.651310 0.787402
vt 33.273041 0.000000
vt -39.370079 0.393701
vt -33.273041 0.393701
vt -33.273041 0.787402
vt -39.370079 0.787402
vt 0.000000 0.393701
vt 0.000000 0.787402
vt -6.429340 0.787402
vt -6.429340 0.393701
vt 33.273041 72.310806
vt 33.273041 6.429340
vt 39.370079 6.429340
vt 39.370079 72.310806
vt 78.740158 25.782080
vt 78.740158 52.958069
vt 33.273041 78.740158
vt 6.097044 78.740158
vt 6.097044 0.000000
vt 33.273041 0.000000
vn 0.0000 1.0000 0.0000
vn -1.0000 0.0000 0.0000
vn 1.0000 0.0000 0.0000
vn 0.0000 0.0000 1.0000
vn 0.0000 0.0000 -1.0000
vn 0.4411 0.0000 -0.8974
vn -0.4472 0.0000 0.8944
vn -0.4472 0.0000 -0.8944
vn 0.4411 0.0000 0.8974
vn -0.0090 1.0000 -0.0000
vn -0.0022 1.0000 0.0000
usemtl grass.021
s 1
f 1/1/1 2/2/1 3/3/1
f 3/3/1 4/4/1 1/1/1
f 5/5/1 6/6/1 7/7/1
f 7/7/1 8/8/1 5/5/1
f 7/7/1 9/9/1 8/8/1
f 9/9/1 10/10/1 8/8/1
f 13/11/1 14/12/1 11/13/1
f 11/13/1 12/14/1 13/11/1
f 13/11/1 15/15/1 14/12/1
f 15/15/1 16/16/1 14/12/1
usemtl grey.065
f 17/17/1 18/18/1 19/19/1
f 19/19/1 20/20/1 17/17/1
f 19/21/2 21/22/2 22/23/2
f 22/23/2 20/24/2 19/21/2
f 3/25/3 18/26/3 17/27/3
f 17/27/3 4/28/3 3/25/3
f 23/29/1 24/30/1 25/31/1
f 25/31/1 26/32/1 23/29/1
f 26/32/1 28/33/1 27/34/1
f 28/33/1 29/35/1 27/34/1
f 23/36/4 27/37/4 7/38/4
f 23/39/2 6/40/2 5/41/2
f 31/42/3 25/43/3 24/44/3
f 24/44/3 32/45/3 31/42/3
f 31/46/5 33/47/5 26/48/5
f 33/49/6 34/50/6 28/51/6
f 9/52/7 7/53/7 27/54/7
f 27/54/7 29/55/7 9/52/7
f 35/56/2 12/57/2 11/58/2
f 36/59/5 11/60/5 14/61/5
f 14/62/8 16/63/8 38/64/8
f 35/65/1 36/66/1 39/67/1
f 36/66/1 37/68/1 41/69/1
f 38/70/1 42/71/1 41/69/1
f 42/72/9 43/73/9 44/74/9
f 44/74/9 41/75/9 42/72/9
f 26/32/1 27/34/1 23/29/1
f 24/30/1 23/29/1 30/76/1
f 7/38/4 6/77/4 23/36/4
f 5/41/2 30/78/2 23/39/2
f 26/48/5 25/79/5 31/46/5
f 28/51/6 26/80/6 33/49/6
f 11/58/2 36/81/2 35/56/2
f 14/61/5 37/82/5 36/59/5
f 38/64/8 37/83/8 14/62/8
f 39/67/1 40/84/1 35/65/1
f 36/66/1 41/69/1 39/67/1
f 37/68/1 38/70/1 41/69/1
f 44/85/4 45/86/4 39/87/4
f 39/87/4 41/88/4 44/85/4
f 46/89/3 40/90/3 39/91/3
f 39/91/3 45/92/3 46/89/3
usemtl road.044
f 31/93/10 45/94/11 44/95/1
f 44/95/1 33/96/1 31/93/10
f 44/95/1 43/97/1 33/96/1
f 43/97/1 34/98/1 33/96/1
f 45/94/11 31/93/10 32/99/1
f 22/100/1 21/101/1 46/102/1
f 46/102/1 45/94/11 32/99/1
f 46/102/1 32/99/1 22/100/1
