# Blender v3.1.2 OBJ File: ''
# www.blender.org
mtllib roadCornerLargeSand.mtl
o roadCornerLargeSand
v 0.508355 -0.000000 0.330231
v 0.530000 0.000000 0.000000
v 0.000000 0.000000 0.000000
v 0.443792 -0.000000 0.654812
v 0.337415 -0.000000 0.968189
v 0.191044 -0.000000 1.265000
v 0.007184 -0.000000 1.540166
v -0.017110 -0.000000 0.261052
v -0.211020 -0.000000 1.788980
v -0.068148 -0.000000 0.517638
v -0.152241 -0.000000 0.765367
v -0.267949 -0.000000 1.000000
v -0.459834 -0.000000 2.007184
v -0.413293 -0.000000 1.217523
v -0.585786 -0.000000 1.414214
v -0.735000 -0.000000 2.191044
v -0.782477 -0.000000 1.586707
v -1.031811 -0.000000 2.337415
v -1.000000 -0.000000 1.732051
v -1.234633 -0.000000 1.847759
v -1.345188 -0.000000 2.443792
v -1.482362 -0.000000 1.931852
v -1.669769 -0.000000 2.508355
v -1.738948 -0.000000 1.982890
v -2.000000 -0.000000 2.530000
v -2.000000 -0.000000 2.000000
vt -20.014000 13.001230
vt -20.866140 0.000000
vt 0.000000 0.000000
vt -17.472139 25.780010
vt -13.284060 38.117680
vt -7.521428 49.803150
vt 0.673633 10.277650
vt 8.307868 70.432289
vt -0.282833 60.636471
vt 2.683006 20.379450
vt 5.993738 30.132549
vt 10.549180 39.370079
vt 16.271391 47.933971
vt 18.103689 79.022987
vt 23.062460 55.677700
vt 28.937010 86.261589
vt 30.806190 62.468769
vt 58.360710 76.057152
vt 65.738930 98.754150
vt 52.960152 96.212303
vt 68.462502 78.066528
vt 78.740158 78.740158
vt 78.740158 99.606300
vt 40.622478 92.024223
vt 39.370079 68.190979
vt 48.607601 72.746422
vn -0.0000 1.0000 0.0000
usemtl sand.002
s 1
f 1/1/1 2/2/1 3/3/1
f 3/3/1 4/4/1 1/1/1
f 3/3/1 5/5/1 4/4/1
f 3/3/1 6/6/1 5/5/1
f 8/7/1 9/8/1 7/9/1
f 8/7/1 10/10/1 9/8/1
f 10/10/1 11/11/1 9/8/1
f 12/12/1 14/13/1 13/14/1
f 14/13/1 15/15/1 13/14/1
f 15/15/1 16/16/1 13/14/1
f 15/15/1 17/17/1 16/16/1
f 22/18/1 23/19/1 21/20/1
f 22/18/1 24/21/1 23/19/1
f 24/21/1 26/22/1 25/23/1
f 3/3/1 7/9/1 6/6/1
f 3/3/1 8/7/1 7/9/1
f 11/11/1 12/12/1 9/8/1
f 12/12/1 13/14/1 9/8/1
f 17/17/1 18/24/1 16/16/1
f 17/17/1 19/25/1 18/24/1
f 19/25/1 20/26/1 18/24/1
f 20/26/1 21/20/1 18/24/1
f 20/26/1 22/18/1 21/20/1
f 24/21/1 25/23/1 23/19/1
