# Blender v3.1.2 OBJ File: ''
# www.blender.org
mtllib roadCornerLargerWallInner.mtl
o roadCornerLargerWallInner
v -1.770244 0.040000 0.710000
v -1.770244 -0.000000 0.710000
v -1.873438 -0.000000 0.864441
v -1.873438 0.040000 0.864441
v -2.437455 -0.000000 1.358103
v -2.265000 -0.000000 1.273057
v -2.265000 0.040000 1.273057
v -2.437455 0.040000 1.358103
v -1.592148 0.040000 0.185347
v -1.592148 -0.000000 0.185347
v -1.628385 -0.000000 0.367523
v -1.628385 0.040000 0.367523
v -1.542576 0.040000 0.191874
v -1.530000 0.040000 0.000000
v -1.580000 0.040000 0.000000
v -1.580089 0.040000 0.380464
v -1.833771 0.040000 0.894879
v -1.726943 0.040000 0.735000
v -1.960553 0.040000 1.039447
v -1.995908 0.040000 1.004092
v -1.580000 0.000000 0.000000
v -2.619536 -0.000000 1.419911
v -2.619536 0.040000 1.419911
v -2.290000 0.040000 1.229756
v -2.456589 0.040000 1.311909
v -2.632477 0.040000 1.371615
v -1.726943 -0.000000 0.735000
v -1.833771 -0.000000 0.894879
v -1.530000 0.000000 0.000000
v -1.995908 -0.000000 1.004092
v -2.456589 -0.000000 1.311909
v -2.632477 -0.000000 1.371615
v -1.542576 -0.000000 0.191874
v -1.580089 -0.000000 0.380464
v -2.290000 -0.000000 1.229756
v -1.960553 -0.000000 1.039447
v -2.808126 0.040000 1.457424
v -2.814653 0.040000 1.407852
v -3.000000 0.040000 1.470000
v -3.000000 0.040000 1.420000
v -3.000000 -0.000000 1.420000
v -3.000000 -0.000000 1.470000
v -2.135559 -0.000000 1.126562
v -2.135559 0.040000 1.126562
v -2.808126 -0.000000 1.457424
v -1.688091 0.040000 0.543410
v -1.688091 -0.000000 0.543410
v -2.105121 -0.000000 1.166229
v -2.105121 0.040000 1.166229
v -1.641897 0.040000 0.562545
v -1.641897 -0.000000 0.562545
v -2.814653 -0.000000 1.407852
vt 61.962139 1.574803
vt 61.962139 0.000000
vt 69.274933 0.000000
vt 69.274933 1.574803
vt -109.714996 0.000000
vt -102.144699 0.000000
vt -102.144699 1.574803
vt 19.385771 1.574803
vt 19.385771 0.000000
vt 26.698561 0.000000
vt 62.204720 0.000000
vt 62.682999 7.297133
vt 62.208229 14.978900
vt 72.195686 35.231468
vt 67.989868 28.937010
vt 69.694641 27.952749
vt 73.757408 34.033119
vt 77.187134 40.923111
vt 4.068384 1.574803
vt 4.068384 0.000000
vt 11.381170 0.000000
vt -115.627296 0.000000
vt -108.056999 0.000000
vt -108.056999 1.574803
vt 95.962807 53.468620
vt 89.173233 50.120369
vt 90.157478 48.415588
vt 96.716133 51.649960
vt 103.131302 55.902012
vt -61.833389 0.000000
vt -61.833389 1.574803
vt -69.403671 1.574803
vt 60.236221 0.000000
vt 62.204720 0.000000
vt 62.204720 1.574803
vt 60.236221 1.574803
vt 74.219093 1.574803
vt 74.219093 0.000000
vt 81.531883 0.000000
vt 108.185699 0.000000
vt 115.498497 0.000000
vt 115.498497 1.574803
vt 102.273499 0.000000
vt 109.586304 0.000000
vt 109.586304 1.574803
vt -3.939637 0.000000
vt -3.939637 1.574803
vt -11.509920 1.574803
vt -11.509920 0.000000
vt -74.090347 0.000000
vt -74.090347 1.574803
vt -81.660629 1.574803
vt -81.660629 0.000000
vt -109.714996 1.574803
vt 26.698561 1.574803
vt 60.731339 7.554075
vt 60.236221 0.000000
vt 64.109657 14.469410
vt 78.579071 39.531170
vt 11.381170 1.574803
vt -115.627296 1.574803
vt 103.640800 54.000580
vt -69.403671 0.000000
vt 81.531883 1.574803
vt 108.185699 1.574803
vt -19.257021 0.000000
vt -19.257021 1.574803
vt -26.827299 1.574803
vt -26.827299 0.000000
vt 102.273499 1.574803
vt 110.813103 55.427231
vt 110.556198 57.378891
vt 55.905510 1.574803
vt 55.905510 0.000000
vt 57.874020 0.000000
vt 57.874020 1.574803
vt 85.143593 0.000000
vt 92.456383 0.000000
vt 92.456383 1.574803
vt 85.143593 1.574803
vt -114.072197 1.574803
vt -121.642502 1.574803
vt -121.642502 0.000000
vt 55.895222 0.000000
vt 55.895222 1.574803
vt 48.582432 1.574803
vt 101.861504 1.574803
vt 94.548683 1.574803
vt 94.548683 0.000000
vt -101.990196 0.000000
vt -94.419930 0.000000
vt -94.419930 1.574803
vt -101.990196 1.574803
vt 64.641617 22.147430
vt 41.621689 0.000000
vt 41.621689 1.574803
vt 34.308899 1.574803
vt -48.453678 0.000000
vt -48.453678 1.574803
vt -56.023960 1.574803
vt 119.497200 1.574803
vt 112.184402 1.574803
vt 112.184402 0.000000
vt -112.055603 1.574803
vt -119.625900 1.574803
vt -119.625900 0.000000
vt 121.513702 1.574803
vt 114.200996 1.574803
vt 114.200996 0.000000
vt 118.110199 57.874020
vt 118.110199 55.905510
vt -114.072197 0.000000
vt 48.582432 0.000000
vt 101.861504 0.000000
vt 66.460281 21.394110
vt -92.585121 0.000000
vt -85.014839 0.000000
vt -85.014839 1.574803
vt -92.585121 1.574803
vt 34.308899 0.000000
vt 82.878769 45.914539
vt 84.077118 44.352829
vt -56.023960 0.000000
vt 119.497200 0.000000
vt -112.055603 0.000000
vt -34.180149 0.000000
vt -34.180149 1.574803
vt -41.750431 1.574803
vt -41.750431 0.000000
vt 121.513702 0.000000
vn -0.8315 0.0000 -0.5556
vn -0.7934 0.0000 -0.6088
vn -0.7933 0.0000 -0.6088
vn 0.3827 0.0000 0.9239
vn 0.4423 0.0000 0.8969
vn -0.9914 0.0000 -0.1305
vn -0.9808 0.0000 -0.1951
vn -0.0000 1.0000 0.0000
vn -0.9979 0.0000 -0.0654
vn 0.3214 0.0000 0.9469
vn 0.8315 0.0000 0.5556
vn 0.7934 0.0000 0.6088
vn 0.0000 0.0000 -1.0000
vn -0.7518 0.0000 -0.6593
vn -0.3827 0.0000 -0.9239
vn -0.3214 0.0000 -0.9469
vn -0.4423 0.0000 -0.8969
vn 0.9979 0.0000 0.0654
vn 0.9914 0.0000 0.1305
vn 0.7518 0.0000 0.6593
vn 0.9808 0.0000 0.1951
vn -1.0000 0.0000 0.0000
vn -0.6593 0.0000 -0.7518
vn -0.6088 0.0000 -0.7934
vn 0.1305 0.0000 0.9914
vn 0.0654 0.0000 0.9979
vn -0.8969 0.0000 -0.4423
vn -0.9239 -0.0000 -0.3827
vn -0.5556 0.0000 -0.8315
vn 0.5556 0.0000 0.8315
vn 0.6088 0.0000 0.7934
vn -0.9469 0.0000 -0.3214
vn 0.9239 0.0000 0.3827
vn 0.8969 0.0000 0.4423
vn -0.1305 0.0000 -0.9914
vn -0.1951 0.0000 -0.9808
vn 0.1951 0.0000 0.9808
vn -0.0654 0.0000 -0.9979
vn 0.6593 0.0000 0.7518
vn 0.9469 0.0000 0.3214
usemtl red.026
s 1
f 1/1/1 2/2/1 3/3/2
f 3/3/2 4/4/3 1/1/1
f 5/5/4 6/6/5 7/7/5
f 9/8/6 10/9/6 11/10/7
f 15/11/8 9/12/8 16/13/8
f 17/14/8 18/15/8 1/16/8
f 1/16/8 4/17/8 17/14/8
f 4/17/8 19/18/8 17/14/8
f 15/19/9 21/20/9 10/21/6
f 22/22/10 5/23/4 8/24/4
f 8/25/8 7/26/8 24/27/8
f 24/27/8 25/28/8 8/25/8
f 25/28/8 23/29/8 8/25/8
f 27/30/11 18/31/11 17/32/12
f 29/33/13 21/34/13 15/35/13
f 15/35/13 14/36/13 29/33/13
f 4/37/3 3/38/2 30/39/14
f 31/40/15 32/41/16 26/42/16
f 35/43/17 31/44/15 25/45/15
f 29/46/18 14/47/18 13/48/19
f 13/48/19 33/49/19 29/46/18
f 28/50/12 17/51/12 19/52/20
f 19/52/20 36/53/20 28/50/12
f 7/7/5 8/54/4 5/5/4
f 11/10/7 12/55/7 9/8/6
f 13/56/8 14/57/8 15/11/8
f 15/11/8 16/13/8 13/56/8
f 9/12/8 12/58/8 16/13/8
f 4/17/8 20/59/8 19/18/8
f 10/21/6 9/60/6 15/19/9
f 8/24/4 23/61/10 22/22/10
f 25/28/8 26/62/8 23/29/8
f 17/32/12 28/63/12 27/30/11
f 30/39/14 20/64/14 4/37/3
f 26/42/16 25/65/15 31/40/15
f 33/66/19 13/67/19 16/68/21
f 16/68/21 34/69/21 33/66/19
f 25/45/15 24/70/17 35/43/17
usemtl white.005
f 26/62/8 38/71/8 37/72/8
f 40/73/22 41/74/22 42/75/22
f 42/75/22 39/76/22 40/73/22
f 30/77/23 43/78/24 44/79/24
f 44/79/24 20/80/23 30/77/23
f 37/81/25 39/82/26 42/83/26
f 2/84/27 1/85/27 46/86/28
f 24/87/29 44/88/24 43/89/24
f 6/90/30 48/91/31 49/92/31
f 49/92/31 7/93/30 6/90/30
f 50/94/8 16/13/8 12/58/8
f 47/95/28 46/96/28 12/97/32
f 51/98/33 50/99/33 18/100/34
f 38/101/35 26/102/36 32/103/36
f 23/104/37 37/105/25 45/106/25
f 40/107/38 38/108/35 52/109/35
f 37/72/8 23/29/8 26/62/8
f 38/71/8 39/110/8 37/72/8
f 38/71/8 40/111/8 39/110/8
f 42/83/26 45/112/25 37/81/25
f 46/86/28 47/113/28 2/84/27
f 43/89/24 35/114/29 24/87/29
f 12/58/8 46/115/8 50/94/8
f 46/115/8 18/15/8 50/94/8
f 46/115/8 1/16/8 18/15/8
f 48/116/31 36/117/39 19/118/39
f 19/118/39 49/119/31 48/116/31
f 12/97/32 11/120/32 47/95/28
f 49/121/8 19/18/8 20/59/8
f 20/59/8 44/122/8 49/121/8
f 44/122/8 7/26/8 49/121/8
f 44/122/8 24/27/8 7/26/8
f 18/100/34 27/123/34 51/98/33
f 32/103/36 52/124/35 38/101/35
f 45/106/25 22/125/37 23/104/37
f 34/126/40 16/127/40 50/128/33
f 50/128/33 51/129/33 34/126/40
f 52/109/35 41/130/38 40/107/38
