# Blender v3.1.2 OBJ File: ''
# www.blender.org
mtllib roadCornerLargeBorder.mtl
o roadCornerLargeBorder
v -2.000000 0.020000 2.210000
v -1.711537 0.020000 2.191093
v -1.738948 0.020000 1.982890
v -2.000000 0.020000 2.000000
v -2.000000 -0.000000 2.210000
v -1.711537 -0.000000 2.191093
v -1.738948 -0.000000 1.982890
v -2.000000 -0.000000 2.000000
v -1.428010 0.020000 2.134696
v -1.154270 0.020000 2.041774
v -1.234633 0.020000 1.847759
v -1.482362 0.020000 1.931852
v -1.234633 -0.000000 1.847759
v -1.482362 -0.000000 1.931852
v -1.428010 -0.000000 2.134696
v -1.154270 -0.000000 2.041774
v -0.895000 0.020000 1.913916
v -0.654637 0.020000 1.753311
v -0.782477 0.020000 1.586707
v -1.000000 0.020000 1.732051
v -0.782477 -0.000000 1.586707
v -1.000000 -0.000000 1.732051
v -0.895000 -0.000000 1.913916
v -0.654637 -0.000000 1.753311
v -0.437294 0.020000 1.562706
v -0.246689 0.020000 1.345363
v -0.413293 0.020000 1.217523
v -0.585786 0.020000 1.414214
v -0.413293 -0.000000 1.217523
v -0.585786 -0.000000 1.414214
v -0.246689 -0.000000 1.345363
v -0.437294 -0.000000 1.562706
v -0.086084 0.020000 1.105000
v 0.041774 0.020000 0.845730
v -0.152241 0.020000 0.765367
v -0.267949 0.020000 1.000000
v -0.152241 -0.000000 0.765367
v -0.267949 -0.000000 1.000000
v 0.041774 -0.000000 0.845730
v -0.086084 -0.000000 1.105000
v 0.134696 0.020000 0.571990
v 0.191093 0.020000 0.288463
v -0.017110 0.020000 0.261052
v -0.068148 0.020000 0.517638
v -0.017110 -0.000000 0.261052
v -0.068148 -0.000000 0.517638
v 0.191093 -0.000000 0.288463
v 0.134696 -0.000000 0.571990
v 0.210000 0.020000 0.000000
v 0.000000 0.020000 0.000000
v 0.000000 0.000000 0.000000
v 0.210000 0.000000 0.000000
vt 78.740158 87.007874
vt 67.383347 86.263512
vt 68.462502 78.066528
vt 78.740158 78.740158
vt -84.262154 0.000000
vt -72.880981 0.000000
vt -72.880981 0.787402
vt -84.262154 0.787402
vt 73.421707 0.000000
vt 83.721420 0.000000
vt 83.721420 0.787402
vt 73.421707 0.787402
vt 78.740158 0.787402
vt 78.740158 0.000000
vt 87.007874 0.000000
vt 69.411583 0.000000
vt 79.711281 0.000000
vt 79.711281 0.787402
vt 69.411583 0.787402
vt -80.252007 0.000000
vt -68.870842 0.000000
vt -68.870842 0.787402
vt 60.320190 0.000000
vt 70.619904 0.000000
vt 70.619904 0.787402
vt -71.160637 0.000000
vt -59.779461 0.000000
vt -59.779461 0.787402
vt 46.767139 0.787402
vt 46.767139 -0.000000
vt 57.066841 -0.000000
vt -46.226410 0.000000
vt -46.226410 0.787402
vt -57.607578 0.787402
vt -57.607578 0.000000
vt 3.389128 43.503941
vt -1.644637 33.296471
vt 5.993738 30.132549
vt 10.549180 39.370079
vt 39.975731 0.000000
vt 39.975731 0.787402
vt 29.676029 0.787402
vt -29.135290 0.000000
vt -29.135290 0.787402
vt -40.516472 0.787402
vt -5.302995 22.519291
vt -7.523352 11.356810
vt 0.673633 10.277650
vt 10.211590 0.787402
vt 10.211590 0.000000
vt 20.511299 0.000000
vt -9.670856 0.000000
vt -9.670856 0.787402
vt -21.052031 0.787402
vt -21.052031 0.000000
vt 87.007874 0.787402
vt 56.220860 84.043152
vt 45.443691 80.384804
vt 48.607601 72.746422
vt 58.360710 76.057152
vt -80.252007 0.787402
vt 35.236221 75.351028
vt 25.773121 69.027977
vt 30.806190 62.468769
vt 39.370079 68.190979
vt 60.320190 0.787402
vt -71.160637 0.787402
vt 17.216299 61.523861
vt 9.712170 52.967041
vt 16.271391 47.933971
vt 23.062460 55.677700
vt 57.066841 0.787402
vt 29.676029 0.000000
vt -40.516472 0.000000
vt 2.683006 20.379450
vt 20.511299 0.787402
vt 72.077332 0.000000
vt 82.377037 0.000000
vt 82.377037 0.787402
vt 72.077332 0.787402
vt -82.917778 0.000000
vt -71.536598 0.000000
vt -71.536598 0.787402
vt -82.917778 0.787402
vt 75.769753 0.787402
vt 65.470047 0.787402
vt 65.470047 0.000000
vt -76.310493 0.000000
vt -64.929314 0.000000
vt -64.929314 0.787402
vt -64.890572 -0.000000
vt -53.509399 -0.000000
vt -53.509399 0.787402
vt 48.895538 0.000000
vt 48.895538 0.787402
vt 38.595840 0.787402
vt -38.055099 0.000000
vt -38.055099 0.787402
vt -49.436279 0.787402
vt 30.460051 0.000000
vt 30.460051 0.787402
vt 20.160339 0.787402
vt -8.267716 0.000000
vt 0.000000 0.000000
vt 10.299710 0.000000
vt 10.299710 0.787402
vt 0.000000 0.787402
vt 0.540735 0.000000
vt 0.540735 0.787402
vt -10.840440 0.787402
vt -10.840440 0.000000
vt -8.267716 0.787402
vt -8.267716 0.000000
vt 75.769753 0.000000
vt -76.310493 0.787402
vt 54.050129 -0.000000
vt 64.349838 -0.000000
vt 64.349838 0.787402
vt 54.050129 0.787402
vt -64.890572 0.787402
vt 38.595840 0.000000
vt -49.436279 0.000000
vt 20.160339 0.000000
vt -19.619610 0.000000
vt -19.619610 0.787402
vt -31.000780 0.787402
vt -31.000780 0.000000
vt 0.000000 0.000000
vn -0.0000 1.0000 0.0000
vn 0.0654 0.0000 0.9979
vn -0.0654 0.0000 -0.9979
vn -1.0000 0.0000 0.0000
vn -0.3214 0.0000 -0.9469
vn 0.3214 0.0000 0.9469
vn -0.5556 0.0000 -0.8315
vn 0.5556 0.0000 0.8315
vn -0.7518 0.0000 -0.6593
vn 0.7518 0.0000 0.6593
vn -0.8969 0.0000 -0.4423
vn 0.8969 0.0000 0.4423
vn -0.9808 0.0000 -0.1951
vn 0.9808 0.0000 0.1951
vn -0.1951 0.0000 -0.9808
vn 0.1951 0.0000 0.9808
vn -0.4423 0.0000 -0.8969
vn 0.4423 0.0000 0.8969
vn 0.6593 0.0000 0.7518
vn -0.8315 0.0000 -0.5556
vn 0.8315 0.0000 0.5556
vn -0.9469 0.0000 -0.3214
vn -0.9979 0.0000 -0.0654
vn 0.9979 0.0000 0.0654
vn 0.0000 0.0000 -1.0000
vn -0.6593 0.0000 -0.7518
vn 0.9469 0.0000 0.3214
usemtl white
s 1
f 1/1/1 2/2/1 3/3/1
f 3/3/1 4/4/1 1/1/1
f 5/5/2 6/6/2 2/7/2
f 2/7/2 1/8/2 5/5/2
f 7/9/3 8/10/3 4/11/3
f 4/11/3 3/12/3 7/9/3
f 4/13/4 8/14/4 5/15/4
f 13/16/5 14/17/5 12/18/5
f 12/18/5 11/19/5 13/16/5
f 15/20/6 16/21/6 10/22/6
f 21/23/7 22/24/7 20/25/7
f 23/26/8 24/27/8 18/28/8
f 27/29/9 29/30/9 30/31/9
f 31/32/10 26/33/10 25/34/10
f 25/34/10 32/35/10 31/32/10
f 33/36/1 34/37/1 35/38/1
f 35/38/1 36/39/1 33/36/1
f 38/40/11 36/41/11 35/42/11
f 39/43/12 34/44/12 33/45/12
f 41/46/1 42/47/1 43/48/1
f 43/49/13 45/50/13 46/51/13
f 47/52/14 42/53/14 41/54/14
f 41/54/14 48/55/14 47/52/14
f 5/15/4 1/56/4 4/13/4
f 9/57/1 10/58/1 11/59/1
f 11/59/1 12/60/1 9/57/1
f 10/22/6 9/61/6 15/20/6
f 17/62/1 18/63/1 19/64/1
f 19/64/1 20/65/1 17/62/1
f 20/25/7 19/66/7 21/23/7
f 18/28/8 17/67/8 23/26/8
f 25/68/1 26/69/1 27/70/1
f 27/70/1 28/71/1 25/68/1
f 30/31/9 28/72/9 27/29/9
f 35/42/11 37/73/11 38/40/11
f 33/45/12 40/74/12 39/43/12
f 43/48/1 44/75/1 41/46/1
f 46/51/13 44/76/13 43/49/13
usemtl red.021
f 14/77/15 7/78/15 3/79/15
f 3/79/15 12/80/15 14/77/15
f 6/81/16 15/82/16 9/83/16
f 9/83/16 2/84/16 6/81/16
f 10/58/1 17/62/1 20/65/1
f 11/85/17 20/86/17 22/87/17
f 16/88/18 23/89/18 17/90/18
f 18/63/1 25/68/1 28/71/1
f 24/91/19 32/92/19 25/93/19
f 26/69/1 33/36/1 36/39/1
f 29/94/20 27/95/20 36/96/20
f 40/97/21 33/98/21 26/99/21
f 34/37/1 41/46/1 44/75/1
f 44/75/1 35/38/1 34/37/1
f 37/100/22 35/101/22 44/102/22
f 42/47/1 49/103/1 50/104/1
f 45/105/23 43/106/23 50/107/23
f 52/108/24 49/109/24 42/110/24
f 42/110/24 47/111/24 52/108/24
f 50/107/25 49/112/25 52/113/25
f 2/2/1 9/57/1 12/60/1
f 12/60/1 3/3/1 2/2/1
f 20/65/1 11/59/1 10/58/1
f 22/87/17 13/114/17 11/85/17
f 17/90/18 10/115/18 16/88/18
f 28/71/1 19/64/1 18/63/1
f 30/116/26 21/117/26 19/118/26
f 19/118/26 28/119/26 30/116/26
f 25/93/19 18/120/19 24/91/19
f 36/39/1 27/70/1 26/69/1
f 36/96/20 38/121/20 29/94/20
f 26/99/21 31/122/21 40/97/21
f 44/102/22 46/123/22 37/100/22
f 48/124/27 41/125/27 34/126/27
f 34/126/27 39/127/27 48/124/27
f 50/104/1 43/48/1 42/47/1
f 50/107/23 51/128/23 45/105/23
f 52/113/25 51/128/25 50/107/25
