# Blender v3.1.2 OBJ File: ''
# www.blender.org
mtllib roadStraightLongMid.mtl
o roadStraightLongMid
v -0.918347 -0.000000 2.000000
v -0.918347 0.000000 0.000000
v -1.000000 0.000000 0.000000
v -1.000000 -0.000000 2.000000
v 0.000000 -0.000000 2.000000
v 0.000000 0.000000 0.000000
v -0.081653 0.000000 0.000000
v -0.081653 -0.000000 2.000000
v -0.845135 0.020000 2.000000
v -0.845135 0.020000 0.000000
v -0.918347 0.020000 0.000000
v -0.918347 0.020000 2.000000
v -0.845135 0.010000 0.000000
v -0.845135 0.010000 2.000000
v -0.081653 0.020000 0.000000
v -0.081653 0.020000 2.000000
v -0.154865 0.020000 0.000000
v -0.154865 0.020000 2.000000
v -0.154865 0.010000 0.000000
v -0.154865 0.010000 2.000000
v -0.444092 0.020000 1.598957
v -0.444092 0.020000 0.401043
v -0.445997 0.020000 0.386573
v -0.445997 0.020000 1.613427
v -0.451582 0.020000 0.373089
v -0.451582 0.020000 1.626911
v -0.460467 0.020000 0.361510
v -0.460467 0.020000 1.638490
v -0.472046 0.020000 0.352625
v -0.472046 0.020000 1.647375
v -0.485530 0.020000 0.347040
v -0.485530 0.020000 1.652960
v -0.500000 0.020000 0.345135
v -0.500000 0.020000 1.654865
v -0.514470 0.020000 0.347040
v -0.514470 0.020000 1.652960
v -0.527954 0.020000 0.352625
v -0.527954 0.020000 1.647375
v -0.539533 0.020000 0.361510
v -0.539533 0.020000 1.638490
v -0.548418 0.020000 0.373089
v -0.548418 0.020000 1.626911
v -0.554003 0.020000 0.386573
v -0.554003 0.020000 1.613427
v -0.555908 0.020000 0.401043
v -0.555908 0.020000 1.598957
v -0.444092 0.010000 0.401043
v -0.444092 0.010000 1.598957
v -0.445997 0.010000 0.386573
v -0.451582 0.010000 0.373089
v -0.460467 0.010000 0.361510
v -0.472046 0.010000 0.352625
v -0.485530 0.010000 0.347040
v -0.500000 0.010000 0.345135
v -0.514470 0.010000 0.347040
v -0.527954 0.010000 0.352625
v -0.539533 0.010000 0.361510
v -0.548418 0.010000 0.373089
v -0.554003 0.010000 0.386573
v -0.555908 0.010000 0.401043
v -0.555908 0.010000 1.598957
v -0.554003 0.010000 1.613427
v -0.548418 0.010000 1.626911
v -0.539533 0.010000 1.638490
v -0.527954 0.010000 1.647375
v -0.514470 0.010000 1.652960
v -0.500000 0.010000 1.654865
v -0.485530 0.010000 1.652960
v -0.472046 0.010000 1.647375
v -0.460467 0.010000 1.638490
v -0.451582 0.010000 1.626911
v -0.445997 0.010000 1.613427
vt 36.155411 78.740158
vt 36.155411 0.000000
vt 39.370079 0.000000
vt 39.370079 78.740158
vt 0.000000 78.740158
vt 0.000000 0.000000
vt 3.214670 0.000000
vt 3.214670 78.740158
vt 33.273041 78.740158
vt 33.273041 0.000000
vt 36.155411 0.000000
vt 36.155411 78.740158
vt 78.740158 0.000000
vt 78.740158 0.787402
vt 0.000000 0.787402
vt 0.000000 0.000000
vt 0.000000 0.787402
vt -78.740158 0.787402
vt 78.740158 0.393701
vt 78.740158 0.787402
vt 0.000000 0.787402
vt 17.483931 62.951050
vt 17.483931 15.789110
vt 17.558929 15.219420
vt 17.558929 63.520741
vt 17.778820 14.688550
vt 18.128620 14.232690
vt 17.778820 64.051613
vt 18.584480 13.882890
vt 18.584480 64.857269
vt 18.128620 64.507469
vt 19.115351 13.663000
vt 19.115351 65.077164
vt 19.685040 13.588000
vt 20.254730 13.663000
vt 19.685040 65.152161
vt 20.785589 13.882890
vt 20.254730 65.077164
vt 20.785589 64.857269
vt 21.241461 14.232690
vt 21.591261 14.688550
vt 21.241461 64.507469
vt 21.591261 64.051613
vt -15.789110 0.393701
vt -15.789110 0.787402
vt -62.951050 0.787402
vt -7.341397 0.787402
vt -7.341397 0.393701
vt -6.766792 0.393701
vt -0.255546 0.393701
vt -0.255546 0.787402
vt -0.830151 0.787402
vt 5.718090 0.393701
vt 6.292695 0.393701
vt 6.292695 0.787402
vt 5.718090 0.787402
vt 17.168440 0.393701
vt 17.743040 0.393701
vt 17.743040 0.787402
vt 21.290220 0.393701
vt 21.864830 0.393701
vt 21.864830 0.787402
vt 21.290220 0.787402
vt 23.941530 0.393701
vt 24.516140 0.393701
vt 24.516140 0.787402
vt 24.222530 0.787402
vt 24.222530 0.393701
vt 24.797140 0.393701
vt 22.407669 0.393701
vt 22.407669 0.787402
vt 21.833071 0.787402
vt 15.789110 0.787402
vt 15.789110 0.393701
vt 62.951050 0.393701
vt 59.555779 0.787402
vt 59.555779 0.393701
vt 60.130390 0.393701
vt 60.130390 0.787402
vt 50.913349 0.393701
vt 50.913349 0.787402
vt 50.338749 0.787402
vt 37.671631 0.787402
vt 37.671631 0.393701
vt 38.246231 0.393701
vt 38.246231 0.787402
vt 22.417681 0.393701
vt 22.992279 0.393701
vt 22.992279 0.787402
vt -11.012570 0.787402
vt -11.587170 0.787402
vt -11.587170 0.393701
vt -28.020691 0.393701
vt -27.446091 0.393701
vt -27.446091 0.787402
vt -28.020691 0.787402
vt -54.226669 0.393701
vt -53.652061 0.393701
vt -53.652061 0.787402
vt -64.694603 0.393701
vt -64.694603 0.787402
vt -65.269211 0.787402
vt -65.269211 0.393701
vt 0.000000 0.393701
vt 0.000000 0.787402
vt -78.740158 0.787402
vt -78.740158 0.393701
vt 0.000000 0.000000
vt -78.740158 0.000000
vt 3.214670 78.740158
vt 3.214670 -0.000000
vt 6.097044 -0.000000
vt 6.097044 78.740158
vt 0.000000 0.393701
vt 21.811150 15.219420
vt 21.811150 63.520741
vt 21.886150 15.789110
vt 21.886150 62.951050
vt -62.951050 0.393701
vt -12.797310 0.393701
vt -12.797310 0.787402
vt -13.371920 0.787402
vt -13.371920 0.393701
vt -6.766792 0.787402
vt -0.830151 0.393701
vt 11.857070 0.393701
vt 12.431680 0.393701
vt 12.431680 0.787402
vt 11.857070 0.787402
vt 17.168440 0.787402
vt 23.941530 0.787402
vt 24.941690 0.393701
vt 25.516291 0.393701
vt 25.516291 0.787402
vt 24.941690 0.787402
vt 24.797140 0.787402
vt 21.833071 0.393701
vt 17.936140 0.787402
vt 17.936140 0.393701
vt 18.510750 0.393701
vt 18.510750 0.787402
vt 62.951050 0.787402
vt 50.338749 0.393701
vt 22.417681 0.787402
vt 5.616416 0.393701
vt 6.191022 0.393701
vt 6.191022 0.787402
vt 5.616416 0.787402
vt -11.012570 0.393701
vt -42.564232 0.393701
vt -41.989632 0.393701
vt -41.989632 0.787402
vt -42.564232 0.787402
vt -54.226669 0.787402
vt -61.638611 0.393701
vt -61.638611 0.787402
vt -62.213219 0.787402
vt -62.213219 0.393701
vt -65.405022 0.393701
vt -65.405022 0.787402
vt -65.979630 0.787402
vt -65.979630 0.393701
vt 17.558929 15.219420
vt 6.097044 78.740158
vt 6.097044 0.000000
vt 18.128620 14.232690
vt 17.778820 14.688550
vt 33.273041 0.000000
vt 18.584480 13.882890
vt 21.241461 14.232690
vt 20.785589 13.882890
vt 21.811150 15.219420
vt 21.591261 14.688550
vt 21.886150 15.789110
vt 21.886150 62.951050
vt 33.273041 78.740158
vt 21.811150 63.520741
vt 21.591261 64.051613
vt 19.685040 65.152161
vt 20.254730 65.077164
vt 19.115351 65.077164
vt 18.584480 64.857269
vt 17.778820 64.051613
vt 18.128620 64.507469
vt 17.558929 63.520741
vt 17.483931 15.789110
vt 17.483931 62.951050
vt 19.115351 13.663000
vt 19.685040 13.588000
vt 20.254730 13.663000
vt 21.241461 64.507469
vt 20.785589 64.857269
vn 0.0000 1.0000 0.0000
vn -1.0000 0.0000 0.0000
vn 1.0000 0.0000 0.0000
vn 0.9659 0.0000 -0.2588
vn 0.8660 0.0000 -0.5000
vn 0.7071 0.0000 -0.7071
vn 0.5000 0.0000 -0.8660
vn 0.2588 0.0000 -0.9659
vn -0.0000 0.0000 -1.0000
vn -0.2588 0.0000 -0.9659
vn -0.5000 0.0000 -0.8660
vn -0.7071 0.0000 -0.7071
vn -0.8660 0.0000 -0.5000
vn -0.9659 0.0000 -0.2588
vn -0.9914 0.0000 0.1305
vn -0.9659 0.0000 0.2588
vn -0.8660 0.0000 0.5000
vn -0.7071 0.0000 0.7071
vn -0.5000 0.0000 0.8660
vn 0.0000 0.0000 1.0000
vn -0.2588 0.0000 0.9659
vn 0.2588 0.0000 0.9659
vn 0.5000 0.0000 0.8660
vn 0.7071 0.0000 0.7071
vn 0.9914 0.0000 0.1305
vn 0.9659 0.0000 0.2588
vn 0.9914 0.0000 -0.1305
vn -0.9914 0.0000 -0.1305
vn 0.8660 0.0000 0.5000
usemtl grass.035
s 1
f 1/1/1 2/2/1 3/3/1
f 3/3/1 4/4/1 1/1/1
f 5/5/1 6/6/1 7/7/1
f 7/7/1 8/8/1 5/5/1
usemtl grey.080
f 9/9/1 10/10/1 11/11/1
f 11/11/1 12/12/1 9/9/1
f 1/13/2 12/14/2 11/15/2
f 7/16/3 15/17/3 16/18/3
f 20/19/2 18/20/2 17/21/2
f 21/22/1 22/23/1 23/24/1
f 23/24/1 24/25/1 21/22/1
f 23/24/1 25/26/1 24/25/1
f 25/26/1 27/27/1 26/28/1
f 29/29/1 30/30/1 28/31/1
f 31/32/1 32/33/1 30/30/1
f 31/32/1 33/34/1 32/33/1
f 33/34/1 35/35/1 34/36/1
f 35/35/1 37/37/1 36/38/1
f 37/37/1 38/39/1 36/38/1
f 37/37/1 39/40/1 38/39/1
f 39/40/1 41/41/1 40/42/1
f 41/41/1 42/43/1 40/42/1
f 47/44/3 22/45/3 21/46/3
f 23/47/4 49/48/4 50/49/5
f 51/50/6 27/51/6 25/52/5
f 51/53/6 52/54/7 29/55/7
f 29/55/7 27/56/6 51/53/6
f 53/57/8 54/58/9 33/59/9
f 54/60/9 55/61/10 35/62/10
f 35/62/10 33/63/9 54/60/9
f 55/64/10 56/65/11 37/66/11
f 39/67/12 57/68/12 58/69/13
f 59/70/14 43/71/14 41/72/13
f 45/73/2 60/74/2 61/75/2
f 46/76/15 61/77/15 62/78/16
f 62/78/16 44/79/16 46/76/15
f 63/80/17 42/81/17 44/82/16
f 42/83/17 63/84/17 64/85/18
f 64/85/18 40/86/18 42/83/17
f 64/87/18 65/88/19 38/89/19
f 34/90/20 36/91/21 66/92/21
f 67/93/20 68/94/22 32/95/22
f 32/95/22 34/96/20 67/93/20
f 69/97/23 70/98/24 28/99/24
f 48/100/25 21/101/25 24/102/26
f 24/102/26 72/103/26 48/100/25
f 13/104/3 10/105/3 9/106/3
f 9/106/3 14/107/3 13/104/3
f 11/15/2 2/108/2 1/13/2
f 16/18/3 8/109/3 7/16/3
f 16/110/1 15/111/1 17/112/1
f 17/112/1 18/113/1 16/110/1
f 17/21/2 19/114/2 20/19/2
f 25/26/1 26/28/1 24/25/1
f 27/27/1 28/31/1 26/28/1
f 27/27/1 29/29/1 28/31/1
f 29/29/1 31/32/1 30/30/1
f 33/34/1 34/36/1 32/33/1
f 35/35/1 36/38/1 34/36/1
f 39/40/1 40/42/1 38/39/1
f 41/41/1 43/115/1 42/43/1
f 43/115/1 44/116/1 42/43/1
f 43/115/1 45/117/1 44/116/1
f 45/117/1 46/118/1 44/116/1
f 21/46/3 48/119/3 47/44/3
f 49/120/4 23/121/4 22/122/27
f 22/122/27 47/123/27 49/120/4
f 50/49/5 25/124/5 23/47/4
f 25/52/5 50/125/5 51/50/6
f 52/126/7 53/127/8 31/128/8
f 31/128/8 29/129/7 52/126/7
f 33/59/9 31/130/8 53/57/8
f 37/66/11 35/131/10 55/64/10
f 56/132/11 57/133/12 39/134/12
f 39/134/12 37/135/11 56/132/11
f 58/69/13 41/136/13 39/67/12
f 41/72/13 58/137/13 59/70/14
f 43/138/14 59/139/14 60/140/28
f 60/140/28 45/141/28 43/138/14
f 61/75/2 46/142/2 45/73/2
f 44/82/16 62/143/16 63/80/17
f 38/89/19 40/144/18 64/87/18
f 65/145/19 66/146/21 36/147/21
f 36/147/21 38/148/19 65/145/19
f 66/92/21 67/149/20 34/90/20
f 68/150/22 69/151/23 30/152/23
f 30/152/23 32/153/22 68/150/22
f 28/99/24 30/154/23 69/97/23
f 71/155/29 26/156/29 28/157/24
f 28/157/24 70/158/24 71/155/29
f 72/159/26 24/160/26 26/161/29
f 26/161/29 71/162/29 72/159/26
usemtl road.061
f 49/163/1 20/164/1 19/165/1
f 19/165/1 51/166/1 50/167/1
f 13/168/1 52/169/1 51/166/1
f 13/168/1 57/170/1 56/171/1
f 13/168/1 59/172/1 58/173/1
f 13/168/1 60/174/1 59/172/1
f 13/168/1 61/175/1 60/174/1
f 61/175/1 13/168/1 14/176/1
f 62/177/1 61/175/1 14/176/1
f 63/178/1 62/177/1 14/176/1
f 67/179/1 66/180/1 14/176/1
f 68/181/1 67/179/1 14/176/1
f 69/182/1 68/181/1 14/176/1
f 20/164/1 71/183/1 70/184/1
f 20/164/1 72/185/1 71/183/1
f 20/164/1 47/186/1 48/187/1
f 19/165/1 50/167/1 49/163/1
f 19/165/1 13/168/1 51/166/1
f 49/163/1 47/186/1 20/164/1
f 13/168/1 53/188/1 52/169/1
f 13/168/1 54/189/1 53/188/1
f 13/168/1 55/190/1 54/189/1
f 13/168/1 56/171/1 55/190/1
f 13/168/1 58/173/1 57/170/1
f 64/191/1 63/178/1 14/176/1
f 65/192/1 64/191/1 14/176/1
f 66/180/1 65/192/1 14/176/1
f 70/184/1 69/182/1 14/176/1
f 70/184/1 14/176/1 20/164/1
f 20/164/1 48/187/1 72/185/1
