# Blender v3.1.2 OBJ File: ''
# www.blender.org
mtllib roadStart.mtl
o roadStart
v -0.130000 -0.000000 1.095000
v 0.000000 -0.000000 1.095000
v 0.000000 0.538200 1.095000
v -0.130000 0.538200 1.095000
v -0.001112 0.555168 1.095000
v -1.258888 0.555168 1.095000
v -1.255570 0.571846 1.095000
v -0.004430 0.571846 1.095000
v -1.250104 0.587949 1.095000
v -0.009896 0.587949 1.095000
v -1.242583 0.603200 1.095000
v -0.017417 0.603200 1.095000
v -1.233136 0.617339 1.095000
v -0.026864 0.617339 1.095000
v -1.221924 0.630124 1.095000
v -0.038076 0.630124 1.095000
v -1.209139 0.641336 1.095000
v -0.050861 0.641336 1.095000
v -1.195000 0.650783 1.095000
v -0.065000 0.650783 1.095000
v -1.179749 0.658304 1.095000
v -0.080251 0.658304 1.095000
v -1.163646 0.663770 1.095000
v -0.096354 0.663770 1.095000
v -1.146968 0.667088 1.095000
v -0.113032 0.667088 1.095000
v -1.130000 0.668200 1.095000
v -0.130000 0.668200 1.095000
v -1.260000 -0.000000 1.095000
v -1.130000 -0.000000 1.095000
v -1.130000 0.538200 1.095000
v -1.260000 0.538200 1.095000
v -1.221924 0.630124 0.965000
v -1.233136 0.617339 0.965000
v 0.000000 -0.000000 0.905000
v 0.000000 0.538200 0.965000
v -1.250104 0.587949 0.965000
v -1.255570 0.571846 0.965000
v -1.179749 0.658304 0.965000
v -1.195000 0.650783 0.965000
v -0.009896 0.587949 0.965000
v -0.017417 0.603200 0.965000
v -1.130000 -0.000000 0.905000
v -1.260000 -0.000000 0.905000
v -1.260000 0.538200 0.965000
v -1.130000 0.538200 0.965000
v -1.242583 0.603200 0.965000
v -1.163646 0.663770 0.965000
v -0.004430 0.571846 0.965000
v -1.130000 0.668200 0.965000
v -1.146968 0.667088 0.965000
v -1.209139 0.641336 0.965000
v -0.026864 0.617339 0.965000
v -0.038076 0.630124 0.965000
v -0.080251 0.658304 0.965000
v -0.096354 0.663770 0.965000
v -0.113032 0.667088 0.965000
v -0.001112 0.555168 0.965000
v -1.258888 0.555168 0.965000
v -0.130000 0.668200 0.965000
v -0.130000 0.538200 0.965000
v -0.130000 -0.000000 0.905000
v -0.253535 0.538200 0.965000
v -0.500606 0.538200 0.965000
v -0.759394 0.538200 0.965000
v -1.006465 0.538200 0.965000
v -0.050861 0.641336 0.965000
v -0.253535 0.668200 0.965000
v -0.253535 0.668200 0.915000
v -0.500606 0.668200 0.915000
v -0.500606 0.668200 0.965000
v -0.759394 0.668200 0.965000
v -1.006465 0.668200 0.965000
v -1.006465 0.668200 0.915000
v -0.759394 0.668200 0.915000
v -0.065000 0.650783 0.965000
v -0.975135 0.020000 2.000000
v -0.975135 0.020000 0.000000
v -1.048347 0.020000 0.000000
v -1.048347 0.020000 2.000000
v -0.975135 0.010000 0.000000
v -0.975135 0.010000 1.045914
v -0.975135 0.010000 1.095000
v -0.975135 0.010000 2.000000
v -1.048347 0.000000 0.000000
v -1.048347 -0.000000 2.000000
v -0.284865 0.020000 0.000000
v -0.284865 0.010000 0.000000
v -0.284865 0.010000 1.045914
v -0.284865 0.020000 2.000000
v -0.284865 0.010000 1.095000
v -0.284865 0.010000 2.000000
v -0.211653 0.000000 0.000000
v -0.211653 0.020000 0.000000
v -0.211653 0.020000 2.000000
v -0.211653 -0.000000 2.000000
v -0.759394 0.651277 0.915000
v -1.006465 0.651277 0.915000
v -0.253535 0.651277 0.915000
v -0.500606 0.651277 0.915000
v -1.130000 0.000000 0.000000
v -1.130000 -0.000000 2.000000
v -0.130000 0.000000 0.000000
v -0.130000 -0.000000 2.000000
vt -5.118110 -0.000000
vt -0.000000 -0.000000
vt -0.000000 21.188980
vt -5.118110 21.188980
vt -0.043786 21.857019
vt -49.431900 22.513639
vt -49.562511 21.857019
vt -0.389593 23.147591
vt -48.920601 23.748030
vt -49.216709 23.147591
vt -0.685697 23.748030
vt -1.057640 24.304680
vt -1.499060 24.808029
vt -48.107239 24.808029
vt -2.559055 25.621389
vt -3.159494 25.917490
vt -46.446800 25.917490
vt -45.812851 26.132690
vt -4.450063 26.263300
vt -44.488190 26.307091
vt -45.156231 26.263300
vt -5.118110 26.307091
vt -49.606300 -0.000000
vt -44.488190 -0.000000
vt -44.488190 21.188980
vt -49.606300 21.188980
vt 43.110241 -13.737130
vt 43.110241 -13.067650
vt 37.992130 -13.067650
vt -43.110241 0.000000
vt -35.629921 0.000000
vt -37.992130 21.188980
vt 37.992130 6.098961
vt 37.992130 5.429480
vt 43.110241 5.429480
vt 43.110241 6.098961
vt 43.110241 -30.863340
vt 43.110241 -30.193859
vt 37.992130 -30.193859
vt 37.992130 -30.863340
vt 43.110241 -1.007548
vt 43.110241 -0.338067
vt 37.992130 -0.338067
vt 43.110241 -35.650970
vt 43.110241 -34.981491
vt 37.992130 -34.981491
vt 37.992130 -35.650970
vt -37.992130 21.374901
vt -37.992130 22.044380
vt -43.110241 22.044380
vt 43.110241 -43.341850
vt 43.110241 -42.672371
vt 37.992130 -42.672371
vt 37.992130 -43.341850
vt 37.992130 -19.142389
vt 37.992130 -19.811871
vt 43.110241 -19.811871
vt -43.110241 18.970579
vt -37.992130 18.970579
vt -37.992130 19.640060
vt -43.110241 19.640060
vt -37.992130 11.322730
vt -37.992130 11.992210
vt -43.110241 11.992210
vt -43.110241 9.488272
vt -43.110241 8.818791
vt -37.992130 8.818791
vt 37.992130 18.568680
vt 37.992130 17.899200
vt 43.110241 17.899200
vt -37.992130 6.158237
vt -37.992130 6.827718
vt -43.110241 6.827718
vt 37.992130 -6.763583
vt 37.992130 -7.433064
vt 43.110241 -7.433064
vt -44.488190 43.110241
vt -19.708879 37.992130
vt -9.981702 37.992130
vt -29.897421 37.992130
vt -39.624599 37.992130
vt -43.110241 0.000000
vt -35.629921 0.000000
vt -37.992130 21.188980
vt -43.110241 21.188980
vt -43.110241 18.153601
vt -43.110241 17.484119
vt -37.992130 17.484119
vt -37.992130 18.153601
vt 0.000000 3.947665
vt 5.118110 3.947665
vt 5.118110 25.267910
vt 43.110241 -39.834339
vt 43.110241 -39.164860
vt 37.992130 -39.164860
vt 37.992130 -39.834339
vt 9.981702 37.992130
vt 19.708879 36.023621
vt 19.708879 37.992130
vt 44.488190 43.110241
vt 29.897421 37.992130
vt 39.624599 37.992130
vt 29.897421 36.023621
vt 39.624599 36.023621
vt -37.992130 20.126720
vt -37.992130 20.796200
vt -43.110241 20.796200
vt -37.992130 13.627200
vt -37.992130 14.296680
vt -43.110241 14.296680
vt 37.992130 21.188980
vt 35.629921 0.000000
vt 43.110241 0.000000
vt 38.391140 78.740158
vt 38.391140 0.000000
vt 41.273521 0.000000
vt 41.273521 78.740158
vt 0.000000 0.787402
vt 0.000000 0.000000
vt 78.740158 0.000000
vt 41.177700 0.393701
vt 78.740158 0.787402
vt 0.000000 0.787402
vt -78.740158 0.787402
vt -78.740158 0.000000
vt -0.000000 0.000000
vt 8.332781 78.740158
vt 8.332781 0.000000
vt 11.215150 -0.000000
vt 11.215150 78.740158
vt 29.897421 25.640850
vt 39.624599 25.640850
vt 39.624599 26.307091
vt 29.897421 26.307091
vt -37.992130 26.307091
vt -37.992130 21.188980
vt -36.023621 25.640850
vt 49.431900 22.513639
vt 49.216709 23.147591
vt 39.624599 26.307091
vt 48.920601 23.748030
vt 48.548660 24.304680
vt 48.107239 24.808029
vt 47.603901 25.249451
vt 47.047249 25.621389
vt 45.156231 26.263300
vt 44.488190 26.307091
vt 19.708879 26.307091
vt 9.981702 26.307091
vt 9.981702 25.640850
vt -36.023621 25.640850
vt -36.023621 26.307091
vt -37.992130 26.307091
vt -37.992130 21.188980
vt 19.708879 21.188980
vt 29.897421 21.188980
vt 29.897421 26.307091
vt 9.981702 21.188980
vt 0.043786 21.857019
vt 0.000000 21.188980
vt 9.981702 26.307091
vt 0.174395 22.513639
vt 1.057640 24.304680
vt 0.685697 23.748030
vt 1.499060 24.808029
vt 2.002402 25.249451
vt 3.159494 25.917490
vt 2.559055 25.621389
vt 3.793446 26.132690
vt 4.450063 26.263300
vt 5.118110 26.307091
vt -0.174395 22.513639
vt -48.548660 24.304680
vt -47.603901 25.249451
vt -2.002402 25.249451
vt -47.047249 25.621389
vt -3.793446 26.132690
vt 37.992130 -13.737130
vt -43.110241 21.188980
vt -37.992130 20.932760
vt -37.992130 21.602240
vt -43.110241 21.602240
vt -43.110241 20.932760
vt 44.488190 3.947665
vt 49.606300 3.947665
vt 49.606300 25.267910
vt 44.488190 25.267910
vt 37.992130 -1.007548
vt -43.110241 21.374901
vt 43.110241 -19.142389
vt -43.110241 11.322730
vt -37.992130 9.488272
vt -37.992130 21.143610
vt -37.992130 21.813089
vt -43.110241 21.813089
vt -43.110241 21.143610
vt 43.110241 18.568680
vt 43.110241 -25.553350
vt 43.110241 -24.883869
vt 37.992130 -24.883869
vt 37.992130 -25.553350
vt -43.110241 6.158237
vt 43.110241 -6.763583
vt 37.992130 21.188980
vt 35.629921 0.000000
vt 43.110241 0.000000
vt 43.110241 21.188980
vt -5.118110 37.992130
vt -5.118110 43.110241
vt -44.488190 37.992130
vt -37.992130 21.445589
vt -37.992130 22.115070
vt -43.110241 22.115070
vt -43.110241 21.445589
vt 37.992130 12.437360
vt 37.992130 11.767880
vt 43.110241 11.767880
vt 43.110241 12.437360
vt 0.000000 25.267910
vt 9.981702 36.023621
vt 5.118110 37.992130
vt 5.118110 43.110241
vt 44.488190 37.992130
vt -43.110241 16.362261
vt -43.110241 15.692780
vt -37.992130 15.692780
vt -37.992130 16.362261
vt -43.110241 20.126720
vt -43.110241 13.627200
vt 43.110241 21.188980
vt 0.000000 0.393701
vt 0.000000 0.787402
vt -78.740158 0.787402
vt -41.177700 0.393701
vt -43.110241 0.393701
vt -78.740158 0.393701
vt 78.740158 0.787402
vt 0.000000 0.393701
vt 43.110241 0.393701
vt 78.740158 0.393701
vt -0.000000 0.787402
vt 11.215150 43.110241
vt 11.215150 41.177700
vt 38.391140 41.177700
vt 38.391140 43.110241
vt -36.023621 26.307091
vt 36.023621 26.307091
vt 36.023621 25.640850
vt 37.992130 21.188980
vt 37.992130 26.307091
vt 44.488190 21.188980
vt 49.606300 21.188980
vt 49.562511 21.857019
vt 39.624599 21.188980
vt 46.446800 25.917490
vt 45.812851 26.132690
vt 19.708879 25.640850
vt 36.023621 26.307091
vt 36.023621 25.640850
vt 37.992130 21.188980
vt 37.992130 26.307091
vt 19.708879 26.307091
vt 5.118110 21.188980
vt 0.389593 23.147591
vt 44.488190 0.000000
vt 44.488190 43.110241
vt 44.488190 78.740158
vt 5.118110 35.629921
vt 8.332781 0.000000
vt 8.332781 78.740158
vt 5.118110 78.740158
vt 44.488190 35.629921
vt 41.273521 78.740158
vt 41.273521 0.000000
vt 5.118110 0.000000
vt 5.118110 43.110241
vt 11.215150 0.000000
vt 38.391140 0.000000
vt 11.215150 78.740158
vt 19.708879 8.882529
vt 9.981702 8.882529
vt 9.981702 4.014861
vt 38.391140 78.740158
vt 29.897421 4.014861
vt 39.624599 4.014861
vt 39.624599 8.882529
vt 29.897421 8.882529
vt 19.708879 4.014861
vn 0.0000 -0.0000 1.0000
vn -0.7934 0.6088 0.0000
vn -0.7071 0.7071 0.0000
vn 1.0000 0.0000 0.0000
vn -0.9239 0.3827 0.0000
vn -0.9659 0.2588 0.0000
vn -0.5000 0.8660 0.0000
vn -0.3827 0.9239 0.0000
vn -0.8660 0.5000 0.0000
vn -0.2588 0.9659 0.0000
vn 0.9659 0.2588 0.0000
vn 0.9239 0.3827 0.0000
vn -0.1305 0.9914 0.0000
vn -0.0654 0.9979 0.0000
vn -0.6088 0.7934 0.0000
vn 0.7934 0.6088 0.0000
vn 0.7071 0.7071 0.0000
vn 0.3827 0.9239 0.0000
vn 0.2588 0.9659 0.0000
vn 0.1305 0.9914 0.0000
vn -0.9914 0.1305 0.0000
vn -0.9979 0.0654 0.0000
vn 0.0654 0.9979 0.0000
vn 0.0000 -1.0000 -0.0000
vn 0.6088 0.7934 0.0000
vn 0.0000 0.1108 -0.9938
vn 0.0000 1.0000 0.0000
vn 0.8660 0.5000 0.0000
vn 0.5000 0.8660 0.0000
vn -1.0000 0.0000 0.0000
vn 0.0000 0.0000 -1.0000
vn 0.9979 0.0654 0.0000
vn 0.9914 0.1305 0.0000
vn 0.0000 0.0000 0.0000
vn 0.0000 1.0000 0.0002
vn 0.0000 -0.4044 -0.9146
usemtl grey.070
s 1
f 1/1/1 2/2/1 3/3/1
f 3/3/1 4/4/1 1/1/1
f 3/3/1 5/5/1 4/4/1
f 5/5/1 7/6/1 6/7/1
f 10/8/1 11/9/1 9/10/1
f 10/8/1 12/11/1 11/9/1
f 14/12/1 16/13/1 15/14/1
f 20/15/1 22/16/1 21/17/1
f 22/16/1 23/18/1 21/17/1
f 26/19/1 27/20/1 25/21/1
f 26/19/1 28/22/1 27/20/1
f 29/23/1 30/24/1 31/25/1
f 31/25/1 32/26/1 29/23/1
f 13/27/2 15/28/3 33/29/3
f 2/30/4 35/31/4 36/32/4
f 37/33/5 38/34/6 7/35/6
f 7/35/6 9/36/5 37/33/5
f 19/37/7 21/38/8 39/39/8
f 39/39/8 40/40/7 19/37/7
f 9/41/5 11/42/9 47/43/9
f 21/44/8 23/45/10 48/46/10
f 48/46/10 39/47/8 21/44/8
f 49/48/11 41/49/12 10/50/12
f 25/51/13 27/52/14 50/53/14
f 50/53/14 51/54/13 25/51/13
f 52/55/15 33/56/3 15/57/3
f 14/58/16 53/59/16 54/60/17
f 54/60/17 16/61/17 14/58/16
f 55/62/18 56/63/19 24/64/19
f 26/65/20 24/66/19 56/67/19
f 59/68/21 45/69/22 32/70/22
f 57/71/20 60/72/23 28/73/23
f 34/74/2 47/75/9 11/76/9
f 31/77/24 64/78/24 63/79/24
f 31/77/24 65/80/24 64/78/24
f 31/77/24 66/81/24 65/80/24
f 30/82/4 43/83/4 46/84/4
f 46/84/4 31/85/4 30/82/4
f 18/86/25 16/87/17 54/88/17
f 54/88/17 67/89/25 18/86/25
f 35/90/26 62/91/26 61/92/26
f 23/93/10 25/94/13 51/95/13
f 51/95/13 48/96/10 23/93/10
f 68/97/27 70/98/27 71/99/27
f 68/97/27 71/99/27 27/100/27
f 71/99/27 72/101/27 27/100/27
f 72/101/27 73/102/27 27/100/27
f 72/101/27 75/103/27 74/104/27
f 42/105/28 53/106/16 14/107/16
f 76/108/29 55/109/18 22/110/18
f 45/111/30 44/112/30 29/113/30
f 77/114/27 78/115/27 79/116/27
f 79/116/27 80/117/27 77/114/27
f 79/118/30 85/119/30 86/120/30
f 89/121/30 90/122/30 87/123/30
f 95/124/4 96/125/4 93/126/4
f 95/127/27 94/128/27 87/129/27
f 87/129/27 90/130/27 95/127/27
f 97/131/31 98/132/31 74/133/31
f 74/133/31 75/134/31 97/131/31
f 72/135/4 65/136/4 97/137/4
f 38/138/31 37/139/31 73/140/31
f 37/139/31 47/141/31 73/140/31
f 47/141/31 34/142/31 73/140/31
f 33/143/31 52/144/31 73/140/31
f 52/144/31 40/145/31 73/140/31
f 51/146/31 50/147/31 73/140/31
f 70/148/31 69/149/31 99/150/31
f 99/151/4 69/152/4 68/153/4
f 68/153/4 63/154/4 99/151/4
f 64/155/31 65/156/31 72/157/31
f 63/158/31 58/159/31 36/160/31
f 63/158/31 68/161/31 58/159/31
f 68/161/31 49/162/31 58/159/31
f 68/161/31 53/163/31 42/164/31
f 68/161/31 54/165/31 53/163/31
f 68/161/31 67/166/31 54/165/31
f 68/161/31 55/167/31 76/168/31
f 68/161/31 56/169/31 55/167/31
f 68/161/31 57/170/31 56/169/31
f 68/161/31 60/171/31 57/170/31
f 5/5/1 6/7/1 4/4/1
f 5/5/1 8/172/1 7/6/1
f 8/172/1 9/10/1 7/6/1
f 8/172/1 10/8/1 9/10/1
f 12/11/1 13/173/1 11/9/1
f 12/11/1 14/12/1 13/173/1
f 14/12/1 15/14/1 13/173/1
f 16/13/1 17/174/1 15/14/1
f 16/13/1 18/175/1 17/174/1
f 18/175/1 19/176/1 17/174/1
f 18/175/1 20/15/1 19/176/1
f 20/15/1 21/17/1 19/176/1
f 22/16/1 24/177/1 23/18/1
f 24/177/1 25/21/1 23/18/1
f 24/177/1 26/19/1 25/21/1
f 31/25/1 4/4/1 32/26/1
f 4/4/1 6/7/1 32/26/1
f 33/29/3 34/178/2 13/27/2
f 36/32/4 3/179/4 2/30/4
f 41/180/12 42/181/28 12/182/28
f 12/182/28 10/183/12 41/180/12
f 43/184/26 44/185/26 45/186/26
f 45/186/26 46/187/26 43/184/26
f 47/43/9 37/188/5 9/41/5
f 10/50/12 8/189/11 49/48/11
f 15/57/3 17/190/15 52/55/15
f 24/64/19 22/191/18 55/62/18
f 56/67/19 57/192/20 26/65/20
f 36/193/32 58/194/33 5/195/33
f 5/195/33 3/196/32 36/193/32
f 32/70/22 6/197/21 59/68/21
f 17/198/15 19/199/7 40/200/7
f 40/200/7 52/201/15 17/198/15
f 28/73/23 26/202/20 57/71/20
f 11/76/9 13/203/2 34/74/2
f 61/204/30 62/205/30 1/206/30
f 1/206/30 4/207/30 61/204/30
f 61/208/24 4/209/24 31/77/24
f 31/77/24 63/79/24 61/208/24
f 31/77/24 46/210/24 66/81/24
f 58/211/33 49/212/11 8/213/11
f 8/213/11 5/214/33 58/211/33
f 38/215/6 59/216/21 6/217/21
f 6/217/21 7/218/6 38/215/6
f 61/92/26 36/219/26 35/90/26
f 68/97/27 69/220/27 70/98/27
f 60/221/27 68/97/27 27/100/27
f 27/100/27 28/222/27 60/221/27
f 72/101/27 74/104/27 73/102/27
f 73/102/27 50/223/27 27/100/27
f 20/224/29 18/225/25 67/226/25
f 67/226/25 76/227/29 20/224/29
f 14/107/16 12/228/28 42/105/28
f 22/110/18 20/229/29 76/108/29
f 29/113/30 32/230/30 45/111/30
f 81/231/4 78/232/4 77/233/4
f 77/233/4 82/234/4 81/231/4
f 77/233/4 83/235/4 82/234/4
f 77/233/4 84/236/4 83/235/4
f 86/120/30 80/237/30 79/118/30
f 87/123/30 88/238/30 89/121/30
f 89/121/30 91/239/30 90/122/30
f 91/239/30 92/240/30 90/122/30
f 93/126/4 94/241/4 95/124/4
f 91/242/27 89/243/27 82/244/27
f 82/244/27 83/245/27 91/242/27
f 97/137/4 75/246/4 72/135/4
f 74/247/30 98/248/30 66/249/30
f 66/249/30 73/250/30 74/247/30
f 46/251/31 45/252/31 59/253/31
f 59/253/31 66/254/31 46/251/31
f 59/253/31 73/140/31 66/254/31
f 59/253/31 38/138/31 73/140/31
f 34/142/31 33/143/31 73/140/31
f 40/145/31 39/255/31 73/140/31
f 39/255/31 48/256/31 73/140/31
f 48/256/31 51/146/31 73/140/31
f 99/150/31 100/257/31 70/148/31
f 70/258/30 100/259/30 64/260/30
f 64/260/30 71/261/30 70/258/30
f 72/157/31 71/262/31 64/155/31
f 36/160/31 61/263/1 63/158/31
f 68/161/31 41/264/31 49/162/31
f 68/161/31 42/164/31 41/264/31
f 68/161/31 76/168/31 67/166/31
usemtl grass.028
f 101/265/27 30/266/34 102/267/35
f 62/268/27 93/269/27 96/270/27
f 62/268/27 96/270/27 104/271/27
f 30/266/34 101/265/27 43/272/27
f 101/265/27 102/267/35 86/273/27
f 86/273/27 85/274/27 101/265/27
f 62/268/27 103/275/27 93/269/27
f 104/271/27 1/276/27 62/268/27
usemtl road.051
f 89/243/27 88/277/27 81/278/27
f 81/278/27 82/244/27 89/243/27
f 92/279/27 91/242/27 83/245/27
f 100/280/36 99/281/36 63/282/36
f 83/245/27 84/283/27 92/279/27
f 65/284/36 66/285/36 98/286/36
f 98/286/36 97/287/36 65/284/36
f 63/282/36 64/288/36 100/280/36
