# Blender v3.1.2 OBJ File: ''
# www.blender.org
mtllib roadCornerLargerBorderInner.mtl
o roadCornerLargerBorderInner
v -2.738948 -0.000000 1.982890
v -2.482362 -0.000000 1.931852
v -2.482362 0.020000 1.931852
v -2.738948 0.020000 1.982890
v -2.536714 -0.000000 1.729007
v -2.766358 -0.000000 1.774686
v -2.766358 0.020000 1.774686
v -2.536714 0.020000 1.729007
v -2.105000 -0.000000 1.550185
v -2.314997 -0.000000 1.653744
v -2.314997 0.020000 1.653744
v -2.105000 0.020000 1.550185
v -2.234633 -0.000000 1.847759
v -2.000000 -0.000000 1.732051
v -2.000000 0.020000 1.732051
v -2.234633 0.020000 1.847759
v -1.782477 0.020000 1.586707
v -1.585786 0.020000 1.414214
v -1.734279 0.020000 1.265721
v -1.910317 0.020000 1.420102
v -1.782477 -0.000000 1.586707
v -1.585786 -0.000000 1.414214
v -1.734279 -0.000000 1.265721
v -1.910317 -0.000000 1.420102
v -1.152241 0.020000 0.765367
v -1.068148 0.020000 0.517638
v -1.270993 0.020000 0.463286
v -1.346256 0.020000 0.685003
v -1.270993 -0.000000 0.463286
v -1.346256 -0.000000 0.685003
v -1.068148 -0.000000 0.517638
v -1.152241 -0.000000 0.765367
v -1.413293 0.020000 1.217523
v -1.267949 0.020000 1.000000
v -1.449814 0.020000 0.895000
v -1.579898 0.020000 1.089683
v -1.267949 -0.000000 1.000000
v -1.413293 -0.000000 1.217523
v -1.449814 -0.000000 0.895000
v -1.579898 -0.000000 1.089683
v -1.000000 0.000000 0.000000
v -1.000000 0.020000 0.000000
v -1.017110 0.020000 0.261052
v -1.017110 -0.000000 0.261052
v -1.210000 0.000000 0.000000
v -1.210000 0.020000 0.000000
v -1.225314 0.020000 0.233642
v -1.225314 -0.000000 0.233642
v -3.000000 0.020000 2.000000
v -3.000000 0.020000 1.790000
v -3.000000 -0.000000 1.790000
v -3.000000 -0.000000 2.000000
vt -120.990601 0.000000
vt -110.690903 0.000000
vt -110.690903 0.787402
vt -120.990601 0.787402
vt 120.449898 0.787402
vt 111.231697 0.787402
vt 111.231697 0.000000
vt 107.832603 78.066528
vt 97.730782 76.057152
vt 99.870628 68.071152
vt 110.539001 0.787402
vt 101.320702 0.787402
vt 101.320702 0.000000
vt -111.079697 0.000000
vt -100.779999 0.000000
vt -100.779999 0.787402
vt 87.977676 72.746422
vt 78.740158 68.190979
vt 82.874023 61.030930
vt 84.190857 0.000000
vt 93.409103 0.000000
vt 93.409103 0.787402
vt 42.574409 0.000000
vt 42.574409 0.787402
vt 33.356171 0.787402
vt -32.815441 0.000000
vt -32.815441 0.787402
vt -43.115139 0.787402
vt -60.468681 0.000000
vt -60.468681 0.787402
vt -70.768387 0.787402
vt -12.874630 0.787402
vt -12.874630 0.000000
vt -2.574926 0.000000
vt 47.637791 0.787402
vt 39.370079 0.787402
vt 39.370079 0.000000
vt 120.449898 0.000000
vt 108.911697 69.869537
vt 110.539001 0.000000
vt -111.079697 0.787402
vt 91.141602 65.108047
vt 70.176262 62.468769
vt 62.432541 55.677700
vt 68.278687 49.831539
vt 75.209343 55.909550
vt -93.949829 0.000000
vt -83.650124 0.000000
vt -83.650124 0.787402
vt -93.949829 0.787402
vt 84.190857 0.787402
vt 45.363819 30.132549
vt 42.053089 20.379450
vt 50.039089 18.239611
vt 53.002190 26.968639
vt 33.356171 0.000000
vt -43.115139 0.000000
vt 55.641472 47.933971
vt 49.919258 39.370079
vt 57.079311 35.236221
vt 62.200691 42.900909
vt -70.768387 0.000000
vt 61.009411 0.787402
vt 61.009411 0.000000
vt 70.227654 0.000000
vt 70.227654 0.787402
vt -2.574926 0.787402
vt 47.637791 0.000000
vt 40.043709 10.277650
vt 39.370079 0.000000
vt 47.637791 0.000000
vt 48.240700 9.198500
vt 3.115661 0.787402
vt 3.115661 0.000000
vt 12.333900 0.000000
vt 12.333900 0.787402
vt 118.110199 78.740158
vt 118.110199 70.472443
vt 78.740158 0.000000
vt 78.740158 0.787402
vt 70.472443 0.787402
vt 113.248199 0.000000
vt 122.466499 0.000000
vt 122.466499 0.787402
vt 113.248199 0.787402
vt -112.707497 0.787402
vt -123.007202 0.787402
vt -123.007202 0.000000
vt 116.451302 0.787402
vt 107.233002 0.787402
vt 107.233002 0.000000
vt -116.991997 0.000000
vt -106.692299 0.000000
vt -106.692299 0.787402
vt -116.991997 0.787402
vt 93.595947 0.000000
vt 102.814201 0.000000
vt 102.814201 0.787402
vt 93.595947 0.787402
vt -103.354897 0.000000
vt -93.055222 0.000000
vt -93.055222 0.787402
vt -72.725639 0.000000
vt -72.725639 0.787402
vt -83.025337 0.787402
vt 73.266373 0.787402
vt 73.266373 0.000000
vt 82.484612 0.000000
vt 82.484612 0.787402
vt -47.088970 0.000000
vt -47.088970 0.787402
vt -57.388680 0.787402
vt 18.433050 0.787402
vt 18.433050 0.000000
vt 27.651279 0.000000
vt 27.651279 0.787402
vt -28.192020 0.787402
vt -28.192020 0.000000
vt -17.892309 0.000000
vt 70.472443 0.000000
vt -112.707497 0.000000
vt 116.451302 0.000000
vt -103.354897 0.787402
vt -83.025337 0.000000
vt -57.388680 0.000000
vt 47.629700 0.787402
vt 47.629700 0.000000
vt 56.847939 0.000000
vt 56.847939 0.787402
vt -17.892309 0.787402
vn 0.1951 0.0000 0.9808
vn -0.1951 0.0000 -0.9808
vn -0.0000 1.0000 0.0000
vn -0.4423 0.0000 -0.8969
vn 0.4423 0.0000 0.8969
vn -0.6593 0.0000 -0.7518
vn -0.9469 0.0000 -0.3214
vn 0.9469 0.0000 0.3214
vn 0.8315 0.0000 0.5556
vn 0.9979 0.0000 0.0654
vn 0.0000 0.0000 -1.0000
vn 0.6593 0.0000 0.7518
vn -0.8315 0.0000 -0.5556
vn -0.9979 0.0000 -0.0654
vn -1.0000 0.0000 0.0000
vn -0.0654 0.0000 -0.9979
vn 0.0654 0.0000 0.9979
vn -0.3214 0.0000 -0.9469
vn 0.3214 0.0000 0.9469
vn -0.5556 0.0000 -0.8315
vn 0.5556 0.0000 0.8315
vn 0.7518 0.0000 0.6593
vn -0.7518 0.0000 -0.6593
vn 0.8969 0.0000 0.4423
vn -0.9808 0.0000 -0.1951
vn 0.9808 0.0000 0.1951
vn -0.8969 0.0000 -0.4423
usemtl red.024
s 1
f 1/1/1 2/2/1 3/3/1
f 3/3/1 4/4/1 1/1/1
f 7/5/2 8/6/2 5/7/2
f 4/8/3 3/9/3 8/10/3
f 11/11/4 12/12/4 9/13/4
f 13/14/5 14/15/5 15/16/5
f 16/17/3 15/18/3 12/19/3
f 23/20/6 24/21/6 20/22/6
f 30/23/7 28/24/7 27/25/7
f 31/26/8 26/27/8 25/28/8
f 37/29/9 34/30/9 33/31/9
f 43/32/10 44/33/10 41/34/10
f 46/35/11 42/36/11 41/37/11
f 5/7/2 6/38/2 7/5/2
f 8/10/3 7/39/3 4/8/3
f 9/13/4 10/40/4 11/11/4
f 15/16/5 16/41/5 13/14/5
f 12/19/3 11/42/3 16/17/3
f 17/43/3 18/44/3 19/45/3
f 19/45/3 20/46/3 17/43/3
f 21/47/12 22/48/12 18/49/12
f 18/49/12 17/50/12 21/47/12
f 20/22/6 19/51/6 23/20/6
f 25/52/3 26/53/3 27/54/3
f 27/54/3 28/55/3 25/52/3
f 27/25/7 29/56/7 30/23/7
f 25/28/8 32/57/8 31/26/8
f 33/58/3 34/59/3 35/60/3
f 35/60/3 36/61/3 33/58/3
f 33/31/9 38/62/9 37/29/9
f 35/63/13 39/64/13 40/65/13
f 40/65/13 36/66/13 35/63/13
f 41/34/10 42/67/10 43/32/10
f 41/37/11 45/68/11 46/35/11
f 43/69/3 42/70/3 46/71/3
f 46/71/3 47/72/3 43/69/3
f 46/73/14 45/74/14 48/75/14
f 48/75/14 47/76/14 46/73/14
usemtl white.003
f 49/77/3 4/8/3 7/39/3
f 7/39/3 50/78/3 49/77/3
f 52/79/15 49/80/15 50/81/15
f 6/82/16 51/83/16 50/84/16
f 50/84/16 7/85/16 6/82/16
f 4/86/17 49/87/17 52/88/17
f 8/89/18 11/90/18 10/91/18
f 3/9/3 16/17/3 11/42/3
f 11/42/3 8/10/3 3/9/3
f 2/92/19 13/93/19 16/94/19
f 16/94/19 3/95/19 2/92/19
f 24/96/20 9/97/20 12/98/20
f 12/98/20 20/99/20 24/96/20
f 14/100/21 21/101/21 17/102/21
f 18/44/3 33/58/3 36/61/3
f 38/103/22 33/104/22 18/105/22
f 36/106/23 40/107/23 23/108/23
f 23/108/23 19/109/23 36/106/23
f 32/110/24 25/111/24 34/112/24
f 34/59/3 25/52/3 28/55/3
f 28/55/3 35/60/3 34/59/3
f 47/113/25 48/114/25 29/115/25
f 29/115/25 27/116/25 47/113/25
f 26/117/26 31/118/26 44/119/26
f 47/72/3 27/54/3 26/53/3
f 50/81/15 51/120/15 52/79/15
f 52/88/17 1/121/17 4/86/17
f 10/91/18 5/122/18 8/89/18
f 15/18/3 17/43/3 20/46/3
f 20/46/3 12/19/3 15/18/3
f 17/102/21 15/123/21 14/100/21
f 36/61/3 19/45/3 18/44/3
f 18/105/22 22/124/22 38/103/22
f 34/112/24 37/125/24 32/110/24
f 28/126/27 30/127/27 39/128/27
f 39/128/27 35/129/27 28/126/27
f 44/119/26 43/130/26 26/117/26
f 26/53/3 43/69/3 47/72/3
