# Blender v3.1.2 OBJ File: ''
# www.blender.org
mtllib roadBump.mtl
o roadBump
v 0.000000 -0.000000 1.500000
v 0.000000 -0.000000 0.500000
v 0.000000 0.080000 0.750000
v 0.000000 0.080000 1.250000
v -1.000000 0.080000 0.750000
v -1.000000 -0.000000 0.500000
v -1.000000 -0.000000 1.500000
v -1.000000 0.080000 1.250000
v -0.918347 0.080000 1.250000
v -0.918347 0.080000 0.750000
v -0.081653 0.080000 0.750000
v -0.081653 0.080000 1.250000
v -0.918347 -0.000000 0.500000
v -0.918347 0.000000 0.000000
v -1.000000 0.000000 0.000000
v 0.000000 0.000000 0.000000
v -0.081653 0.000000 0.000000
v -0.081653 -0.000000 0.500000
v 0.000000 -0.000000 2.000000
v -0.081653 -0.000000 1.500000
v -0.081653 -0.000000 2.000000
v -0.918347 -0.000000 2.000000
v -0.918347 -0.000000 1.500000
v -1.000000 -0.000000 2.000000
v -0.845135 0.100000 1.250000
v -0.845135 0.100000 0.750000
v -0.918347 0.100000 0.750000
v -0.918347 0.100000 1.250000
v -0.845135 0.090000 0.750000
v -0.845135 0.090000 1.250000
v -0.845135 0.010000 0.500000
v -0.845135 0.020000 0.500000
v -0.845135 0.010000 0.000000
v -0.845135 0.020000 0.000000
v -0.845135 0.020000 1.500000
v -0.845135 0.010000 1.500000
v -0.845135 0.020000 2.000000
v -0.845135 0.010000 2.000000
v -0.918347 0.020000 0.000000
v -0.918347 0.020000 0.500000
v -0.918347 0.020000 1.500000
v -0.918347 0.020000 2.000000
v -0.154865 0.020000 0.000000
v -0.154865 0.010000 0.000000
v -0.154865 0.010000 0.500000
v -0.154865 0.020000 0.500000
v -0.154865 0.090000 0.750000
v -0.154865 0.100000 0.750000
v -0.154865 0.090000 1.250000
v -0.154865 0.100000 1.250000
v -0.154865 0.010000 1.500000
v -0.154865 0.020000 1.500000
v -0.154865 0.010000 2.000000
v -0.154865 0.020000 2.000000
v -0.081653 0.020000 0.500000
v -0.081653 0.020000 0.000000
v -0.081653 0.020000 1.500000
v -0.081653 0.020000 2.000000
v -0.081653 0.100000 1.250000
v -0.081653 0.100000 0.750000
vt -59.055119 0.000000
vt -19.685040 0.000000
vt -29.527559 3.149606
vt -49.212601 3.149606
vt 29.527559 3.149606
vt 19.685040 0.000000
vt 59.055119 0.000000
vt 36.155411 49.212601
vt 36.155411 29.527559
vt 39.370079 29.527559
vt 39.370079 49.212601
vt 3.214670 29.527559
vt 3.214670 49.212601
vt 0.000000 49.212601
vt 36.155411 19.685040
vt 36.155411 0.000000
vt 39.370079 0.000000
vt 3.214670 0.000000
vt 3.214670 19.685040
vt 0.000000 19.685040
vt 3.214670 59.055119
vt 3.214670 78.740158
vt 0.000000 78.740158
vt 36.155411 78.740158
vt 36.155411 59.055119
vt 39.370079 59.055119
vt 36.155411 29.082680
vt 36.155411 18.748510
vt 39.370079 18.748510
vt 39.370079 29.082680
vt 0.000000 29.082680
vt 0.000000 18.748510
vt 3.214670 18.748510
vt 3.214670 29.082680
vt -36.155411 -56.245522
vt -36.155411 -45.911339
vt -39.370079 -45.911339
vt 0.000000 -56.245522
vt 0.000000 -45.911339
vt -3.214670 -45.911339
vt 49.212601 3.149606
vt 0.000000 29.527559
vt 39.370079 19.685040
vt 0.000000 0.000000
vt 0.000000 59.055119
vt 39.370079 78.740158
vt -39.370079 -56.245522
vt -3.214670 -56.245522
vt 36.155411 29.527559
vt 36.155411 49.212601
vt 33.273041 49.212601
vt -29.527559 3.543307
vt -29.527559 3.937008
vt -49.212601 3.937008
vt -19.685040 0.393701
vt -49.212601 3.543307
vt -59.055119 0.787402
vt -59.055119 0.393701
vt -78.740158 0.787402
vt 0.000000 0.787402
vt 0.000000 0.000000
vt 19.685040 0.000000
vt 49.212601 3.149606
vt 49.212601 3.937008
vt 29.527559 3.937008
vt 59.055119 0.000000
vt 33.273041 19.685040
vt 33.273041 0.000000
vt 36.155411 0.000000
vt 36.155411 19.685040
vt 19.685040 0.393701
vt 19.685040 0.787402
vt 0.000000 0.787402
vt 29.527559 3.543307
vt 29.527559 3.937008
vt 49.212601 3.543307
vt 49.212601 3.937008
vt 59.055119 0.393701
vt -78.740158 0.787402
vt -78.740158 0.000000
vt -59.055119 0.000000
vt -29.527559 3.937008
vt -29.527559 3.149606
vt -19.685040 0.000000
vt -19.685040 0.787402
vt 0.000000 0.000000
vt 3.214670 78.740158
vt 3.214670 59.055119
vt 6.097044 59.055119
vt 6.097044 78.740158
vt 36.155411 59.055119
vt 36.155411 78.740158
vt 33.273041 78.740158
vt 3.214670 49.212601
vt 3.214670 29.527559
vt 6.097044 29.527559
vt 36.155411 18.988489
vt 36.155411 29.322660
vt 33.273041 29.322660
vt 3.214670 29.322660
vt 3.214670 18.988489
vt 6.097044 18.988489
vt 6.097044 29.322660
vt -33.273041 -56.005539
vt -33.273041 -45.671360
vt -36.155411 -45.671360
vt -3.214670 -56.005539
vt -3.214670 -45.671360
vt -6.097044 -45.671360
vt -6.097044 -56.005539
vt 33.273041 29.527559
vt -19.685040 0.787402
vt 0.000000 0.393701
vt 0.000000 0.787402
vt -78.740158 0.393701
vt 19.685040 0.787402
vt 29.527559 3.149606
vt 59.055119 0.787402
vt 78.740158 0.000000
vt 78.740158 0.787402
vt 0.000000 0.393701
vt 59.055119 0.787402
vt 78.740158 0.393701
vt 78.740158 0.787402
vt 3.214670 19.685040
vt 3.214670 0.000000
vt 6.097044 0.000000
vt 6.097044 19.685040
vt -59.055119 0.787402
vt -49.212601 3.149606
vt -49.212601 3.937008
vt 0.000000 0.787402
vt 33.273041 59.055119
vt 6.097044 49.212601
vt 33.273041 18.988489
vt -36.155411 -56.005539
vt 6.097044 19.685040
vt 6.097044 0.000000
vt 33.273041 0.000000
vt 33.273041 59.055119
vt 33.273041 78.740158
vt 6.097044 78.740158
vt 6.097044 29.202669
vt 6.097044 18.868500
vt 33.273041 18.868500
vt 33.273041 29.202669
vt -6.097044 -56.125530
vt -6.097044 -45.791351
vt -33.273041 -45.791351
vt -33.273041 -56.125530
vt 33.273041 19.685040
vt 6.097044 59.055119
vt 6.097044 49.212601
vt 6.097044 29.527559
vt 33.273041 29.527559
vt 33.273041 49.212601
vn 1.0000 0.0000 0.0000
vn -1.0000 0.0000 0.0000
vn 0.0000 1.0000 0.0000
vn 0.0000 0.9524 -0.3048
vn 0.0000 0.9524 0.3048
usemtl grass.005
s 1
f 1/1/1 2/2/1 3/3/1
f 3/3/1 4/4/1 1/1/1
f 5/5/2 6/6/2 7/7/2
f 9/8/3 10/9/3 5/10/3
f 5/10/3 8/11/3 9/8/3
f 11/12/3 12/13/3 4/14/3
f 13/15/3 14/16/3 15/17/3
f 17/18/3 18/19/3 2/20/3
f 20/21/3 21/22/3 19/23/3
f 22/24/3 23/25/3 7/26/3
f 10/27/4 13/28/4 6/29/4
f 6/29/4 5/30/4 10/27/4
f 3/31/4 2/32/4 18/33/4
f 18/33/4 11/34/4 3/31/4
f 23/35/5 9/36/5 8/37/5
f 1/38/5 4/39/5 12/40/5
f 7/7/2 8/41/2 5/5/2
f 4/14/3 3/42/3 11/12/3
f 15/17/3 6/43/3 13/15/3
f 2/20/3 16/44/3 17/18/3
f 19/23/3 1/45/3 20/21/3
f 7/26/3 24/46/3 22/24/3
f 8/37/5 7/47/5 23/35/5
f 12/40/5 20/48/5 1/38/5
usemtl grey.045
f 27/49/3 28/50/3 25/51/3
f 29/52/1 26/53/1 25/54/1
f 26/53/1 29/52/1 31/55/1
f 30/56/1 25/54/1 35/57/1
f 36/58/1 35/57/1 37/59/1
f 39/60/2 14/61/2 13/62/2
f 9/63/2 28/64/2 27/65/2
f 28/64/2 9/63/2 23/66/2
f 32/67/3 34/68/3 39/69/3
f 39/69/3 40/70/3 32/67/3
f 45/71/2 46/72/2 43/73/2
f 46/72/2 45/71/2 47/74/2
f 47/74/2 48/75/2 46/72/2
f 48/75/2 47/74/2 49/76/2
f 50/77/2 49/76/2 51/78/2
f 58/79/1 21/80/1 20/81/1
f 60/82/1 11/83/1 18/84/1
f 55/85/1 18/84/1 17/86/1
f 58/87/3 57/88/3 52/89/3
f 52/89/3 54/90/3 58/87/3
f 41/91/3 42/92/3 37/93/3
f 59/94/3 60/95/3 48/96/3
f 40/97/4 27/98/4 26/99/4
f 60/100/4 55/101/4 46/102/4
f 46/102/4 48/103/4 60/100/4
f 35/104/5 25/105/5 28/106/5
f 57/107/5 59/108/5 50/109/5
f 50/109/5 52/110/5 57/107/5
f 25/51/3 26/111/3 27/49/3
f 25/54/1 30/56/1 29/52/1
f 31/55/1 32/112/1 26/53/1
f 32/112/1 31/55/1 33/113/1
f 33/113/1 34/114/1 32/112/1
f 35/57/1 36/58/1 30/56/1
f 37/59/1 38/115/1 36/58/1
f 13/62/2 40/116/2 39/60/2
f 40/116/2 13/62/2 10/117/2
f 10/117/2 27/65/2 40/116/2
f 27/65/2 10/117/2 9/63/2
f 23/66/2 41/118/2 28/64/2
f 41/118/2 23/66/2 22/119/2
f 22/119/2 42/120/2 41/118/2
f 43/73/2 44/121/2 45/71/2
f 49/76/2 50/77/2 48/75/2
f 51/78/2 52/122/2 50/77/2
f 52/122/2 51/78/2 53/123/2
f 53/123/2 54/124/2 52/122/2
f 55/125/3 56/126/3 43/127/3
f 43/127/3 46/128/3 55/125/3
f 20/81/1 57/129/1 58/79/1
f 57/129/1 20/81/1 12/130/1
f 12/130/1 59/131/1 57/129/1
f 59/131/1 12/130/1 11/83/1
f 11/83/1 60/82/1 59/131/1
f 18/84/1 55/85/1 60/82/1
f 17/86/1 56/132/1 55/85/1
f 37/93/3 35/133/3 41/91/3
f 48/96/3 50/134/3 59/94/3
f 26/99/4 32/135/4 40/97/4
f 28/106/5 41/136/5 35/104/5
usemtl road.022
f 45/137/3 44/138/3 33/139/3
f 36/140/3 38/141/3 53/142/3
f 47/143/4 45/144/4 31/145/4
f 31/145/4 29/146/4 47/143/4
f 51/147/5 49/148/5 30/149/5
f 30/149/5 36/150/5 51/147/5
f 33/139/3 31/151/3 45/137/3
f 53/142/3 51/152/3 36/140/3
f 49/153/3 47/154/3 29/155/3
f 29/155/3 30/156/3 49/153/3
