# Blender v3.1.2 OBJ File: ''
# www.blender.org
mtllib roadCornerSmallWall.mtl
o roadCornerSmallWall
v 0.566483 0.040000 0.206231
v 0.580000 0.040000 0.000000
v 0.530000 0.040000 0.000000
v 0.516911 0.040000 0.199705
v 0.530000 0.000000 0.000000
v 0.516911 -0.000000 0.199705
v 0.580000 0.000000 0.000000
v 0.566483 -0.000000 0.206231
v 0.459730 0.040000 0.604640
v 0.526163 0.040000 0.408934
v 0.477867 0.040000 0.395993
v 0.413536 0.040000 0.585506
v 0.477867 -0.000000 0.395993
v 0.413536 -0.000000 0.585506
v 0.526163 -0.000000 0.408934
v 0.459730 -0.000000 0.604640
v 0.253498 0.040000 0.961843
v 0.368320 0.040000 0.790000
v 0.325019 0.040000 0.765000
v 0.213831 0.040000 0.931405
v 0.325019 -0.000000 0.765000
v 0.213831 -0.000000 0.931405
v 0.368320 -0.000000 0.790000
v 0.253498 -0.000000 0.961843
v -0.038157 0.040000 1.253498
v 0.117229 0.040000 1.117229
v 0.081873 0.040000 1.081873
v -0.068595 0.040000 1.213831
v 0.081873 -0.000000 1.081873
v -0.068595 -0.000000 1.213831
v -0.038157 -0.000000 1.253498
v 0.117229 -0.000000 1.117229
v -0.395360 0.040000 1.459730
v -0.210000 0.040000 1.368320
v -0.235000 0.040000 1.325019
v -0.414494 0.040000 1.413536
v -0.235000 -0.000000 1.325019
v -0.414494 -0.000000 1.413536
v -0.395360 -0.000000 1.459730
v -0.210000 -0.000000 1.368320
v -0.793769 0.040000 1.566483
v -0.591066 0.040000 1.526163
v -0.604007 0.040000 1.477866
v -0.800295 0.040000 1.516911
v -0.604007 -0.000000 1.477866
v -0.800295 -0.000000 1.516911
v -0.793769 -0.000000 1.566483
v -0.591066 -0.000000 1.526163
v -1.000000 0.040000 1.580000
v -1.000000 0.040000 1.530000
v -1.000000 -0.000000 1.580000
v -1.000000 -0.000000 1.530000
vt -22.302469 8.119346
vt -22.834650 0.000000
vt -20.866140 0.000000
vt -20.350809 7.862404
vt 6.514564 0.000000
vt 6.514564 1.574803
vt -1.364711 1.574803
vt 1.493457 0.000000
vt 1.493457 1.574803
vt -6.643310 1.574803
vt -6.643310 0.000000
vt 8.715460 1.574803
vt 8.715460 0.000000
vt 16.594730 0.000000
vt -8.586714 0.000000
vt -8.586714 1.574803
vt -16.723480 1.574803
vt -9.980247 37.867840
vt -14.500790 31.102360
vt -12.796020 30.118111
vt -8.418528 36.669491
vt 17.933210 1.574803
vt 17.933210 0.000000
vt 25.812481 0.000000
vt 25.812481 1.574803
vt -17.804461 0.000000
vt -17.804461 1.574803
vt -25.941231 1.574803
vt -25.941231 0.000000
vt -3.223361 42.593441
vt 2.700591 47.788609
vt 1.502242 49.350330
vt 25.660351 0.000000
vt 33.539631 0.000000
vt 33.539631 1.574803
vt -33.668381 0.000000
vt -25.531610 0.000000
vt -25.531610 1.574803
vt -33.668381 1.574803
vt 15.565360 57.469669
vt 8.267716 53.870869
vt 9.251968 52.166100
vt 16.318680 55.651009
vt 31.370310 0.000000
vt 39.249592 0.000000
vt 39.249592 1.574803
vt 31.370310 1.574803
vt -39.378330 0.000000
vt -31.241570 0.000000
vt -31.241570 1.574803
vt 34.673962 0.000000
vt 42.553230 0.000000
vt 42.553230 1.574803
vt 34.673962 1.574803
vt -42.681980 0.000000
vt -34.545212 0.000000
vt -34.545212 1.574803
vt -1.364711 0.000000
vt -22.834650 0.000000
vt -20.866140 0.000000
vt -20.866140 1.574803
vt -22.834650 1.574803
vt -18.099590 23.804720
vt -20.715071 16.099770
vt -18.813641 15.590280
vt -16.280930 23.051399
vt 16.594730 1.574803
vt -16.723480 0.000000
vt -4.615304 43.985378
vt 25.660351 1.574803
vt -39.378330 1.574803
vt 31.250731 61.672550
vt 23.270309 60.085152
vt 23.779800 58.183720
vt 31.507681 59.720890
vt -42.681980 1.574803
vt -11.749100 1.574803
vt -11.749100 0.000000
vt -3.612338 0.000000
vt -13.344560 0.000000
vt -13.344560 1.574803
vt -21.481319 1.574803
vt 22.018860 1.574803
vt 22.018860 0.000000
vt 29.898130 0.000000
vt 29.898130 1.574803
vt -21.890110 0.000000
vt -21.890110 1.574803
vt -30.026880 1.574803
vt 33.341080 0.000000
vt 41.220348 0.000000
vt 41.220348 1.574803
vt 33.341080 1.574803
vt -41.349098 0.000000
vt -33.212330 0.000000
vt -33.212330 1.574803
vt -41.349098 1.574803
vt 39.370079 62.204720
vt 62.204720 0.000000
vt 62.204720 1.574803
vt 60.236221 1.574803
vt 3.741084 1.574803
vt 3.741084 0.000000
vt 11.620360 0.000000
vt 11.620360 1.574803
vt -3.612338 1.574803
vt 13.473300 1.574803
vt 13.473300 0.000000
vt 21.352579 0.000000
vt 21.352579 1.574803
vt -21.481319 0.000000
vt -30.026880 0.000000
vt 28.795389 0.000000
vt 36.674660 0.000000
vt 36.674660 1.574803
vt 28.795389 1.574803
vt -36.803410 0.000000
vt -28.666639 0.000000
vt -28.666639 1.574803
vt -36.803410 1.574803
vt 39.370079 60.236221
vt -43.354172 0.000000
vt -35.217400 0.000000
vt -35.217400 1.574803
vt -43.354172 1.574803
vt 35.346149 0.000000
vt 43.225422 0.000000
vt 43.225422 1.574803
vt 35.346149 1.574803
vt 60.236221 0.000000
vn -0.0000 1.0000 0.0000
vn -0.9979 0.0000 -0.0654
vn 0.9979 -0.0000 0.0654
vn -0.9469 0.0000 -0.3214
vn 0.9469 0.0000 0.3214
vn -0.8315 0.0000 -0.5556
vn 0.8315 0.0000 0.5556
vn -0.6593 0.0000 -0.7518
vn 0.6593 0.0000 0.7518
vn -0.4423 0.0000 -0.8969
vn 0.4423 0.0000 0.8969
vn -0.1951 0.0000 -0.9808
vn 0.1951 0.0000 0.9808
vn 0.0000 0.0000 -1.0000
vn 0.9808 0.0000 0.1951
vn 0.8969 0.0000 0.4423
vn -0.7518 0.0000 -0.6593
vn 0.7518 0.0000 0.6593
vn -0.3214 0.0000 -0.9469
vn 0.3214 0.0000 0.9469
vn -1.0000 0.0000 0.0000
vn -0.9808 0.0000 -0.1951
vn -0.8969 0.0000 -0.4423
vn -0.5556 0.0000 -0.8315
vn 0.5556 0.0000 0.8315
vn 0.0654 0.0000 0.9979
vn -0.0654 0.0000 -0.9979
usemtl red.030
s 1
f 1/1/1 2/2/1 3/3/1
f 3/3/1 4/4/1 1/1/1
f 6/5/2 4/6/2 3/7/2
f 7/8/3 2/9/3 1/10/3
f 1/10/3 8/11/3 7/8/3
f 11/12/4 13/13/4 14/14/4
f 15/15/5 10/16/5 9/17/5
f 17/18/1 18/19/1 19/20/1
f 19/20/1 20/21/1 17/18/1
f 19/22/6 21/23/6 22/24/6
f 22/24/6 20/25/6 19/22/6
f 23/26/7 18/27/7 17/28/7
f 17/28/7 24/29/7 23/26/7
f 27/30/1 28/31/1 25/32/1
f 29/33/8 30/34/8 28/35/8
f 31/36/9 32/37/9 26/38/9
f 26/38/9 25/39/9 31/36/9
f 33/40/1 34/41/1 35/42/1
f 35/42/1 36/43/1 33/40/1
f 37/44/10 38/45/10 36/46/10
f 36/46/10 35/47/10 37/44/10
f 39/48/11 40/49/11 34/50/11
f 45/51/12 46/52/12 44/53/12
f 44/53/12 43/54/12 45/51/12
f 47/55/13 48/56/13 42/57/13
f 3/7/2 5/58/2 6/5/2
f 7/59/14 5/60/14 3/61/14
f 3/61/14 2/62/14 7/59/14
f 9/63/1 10/64/1 11/65/1
f 11/65/1 12/66/1 9/63/1
f 14/14/4 12/67/4 11/12/4
f 9/17/5 16/68/5 15/15/5
f 25/32/1 26/69/1 27/30/1
f 28/35/8 27/70/8 29/33/8
f 34/50/11 33/71/11 39/48/11
f 41/72/1 42/73/1 43/74/1
f 43/74/1 44/75/1 41/72/1
f 42/57/13 41/76/13 47/55/13
usemtl white.009
f 10/64/1 1/1/1 4/4/1
f 4/4/1 11/65/1 10/64/1
f 10/77/15 15/78/15 8/79/15
f 16/80/16 9/81/16 18/82/16
f 26/69/1 17/18/1 20/21/1
f 20/21/1 27/30/1 26/69/1
f 20/83/17 22/84/17 29/85/17
f 29/85/17 27/86/17 20/83/17
f 24/87/18 17/88/18 26/89/18
f 34/41/1 25/32/1 28/31/1
f 28/31/1 35/42/1 34/41/1
f 36/43/1 43/74/1 42/73/1
f 38/90/19 45/91/19 43/92/19
f 43/92/19 36/93/19 38/90/19
f 48/94/20 39/95/20 33/96/20
f 33/96/20 42/97/20 48/94/20
f 49/98/1 41/72/1 44/75/1
f 51/99/21 49/100/21 50/101/21
f 4/102/22 6/103/22 13/104/22
f 13/104/22 11/105/22 4/102/22
f 8/79/15 1/106/15 10/77/15
f 18/19/1 9/63/1 12/66/1
f 12/66/1 19/20/1 18/19/1
f 12/107/23 14/108/23 21/109/23
f 21/109/23 19/110/23 12/107/23
f 18/82/16 23/111/16 16/80/16
f 26/89/18 32/112/18 24/87/18
f 30/113/24 37/114/24 35/115/24
f 35/115/24 28/116/24 30/113/24
f 40/117/25 31/118/25 25/119/25
f 25/119/25 34/120/25 40/117/25
f 42/73/1 33/40/1 36/43/1
f 44/75/1 50/121/1 49/98/1
f 51/122/26 47/123/26 41/124/26
f 41/124/26 49/125/26 51/122/26
f 46/126/27 52/127/27 50/128/27
f 50/128/27 44/129/27 46/126/27
f 50/101/21 52/130/21 51/99/21
