# Blender v3.1.2 OBJ File: ''
# www.blender.org
mtllib roadSplitLarge.mtl
o roadSplitLarge
v -1.849260 0.010000 1.144985
v -1.701099 0.010000 1.115514
v -1.701099 0.020000 1.115514
v -1.849260 0.020000 1.144985
v -0.855015 0.010000 0.150740
v -0.855015 0.020000 0.150740
v -0.884486 0.020000 0.298901
v -0.884486 0.010000 0.298901
v -1.000683 0.020000 0.413931
v -1.000683 -0.000000 0.413931
v -1.063261 -0.000000 0.540826
v -1.063261 0.020000 0.540826
v -1.083784 0.010000 0.703037
v -1.083784 0.020000 0.703037
v -1.183387 0.020000 0.816613
v -1.183387 0.010000 0.816613
v -0.933044 0.010000 0.441948
v -0.933044 0.020000 0.441948
v -0.999858 0.020000 0.577433
v -0.999858 0.010000 0.577433
v -1.141867 0.020000 0.658468
v -1.141867 -0.000000 0.658468
v -1.235156 -0.000000 0.764844
v -1.235156 0.020000 0.764844
v -0.918347 0.020000 0.398653
v -0.918347 0.010000 0.398653
v -1.341532 -0.000000 0.858133
v -1.459174 -0.000000 0.936739
v -1.459174 0.020000 0.936739
v -1.341532 0.020000 0.858133
v -1.503495 -0.000000 1.852981
v -1.265880 -0.000000 1.772322
v -1.265880 0.020000 1.772322
v -1.503495 0.020000 1.852981
v -1.040826 -0.000000 1.661337
v -1.040826 0.020000 1.661337
v -1.000000 -0.000000 1.634058
v -0.918347 -0.000000 1.579500
v -0.918347 0.020000 1.579500
v -2.000000 0.010000 1.154865
v -2.000000 0.020000 1.154865
v -0.845135 0.020000 0.000000
v -0.918347 0.020000 0.000000
v -0.927601 0.020000 0.141184
v -0.955204 0.020000 0.279952
v -1.296963 0.020000 0.916216
v -1.422567 0.020000 1.000142
v -1.558052 0.020000 1.066956
v -1.586069 0.020000 0.999317
v -1.720048 0.020000 1.044796
v -1.858816 0.020000 1.072399
v -2.000000 0.020000 1.081653
v -1.296963 0.010000 0.916216
v -1.422567 0.010000 1.000142
v -0.955204 -0.000000 0.279952
v -1.000000 -0.000000 0.411918
v -0.918347 0.000000 0.000000
v -0.927601 -0.000000 0.141184
v -1.586069 -0.000000 0.999317
v -1.720048 -0.000000 1.044796
v -0.845135 0.010000 0.000000
v -1.858816 -0.000000 1.072399
v -2.000000 -0.000000 1.081653
v -1.558052 0.010000 1.066956
v -1.759162 0.010000 1.829350
v -2.000000 0.010000 1.845135
v -2.000000 0.020000 1.845135
v -1.759162 0.020000 1.829350
v -1.522444 0.010000 1.782264
v -1.522444 0.020000 1.782264
v -0.918347 0.010000 1.491636
v -1.077433 0.010000 1.597934
v -1.077433 0.020000 1.597934
v -0.876753 0.010000 1.463844
v -0.918347 0.020000 1.491636
v -0.876753 0.020000 1.463844
v -2.000000 -0.000000 1.918347
v -1.749605 -0.000000 1.901936
v -1.749605 0.020000 1.901936
v -2.000000 0.020000 1.918347
v -1.293897 0.010000 1.704682
v -1.293897 0.020000 1.704682
v -0.845135 0.010000 1.436116
v -0.845135 0.020000 1.436116
v -0.845135 0.020000 2.000000
v -0.845135 0.010000 2.000000
v -0.081653 0.000000 0.000000
v -0.081653 0.020000 0.000000
v -0.081653 0.020000 2.000000
v -0.081653 -0.000000 2.000000
v -0.154865 0.020000 0.000000
v -0.154865 0.020000 2.000000
v -0.154865 0.010000 0.000000
v -0.154865 0.010000 2.000000
v -0.918347 0.020000 2.000000
v -0.918347 -0.000000 2.000000
v -1.000000 0.000000 0.000000
v -1.008555 -0.000000 0.130526
v -1.034074 -0.000000 0.258819
v -1.076120 -0.000000 0.382683
v -1.133975 -0.000000 0.500000
v -1.206647 -0.000000 0.608761
v -1.292893 -0.000000 0.707107
v -1.391239 -0.000000 0.793353
v -1.500000 -0.000000 0.866025
v -1.617317 -0.000000 0.923880
v -1.741181 -0.000000 0.965926
v -1.869474 -0.000000 0.991445
v -2.000000 -0.000000 1.000000
v -1.000000 -0.000000 1.732051
v -1.234633 -0.000000 1.847759
v -1.482362 -0.000000 1.931852
v -1.738948 -0.000000 1.982890
v -2.000000 -0.000000 2.000000
v -1.000000 -0.000000 2.000000
v 0.000000 -0.000000 2.000000
v 0.000000 0.000000 0.000000
vt -80.200882 0.393701
vt -74.253487 0.393701
vt -74.253487 0.787402
vt 32.040710 0.787402
vt 32.040710 0.000000
vt 37.611061 0.000000
vt 37.611061 0.787402
vt -31.852190 0.393701
vt -31.852190 0.787402
vt -37.799568 0.787402
vt 49.131821 0.787402
vt 49.131821 0.000000
vt 54.702171 0.000000
vt -26.483841 0.787402
vt -28.283890 0.787402
vt -26.483841 0.393701
vt -28.283890 0.393701
vt 68.255234 0.787402
vt 62.684872 0.787402
vt 62.684872 0.000000
vt -65.680298 0.787402
vt -75.559502 0.787402
vt -75.559502 0.000000
vt -68.476517 0.000000
vt -64.610283 0.000000
vt -64.610283 0.787402
vt -70.409653 0.787402
vt -81.545258 0.393701
vt -75.597878 0.393701
vt -75.597878 0.787402
vt -81.545258 0.787402
vt 33.662010 5.934650
vt 33.273041 -0.000000
vt 36.155411 -0.000000
vt 34.822289 11.767760
vt 37.606449 11.021740
vt 39.396980 16.296480
vt 39.364479 22.733561
vt 41.860680 21.292370
vt 42.668659 27.678631
vt 44.955410 25.923950
vt 48.628189 30.111971
vt 46.590050 32.150108
vt 51.061531 36.071499
vt 52.816200 33.784752
vt 56.006599 39.375679
vt 57.447781 36.879471
vt 67.718407 41.133709
vt 73.181732 42.220428
vt 72.805496 45.078140
vt -62.173679 0.393701
vt -56.226292 0.393701
vt -56.226292 0.787402
vt -68.443741 0.393701
vt -62.496361 0.393701
vt -62.496361 0.787402
vt -68.443741 0.787402
vt 22.525021 0.787402
vt 22.525021 0.000000
vt 28.011681 0.000000
vt 2.364677 0.787402
vt 2.364677 0.000000
vt 7.935029 0.000000
vt 7.935029 0.787402
vt 71.776253 0.000000
vt 77.346603 0.000000
vt 77.346603 0.787402
vt 71.776253 0.787402
vt -2.176161 0.393701
vt -2.176161 0.787402
vt -8.123545 0.787402
vt -8.123545 0.393701
vt 80.012360 0.787402
vt 74.442009 0.787402
vt 74.442009 0.000000
vt 75.786392 0.000000
vt 81.356743 0.000000
vt 81.356743 0.787402
vt 75.786392 0.787402
vt -77.535118 0.393701
vt -71.587738 0.393701
vt -71.587738 0.787402
vt -67.646210 0.787402
vt -73.593590 0.787402
vt -73.593590 0.393701
vt 12.576270 0.787402
vt 12.576270 0.000000
vt 18.146620 0.000000
vt 46.530861 0.000000
vt 46.530861 0.787402
vt 40.960510 0.787402
vt 73.405083 0.787402
vt 67.834717 0.787402
vt 67.834717 0.000000
vt 73.820480 0.393701
vt 83.322647 0.393701
vt 83.322647 0.787402
vt 73.820480 0.787402
vt 81.978271 0.787402
vt 72.476097 0.787402
vt 72.476097 0.393701
vt 70.221138 0.787402
vt 60.718960 0.393701
vt 62.688461 0.393701
vt 62.688461 0.787402
vt 60.718960 0.787402
vt -73.631973 0.787402
vt -83.511169 0.787402
vt -83.511169 0.000000
vt 75.370987 0.787402
vt 65.868813 0.787402
vt 65.868813 0.393701
vt 79.312523 0.787402
vt 69.810341 0.787402
vt 69.810341 0.393701
vt -72.287582 0.787402
vt -82.166786 0.787402
vt -82.166786 0.000000
vt 0.000000 0.000000
vt 0.000000 0.787402
vt -78.740158 0.787402
vt 3.214670 78.740158
vt 3.214670 -0.000000
vt 6.097044 -0.000000
vt 6.097044 78.740158
vt 0.000000 0.787402
vt 0.000000 0.393701
vt 78.740158 0.393701
vt 78.740158 0.787402
vt 42.418598 62.910782
vt 40.977409 65.406990
vt 36.155411 62.185032
vt 49.837811 69.776451
vt 50.940842 67.113487
vt 34.517830 57.631660
vt 36.155411 58.725849
vt 36.155411 78.740158
vt 33.273041 78.740158
vt 33.273041 56.540001
vt 62.185032 0.787402
vt 62.185032 -0.000000
vt 78.740158 -0.000000
vt 62.295410 0.787402
vt 62.295410 0.393701
vt 63.951069 0.393701
vt -80.200882 0.787402
vt -12.387750 0.393701
vt -12.387750 0.787402
vt -18.335131 0.787402
vt -18.335131 0.393701
vt -48.943298 0.393701
vt -48.943298 0.787402
vt -54.890690 0.787402
vt -54.890690 0.393701
vt -37.799568 0.393701
vt 54.702171 0.787402
vt -22.336500 0.393701
vt -22.336500 0.787402
vt 68.255234 0.000000
vt -79.501030 0.000000
vt -69.621834 0.000000
vt -69.621834 0.787402
vt -79.501030 0.787402
vt -65.680298 0.000000
vt -40.771999 0.393701
vt -40.771999 0.787402
vt -46.719379 0.787402
vt -46.719379 0.393701
vt -70.409653 0.000000
vt 36.155411 15.695000
vt 36.519730 5.558425
vt 36.734009 17.399521
vt 61.340641 42.006149
vt 62.443680 39.343182
vt 66.972397 43.917870
vt 78.740158 45.467121
vt 78.740158 42.584751
vt -62.173679 0.787402
vt 56.414810 0.000000
vt 61.985161 0.000000
vt 61.985161 0.787402
vt 56.414810 0.787402
vt 28.095369 0.787402
vt 28.095369 0.000000
vt 80.012360 0.000000
vt -77.535118 0.787402
vt -67.646210 0.393701
vt 18.146620 0.787402
vt 40.960510 0.000000
vt 73.405083 0.000000
vt 81.978271 0.393701
vt 70.221138 0.393701
vt -73.631973 0.000000
vt 75.370987 0.393701
vt 79.312523 0.393701
vt -72.287582 0.000000
vt -56.540001 0.393701
vt -56.540001 0.787402
vt -78.740158 0.787402
vt -78.740158 0.393701
vt -78.740158 0.000000
vt 59.192719 72.952019
vt 59.938740 70.167862
vt 68.882103 74.879356
vt 69.258331 72.021637
vt 78.740158 75.525490
vt 78.740158 72.643112
vt 78.740158 0.787402
vt 63.951069 0.787402
vt 39.370079 0.000000
vt 37.606449 11.021740
vt 36.519730 5.558425
vt 39.370079 16.217230
vt 39.706890 5.138826
vt 39.396980 16.296480
vt 41.860680 21.292370
vt 44.644669 19.685040
vt 47.505779 23.966990
vt 44.955410 25.923950
vt 50.901310 27.838850
vt 48.628189 30.111971
vt 52.816200 33.784752
vt 54.773170 31.234381
vt 57.447781 36.879471
vt 59.055119 34.095490
vt 63.673882 36.373211
vt 62.443680 39.343182
vt 67.718407 41.133709
vt 68.550430 38.028580
vt 73.181732 42.220428
vt 73.601334 39.033260
vt 78.740158 42.584751
vt 78.740158 39.370079
vt 49.837811 69.776451
vt 59.192719 72.952019
vt 58.360710 76.057152
vt 68.462502 78.066528
vt 68.882103 74.879356
vt 78.740158 75.525490
vt 78.740158 78.740158
vt 36.155411 0.000000
vt 40.711578 10.189730
vt 42.366951 15.066280
vt 36.155411 78.740158
vt 36.155411 62.185032
vt 39.370079 64.333000
vt 39.370079 68.190979
vt 48.607601 72.746422
vt 40.977409 65.406990
vt 39.370079 78.740158
vt 0.000000 78.740158
vt 0.000000 0.000000
vt 3.214670 0.000000
vt 3.214670 78.740158
vt 33.273041 56.540001
vt 33.273041 -0.000000
vt 33.662010 5.934650
vt 36.155411 15.695000
vt 36.734009 17.399521
vt 36.155411 58.725849
vt 42.418598 62.910782
vt 39.364479 22.733561
vt 42.668659 27.678631
vt 51.061531 36.071499
vt 59.938740 70.167862
vt 50.940842 67.113487
vt 56.006599 39.375679
vt 61.340641 42.006149
vt 72.805496 45.078140
vt 78.740158 45.467121
vt 78.740158 72.643112
vt 33.273041 78.740158
vt 34.517830 57.631660
vt 34.822289 11.767760
vt 46.590050 32.150108
vt 69.258331 72.021637
vt 66.972397 43.917870
vt 6.097044 78.740158
vt 6.097044 -0.000000
vn 0.1305 0.0000 0.9914
vn 0.2588 0.0000 0.9659
vn -0.9239 0.0000 -0.3827
vn -0.9239 0.0000 -0.3826
vn -0.8660 0.0000 -0.5000
vn 0.9239 0.0000 0.3827
vn 0.8660 0.0000 0.5000
vn -0.7934 0.0000 -0.6088
vn -0.7071 0.0000 -0.7071
vn 0.9469 0.0000 0.3214
vn -0.5000 0.0000 -0.8660
vn -0.6088 0.0000 -0.7934
vn 0.5000 -0.0000 0.8660
vn 0.3827 0.0000 0.9239
vn 0.5556 -0.0000 0.8315
vn 0.0654 0.0000 0.9979
vn 0.1306 0.0000 0.9914
vn 0.0000 1.0000 0.0000
vn 0.6088 0.0000 0.7934
vn 0.7071 0.0000 0.7071
vn -0.9659 0.0000 -0.2588
vn -0.9470 0.0000 -0.3214
vn -0.9979 0.0000 -0.0654
vn -0.9914 0.0000 -0.1305
vn -0.3827 0.0000 -0.9239
vn -0.2588 0.0000 -0.9659
vn 0.9979 0.0000 0.0654
vn 0.9914 0.0000 0.1305
vn -0.1305 0.0000 -0.9914
vn -0.0654 0.0000 -0.9979
vn -0.1306 0.0000 -0.9914
vn -0.1305 -0.0000 -0.9915
vn -0.5556 0.0002 -0.8315
vn -0.5556 -0.0000 -0.8315
vn 1.0000 0.0000 0.0000
vn -1.0000 0.0000 0.0000
vn -0.7108 0.2276 -0.6656
vn -0.6593 0.0000 -0.7518
vn 0.9659 0.0000 0.2588
vn 0.7934 0.0000 0.6088
vn 0.0058 1.0000 0.0000
usemtl grey.067
s 1
f 1/1/1 2/2/2 3/3/2
f 9/4/3 10/5/4 11/6/5
f 11/6/5 12/7/5 9/4/3
f 17/8/6 18/9/6 19/10/7
f 21/11/8 22/12/8 23/13/9
f 25/14/10 18/15/6 26/16/10
f 18/15/6 17/17/6 26/16/10
f 29/18/11 30/19/12 27/20/12
f 36/21/13 33/22/14 32/23/14
f 37/24/15 38/25/15 39/26/15
f 37/24/15 39/26/15 36/27/13
f 40/28/16 1/29/1 4/30/17
f 4/30/1 41/31/16 40/28/16
f 6/32/18 42/33/18 43/34/18
f 43/34/18 7/35/18 6/32/18
f 45/36/18 9/37/18 19/38/18
f 9/37/18 12/39/18 14/40/18
f 21/41/18 24/42/18 15/43/18
f 24/42/18 46/44/18 15/43/18
f 30/45/18 47/46/18 46/44/18
f 30/45/18 29/47/18 47/46/18
f 50/48/18 51/49/18 4/50/18
f 53/51/19 16/52/20 15/53/20
f 54/54/13 53/55/19 46/56/19
f 46/56/19 47/57/13 54/54/13
f 45/58/21 55/59/21 56/60/22
f 43/61/23 57/62/23 58/63/24
f 58/63/24 44/64/24 43/61/23
f 59/65/25 60/66/26 50/67/26
f 50/67/26 49/68/25 59/65/25
f 61/69/27 42/70/27 6/71/28
f 6/71/28 5/72/28 61/69/27
f 51/73/29 50/74/26 60/75/26
f 62/76/29 63/77/30 52/78/30
f 52/78/30 51/79/29 62/76/31
f 2/80/2 64/81/14 48/82/14
f 47/83/13 48/84/14 64/85/14
f 44/86/24 58/87/24 55/88/21
f 22/89/8 21/90/8 12/91/5
f 49/92/25 29/93/11 28/94/11
f 65/95/29 66/96/30 67/97/30
f 67/97/30 68/98/29 65/95/32
f 68/99/29 70/100/26 69/101/26
f 73/102/11 74/103/12 71/104/33
f 74/103/12 75/105/34 76/106/12
f 79/107/1 80/108/16 77/109/16
f 82/110/25 73/111/11 72/112/11
f 70/113/26 82/114/25 81/115/25
f 34/116/2 79/117/17 78/118/1
f 87/119/35 88/120/35 89/121/35
f 89/122/18 88/123/18 91/124/18
f 91/124/18 92/125/18 89/122/18
f 91/126/36 93/127/36 94/128/36
f 94/128/36 92/129/36 91/126/36
f 73/130/18 36/131/18 39/132/37
f 73/130/18 33/133/18 36/131/18
f 73/130/18 82/134/18 33/133/18
f 76/135/18 75/136/18 95/137/18
f 76/135/18 95/137/18 85/138/18
f 85/138/18 84/139/18 76/135/18
f 39/140/36 38/141/36 96/142/36
f 84/143/38 83/144/38 74/145/12
f 3/3/2 4/146/17 1/1/1
f 5/147/28 6/148/28 7/149/39
f 7/149/39 8/150/39 5/147/28
f 13/151/40 14/152/40 15/153/20
f 15/153/20 16/154/20 13/151/40
f 19/10/7 20/155/7 17/8/6
f 23/13/9 24/156/9 21/11/8
f 8/157/39 7/158/39 25/14/10
f 25/14/10 26/16/10 8/157/39
f 27/20/12 28/159/11 29/18/11
f 31/160/2 32/161/14 33/162/14
f 33/162/14 34/163/2 31/160/2
f 32/23/14 35/164/13 36/21/13
f 20/165/7 19/166/7 14/167/40
f 14/167/40 13/168/40 20/165/7
f 36/27/13 35/169/13 37/24/15
f 43/34/18 25/170/18 7/35/18
f 43/34/18 44/171/18 25/170/18
f 44/171/18 18/172/18 25/170/18
f 44/171/18 45/36/18 18/172/18
f 45/36/18 19/38/18 18/172/18
f 9/37/18 14/40/18 19/38/18
f 12/39/18 21/41/18 14/40/18
f 21/41/18 15/43/18 14/40/18
f 24/42/18 30/45/18 46/44/18
f 29/47/18 48/173/18 47/46/18
f 29/47/18 49/174/18 48/173/18
f 49/174/18 3/175/18 48/173/18
f 49/174/18 50/48/18 3/175/18
f 50/48/18 4/50/18 3/175/18
f 51/49/18 41/176/18 4/50/18
f 51/49/18 52/177/18 41/176/18
f 15/53/20 46/178/19 53/51/19
f 23/179/9 27/180/12 30/181/12
f 30/181/12 24/182/9 23/179/9
f 56/60/22 9/183/3 45/58/21
f 56/60/22 10/184/4 9/183/3
f 60/75/26 62/185/31 51/73/29
f 48/82/14 3/186/2 2/80/2
f 64/85/14 54/187/13 47/83/13
f 55/88/21 45/188/21 44/86/24
f 12/91/5 11/189/5 22/89/8
f 28/94/11 59/190/25 49/92/25
f 69/101/26 65/191/32 68/99/29
f 71/104/33 72/192/11 73/102/11
f 73/102/11 75/105/34 74/103/12
f 77/109/16 78/193/1 79/107/17
f 72/112/11 81/194/25 82/110/25
f 81/115/25 69/195/26 70/113/26
f 78/118/1 31/196/2 34/116/2
f 83/197/35 84/198/35 85/199/35
f 85/199/35 86/200/35 83/197/35
f 89/121/35 90/201/35 87/119/35
f 39/132/37 75/136/18 73/130/18
f 82/134/18 34/202/18 33/133/18
f 82/134/18 70/203/18 34/202/18
f 70/203/18 79/204/18 34/202/18
f 70/203/18 68/205/18 79/204/18
f 68/205/18 80/206/18 79/204/18
f 68/205/18 67/207/18 80/206/18
f 75/136/18 39/132/37 95/137/18
f 96/142/36 95/208/36 39/140/36
f 74/145/12 76/209/12 84/143/38
usemtl grass.023
f 97/210/18 55/211/18 58/212/18
f 97/210/18 56/213/18 55/211/18
f 97/210/18 98/214/18 56/213/18
f 98/214/18 10/215/18 56/213/18
f 98/214/18 11/216/18 10/215/18
f 101/217/18 102/218/18 22/219/18
f 102/218/18 103/220/18 23/221/18
f 103/220/18 27/222/18 23/221/18
f 104/223/18 28/224/18 27/222/18
f 104/223/18 105/225/18 28/224/18
f 105/225/18 106/226/18 59/227/18
f 106/226/18 60/228/18 59/227/18
f 106/226/18 107/229/18 60/228/18
f 107/229/18 62/230/18 60/228/18
f 107/229/18 108/231/18 62/230/18
f 108/231/18 63/232/18 62/230/18
f 108/231/18 109/233/18 63/232/18
f 32/234/18 31/235/18 112/236/18
f 31/235/18 113/237/18 112/236/18
f 31/235/18 78/238/18 113/237/18
f 78/238/18 77/239/18 114/240/18
f 58/212/18 57/241/18 97/210/18
f 98/214/18 99/242/18 11/216/18
f 99/242/18 100/243/18 11/216/18
f 100/243/18 22/219/18 11/216/18
f 100/243/18 101/217/18 22/219/18
f 102/218/18 23/221/18 22/219/18
f 103/220/18 104/223/18 27/222/18
f 105/225/18 59/227/18 28/224/18
f 96/244/18 38/245/18 37/246/18
f 37/246/18 110/247/18 96/244/18
f 37/246/18 111/248/18 110/247/18
f 37/246/18 35/249/18 111/248/18
f 35/249/18 32/234/18 111/248/18
f 32/234/18 112/236/18 111/248/18
f 78/238/18 114/240/18 113/237/18
f 96/244/18 110/247/18 115/250/18
f 116/251/18 117/252/18 87/253/18
f 87/253/18 90/254/18 116/251/18
usemtl road.046
f 83/255/41 61/256/18 5/257/18
f 26/258/18 17/259/18 71/260/18
f 17/259/18 72/261/18 71/260/18
f 20/262/18 13/263/18 72/261/18
f 53/264/18 69/265/18 81/266/18
f 53/264/18 54/267/18 69/265/18
f 54/267/18 64/268/18 69/265/18
f 1/269/18 40/270/18 66/271/18
f 61/256/18 83/255/41 86/272/18
f 5/257/18 74/273/18 83/255/41
f 5/257/18 8/274/18 74/273/18
f 8/274/18 71/260/18 74/273/18
f 8/274/18 26/258/18 71/260/18
f 17/259/18 20/262/18 72/261/18
f 13/263/18 81/266/18 72/261/18
f 13/263/18 16/275/18 81/266/18
f 16/275/18 53/264/18 81/266/18
f 64/268/18 65/276/18 69/265/18
f 64/268/18 2/277/18 65/276/18
f 2/277/18 1/269/18 65/276/18
f 1/269/18 66/271/18 65/276/18
f 94/278/18 93/279/18 61/256/18
f 61/256/18 86/272/18 94/278/18
