# Blender v3.1.2 OBJ File: ''
# www.blender.org
mtllib treeLarge.mtl
o treeLarge
v 0.000000 0.301249 0.124878
v 0.108147 0.301249 0.062439
v 0.178374 0.592740 0.102984
v 0.000000 0.592740 0.205969
v 0.000000 0.592740 -0.205968
v -0.178374 0.592740 -0.102984
v -0.097261 1.437390 -0.056153
v 0.000000 1.437390 -0.112307
v 0.000000 0.301249 -0.124878
v 0.000000 0.258897 -0.074927
v -0.064888 0.258897 -0.037463
v -0.108147 0.301249 -0.062439
v -0.108147 0.301249 0.062439
v -0.178374 0.592740 0.102984
v 0.097261 1.437390 0.056154
v 0.000000 1.437390 0.112307
v 0.108147 0.301249 -0.062439
v 0.178374 0.592740 -0.102984
v 0.064888 0.258897 -0.037463
v 0.064888 0.258897 0.037463
v 0.000000 0.258897 0.074927
v 0.026468 0.258897 0.026468
v -0.026468 0.258897 0.026468
v -0.064888 0.258897 0.037463
v -0.026468 0.258897 -0.026468
v 0.026468 0.258897 -0.026468
v -0.097261 1.437390 0.056154
v -0.052112 1.506795 -0.030087
v -0.052112 1.506795 0.030087
v 0.097261 1.437390 -0.056153
v 0.052112 1.506795 -0.030087
v 0.052112 1.506795 0.030087
v 0.000000 1.506795 -0.060174
v 0.000000 1.506795 0.060174
v 0.041682 0.000000 -0.041682
v 0.041682 -0.000000 0.041682
v -0.041682 -0.000000 0.041682
v -0.041682 0.000000 -0.041682
vt -2.458223 12.527550
vt 2.458223 12.527550
vt 4.054499 24.331930
vt -2.458223 11.339530
vt -1.474934 8.956094
vt 1.474934 8.956094
vt 2.458223 11.339530
vt -2.458223 12.527550
vt 2.458223 12.527550
vt 4.054499 24.331930
vt -4.054499 22.558060
vt 4.054499 22.558060
vt 2.210769 55.964970
vt -2.458223 12.527550
vt 2.458223 12.527550
vt 4.054499 24.331930
vt 2.554660 -1.474934
vt 2.554660 1.474934
vt 0.000000 2.949867
vt -1.042044 1.042044
vt 1.042044 1.042044
vt -1.042044 -1.042044
vt -2.554660 -1.474934
vt 0.000000 -2.949867
vt -2.554660 1.474934
vt -2.210769 55.964970
vt -4.054499 22.558060
vt 4.054499 22.558060
vt -1.184530 48.608521
vt -2.210769 45.348759
vt 2.210769 45.348759
vt 1.184530 48.608521
vt -2.210769 45.348759
vt 2.210769 45.348759
vt 1.184530 48.608521
vt -2.210769 45.348759
vt 2.210769 45.348759
vt 1.184530 48.608521
vt -1.184530 48.608521
vt -2.210769 45.348759
vt 2.210769 45.348759
vt 1.184530 48.608521
vt -2.458223 11.339530
vt -1.474934 8.956094
vt 1.474934 8.956094
vt 2.458223 11.339530
vt -2.458223 11.339530
vt -1.474934 8.956094
vt -4.054499 22.558060
vt 4.054499 22.558060
vt 2.210769 55.964970
vt -4.054499 22.558060
vt 4.054499 22.558060
vt 2.210769 55.964970
vt -2.210769 55.964970
vt -2.458223 12.527550
vt 2.458223 12.527550
vt 4.054499 24.331930
vt 1.184530 48.608521
vt -1.184530 48.608521
vt -2.210769 45.348759
vt -2.210769 45.348759
vt 2.210769 45.348759
vt 1.184530 48.608521
vt 2.458223 11.339530
vt -2.458223 11.339530
vt -1.474934 8.956094
vt 1.474934 8.956094
vt 4.054499 24.331930
vt -4.054499 24.331930
vt -2.458223 12.527550
vt -4.054499 24.331930
vt -4.054499 22.558060
vt 4.054499 22.558060
vt 2.210769 55.964970
vt -2.210769 55.964970
vt -4.054499 24.331930
vt -2.210769 55.964970
vt -4.054499 24.331930
vt 1.042044 -1.042044
vt -1.474934 8.956094
vt 1.474934 8.956094
vt 2.458223 11.339530
vt -2.458223 11.339530
vt 2.210769 55.964970
vt -1.184530 48.608521
vt -2.051666 1.184530
vt -2.051666 -1.184530
vt -0.000000 -2.369060
vt -0.000000 2.369060
vt 2.051666 -1.184530
vt 2.051666 1.184530
vt -1.184530 48.608521
vt 2.458223 11.339530
vt 1.474934 8.956094
vt -2.210769 55.964970
vt -4.054499 22.558060
vt 4.054499 22.558060
vt 2.210769 55.964970
vt -2.210769 55.964970
vt -4.054499 24.331930
vt -1.474934 8.956094
vt 1.474934 8.956094
vt 2.458223 11.339530
vt -2.458223 11.339530
vt 2.458223 12.527550
vt 4.054499 24.331930
vt -4.054499 24.331930
vt -2.458223 12.527550
vt 2.210769 45.348759
vt 1.641014 -1.641014
vt 1.641014 1.641014
vt -1.641014 1.641014
vt -1.641014 -1.641014
vt -1.184530 48.608521
vt 2.458223 12.527550
vt 1.042044 10.114130
vt -1.042044 10.114130
vt -1.641014 -0.096266
vt -1.641014 -0.096266
vt 1.641014 -0.096266
vt 1.042044 10.114130
vt -1.641014 -0.096266
vt 1.641014 -0.096266
vt 1.042044 10.114130
vt -1.042044 10.114130
vt 1.641014 -0.096266
vt 1.042044 10.114130
vt -1.042044 10.114130
vt 1.641014 -0.096266
vt -1.042044 10.114130
vt -1.641014 -0.096266
vn 0.4861 -0.2342 0.8419
vn -0.3498 -0.7146 -0.6058
vn -0.4861 -0.2342 0.8419
vn 0.4977 0.0956 0.8621
vn 0.4861 -0.2342 -0.8419
vn 0.0000 -1.0000 0.0000
vn -0.9954 0.0956 0.0000
vn -0.8382 0.5453 0.0000
vn 0.8382 0.5453 0.0000
vn 0.4191 0.5453 0.7259
vn -0.4191 0.5453 0.7259
vn 0.3498 -0.7146 0.6058
vn 0.3498 -0.7146 -0.6058
vn -0.4977 0.0956 0.8621
vn 0.9954 0.0956 0.0000
vn -0.4861 -0.2342 -0.8419
vn -0.4191 0.5453 -0.7259
vn 0.4191 0.5453 -0.7259
vn 0.6996 -0.7146 0.0000
vn -0.9722 -0.2342 0.0000
vn -0.4977 0.0956 -0.8621
vn -0.3498 -0.7146 0.6058
vn -0.3498 -0.7146 0.6059
vn 0.0000 1.0000 0.0000
vn 0.3498 -0.7146 0.6059
vn 0.4977 0.0956 -0.8621
vn -0.6996 -0.7146 0.0000
vn 0.9722 -0.2342 0.0000
vn 0.0000 0.0587 -0.9983
vn 0.0000 0.0587 0.9983
vn 0.9983 0.0587 0.0000
vn -0.9983 0.0587 0.0000
usemtl grass.043
s 1
f 1/1/1 2/2/1 3/3/1
f 9/4/2 10/5/2 11/6/2
f 11/6/2 12/7/2 9/4/2
f 13/8/3 1/9/3 4/10/3
f 4/11/4 3/12/4 15/13/4
f 17/14/5 9/15/5 5/16/5
f 19/17/6 20/18/6 21/19/6
f 21/19/6 23/20/6 22/21/6
f 25/22/6 11/23/6 10/24/6
f 25/22/6 24/25/6 11/23/6
f 7/26/7 6/27/7 14/28/7
f 28/29/8 7/30/8 27/31/8
f 27/31/8 29/32/8 28/29/8
f 15/33/9 30/34/9 31/35/9
f 16/36/10 15/37/10 32/38/10
f 32/38/10 34/39/10 16/36/10
f 27/40/11 16/41/11 34/42/11
f 1/43/12 21/44/12 20/45/12
f 9/46/13 17/47/13 19/48/13
f 14/49/14 4/50/14 16/51/14
f 3/52/15 18/53/15 30/54/15
f 30/54/15 15/55/15 3/52/15
f 9/56/16 12/57/16 6/58/16
f 28/59/17 33/60/17 8/61/17
f 30/62/18 8/63/18 33/64/18
f 17/65/19 2/66/19 20/67/19
f 20/67/19 19/68/19 17/65/19
f 14/69/20 6/70/20 12/71/20
f 3/3/1 4/72/1 1/1/1
f 5/73/21 6/74/21 7/75/21
f 7/75/21 8/76/21 5/73/21
f 4/10/3 14/77/3 13/8/3
f 15/13/4 16/78/4 4/11/4
f 5/16/5 18/79/5 17/14/5
f 21/19/6 22/21/6 19/17/6
f 21/19/6 24/25/6 23/20/6
f 24/25/6 25/22/6 23/20/6
f 19/17/6 22/21/6 26/80/6
f 26/80/6 10/24/6 19/17/6
f 26/80/6 25/22/6 10/24/6
f 24/81/22 21/82/22 1/83/22
f 1/83/22 13/84/23 24/81/22
f 14/28/7 27/85/7 7/26/7
f 31/35/9 32/86/9 15/33/9
f 32/87/24 31/88/24 33/89/24
f 33/89/24 34/90/24 32/87/24
f 33/89/24 28/91/24 34/90/24
f 28/91/24 29/92/24 34/90/24
f 34/42/11 29/93/11 27/40/11
f 20/45/12 2/94/25 1/43/12
f 19/48/13 10/95/13 9/46/13
f 16/51/14 27/96/14 14/49/14
f 18/97/26 5/98/26 8/99/26
f 8/99/26 30/100/26 18/97/26
f 6/58/16 5/101/16 9/56/16
f 11/102/27 24/103/27 13/104/27
f 13/104/27 12/105/27 11/102/27
f 17/106/28 18/107/28 3/108/28
f 3/108/28 2/109/28 17/106/28
f 8/61/17 7/110/17 28/59/17
f 35/111/6 36/112/6 37/113/6
f 37/113/6 38/114/6 35/111/6
f 33/64/18 31/115/18 30/62/18
f 12/71/20 13/116/20 14/69/20
usemtl bark.005
f 25/117/29 26/118/29 35/119/29
f 37/120/30 36/121/30 22/122/30
f 36/123/31 35/124/31 26/125/31
f 26/125/31 22/126/31 36/123/31
f 37/127/32 23/128/32 25/129/32
f 35/119/29 38/130/29 25/117/29
f 22/122/30 23/131/30 37/120/30
f 25/129/32 38/132/32 37/127/32
